<svg width="371" height="45" viewBox="0 0 371 45" fill="none" xmlns="http://www.w3.org/2000/svg">
<path d="M4.37305 29.4971V40.9229H15.1396C18.1182 40.9229 21.1699 38.6279 21.1699 35.21C21.1699 32.0605 18.4844 29.4971 15.1396 29.4971H4.37305ZM4.37305 25.4932H15.6035C20.9502 25.4932 25.4668 29.5215 25.4668 35.21C25.4668 40.7764 21.1699 45 15.6035 45H0.00292969V10.0146H22.2197V14.0918H4.37305V25.4932ZM33.4746 27.4951C33.4746 34.7705 39.0654 40.9961 46.707 40.9961C54.2754 40.9961 59.915 34.9902 59.915 27.4951C59.915 19.9268 54.1533 14.0186 46.707 14.0186C39.1631 14.0186 33.4746 20 33.4746 27.4951ZM28.958 27.4951C28.958 17.3145 37.2588 9.99023 46.707 9.99023C57.2051 9.99023 64.4561 18.2422 64.4561 27.4951C64.4561 37.8711 56.0576 45 46.707 45C36.5508 45 28.958 36.9922 28.958 27.4951ZM73.8066 25.5176H84.5732C87.6006 25.5176 90.6035 23.2227 90.6035 19.8047C90.6035 16.6553 87.8936 14.0918 84.5732 14.0918H73.8066V25.5176ZM69.4365 10.0146H85.0371C90.4326 10.0391 94.9004 13.9941 94.9004 19.8047C94.9004 25.1758 90.6035 29.5215 85.0371 29.5215H73.8066V45H69.4365V10.0146ZM98.8799 10.0146H103.25V37.3828L125.491 10.0146H128.03V45H123.66V17.6318L101.419 45H98.8799V10.0146ZM163.528 31.4258L167.679 32.7197C165.481 40.2148 158.45 45 150.735 45C140.701 45 132.986 37.0654 132.986 27.4951C132.986 17.9736 140.726 9.96582 150.76 9.96582C158.523 9.96582 165.408 14.8242 167.679 22.2705L163.528 23.54C161.844 17.9492 156.717 13.9941 150.76 13.9941C143.411 13.9941 137.503 19.8779 137.503 27.4951C137.503 34.7949 143.118 40.9961 150.76 40.9961C156.741 40.9961 161.795 37.1875 163.528 31.4258ZM189.09 25.5176H199.856C202.884 25.5176 205.887 23.2227 205.887 19.8047C205.887 16.6553 203.177 14.0918 199.856 14.0918H189.09V25.5176ZM184.72 10.0146H200.32C205.716 10.0391 210.184 13.9941 210.184 19.8047C210.184 25.1758 205.887 29.5215 200.32 29.5215H189.09V45H184.72V10.0146ZM218.533 29.4971V40.9229H229.324C232.352 40.9229 235.33 38.6035 235.33 35.21C235.33 32.0605 232.645 29.4971 229.324 29.4971H218.533ZM218.533 25.4932H229.788C235.208 25.4932 239.627 29.5703 239.627 35.21C239.627 40.8008 235.354 45 229.788 45H214.163V10.0146H218.533V25.4932ZM248.05 10.0146V45H243.704V10.0146H248.05ZM284.036 24.7852L302.225 45H296.854L279.983 26.2744V45H275.638V26.2744L258.743 45H253.372L271.561 24.7852L256.229 9.96582H261.648L275.638 23.4424V9.96582H279.983V23.4424L293.948 9.96582H299.368L284.036 24.7852ZM307.522 10.0146H311.893V37.3828L334.134 10.0146H336.673V45H332.303V17.6318L310.062 45H307.522V10.0146ZM368.191 10.0146H370.73V45H366.385V17.6318L344.144 45H341.604V10.0146H345.975V37.3828L368.191 10.0146ZM359.915 0.0537109L362.942 2.8125C360.525 5.71777 358.133 8.62305 355.74 11.5283L352.713 8.76953C355.13 5.86426 357.522 2.95898 359.915 0.0537109Z" fill="white"/>
</svg>
