<svg width="783" height="54" viewBox="0 0 783 54" fill="none" xmlns="http://www.w3.org/2000/svg">
<path d="M20.1416 11.5312C20.1416 9.21191 21.6553 6.84375 24.2676 5.13477L25.4395 6.89258C24.6826 7.50293 24.0967 7.91797 22.998 9.21191C24.0234 9.48047 24.7559 10.3594 24.7559 11.4336C24.7559 12.6787 23.7305 13.7773 22.4854 13.7773C21.2646 13.7773 20.1904 12.8008 20.1416 11.5312ZM14.4043 11.5312C14.4043 9.21191 15.8936 6.84375 18.5303 5.13477L19.6777 6.89258C18.7988 7.52734 18.3105 8.01562 17.2607 9.21191C18.2861 9.48047 18.9941 10.3594 18.9941 11.4336C18.9941 12.6787 17.9688 13.7773 16.748 13.7773C15.5273 13.7773 14.4043 12.8008 14.4043 11.5312ZM52.4414 22.5176V11.0918H41.6748C38.6475 11.0918 35.6445 13.3867 35.6445 16.8047C35.6445 19.9297 38.3301 22.5176 41.6504 22.5176H52.4414ZM52.4414 26.5215H43.3838L34.3506 42H29.4189L38.6719 26.1309C34.4238 25.0811 31.3477 21.5898 31.3477 16.8047C31.3477 11.2139 35.6445 7.01465 41.2109 7.01465H56.8115V42H52.4414V26.5215ZM79.7119 37.9961H90.4785C93.5059 37.9961 96.5088 35.6523 96.5088 32.1367C96.5088 28.9141 93.8232 26.2773 90.4785 26.2773H79.7119V37.9961ZM87.4756 10.9941H79.7119V22.4932H87.7197C90.6494 22.3955 93.5059 20.1006 93.5059 16.7314C93.5059 13.582 90.8203 10.9941 87.4756 10.9941ZM97.5342 16.8047C97.5342 19.4658 96.2646 21.834 94.165 23.543C97.9004 24.7637 100.806 27.9131 100.806 32.21C100.806 37.8008 96.5088 42 90.9424 42H75.3418V7.01465H87.6953C93.0664 7.01465 97.5342 11.0674 97.5342 16.8047ZM135.034 28.4258L139.185 29.7197C136.987 37.2148 129.956 42 122.241 42C112.207 42 104.492 34.0654 104.492 24.4951C104.492 14.9736 112.231 6.96582 122.266 6.96582C130.029 6.96582 136.914 11.8242 139.185 19.2705L135.034 20.54C133.35 14.9492 128.223 10.9941 122.266 10.9941C114.917 10.9941 109.009 16.8779 109.009 24.4951C109.009 31.7949 114.624 37.9961 122.266 37.9961C128.247 37.9961 133.301 34.1875 135.034 28.4258ZM143.823 6.99023H166.992V11.0918H148.193V20.833H162.573V24.9102H148.193V37.9229H166.992V42H143.823V6.99023ZM195.41 6.96582H200.562L188.672 23.4697L202.026 42H196.851L186.084 27.083L175.342 42H170.166L183.521 23.4697L171.606 6.96582H176.782L186.084 19.8809L195.41 6.96582ZM228.174 6.99023H250.708V42H246.338V11.0918H232.52V32.1123C232.52 34.8467 231.567 37.1904 229.639 39.1191C227.71 41.0479 225.366 42 222.632 42C220.898 42 219.263 41.585 217.749 40.7061L219.873 36.8975C220.728 37.3857 221.655 37.6299 222.632 37.6299C224.17 37.6299 225.464 37.0684 226.538 35.9941C227.612 34.9199 228.174 33.626 228.174 32.0879V6.99023ZM284.912 11.0186C277.71 11.0186 271.777 16.8779 271.777 24.4951C271.777 31.6729 277.222 37.9717 284.912 37.9717C292.139 37.9717 298.047 32.0879 298.047 24.4951C298.047 17.1709 292.651 11.1406 284.912 11.0186ZM284.912 6.99023C294.482 6.99023 302.49 14.7295 302.49 24.4951C302.49 34.0654 294.678 42 284.912 42C276.099 42 268.848 35.6768 267.48 26.5459H261.133V42H256.763V6.99023H261.133V22.4688H267.48C268.628 13.6064 275.806 7.03906 284.912 6.99023ZM312.012 26.4971V37.9229H322.778C325.757 37.9229 328.809 35.6279 328.809 32.21C328.809 29.0605 326.123 26.4971 322.778 26.4971H312.012ZM312.012 22.4932H323.242C328.589 22.4932 333.105 26.5215 333.105 32.21C333.105 37.7764 328.809 42 323.242 42H307.642V7.01465H329.858V11.0918H312.012V22.4932ZM337.671 7.01465H342.041V34.3828L364.282 7.01465H366.821V42H362.451V14.6318L340.21 42H337.671V7.01465ZM381.543 6.99023H404.077V42H399.707V11.0918H385.889V32.1123C385.889 34.8467 384.937 37.1904 383.008 39.1191C381.079 41.0479 378.735 42 376.001 42C374.268 42 372.632 41.585 371.118 40.7061L373.242 36.8975C374.097 37.3857 375.024 37.6299 376.001 37.6299C377.539 37.6299 378.833 37.0684 379.907 35.9941C380.981 34.9199 381.543 33.626 381.543 32.0879V6.99023ZM409.863 46.3457L408.569 44.4414C409.521 43.7334 410.083 43.2207 411.255 41.9023C410.132 41.6094 409.326 40.6816 409.326 39.4854C409.326 38.1426 410.4 36.9463 411.816 36.9219C413.159 36.8975 414.404 37.9473 414.404 39.3633C414.404 41.3164 413.647 42.9277 412.158 44.4902C411.475 45.1738 410.815 45.7354 409.863 46.3457ZM435.498 26.4971V37.9229H446.265C449.243 37.9229 452.295 35.6279 452.295 32.21C452.295 29.0605 449.609 26.4971 446.265 26.4971H435.498ZM435.498 22.4932H446.729C452.075 22.4932 456.592 26.5215 456.592 32.21C456.592 37.7764 452.295 42 446.729 42H431.128V7.01465H453.345V11.0918H435.498V22.4932ZM461.157 6.99023H484.326V11.0918H465.527V20.833H479.907V24.9102H465.527V37.9229H484.326V42H461.157V6.99023ZM486.987 35.7988L489.722 32.7471C493.701 36.5068 497.925 37.9229 501.538 37.9473C507.031 37.9717 511.06 34.8223 511.035 31.3066C511.035 26.9365 504.028 26.2041 499.976 26.2041H494.678V22.249H499.976C503.589 22.249 509.277 21.2236 509.277 17.1953C509.277 13.167 505.249 10.8965 500.635 10.8965C497.388 10.9209 493.799 11.9951 490.649 14.29L488.159 11.2139C492.31 8.25977 496.777 6.91699 500.854 6.91699C507.935 6.91699 513.623 11.0674 513.623 17.293C513.647 20.7842 511.328 22.6885 508.057 23.8604C512.061 25.0566 515.405 27.0342 515.405 31.3066C515.405 37.0195 509.521 41.9512 501.904 42C496.826 42.0244 491.602 39.9004 486.987 35.7988ZM557.373 11.0674H544.507C544.482 19.3926 544.189 29.4756 540.063 37.8984H557.373V11.0674ZM561.743 6.99023V37.8984H566.504V49.2266H562.134V42H535.815V49.2266H531.445V37.8984H535.303C540.039 29.915 540.137 17.1465 540.21 6.99023H561.743ZM573.853 36.8975C574.707 37.3857 575.61 37.6299 576.587 37.6299C578.589 37.6543 580.396 36.6533 582.056 33.6504L583.887 30.3301L571.216 6.99023H575.952L586.255 25.96L596.631 6.99023H601.367L586.084 34.9932C584.155 38.5576 581.201 42.0244 576.587 42C574.902 42 573.315 41.585 571.729 40.7061L573.853 36.8975ZM609.717 22.5176H620.483C623.511 22.5176 626.514 20.2227 626.514 16.8047C626.514 13.6553 623.804 11.0918 620.483 11.0918H609.717V22.5176ZM605.347 7.01465H620.947C626.343 7.03906 630.811 10.9941 630.811 16.8047C630.811 22.1758 626.514 26.5215 620.947 26.5215H609.717V42H605.347V7.01465ZM646.948 6.99023H651.343L665.308 42H660.938L658.276 35.4082H639.99L637.354 42H632.959L646.948 6.99023ZM649.146 12.4834L641.577 31.3799H656.689L649.146 12.4834ZM687.891 6.96582H693.286C688.184 11.9219 683.057 16.8535 677.954 21.7852L696.143 42H690.771C685.132 35.7744 679.517 29.5 673.877 23.2744V42H669.507V6.96582H673.877V20.4424L687.891 6.96582ZM704.346 24.4951C704.346 31.7705 709.937 37.9961 717.578 37.9961C725.146 37.9961 730.786 31.9902 730.786 24.4951C730.786 16.9268 725.024 11.0186 717.578 11.0186C710.034 11.0186 704.346 17 704.346 24.4951ZM699.829 24.4951C699.829 14.3145 708.13 6.99023 717.578 6.99023C728.076 6.99023 735.327 15.2422 735.327 24.4951C735.327 34.8711 726.929 42 717.578 42C707.422 42 699.829 33.9922 699.829 24.4951ZM744.751 37.9961H755.518C758.545 37.9961 761.548 35.6523 761.548 32.1367C761.548 28.9141 758.862 26.2773 755.518 26.2773H744.751V37.9961ZM752.515 10.9941H744.751V22.4932H752.759C755.688 22.3955 758.545 20.1006 758.545 16.7314C758.545 13.582 755.859 10.9941 752.515 10.9941ZM762.573 16.8047C762.573 19.4658 761.304 21.834 759.204 23.543C762.939 24.7637 765.845 27.9131 765.845 32.21C765.845 37.8008 761.548 42 755.981 42H740.381V7.01465H752.734C758.105 7.01465 762.573 11.0674 762.573 16.8047ZM775.024 7.38086C775.024 9.67578 773.56 12.0195 770.898 13.7773L769.751 12.0195C770.703 11.3604 771.631 10.5059 772.192 9.7002C771.143 9.43164 770.435 8.55273 770.435 7.47852C770.435 6.20898 771.46 5.13477 772.705 5.13477C773.901 5.13477 775.024 6.08691 775.024 7.38086ZM780.786 7.38086C780.786 9.72461 779.248 12.0928 776.66 13.7773L775.488 12.0439C776.392 11.4336 777.148 10.7012 777.93 9.7002C776.855 9.43164 776.196 8.52832 776.196 7.47852C776.196 6.20898 777.197 5.13477 778.442 5.13477C779.639 5.13477 780.786 6.08691 780.786 7.38086Z" fill="white"/>
</svg>
