<svg width="1380" height="55" viewBox="0 0 1380 55" fill="none" xmlns="http://www.w3.org/2000/svg">
<path d="M318.642 12.4863C318.642 10.167 320.155 7.79883 322.768 6.08984L323.939 7.84766C323.183 8.45801 322.597 8.87305 321.498 10.167C322.523 10.4355 323.256 11.3145 323.256 12.3887C323.256 13.6338 322.23 14.7324 320.985 14.7324C319.765 14.7324 318.69 13.7559 318.642 12.4863ZM312.904 12.4863C312.904 10.167 314.394 7.79883 317.03 6.08984L318.178 7.84766C317.299 8.48242 316.811 8.9707 315.761 10.167C316.786 10.4355 317.494 11.3145 317.494 12.3887C317.494 13.6338 316.469 14.7324 315.248 14.7324C314.027 14.7324 312.904 13.7559 312.904 12.4863ZM350.941 23.4727V12.0469H340.175C337.147 12.0469 334.145 14.3418 334.145 17.7598C334.145 20.8848 336.83 23.4727 340.15 23.4727H350.941ZM350.941 27.4766H341.884L332.851 42.9551H327.919L337.172 27.0859C332.924 26.0361 329.848 22.5449 329.848 17.7598C329.848 12.1689 334.145 7.96973 339.711 7.96973H355.312V42.9551H350.941V27.4766ZM378.212 38.9512H388.979C392.006 38.9512 395.009 36.6074 395.009 33.0918C395.009 29.8691 392.323 27.2324 388.979 27.2324H378.212V38.9512ZM385.976 11.9492H378.212V23.4482H386.22C389.149 23.3506 392.006 21.0557 392.006 17.6865C392.006 14.5371 389.32 11.9492 385.976 11.9492ZM396.034 17.7598C396.034 20.4209 394.765 22.7891 392.665 24.498C396.4 25.7188 399.306 28.8682 399.306 33.165C399.306 38.7559 395.009 42.9551 389.442 42.9551H373.842V7.96973H386.195C391.566 7.96973 396.034 12.0225 396.034 17.7598ZM433.534 29.3809L437.685 30.6748C435.487 38.1699 428.456 42.9551 420.741 42.9551C410.707 42.9551 402.992 35.0205 402.992 25.4502C402.992 15.9287 410.731 7.9209 420.766 7.9209C428.529 7.9209 435.414 12.7793 437.685 20.2256L433.534 21.4951C431.85 15.9043 426.723 11.9492 420.766 11.9492C413.417 11.9492 407.509 17.833 407.509 25.4502C407.509 32.75 413.124 38.9512 420.766 38.9512C426.747 38.9512 431.801 35.1426 433.534 29.3809ZM442.323 7.94531H465.492V12.0469H446.693V21.7881H461.073V25.8652H446.693V38.8779H465.492V42.9551H442.323V7.94531ZM493.91 7.9209H499.062L487.172 24.4248L500.526 42.9551H495.351L484.584 28.0381L473.842 42.9551H468.666L482.021 24.4248L470.106 7.9209H475.282L484.584 20.8359L493.91 7.9209ZM526.674 7.94531H549.208V42.9551H544.838V12.0469H531.02V33.0674C531.02 35.8018 530.067 38.1455 528.139 40.0742C526.21 42.0029 523.866 42.9551 521.132 42.9551C519.398 42.9551 517.763 42.54 516.249 41.6611L518.373 37.8525C519.228 38.3408 520.155 38.585 521.132 38.585C522.67 38.585 523.964 38.0234 525.038 36.9492C526.112 35.875 526.674 34.5811 526.674 33.043V7.94531ZM583.412 11.9736C576.21 11.9736 570.277 17.833 570.277 25.4502C570.277 32.6279 575.722 38.9268 583.412 38.9268C590.639 38.9268 596.547 33.043 596.547 25.4502C596.547 18.126 591.151 12.0957 583.412 11.9736ZM583.412 7.94531C592.982 7.94531 600.99 15.6846 600.99 25.4502C600.99 35.0205 593.178 42.9551 583.412 42.9551C574.599 42.9551 567.348 36.6318 565.98 27.501H559.633V42.9551H555.263V7.94531H559.633V23.4238H565.98C567.128 14.5615 574.306 7.99414 583.412 7.94531ZM610.512 27.4521V38.8779H621.278C624.257 38.8779 627.309 36.583 627.309 33.165C627.309 30.0156 624.623 27.4521 621.278 27.4521H610.512ZM610.512 23.4482H621.742C627.089 23.4482 631.605 27.4766 631.605 33.165C631.605 38.7314 627.309 42.9551 621.742 42.9551H606.142V7.96973H628.358V12.0469H610.512V23.4482ZM636.171 7.96973H640.541V35.3379L662.782 7.96973H665.321V42.9551H660.951V15.5869L638.71 42.9551H636.171V7.96973ZM680.043 7.94531H702.577V42.9551H698.207V12.0469H684.389V33.0674C684.389 35.8018 683.437 38.1455 681.508 40.0742C679.579 42.0029 677.235 42.9551 674.501 42.9551C672.768 42.9551 671.132 42.54 669.618 41.6611L671.742 37.8525C672.597 38.3408 673.524 38.585 674.501 38.585C676.039 38.585 677.333 38.0234 678.407 36.9492C679.481 35.875 680.043 34.5811 680.043 33.043V7.94531ZM708.363 47.3008L707.069 45.3965C708.021 44.6885 708.583 44.1758 709.755 42.8574C708.632 42.5645 707.826 41.6367 707.826 40.4404C707.826 39.0977 708.9 37.9014 710.316 37.877C711.659 37.8525 712.904 38.9023 712.904 40.3184C712.904 42.2715 712.147 43.8828 710.658 45.4453C709.975 46.1289 709.315 46.6904 708.363 47.3008ZM733.998 27.4521V38.8779H744.765C747.743 38.8779 750.795 36.583 750.795 33.165C750.795 30.0156 748.109 27.4521 744.765 27.4521H733.998ZM733.998 23.4482H745.229C750.575 23.4482 755.092 27.4766 755.092 33.165C755.092 38.7314 750.795 42.9551 745.229 42.9551H729.628V7.96973H751.845V12.0469H733.998V23.4482ZM759.657 7.94531H782.826V12.0469H764.027V21.7881H778.407V25.8652H764.027V38.8779H782.826V42.9551H759.657V7.94531ZM785.487 36.7539L788.222 33.7021C792.201 37.4619 796.425 38.8779 800.038 38.9023C805.531 38.9268 809.56 35.7773 809.535 32.2617C809.535 27.8916 802.528 27.1592 798.476 27.1592H793.178V23.2041H798.476C802.089 23.2041 807.777 22.1787 807.777 18.1504C807.777 14.1221 803.749 11.8516 799.135 11.8516C795.888 11.876 792.299 12.9502 789.149 15.2451L786.659 12.1689C790.81 9.21484 795.277 7.87207 799.354 7.87207C806.435 7.87207 812.123 12.0225 812.123 18.248C812.147 21.7393 809.828 23.6436 806.557 24.8154C810.561 26.0117 813.905 27.9893 813.905 32.2617C813.905 37.9746 808.021 42.9062 800.404 42.9551C795.326 42.9795 790.102 40.8555 785.487 36.7539ZM855.873 12.0225H843.007C842.982 20.3477 842.689 30.4307 838.563 38.8535H855.873V12.0225ZM860.243 7.94531V38.8535H865.004V50.1816H860.634V42.9551H834.315V50.1816H829.945V38.8535H833.803C838.539 30.8701 838.637 18.1016 838.71 7.94531H860.243ZM872.353 37.8525C873.207 38.3408 874.11 38.585 875.087 38.585C877.089 38.6094 878.896 37.6084 880.556 34.6055L882.387 31.2852L869.716 7.94531H874.452L884.755 26.915L895.131 7.94531H899.867L884.584 35.9482C882.655 39.5127 879.701 42.9795 875.087 42.9551C873.402 42.9551 871.815 42.54 870.229 41.6611L872.353 37.8525ZM908.217 23.4727H918.983C922.011 23.4727 925.014 21.1777 925.014 17.7598C925.014 14.6104 922.304 12.0469 918.983 12.0469H908.217V23.4727ZM903.847 7.96973H919.447C924.843 7.99414 929.311 11.9492 929.311 17.7598C929.311 23.1309 925.014 27.4766 919.447 27.4766H908.217V42.9551H903.847V7.96973ZM945.448 7.94531H949.843L963.808 42.9551H959.438L956.776 36.3633H938.49L935.854 42.9551H931.459L945.448 7.94531ZM947.646 13.4385L940.077 32.335H955.189L947.646 13.4385ZM986.391 7.9209H991.786C986.684 12.877 981.557 17.8086 976.454 22.7402L994.643 42.9551H989.271C983.632 36.7295 978.017 30.4551 972.377 24.2295V42.9551H968.007V7.9209H972.377V21.3975L986.391 7.9209ZM1002.85 25.4502C1002.85 32.7256 1008.44 38.9512 1016.08 38.9512C1023.65 38.9512 1029.29 32.9453 1029.29 25.4502C1029.29 17.8818 1023.52 11.9736 1016.08 11.9736C1008.53 11.9736 1002.85 17.9551 1002.85 25.4502ZM998.329 25.4502C998.329 15.2695 1006.63 7.94531 1016.08 7.94531C1026.58 7.94531 1033.83 16.1973 1033.83 25.4502C1033.83 35.8262 1025.43 42.9551 1016.08 42.9551C1005.92 42.9551 998.329 34.9473 998.329 25.4502ZM1043.25 38.9512H1054.02C1057.04 38.9512 1060.05 36.6074 1060.05 33.0918C1060.05 29.8691 1057.36 27.2324 1054.02 27.2324H1043.25V38.9512ZM1051.01 11.9492H1043.25V23.4482H1051.26C1054.19 23.3506 1057.04 21.0557 1057.04 17.6865C1057.04 14.5371 1054.36 11.9492 1051.01 11.9492ZM1061.07 17.7598C1061.07 20.4209 1059.8 22.7891 1057.7 24.498C1061.44 25.7188 1064.34 28.8682 1064.34 33.165C1064.34 38.7559 1060.05 42.9551 1054.48 42.9551H1038.88V7.96973H1051.23C1056.61 7.96973 1061.07 12.0225 1061.07 17.7598ZM1073.52 8.33594C1073.52 10.6309 1072.06 12.9746 1069.4 14.7324L1068.25 12.9746C1069.2 12.3154 1070.13 11.4609 1070.69 10.6553C1069.64 10.3867 1068.93 9.50781 1068.93 8.43359C1068.93 7.16406 1069.96 6.08984 1071.21 6.08984C1072.4 6.08984 1073.52 7.04199 1073.52 8.33594ZM1079.29 8.33594C1079.29 10.6797 1077.75 13.0479 1075.16 14.7324L1073.99 12.999C1074.89 12.3887 1075.65 11.6562 1076.43 10.6553C1075.36 10.3867 1074.7 9.4834 1074.7 8.43359C1074.7 7.16406 1075.7 6.08984 1076.94 6.08984C1078.14 6.08984 1079.29 7.04199 1079.29 8.33594Z" fill="white"/>
</svg>
