<svg width="1000" height="236" viewBox="0 0 1000 236" fill="none" xmlns="http://www.w3.org/2000/svg">
<path d="M7.77539 11.5312C7.77539 9.21191 9.28906 6.84375 11.9014 5.13477L13.0732 6.89258C12.3164 7.50293 11.7305 7.91797 10.6318 9.21191C11.6572 9.48047 12.3896 10.3594 12.3896 11.4336C12.3896 12.6787 11.3643 13.7773 10.1191 13.7773C8.89844 13.7773 7.82422 12.8008 7.77539 11.5312ZM2.03809 11.5312C2.03809 9.21191 3.52734 6.84375 6.16406 5.13477L7.31152 6.89258C6.43262 7.52734 5.94434 8.01562 4.89453 9.21191C5.91992 9.48047 6.62793 10.3594 6.62793 11.4336C6.62793 12.6787 5.60254 13.7773 4.38184 13.7773C3.16113 13.7773 2.03809 12.8008 2.03809 11.5312ZM18.1758 6.99023H45.7637V42H41.3936V11.0918H22.5459V42H18.1758V6.99023ZM55.2607 24.4951C55.2607 31.7705 60.8516 37.9961 68.4932 37.9961C76.0615 37.9961 81.7012 31.9902 81.7012 24.4951C81.7012 16.9268 75.9395 11.0186 68.4932 11.0186C60.9492 11.0186 55.2607 17 55.2607 24.4951ZM50.7441 24.4951C50.7441 14.3145 59.0449 6.99023 68.4932 6.99023C78.9912 6.99023 86.2422 15.2422 86.2422 24.4951C86.2422 34.8711 77.8438 42 68.4932 42C58.3369 42 50.7441 33.9922 50.7441 24.4951ZM89.3672 6.99023H119.689V11.0674H106.701V42H102.331V11.0674H89.3672V6.99023ZM127.282 24.4951C127.282 31.7705 132.873 37.9961 140.515 37.9961C148.083 37.9961 153.723 31.9902 153.723 24.4951C153.723 16.9268 147.961 11.0186 140.515 11.0186C132.971 11.0186 127.282 17 127.282 24.4951ZM122.766 24.4951C122.766 14.3145 131.066 6.99023 140.515 6.99023C151.013 6.99023 158.264 15.2422 158.264 24.4951C158.264 34.8711 149.865 42 140.515 42C130.358 42 122.766 33.9922 122.766 24.4951ZM195.764 7.01465H198.303V42H193.933V14.8271L180.773 31.6729L167.614 14.8271V42H163.244V7.01465H165.783L180.773 25.96L195.764 7.01465ZM206.408 36.8975C207.263 37.3857 208.166 37.6299 209.143 37.6299C211.145 37.6543 212.951 36.6533 214.611 33.6504L216.442 30.3301L203.771 6.99023H208.508L218.811 25.96L229.187 6.99023H233.923L218.64 34.9932C216.711 38.5576 213.757 42.0244 209.143 42C207.458 42 205.871 41.585 204.284 40.7061L206.408 36.8975ZM269.665 6.99023H274.035V42H269.665V27.1074C266.564 28.2061 263.293 28.9873 259.826 28.9873C252.795 28.9873 248.327 25.7158 248.327 18.416V7.06348H252.673V17.8057C252.673 22.7129 255.383 24.9102 260.314 24.9102C263.464 24.9102 266.442 24.1533 269.665 22.8594V6.99023ZM278.234 6.99023H308.557V11.0674H295.568V42H291.198V11.0674H278.234V6.99023ZM316.149 24.4951C316.149 31.7705 321.74 37.9961 329.382 37.9961C336.95 37.9961 342.59 31.9902 342.59 24.4951C342.59 16.9268 336.828 11.0186 329.382 11.0186C321.838 11.0186 316.149 17 316.149 24.4951ZM311.633 24.4951C311.633 14.3145 319.934 6.99023 329.382 6.99023C339.88 6.99023 347.131 15.2422 347.131 24.4951C347.131 34.8711 338.732 42 329.382 42C319.226 42 311.633 33.9922 311.633 24.4951ZM368.957 37.9961H379.724C382.751 37.9961 385.754 35.6523 385.754 32.1367C385.754 28.9141 383.068 26.2773 379.724 26.2773H368.957V37.9961ZM376.721 10.9941H368.957V22.4932H376.965C379.895 22.3955 382.751 20.1006 382.751 16.7314C382.751 13.582 380.065 10.9941 376.721 10.9941ZM386.779 16.8047C386.779 19.4658 385.51 21.834 383.41 23.543C387.146 24.7637 390.051 27.9131 390.051 32.21C390.051 37.8008 385.754 42 380.188 42H364.587V7.01465H376.94C382.312 7.01465 386.779 11.0674 386.779 16.8047ZM424.279 28.4258L428.43 29.7197C426.232 37.2148 419.201 42 411.486 42C401.452 42 393.737 34.0654 393.737 24.4951C393.737 14.9736 401.477 6.96582 411.511 6.96582C419.274 6.96582 426.159 11.8242 428.43 19.2705L424.279 20.54C422.595 14.9492 417.468 10.9941 411.511 10.9941C404.162 10.9941 398.254 16.8779 398.254 24.4951C398.254 31.7949 403.869 37.9961 411.511 37.9961C417.492 37.9961 422.546 34.1875 424.279 28.4258ZM433.068 6.99023H456.237V11.0918H437.438V20.833H451.818V24.9102H437.438V37.9229H456.237V42H433.068V6.99023ZM505.285 7.01465H507.824V42H503.454V14.8271L490.295 31.6729L477.136 14.8271V42H472.766V7.01465H475.305L490.295 25.96L505.285 7.01465ZM513.879 6.99023H537.048V11.0918H518.249V20.833H532.629V24.9102H518.249V37.9229H537.048V42H513.879V6.99023ZM564.367 6.99023H568.762V42H564.367V24.9102H545.544V42H541.174V6.99023H545.544V20.8086H564.367V6.99023ZM596.716 22.5176V11.0918H585.949C582.922 11.0918 579.919 13.3867 579.919 16.8047C579.919 19.9297 582.604 22.5176 585.925 22.5176H596.716ZM596.716 26.5215H587.658L578.625 42H573.693L582.946 26.1309C578.698 25.0811 575.622 21.5898 575.622 16.8047C575.622 11.2139 579.919 7.01465 585.485 7.01465H601.086V42H596.716V26.5215ZM628.21 6.99023H650.744V42H646.374V11.0918H632.556V32.1123C632.556 34.8467 631.604 37.1904 629.675 39.1191C627.746 41.0479 625.402 42 622.668 42C620.935 42 619.299 41.585 617.785 40.7061L619.909 36.8975C620.764 37.3857 621.691 37.6299 622.668 37.6299C624.206 37.6299 625.5 37.0684 626.574 35.9941C627.648 34.9199 628.21 33.626 628.21 32.0879V6.99023ZM684.948 11.0186C677.746 11.0186 671.813 16.8779 671.813 24.4951C671.813 31.6729 677.258 37.9717 684.948 37.9717C692.175 37.9717 698.083 32.0879 698.083 24.4951C698.083 17.1709 692.688 11.1406 684.948 11.0186ZM684.948 6.99023C694.519 6.99023 702.526 14.7295 702.526 24.4951C702.526 34.0654 694.714 42 684.948 42C676.135 42 668.884 35.6768 667.517 26.5459H661.169V42H656.799V6.99023H661.169V22.4688H667.517C668.664 13.6064 675.842 7.03906 684.948 6.99023ZM712.048 26.4971V37.9229H722.814C725.793 37.9229 728.845 35.6279 728.845 32.21C728.845 29.0605 726.159 26.4971 722.814 26.4971H712.048ZM712.048 22.4932H723.278C728.625 22.4932 733.142 26.5215 733.142 32.21C733.142 37.7764 728.845 42 723.278 42H707.678V7.01465H729.895V11.0918H712.048V22.4932ZM737.707 7.01465H742.077V34.3828L764.318 7.01465H766.857V42H762.487V14.6318L740.246 42H737.707V7.01465ZM781.579 6.99023H804.113V42H799.743V11.0918H785.925V32.1123C785.925 34.8467 784.973 37.1904 783.044 39.1191C781.115 41.0479 778.771 42 776.037 42C774.304 42 772.668 41.585 771.154 40.7061L773.278 36.8975C774.133 37.3857 775.061 37.6299 776.037 37.6299C777.575 37.6299 778.869 37.0684 779.943 35.9941C781.018 34.9199 781.579 33.626 781.579 32.0879V6.99023ZM810.168 7.01465H814.538V34.3828L836.779 7.01465H839.318V42H834.948V14.6318L812.707 42H810.168V7.01465ZM845.104 46.3457L843.811 44.4414C844.763 43.7334 845.324 43.2207 846.496 41.9023C845.373 41.6094 844.567 40.6816 844.567 39.4854C844.567 38.1426 845.642 36.9463 847.058 36.9219C848.4 36.8975 849.646 37.9473 849.646 39.3633C849.646 41.3164 848.889 42.9277 847.399 44.4902C846.716 45.1738 846.057 45.7354 845.104 46.3457ZM114.904 65.0674H102.038C102.014 73.3926 101.721 83.4756 97.5947 91.8984H114.904V65.0674ZM119.274 60.9902V91.8984H124.035V103.227H119.665V96H93.3467V103.227H88.9766V91.8984H92.834C97.5703 83.915 97.668 71.1465 97.7412 60.9902H119.274ZM129.333 60.9902H152.502V65.0918H133.703V74.833H148.083V78.9102H133.703V91.9229H152.502V96H129.333V60.9902ZM160.998 76.5176H171.765C174.792 76.5176 177.795 74.2227 177.795 70.8047C177.795 67.6553 175.085 65.0918 171.765 65.0918H160.998V76.5176ZM156.628 61.0146H172.229C177.624 61.0391 182.092 64.9941 182.092 70.8047C182.092 76.1758 177.795 80.5215 172.229 80.5215H160.998V96H156.628V61.0146ZM186.071 60.9902H209.24V65.0918H190.441V74.833H204.821V78.9102H190.441V91.9229H209.24V96H186.071V60.9902ZM217.81 91.9961H228.576C231.604 91.9961 234.606 89.6523 234.606 86.1367C234.606 82.9141 231.921 80.2773 228.576 80.2773H217.81V91.9961ZM225.573 64.9941H217.81V76.4932H225.817C228.747 76.3955 231.604 74.1006 231.604 70.7314C231.604 67.582 228.918 64.9941 225.573 64.9941ZM235.632 70.8047C235.632 73.4658 234.362 75.834 232.263 77.543C235.998 78.7637 238.903 81.9131 238.903 86.21C238.903 91.8008 234.606 96 229.04 96H213.439V61.0146H225.793C231.164 61.0146 235.632 65.0674 235.632 70.8047ZM255.847 60.9902H260.241L274.206 96H269.836L267.175 89.4082H248.889L246.252 96H241.857L255.847 60.9902ZM258.044 66.4834L250.476 85.3799H265.588L258.044 66.4834ZM323.327 61.0146H325.866V96H321.496V68.8271L308.337 85.6729L295.178 68.8271V96H290.808V61.0146H293.347L308.337 79.96L323.327 61.0146ZM335.363 78.4951C335.363 85.7705 340.954 91.9961 348.596 91.9961C356.164 91.9961 361.804 85.9902 361.804 78.4951C361.804 70.9268 356.042 65.0186 348.596 65.0186C341.052 65.0186 335.363 71 335.363 78.4951ZM330.847 78.4951C330.847 68.3145 339.147 60.9902 348.596 60.9902C359.094 60.9902 366.345 69.2422 366.345 78.4951C366.345 88.8711 357.946 96 348.596 96C338.439 96 330.847 87.9922 330.847 78.4951ZM379.992 60.9902H402.526V96H398.156V65.0918H384.338V86.1123C384.338 88.8467 383.386 91.1904 381.457 93.1191C379.528 95.0479 377.185 96 374.45 96C372.717 96 371.081 95.585 369.567 94.7061L371.691 90.8975C372.546 91.3857 373.474 91.6299 374.45 91.6299C375.988 91.6299 377.282 91.0684 378.356 89.9941C379.431 88.9199 379.992 87.626 379.992 86.0879V60.9902ZM427.941 60.9902H432.312V96H427.941V81.1074C424.841 82.2061 421.569 82.9873 418.103 82.9873C411.071 82.9873 406.604 79.7158 406.604 72.416V61.0635H410.949V71.8057C410.949 76.7129 413.659 78.9102 418.591 78.9102C421.74 78.9102 424.719 78.1533 427.941 76.8594V60.9902ZM450.524 60.9902H454.919L468.884 96H464.514L461.853 89.4082H443.566L440.93 96H436.535L450.524 60.9902ZM452.722 66.4834L445.153 85.3799H460.266L452.722 66.4834ZM481.75 60.9902H504.284V96H499.914V65.0918H486.096V86.1123C486.096 88.8467 485.144 91.1904 483.215 93.1191C481.286 95.0479 478.942 96 476.208 96C474.475 96 472.839 95.585 471.325 94.7061L473.449 90.8975C474.304 91.3857 475.231 91.6299 476.208 91.6299C477.746 91.6299 479.04 91.0684 480.114 89.9941C481.188 88.9199 481.75 87.626 481.75 86.0879V60.9902ZM510.339 61.0146H514.709V88.3828L536.95 61.0146H539.489V96H535.119V68.6318L512.878 96H510.339V61.0146ZM582.629 65.0674H569.763C569.738 73.3926 569.445 83.4756 565.319 91.8984H582.629V65.0674ZM586.999 60.9902V91.8984H591.76V103.227H587.39V96H561.071V103.227H556.701V91.8984H560.559C565.295 83.915 565.393 71.1465 565.466 60.9902H586.999ZM600.5 78.4951C600.5 85.7705 606.091 91.9961 613.732 91.9961C621.301 91.9961 626.94 85.9902 626.94 78.4951C626.94 70.9268 621.179 65.0186 613.732 65.0186C606.188 65.0186 600.5 71 600.5 78.4951ZM595.983 78.4951C595.983 68.3145 604.284 60.9902 613.732 60.9902C624.23 60.9902 631.481 69.2422 631.481 78.4951C631.481 88.8711 623.083 96 613.732 96C603.576 96 595.983 87.9922 595.983 78.4951ZM650.915 90.8975C651.77 91.3857 652.673 91.6299 653.649 91.6299C655.651 91.6543 657.458 90.6533 659.118 87.6504L660.949 84.3301L648.278 60.9902H653.015L663.317 79.96L673.693 60.9902H678.43L663.146 88.9932C661.218 92.5576 658.264 96.0244 653.649 96C651.965 96 650.378 95.585 648.791 94.7061L650.915 90.8975ZM680.554 60.9902H710.876V65.0674H697.888V96H693.518V65.0674H680.554V60.9902ZM719.396 76.5176H730.163C733.19 76.5176 736.193 74.2227 736.193 70.8047C736.193 67.6553 733.483 65.0918 730.163 65.0918H719.396V76.5176ZM715.026 61.0146H730.627C736.022 61.0391 740.49 64.9941 740.49 70.8047C740.49 76.1758 736.193 80.5215 730.627 80.5215H719.396V96H715.026V61.0146ZM756.628 60.9902H761.022L774.987 96H770.617L767.956 89.4082H749.67L747.033 96H742.639L756.628 60.9902ZM758.825 66.4834L751.257 85.3799H766.369L758.825 66.4834Z" fill="white"/>
<path d="M133.398 145.781H138.013L131.348 155.718L138.013 165.654H133.398L126.855 155.718L133.398 145.781ZM142.236 145.781H146.851L140.186 155.718L146.851 165.654H142.236L135.693 155.718L142.236 145.781ZM176.904 139.067H164.038C164.014 147.393 163.721 157.476 159.595 165.898H176.904V139.067ZM181.274 134.99V165.898H186.035V177.227H181.665V170H155.347V177.227H150.977V165.898H154.834C159.57 157.915 159.668 145.146 159.741 134.99H181.274ZM191.333 134.99H214.502V139.092H195.703V148.833H210.083V152.91H195.703V165.923H214.502V170H191.333V134.99ZM223.071 165.996H233.838C236.865 165.996 239.868 163.652 239.868 160.137C239.868 156.914 237.183 154.277 233.838 154.277H223.071V165.996ZM230.835 138.994H223.071V150.493H231.079C234.009 150.396 236.865 148.101 236.865 144.731C236.865 141.582 234.18 138.994 230.835 138.994ZM240.894 144.805C240.894 147.466 239.624 149.834 237.524 151.543C241.26 152.764 244.165 155.913 244.165 160.21C244.165 165.801 239.868 170 234.302 170H218.701V135.015H231.055C236.426 135.015 240.894 139.067 240.894 144.805ZM252.393 152.495C252.393 159.771 257.983 165.996 265.625 165.996C273.193 165.996 278.833 159.99 278.833 152.495C278.833 144.927 273.071 139.019 265.625 139.019C258.081 139.019 252.393 145 252.393 152.495ZM247.876 152.495C247.876 142.314 256.177 134.99 265.625 134.99C276.123 134.99 283.374 143.242 283.374 152.495C283.374 162.871 274.976 170 265.625 170C255.469 170 247.876 161.992 247.876 152.495ZM307.715 134.99H312.085V170H307.715V155.107C304.614 156.206 301.343 156.987 297.876 156.987C290.845 156.987 286.377 153.716 286.377 146.416V135.063H290.723V145.806C290.723 150.713 293.433 152.91 298.364 152.91C301.514 152.91 304.492 152.153 307.715 150.859V134.99ZM336.523 134.966H341.919C336.816 139.922 331.689 144.854 326.587 149.785L344.775 170H339.404C333.765 163.774 328.149 157.5 322.51 151.274V170H318.14V134.966H322.51V148.442L336.523 134.966ZM349.536 134.99H372.705V139.092H353.906V148.833H368.286V152.91H353.906V165.923H372.705V170H349.536V134.99ZM421.753 135.015H424.292V170H419.922V142.827L406.763 159.673L393.604 142.827V170H389.233V135.015H391.772L406.763 153.96L421.753 135.015ZM430.347 134.99H453.516V139.092H434.717V148.833H449.097V152.91H434.717V165.923H453.516V170H430.347V134.99ZM482.324 139.067H469.458C469.434 147.393 469.141 157.476 465.015 165.898H482.324V139.067ZM486.694 134.99V165.898H491.455V177.227H487.085V170H460.767V177.227H456.396V165.898H460.254C464.99 157.915 465.088 145.146 465.161 134.99H486.694ZM501.196 165.996H511.963C514.99 165.996 517.993 163.652 517.993 160.137C517.993 156.914 515.308 154.277 511.963 154.277H501.196V165.996ZM508.96 138.994H501.196V150.493H509.204C512.134 150.396 514.99 148.101 514.99 144.731C514.99 141.582 512.305 138.994 508.96 138.994ZM519.019 144.805C519.019 147.466 517.749 149.834 515.649 151.543C519.385 152.764 522.29 155.913 522.29 160.21C522.29 165.801 517.993 170 512.427 170H496.826V135.015H509.18C514.551 135.015 519.019 139.067 519.019 144.805ZM527.075 134.99H550.244V139.092H531.445V148.833H545.825V152.91H531.445V165.923H550.244V170H527.075V134.99ZM579.053 139.067H566.187C566.162 147.393 565.869 157.476 561.743 165.898H579.053V139.067ZM583.423 134.99V165.898H588.184V177.227H583.813V170H557.495V177.227H553.125V165.898H556.982C561.719 157.915 561.816 145.146 561.89 134.99H583.423ZM615.381 150.518V139.092H604.614C601.587 139.092 598.584 141.387 598.584 144.805C598.584 147.93 601.27 150.518 604.59 150.518H615.381ZM615.381 154.521H606.323L597.29 170H592.358L601.611 154.131C597.363 153.081 594.287 149.59 594.287 144.805C594.287 139.214 598.584 135.015 604.15 135.015H619.751V170H615.381V154.521ZM638.208 134.99H665.796V170H661.426V139.092H642.578V170H638.208V134.99ZM675.293 152.495C675.293 159.771 680.884 165.996 688.525 165.996C696.094 165.996 701.733 159.99 701.733 152.495C701.733 144.927 695.972 139.019 688.525 139.019C680.981 139.019 675.293 145 675.293 152.495ZM670.776 152.495C670.776 142.314 679.077 134.99 688.525 134.99C699.023 134.99 706.274 143.242 706.274 152.495C706.274 162.871 697.876 170 688.525 170C678.369 170 670.776 161.992 670.776 152.495ZM735.938 139.067H723.071C723.047 147.393 722.754 157.476 718.628 165.898H735.938V139.067ZM740.308 134.99V165.898H745.068V177.227H740.698V170H714.38V177.227H710.01V165.898H713.867C718.604 157.915 718.701 145.146 718.774 134.99H740.308ZM762.524 134.99H766.919L780.884 170H776.514L773.853 163.408H755.566L752.93 170H748.535L762.524 134.99ZM764.722 140.483L757.153 159.38H772.266L764.722 140.483ZM789.453 150.518H800.22C803.247 150.518 806.25 148.223 806.25 144.805C806.25 141.655 803.54 139.092 800.22 139.092H789.453V150.518ZM785.083 135.015H800.684C806.079 135.039 810.547 138.994 810.547 144.805C810.547 150.176 806.25 154.521 800.684 154.521H789.453V170H785.083V135.015ZM814.526 135.015H818.896V162.383L841.138 135.015H843.677V170H839.307V142.632L817.065 170H814.526V135.015ZM858.398 134.99H880.933V170H876.562V139.092H862.744V160.112C862.744 162.847 861.792 165.19 859.863 167.119C857.935 169.048 855.591 170 852.856 170C851.123 170 849.487 169.585 847.974 168.706L850.098 164.897C850.952 165.386 851.88 165.63 852.856 165.63C854.395 165.63 855.688 165.068 856.763 163.994C857.837 162.92 858.398 161.626 858.398 160.088V134.99ZM886.987 135.015H891.357V162.383L913.599 135.015H916.138V170H911.768V142.632L889.526 170H886.987V135.015ZM930.42 145.781H935.034L941.577 155.718L935.034 165.654H930.42L937.061 155.718L930.42 145.781ZM921.558 145.781H926.172L932.715 155.718L926.172 165.654H921.558L928.223 155.718L921.558 145.781ZM945.752 174.346L944.458 172.441C945.41 171.733 945.972 171.221 947.144 169.902C946.021 169.609 945.215 168.682 945.215 167.485C945.215 166.143 946.289 164.946 947.705 164.922C949.048 164.897 950.293 165.947 950.293 167.363C950.293 169.316 949.536 170.928 948.047 172.49C947.363 173.174 946.704 173.735 945.752 174.346ZM966.943 157.744V153.691H997.021V157.744H966.943ZM113.013 188.99H140.601V224H136.23V193.092H117.383V224H113.013V188.99ZM146.655 188.99H169.824V193.092H151.025V202.833H165.405V206.91H151.025V219.923H169.824V224H146.655V188.99ZM178.32 204.518H189.087C192.114 204.518 195.117 202.223 195.117 198.805C195.117 195.655 192.407 193.092 189.087 193.092H178.32V204.518ZM173.95 189.015H189.551C194.946 189.039 199.414 192.994 199.414 198.805C199.414 204.176 195.117 208.521 189.551 208.521H178.32V224H173.95V189.015ZM203.394 188.99H226.562V193.092H207.764V202.833H222.144V206.91H207.764V219.923H226.562V224H203.394V188.99ZM255.371 193.067H242.505C242.48 201.393 242.188 211.476 238.062 219.898H255.371V193.067ZM259.741 188.99V219.898H264.502V231.227H260.132V224H233.813V231.227H229.443V219.898H233.301C238.037 211.915 238.135 199.146 238.208 188.99H259.741ZM311.646 210.426L315.796 211.72C313.599 219.215 306.567 224 298.853 224C288.818 224 281.104 216.065 281.104 206.495C281.104 196.974 288.843 188.966 298.877 188.966C306.641 188.966 313.525 193.824 315.796 201.271L311.646 202.54C309.961 196.949 304.834 192.994 298.877 192.994C291.528 192.994 285.62 198.878 285.62 206.495C285.62 213.795 291.235 219.996 298.877 219.996C304.858 219.996 309.912 216.188 311.646 210.426ZM343.628 188.99H348.022V224H343.628V206.91H324.805V224H320.435V188.99H324.805V202.809H343.628V188.99ZM357.52 206.495C357.52 213.771 363.11 219.996 370.752 219.996C378.32 219.996 383.96 213.99 383.96 206.495C383.96 198.927 378.198 193.019 370.752 193.019C363.208 193.019 357.52 199 357.52 206.495ZM353.003 206.495C353.003 196.314 361.304 188.99 370.752 188.99C381.25 188.99 388.501 197.242 388.501 206.495C388.501 216.871 380.103 224 370.752 224C360.596 224 353.003 215.992 353.003 206.495ZM426.001 189.015H428.54V224H424.17V196.827L411.011 213.673L397.852 196.827V224H393.481V189.015H396.021L411.011 207.96L426.001 189.015ZM466.357 188.99H470.728V224H466.357V209.107C463.257 210.206 459.985 210.987 456.519 210.987C449.487 210.987 445.02 207.716 445.02 200.416V189.063H449.365V199.806C449.365 204.713 452.075 206.91 457.007 206.91C460.156 206.91 463.135 206.153 466.357 204.859V188.99ZM476.782 189.015H481.152V216.383L503.394 189.015H505.933V224H501.562V196.632L479.321 224H476.782V189.015ZM510.132 188.99H540.454V193.067H527.466V224H523.096V193.067H510.132V188.99ZM556.763 188.99H561.157L575.122 224H570.752L568.091 217.408H549.805L547.168 224H542.773L556.763 188.99ZM558.96 194.483L551.392 213.38H566.504L558.96 194.483ZM587.988 188.99H610.522V224H606.152V193.092H592.334V214.112C592.334 216.847 591.382 219.19 589.453 221.119C587.524 223.048 585.181 224 582.446 224C580.713 224 579.077 223.585 577.563 222.706L579.688 218.897C580.542 219.386 581.47 219.63 582.446 219.63C583.984 219.63 585.278 219.068 586.353 217.994C587.427 216.92 587.988 215.626 587.988 214.088V188.99ZM628.735 188.99H633.13L647.095 224H642.725L640.063 217.408H621.777L619.141 224H614.746L628.735 188.99ZM630.933 194.483L623.364 213.38H638.477L630.933 194.483ZM696.216 189.015H698.755V224H694.385V196.827L681.226 213.673L668.066 196.827V224H663.696V189.015H666.235L681.226 207.96L696.216 189.015ZM728.003 188.99H732.397V224H728.003V206.91H709.18V224H704.81V188.99H709.18V202.809H728.003V188.99ZM738.452 188.99H761.621V193.092H742.822V202.833H757.202V206.91H742.822V219.923H761.621V224H738.452V188.99ZM807.593 210.426L811.743 211.72C809.546 219.215 802.515 224 794.8 224C784.766 224 777.051 216.065 777.051 206.495C777.051 196.974 784.79 188.966 794.824 188.966C802.588 188.966 809.473 193.824 811.743 201.271L807.593 202.54C805.908 196.949 800.781 192.994 794.824 192.994C787.476 192.994 781.567 198.878 781.567 206.495C781.567 213.795 787.183 219.996 794.824 219.996C800.806 219.996 805.859 216.188 807.593 210.426ZM816.382 188.99H839.551V193.092H820.752V202.833H835.132V206.91H820.752V219.923H839.551V224H816.382V188.99ZM873.12 210.426L877.271 211.72C875.073 219.215 868.042 224 860.327 224C850.293 224 842.578 216.065 842.578 206.495C842.578 196.974 850.317 188.966 860.352 188.966C868.115 188.966 875 193.824 877.271 201.271L873.12 202.54C871.436 196.949 866.309 192.994 860.352 192.994C853.003 192.994 847.095 198.878 847.095 206.495C847.095 213.795 852.71 219.996 860.352 219.996C866.333 219.996 871.387 216.188 873.12 210.426ZM880.054 188.99H910.376V193.067H897.388V224H893.018V193.067H880.054V188.99ZM918.896 204.518H929.663C932.69 204.518 935.693 202.223 935.693 198.805C935.693 195.655 932.983 193.092 929.663 193.092H918.896V204.518ZM914.526 189.015H930.127C935.522 189.039 939.99 192.994 939.99 198.805C939.99 204.176 935.693 208.521 930.127 208.521H918.896V224H914.526V189.015ZM956.128 188.99H960.522L974.487 224H970.117L967.456 217.408H949.17L946.533 224H942.139L956.128 188.99ZM958.325 194.483L950.757 213.38H965.869L958.325 194.483ZM982.788 221.461C982.788 222.804 981.689 224 980.249 224C978.906 224 977.71 222.901 977.71 221.461C977.71 220.143 978.809 218.922 980.249 218.922C981.592 218.922 982.788 220.021 982.788 221.461ZM992.261 189.381C992.261 191.676 990.796 194.02 988.135 195.777L986.987 194.02C987.939 193.36 988.867 192.506 989.429 191.7C988.379 191.432 987.671 190.553 987.671 189.479C987.671 188.209 988.696 187.135 989.941 187.135C991.138 187.135 992.261 188.087 992.261 189.381ZM998.022 189.381C998.022 191.725 996.484 194.093 993.896 195.777L992.725 194.044C993.628 193.434 994.385 192.701 995.166 191.7C994.092 191.432 993.433 190.528 993.433 189.479C993.433 188.209 994.434 187.135 995.679 187.135C996.875 187.135 998.022 188.087 998.022 189.381Z" fill="white"/>
</svg>
