<svg width="1380" height="217" viewBox="0 0 1380 217" fill="none" xmlns="http://www.w3.org/2000/svg">
<path d="M7.77539 12.5166C7.77539 10.1973 9.28906 7.8291 11.9014 6.12012L13.0732 7.87793C12.3164 8.48828 11.7305 8.90332 10.6318 10.1973C11.6572 10.4658 12.3896 11.3447 12.3896 12.4189C12.3896 13.6641 11.3643 14.7627 10.1191 14.7627C8.89844 14.7627 7.82422 13.7861 7.77539 12.5166ZM2.03809 12.5166C2.03809 10.1973 3.52734 7.8291 6.16406 6.12012L7.31152 7.87793C6.43262 8.5127 5.94434 9.00098 4.89453 10.1973C5.91992 10.4658 6.62793 11.3447 6.62793 12.4189C6.62793 13.6641 5.60254 14.7627 4.38184 14.7627C3.16113 14.7627 2.03809 13.7861 2.03809 12.5166ZM18.1758 7.97559H45.7637V42.9854H41.3936V12.0771H22.5459V42.9854H18.1758V7.97559ZM55.2607 25.4805C55.2607 32.7559 60.8516 38.9814 68.4932 38.9814C76.0615 38.9814 81.7012 32.9756 81.7012 25.4805C81.7012 17.9121 75.9395 12.0039 68.4932 12.0039C60.9492 12.0039 55.2607 17.9854 55.2607 25.4805ZM50.7441 25.4805C50.7441 15.2998 59.0449 7.97559 68.4932 7.97559C78.9912 7.97559 86.2422 16.2275 86.2422 25.4805C86.2422 35.8564 77.8438 42.9854 68.4932 42.9854C58.3369 42.9854 50.7441 34.9775 50.7441 25.4805ZM89.3672 7.97559H119.689V12.0527H106.701V42.9854H102.331V12.0527H89.3672V7.97559ZM127.282 25.4805C127.282 32.7559 132.873 38.9814 140.515 38.9814C148.083 38.9814 153.723 32.9756 153.723 25.4805C153.723 17.9121 147.961 12.0039 140.515 12.0039C132.971 12.0039 127.282 17.9854 127.282 25.4805ZM122.766 25.4805C122.766 15.2998 131.066 7.97559 140.515 7.97559C151.013 7.97559 158.264 16.2275 158.264 25.4805C158.264 35.8564 149.865 42.9854 140.515 42.9854C130.358 42.9854 122.766 34.9775 122.766 25.4805ZM195.764 8H198.303V42.9854H193.933V15.8125L180.773 32.6582L167.614 15.8125V42.9854H163.244V8H165.783L180.773 26.9453L195.764 8ZM206.408 37.8828C207.263 38.3711 208.166 38.6152 209.143 38.6152C211.145 38.6396 212.951 37.6387 214.611 34.6357L216.442 31.3154L203.771 7.97559H208.508L218.811 26.9453L229.187 7.97559H233.923L218.64 35.9785C216.711 39.543 213.757 43.0098 209.143 42.9854C207.458 42.9854 205.871 42.5703 204.284 41.6914L206.408 37.8828ZM269.665 7.97559H274.035V42.9854H269.665V28.0928C266.564 29.1914 263.293 29.9727 259.826 29.9727C252.795 29.9727 248.327 26.7012 248.327 19.4014V8.04883H252.673V18.791C252.673 23.6982 255.383 25.8955 260.314 25.8955C263.464 25.8955 266.442 25.1387 269.665 23.8447V7.97559ZM278.234 7.97559H308.557V12.0527H295.568V42.9854H291.198V12.0527H278.234V7.97559ZM316.149 25.4805C316.149 32.7559 321.74 38.9814 329.382 38.9814C336.95 38.9814 342.59 32.9756 342.59 25.4805C342.59 17.9121 336.828 12.0039 329.382 12.0039C321.838 12.0039 316.149 17.9854 316.149 25.4805ZM311.633 25.4805C311.633 15.2998 319.934 7.97559 329.382 7.97559C339.88 7.97559 347.131 16.2275 347.131 25.4805C347.131 35.8564 338.732 42.9854 329.382 42.9854C319.226 42.9854 311.633 34.9775 311.633 25.4805ZM368.957 38.9814H379.724C382.751 38.9814 385.754 36.6377 385.754 33.1221C385.754 29.8994 383.068 27.2627 379.724 27.2627H368.957V38.9814ZM376.721 11.9795H368.957V23.4785H376.965C379.895 23.3809 382.751 21.0859 382.751 17.7168C382.751 14.5674 380.065 11.9795 376.721 11.9795ZM386.779 17.79C386.779 20.4512 385.51 22.8193 383.41 24.5283C387.146 25.749 390.051 28.8984 390.051 33.1953C390.051 38.7861 385.754 42.9854 380.188 42.9854H364.587V8H376.94C382.312 8 386.779 12.0527 386.779 17.79ZM424.279 29.4111L428.43 30.7051C426.232 38.2002 419.201 42.9854 411.486 42.9854C401.452 42.9854 393.737 35.0508 393.737 25.4805C393.737 15.959 401.477 7.95117 411.511 7.95117C419.274 7.95117 426.159 12.8096 428.43 20.2559L424.279 21.5254C422.595 15.9346 417.468 11.9795 411.511 11.9795C404.162 11.9795 398.254 17.8633 398.254 25.4805C398.254 32.7803 403.869 38.9814 411.511 38.9814C417.492 38.9814 422.546 35.1729 424.279 29.4111ZM433.068 7.97559H456.237V12.0771H437.438V21.8184H451.818V25.8955H437.438V38.9082H456.237V42.9854H433.068V7.97559ZM505.285 8H507.824V42.9854H503.454V15.8125L490.295 32.6582L477.136 15.8125V42.9854H472.766V8H475.305L490.295 26.9453L505.285 8ZM513.879 7.97559H537.048V12.0771H518.249V21.8184H532.629V25.8955H518.249V38.9082H537.048V42.9854H513.879V7.97559ZM564.367 7.97559H568.762V42.9854H564.367V25.8955H545.544V42.9854H541.174V7.97559H545.544V21.7939H564.367V7.97559ZM596.716 23.5029V12.0771H585.949C582.922 12.0771 579.919 14.3721 579.919 17.79C579.919 20.915 582.604 23.5029 585.925 23.5029H596.716ZM596.716 27.5068H587.658L578.625 42.9854H573.693L582.946 27.1162C578.698 26.0664 575.622 22.5752 575.622 17.79C575.622 12.1992 579.919 8 585.485 8H601.086V42.9854H596.716V27.5068ZM628.21 7.97559H650.744V42.9854H646.374V12.0771H632.556V33.0977C632.556 35.832 631.604 38.1758 629.675 40.1045C627.746 42.0332 625.402 42.9854 622.668 42.9854C620.935 42.9854 619.299 42.5703 617.785 41.6914L619.909 37.8828C620.764 38.3711 621.691 38.6152 622.668 38.6152C624.206 38.6152 625.5 38.0537 626.574 36.9795C627.648 35.9053 628.21 34.6113 628.21 33.0732V7.97559ZM684.948 12.0039C677.746 12.0039 671.813 17.8633 671.813 25.4805C671.813 32.6582 677.258 38.957 684.948 38.957C692.175 38.957 698.083 33.0732 698.083 25.4805C698.083 18.1562 692.688 12.126 684.948 12.0039ZM684.948 7.97559C694.519 7.97559 702.526 15.7148 702.526 25.4805C702.526 35.0508 694.714 42.9854 684.948 42.9854C676.135 42.9854 668.884 36.6621 667.517 27.5312H661.169V42.9854H656.799V7.97559H661.169V23.4541H667.517C668.664 14.5918 675.842 8.02441 684.948 7.97559ZM712.048 27.4824V38.9082H722.814C725.793 38.9082 728.845 36.6133 728.845 33.1953C728.845 30.0459 726.159 27.4824 722.814 27.4824H712.048ZM712.048 23.4785H723.278C728.625 23.4785 733.142 27.5068 733.142 33.1953C733.142 38.7617 728.845 42.9854 723.278 42.9854H707.678V8H729.895V12.0771H712.048V23.4785ZM737.707 8H742.077V35.3682L764.318 8H766.857V42.9854H762.487V15.6172L740.246 42.9854H737.707V8ZM781.579 7.97559H804.113V42.9854H799.743V12.0771H785.925V33.0977C785.925 35.832 784.973 38.1758 783.044 40.1045C781.115 42.0332 778.771 42.9854 776.037 42.9854C774.304 42.9854 772.668 42.5703 771.154 41.6914L773.278 37.8828C774.133 38.3711 775.061 38.6152 776.037 38.6152C777.575 38.6152 778.869 38.0537 779.943 36.9795C781.018 35.9053 781.579 34.6113 781.579 33.0732V7.97559ZM810.168 8H814.538V35.3682L836.779 8H839.318V42.9854H834.948V15.6172L812.707 42.9854H810.168V8ZM845.104 47.3311L843.811 45.4268C844.763 44.7188 845.324 44.2061 846.496 42.8877C845.373 42.5947 844.567 41.667 844.567 40.4707C844.567 39.1279 845.642 37.9316 847.058 37.9072C848.4 37.8828 849.646 38.9326 849.646 40.3486C849.646 42.3018 848.889 43.9131 847.399 45.4756C846.716 46.1592 846.057 46.7207 845.104 47.3311ZM114.904 66.0527H102.038C102.014 74.3779 101.721 84.4609 97.5947 92.8838H114.904V66.0527ZM119.274 61.9756V92.8838H124.035V104.212H119.665V96.9854H93.3467V104.212H88.9766V92.8838H92.834C97.5703 84.9004 97.668 72.1318 97.7412 61.9756H119.274ZM129.333 61.9756H152.502V66.0771H133.703V75.8184H148.083V79.8955H133.703V92.9082H152.502V96.9854H129.333V61.9756ZM160.998 77.5029H171.765C174.792 77.5029 177.795 75.208 177.795 71.79C177.795 68.6406 175.085 66.0771 171.765 66.0771H160.998V77.5029ZM156.628 62H172.229C177.624 62.0244 182.092 65.9795 182.092 71.79C182.092 77.1611 177.795 81.5068 172.229 81.5068H160.998V96.9854H156.628V62ZM186.071 61.9756H209.24V66.0771H190.441V75.8184H204.821V79.8955H190.441V92.9082H209.24V96.9854H186.071V61.9756ZM217.81 92.9814H228.576C231.604 92.9814 234.606 90.6377 234.606 87.1221C234.606 83.8994 231.921 81.2627 228.576 81.2627H217.81V92.9814ZM225.573 65.9795H217.81V77.4785H225.817C228.747 77.3809 231.604 75.0859 231.604 71.7168C231.604 68.5674 228.918 65.9795 225.573 65.9795ZM235.632 71.79C235.632 74.4512 234.362 76.8193 232.263 78.5283C235.998 79.749 238.903 82.8984 238.903 87.1953C238.903 92.7861 234.606 96.9854 229.04 96.9854H213.439V62H225.793C231.164 62 235.632 66.0527 235.632 71.79ZM255.847 61.9756H260.241L274.206 96.9854H269.836L267.175 90.3936H248.889L246.252 96.9854H241.857L255.847 61.9756ZM258.044 67.4688L250.476 86.3652H265.588L258.044 67.4688ZM323.327 62H325.866V96.9854H321.496V69.8125L308.337 86.6582L295.178 69.8125V96.9854H290.808V62H293.347L308.337 80.9453L323.327 62ZM335.363 79.4805C335.363 86.7559 340.954 92.9814 348.596 92.9814C356.164 92.9814 361.804 86.9756 361.804 79.4805C361.804 71.9121 356.042 66.0039 348.596 66.0039C341.052 66.0039 335.363 71.9854 335.363 79.4805ZM330.847 79.4805C330.847 69.2998 339.147 61.9756 348.596 61.9756C359.094 61.9756 366.345 70.2275 366.345 79.4805C366.345 89.8564 357.946 96.9854 348.596 96.9854C338.439 96.9854 330.847 88.9775 330.847 79.4805ZM379.992 61.9756H402.526V96.9854H398.156V66.0771H384.338V87.0977C384.338 89.832 383.386 92.1758 381.457 94.1045C379.528 96.0332 377.185 96.9854 374.45 96.9854C372.717 96.9854 371.081 96.5703 369.567 95.6914L371.691 91.8828C372.546 92.3711 373.474 92.6152 374.45 92.6152C375.988 92.6152 377.282 92.0537 378.356 90.9795C379.431 89.9053 379.992 88.6113 379.992 87.0732V61.9756ZM427.941 61.9756H432.312V96.9854H427.941V82.0928C424.841 83.1914 421.569 83.9727 418.103 83.9727C411.071 83.9727 406.604 80.7012 406.604 73.4014V62.0488H410.949V72.791C410.949 77.6982 413.659 79.8955 418.591 79.8955C421.74 79.8955 424.719 79.1387 427.941 77.8447V61.9756ZM450.524 61.9756H454.919L468.884 96.9854H464.514L461.853 90.3936H443.566L440.93 96.9854H436.535L450.524 61.9756ZM452.722 67.4688L445.153 86.3652H460.266L452.722 67.4688ZM481.75 61.9756H504.284V96.9854H499.914V66.0771H486.096V87.0977C486.096 89.832 485.144 92.1758 483.215 94.1045C481.286 96.0332 478.942 96.9854 476.208 96.9854C474.475 96.9854 472.839 96.5703 471.325 95.6914L473.449 91.8828C474.304 92.3711 475.231 92.6152 476.208 92.6152C477.746 92.6152 479.04 92.0537 480.114 90.9795C481.188 89.9053 481.75 88.6113 481.75 87.0732V61.9756ZM510.339 62H514.709V89.3682L536.95 62H539.489V96.9854H535.119V69.6172L512.878 96.9854H510.339V62ZM582.629 66.0527H569.763C569.738 74.3779 569.445 84.4609 565.319 92.8838H582.629V66.0527ZM586.999 61.9756V92.8838H591.76V104.212H587.39V96.9854H561.071V104.212H556.701V92.8838H560.559C565.295 84.9004 565.393 72.1318 565.466 61.9756H586.999ZM600.5 79.4805C600.5 86.7559 606.091 92.9814 613.732 92.9814C621.301 92.9814 626.94 86.9756 626.94 79.4805C626.94 71.9121 621.179 66.0039 613.732 66.0039C606.188 66.0039 600.5 71.9854 600.5 79.4805ZM595.983 79.4805C595.983 69.2998 604.284 61.9756 613.732 61.9756C624.23 61.9756 631.481 70.2275 631.481 79.4805C631.481 89.8564 623.083 96.9854 613.732 96.9854C603.576 96.9854 595.983 88.9775 595.983 79.4805ZM650.915 91.8828C651.77 92.3711 652.673 92.6152 653.649 92.6152C655.651 92.6396 657.458 91.6387 659.118 88.6357L660.949 85.3154L648.278 61.9756H653.015L663.317 80.9453L673.693 61.9756H678.43L663.146 89.9785C661.218 93.543 658.264 97.0098 653.649 96.9854C651.965 96.9854 650.378 96.5703 648.791 95.6914L650.915 91.8828ZM680.554 61.9756H710.876V66.0527H697.888V96.9854H693.518V66.0527H680.554V61.9756ZM719.396 77.5029H730.163C733.19 77.5029 736.193 75.208 736.193 71.79C736.193 68.6406 733.483 66.0771 730.163 66.0771H719.396V77.5029ZM715.026 62H730.627C736.022 62.0244 740.49 65.9795 740.49 71.79C740.49 77.1611 736.193 81.5068 730.627 81.5068H719.396V96.9854H715.026V62ZM756.628 61.9756H761.022L774.987 96.9854H770.617L767.956 90.3936H749.67L747.033 96.9854H742.639L756.628 61.9756ZM758.825 67.4688L751.257 86.3652H766.369L758.825 67.4688Z" fill="white"/>
<path d="M513.398 126.767H518.013L511.348 136.703L518.013 146.64H513.398L506.855 136.703L513.398 126.767ZM522.236 126.767H526.851L520.186 136.703L526.851 146.64H522.236L515.693 136.703L522.236 126.767ZM556.904 120.053H544.038C544.014 128.378 543.721 138.461 539.595 146.884H556.904V120.053ZM561.274 115.976V146.884H566.035V158.212H561.665V150.985H535.347V158.212H530.977V146.884H534.834C539.57 138.9 539.668 126.132 539.741 115.976H561.274ZM571.333 115.976H594.502V120.077H575.703V129.818H590.083V133.896H575.703V146.908H594.502V150.985H571.333V115.976ZM603.071 146.981H613.838C616.865 146.981 619.868 144.638 619.868 141.122C619.868 137.899 617.183 135.263 613.838 135.263H603.071V146.981ZM610.835 119.979H603.071V131.479H611.079C614.009 131.381 616.865 129.086 616.865 125.717C616.865 122.567 614.18 119.979 610.835 119.979ZM620.894 125.79C620.894 128.451 619.624 130.819 617.524 132.528C621.26 133.749 624.165 136.898 624.165 141.195C624.165 146.786 619.868 150.985 614.302 150.985H598.701V116H611.055C616.426 116 620.894 120.053 620.894 125.79ZM632.393 133.48C632.393 140.756 637.983 146.981 645.625 146.981C653.193 146.981 658.833 140.976 658.833 133.48C658.833 125.912 653.071 120.004 645.625 120.004C638.081 120.004 632.393 125.985 632.393 133.48ZM627.876 133.48C627.876 123.3 636.177 115.976 645.625 115.976C656.123 115.976 663.374 124.228 663.374 133.48C663.374 143.856 654.976 150.985 645.625 150.985C635.469 150.985 627.876 142.978 627.876 133.48ZM687.715 115.976H692.085V150.985H687.715V136.093C684.614 137.191 681.343 137.973 677.876 137.973C670.845 137.973 666.377 134.701 666.377 127.401V116.049H670.723V126.791C670.723 131.698 673.433 133.896 678.364 133.896C681.514 133.896 684.492 133.139 687.715 131.845V115.976ZM716.523 115.951H721.919C716.816 120.907 711.689 125.839 706.587 130.771L724.775 150.985H719.404C713.765 144.76 708.149 138.485 702.51 132.26V150.985H698.14V115.951H702.51V129.428L716.523 115.951ZM729.536 115.976H752.705V120.077H733.906V129.818H748.286V133.896H733.906V146.908H752.705V150.985H729.536V115.976ZM801.753 116H804.292V150.985H799.922V123.812L786.763 140.658L773.604 123.812V150.985H769.233V116H771.772L786.763 134.945L801.753 116ZM810.347 115.976H833.516V120.077H814.717V129.818H829.097V133.896H814.717V146.908H833.516V150.985H810.347V115.976ZM862.324 120.053H849.458C849.434 128.378 849.141 138.461 845.015 146.884H862.324V120.053ZM866.694 115.976V146.884H871.455V158.212H867.085V150.985H840.767V158.212H836.396V146.884H840.254C844.99 138.9 845.088 126.132 845.161 115.976H866.694ZM881.196 146.981H891.963C894.99 146.981 897.993 144.638 897.993 141.122C897.993 137.899 895.308 135.263 891.963 135.263H881.196V146.981ZM888.96 119.979H881.196V131.479H889.204C892.134 131.381 894.99 129.086 894.99 125.717C894.99 122.567 892.305 119.979 888.96 119.979ZM899.019 125.79C899.019 128.451 897.749 130.819 895.649 132.528C899.385 133.749 902.29 136.898 902.29 141.195C902.29 146.786 897.993 150.985 892.427 150.985H876.826V116H889.18C894.551 116 899.019 120.053 899.019 125.79ZM907.075 115.976H930.244V120.077H911.445V129.818H925.825V133.896H911.445V146.908H930.244V150.985H907.075V115.976ZM959.053 120.053H946.187C946.162 128.378 945.869 138.461 941.743 146.884H959.053V120.053ZM963.423 115.976V146.884H968.184V158.212H963.813V150.985H937.495V158.212H933.125V146.884H936.982C941.719 138.9 941.816 126.132 941.89 115.976H963.423ZM995.381 131.503V120.077H984.614C981.587 120.077 978.584 122.372 978.584 125.79C978.584 128.915 981.27 131.503 984.59 131.503H995.381ZM995.381 135.507H986.323L977.29 150.985H972.358L981.611 135.116C977.363 134.066 974.287 130.575 974.287 125.79C974.287 120.199 978.584 116 984.15 116H999.751V150.985H995.381V135.507ZM1018.21 115.976H1045.8V150.985H1041.43V120.077H1022.58V150.985H1018.21V115.976ZM1055.29 133.48C1055.29 140.756 1060.88 146.981 1068.53 146.981C1076.09 146.981 1081.73 140.976 1081.73 133.48C1081.73 125.912 1075.97 120.004 1068.53 120.004C1060.98 120.004 1055.29 125.985 1055.29 133.48ZM1050.78 133.48C1050.78 123.3 1059.08 115.976 1068.53 115.976C1079.02 115.976 1086.27 124.228 1086.27 133.48C1086.27 143.856 1077.88 150.985 1068.53 150.985C1058.37 150.985 1050.78 142.978 1050.78 133.48ZM1115.94 120.053H1103.07C1103.05 128.378 1102.75 138.461 1098.63 146.884H1115.94V120.053ZM1120.31 115.976V146.884H1125.07V158.212H1120.7V150.985H1094.38V158.212H1090.01V146.884H1093.87C1098.6 138.9 1098.7 126.132 1098.77 115.976H1120.31ZM1142.52 115.976H1146.92L1160.88 150.985H1156.51L1153.85 144.394H1135.57L1132.93 150.985H1128.54L1142.52 115.976ZM1144.72 121.469L1137.15 140.365H1152.27L1144.72 121.469ZM1169.45 131.503H1180.22C1183.25 131.503 1186.25 129.208 1186.25 125.79C1186.25 122.641 1183.54 120.077 1180.22 120.077H1169.45V131.503ZM1165.08 116H1180.68C1186.08 116.024 1190.55 119.979 1190.55 125.79C1190.55 131.161 1186.25 135.507 1180.68 135.507H1169.45V150.985H1165.08V116ZM1194.53 116H1198.9V143.368L1221.14 116H1223.68V150.985H1219.31V123.617L1197.07 150.985H1194.53V116ZM1238.4 115.976H1260.93V150.985H1256.56V120.077H1242.74V141.098C1242.74 143.832 1241.79 146.176 1239.86 148.104C1237.93 150.033 1235.59 150.985 1232.86 150.985C1231.12 150.985 1229.49 150.57 1227.97 149.691L1230.1 145.883C1230.95 146.371 1231.88 146.615 1232.86 146.615C1234.39 146.615 1235.69 146.054 1236.76 144.979C1237.84 143.905 1238.4 142.611 1238.4 141.073V115.976ZM1266.99 116H1271.36V143.368L1293.6 116H1296.14V150.985H1291.77V123.617L1269.53 150.985H1266.99V116ZM1310.42 126.767H1315.03L1321.58 136.703L1315.03 146.64H1310.42L1317.06 136.703L1310.42 126.767ZM1301.56 126.767H1306.17L1312.71 136.703L1306.17 146.64H1301.56L1308.22 136.703L1301.56 126.767ZM1325.75 155.331L1324.46 153.427C1325.41 152.719 1325.97 152.206 1327.14 150.888C1326.02 150.595 1325.21 149.667 1325.21 148.471C1325.21 147.128 1326.29 145.932 1327.71 145.907C1329.05 145.883 1330.29 146.933 1330.29 148.349C1330.29 150.302 1329.54 151.913 1328.05 153.476C1327.36 154.159 1326.7 154.721 1325.75 155.331ZM1346.94 138.729V134.677H1377.02V138.729H1346.94ZM493.013 169.976H520.601V204.985H516.23V174.077H497.383V204.985H493.013V169.976ZM526.655 169.976H549.824V174.077H531.025V183.818H545.405V187.896H531.025V200.908H549.824V204.985H526.655V169.976ZM558.32 185.503H569.087C572.114 185.503 575.117 183.208 575.117 179.79C575.117 176.641 572.407 174.077 569.087 174.077H558.32V185.503ZM553.95 170H569.551C574.946 170.024 579.414 173.979 579.414 179.79C579.414 185.161 575.117 189.507 569.551 189.507H558.32V204.985H553.95V170ZM583.394 169.976H606.562V174.077H587.764V183.818H602.144V187.896H587.764V200.908H606.562V204.985H583.394V169.976ZM635.371 174.053H622.505C622.48 182.378 622.188 192.461 618.062 200.884H635.371V174.053ZM639.741 169.976V200.884H644.502V212.212H640.132V204.985H613.813V212.212H609.443V200.884H613.301C618.037 192.9 618.135 180.132 618.208 169.976H639.741ZM691.646 191.411L695.796 192.705C693.599 200.2 686.567 204.985 678.853 204.985C668.818 204.985 661.104 197.051 661.104 187.48C661.104 177.959 668.843 169.951 678.877 169.951C686.641 169.951 693.525 174.81 695.796 182.256L691.646 183.525C689.961 177.935 684.834 173.979 678.877 173.979C671.528 173.979 665.62 179.863 665.62 187.48C665.62 194.78 671.235 200.981 678.877 200.981C684.858 200.981 689.912 197.173 691.646 191.411ZM723.628 169.976H728.022V204.985H723.628V187.896H704.805V204.985H700.435V169.976H704.805V183.794H723.628V169.976ZM737.52 187.48C737.52 194.756 743.11 200.981 750.752 200.981C758.32 200.981 763.96 194.976 763.96 187.48C763.96 179.912 758.198 174.004 750.752 174.004C743.208 174.004 737.52 179.985 737.52 187.48ZM733.003 187.48C733.003 177.3 741.304 169.976 750.752 169.976C761.25 169.976 768.501 178.228 768.501 187.48C768.501 197.856 760.103 204.985 750.752 204.985C740.596 204.985 733.003 196.978 733.003 187.48ZM806.001 170H808.54V204.985H804.17V177.812L791.011 194.658L777.852 177.812V204.985H773.481V170H776.021L791.011 188.945L806.001 170ZM846.357 169.976H850.728V204.985H846.357V190.093C843.257 191.191 839.985 191.973 836.519 191.973C829.487 191.973 825.02 188.701 825.02 181.401V170.049H829.365V180.791C829.365 185.698 832.075 187.896 837.007 187.896C840.156 187.896 843.135 187.139 846.357 185.845V169.976ZM856.782 170H861.152V197.368L883.394 170H885.933V204.985H881.562V177.617L859.321 204.985H856.782V170ZM890.132 169.976H920.454V174.053H907.466V204.985H903.096V174.053H890.132V169.976ZM936.763 169.976H941.157L955.122 204.985H950.752L948.091 198.394H929.805L927.168 204.985H922.773L936.763 169.976ZM938.96 175.469L931.392 194.365H946.504L938.96 175.469ZM967.988 169.976H990.522V204.985H986.152V174.077H972.334V195.098C972.334 197.832 971.382 200.176 969.453 202.104C967.524 204.033 965.181 204.985 962.446 204.985C960.713 204.985 959.077 204.57 957.563 203.691L959.688 199.883C960.542 200.371 961.47 200.615 962.446 200.615C963.984 200.615 965.278 200.054 966.353 198.979C967.427 197.905 967.988 196.611 967.988 195.073V169.976ZM1008.74 169.976H1013.13L1027.09 204.985H1022.72L1020.06 198.394H1001.78L999.141 204.985H994.746L1008.74 169.976ZM1010.93 175.469L1003.36 194.365H1018.48L1010.93 175.469ZM1076.22 170H1078.75V204.985H1074.38V177.812L1061.23 194.658L1048.07 177.812V204.985H1043.7V170H1046.24L1061.23 188.945L1076.22 170ZM1108 169.976H1112.4V204.985H1108V187.896H1089.18V204.985H1084.81V169.976H1089.18V183.794H1108V169.976ZM1118.45 169.976H1141.62V174.077H1122.82V183.818H1137.2V187.896H1122.82V200.908H1141.62V204.985H1118.45V169.976ZM1187.59 191.411L1191.74 192.705C1189.55 200.2 1182.51 204.985 1174.8 204.985C1164.77 204.985 1157.05 197.051 1157.05 187.48C1157.05 177.959 1164.79 169.951 1174.82 169.951C1182.59 169.951 1189.47 174.81 1191.74 182.256L1187.59 183.525C1185.91 177.935 1180.78 173.979 1174.82 173.979C1167.48 173.979 1161.57 179.863 1161.57 187.48C1161.57 194.78 1167.18 200.981 1174.82 200.981C1180.81 200.981 1185.86 197.173 1187.59 191.411ZM1196.38 169.976H1219.55V174.077H1200.75V183.818H1215.13V187.896H1200.75V200.908H1219.55V204.985H1196.38V169.976ZM1253.12 191.411L1257.27 192.705C1255.07 200.2 1248.04 204.985 1240.33 204.985C1230.29 204.985 1222.58 197.051 1222.58 187.48C1222.58 177.959 1230.32 169.951 1240.35 169.951C1248.12 169.951 1255 174.81 1257.27 182.256L1253.12 183.525C1251.44 177.935 1246.31 173.979 1240.35 173.979C1233 173.979 1227.09 179.863 1227.09 187.48C1227.09 194.78 1232.71 200.981 1240.35 200.981C1246.33 200.981 1251.39 197.173 1253.12 191.411ZM1260.05 169.976H1290.38V174.053H1277.39V204.985H1273.02V174.053H1260.05V169.976ZM1298.9 185.503H1309.66C1312.69 185.503 1315.69 183.208 1315.69 179.79C1315.69 176.641 1312.98 174.077 1309.66 174.077H1298.9V185.503ZM1294.53 170H1310.13C1315.52 170.024 1319.99 173.979 1319.99 179.79C1319.99 185.161 1315.69 189.507 1310.13 189.507H1298.9V204.985H1294.53V170ZM1336.13 169.976H1340.52L1354.49 204.985H1350.12L1347.46 198.394H1329.17L1326.53 204.985H1322.14L1336.13 169.976ZM1338.33 175.469L1330.76 194.365H1345.87L1338.33 175.469ZM1362.79 202.446C1362.79 203.789 1361.69 204.985 1360.25 204.985C1358.91 204.985 1357.71 203.887 1357.71 202.446C1357.71 201.128 1358.81 199.907 1360.25 199.907C1361.59 199.907 1362.79 201.006 1362.79 202.446ZM1372.26 170.366C1372.26 172.661 1370.8 175.005 1368.13 176.763L1366.99 175.005C1367.94 174.346 1368.87 173.491 1369.43 172.686C1368.38 172.417 1367.67 171.538 1367.67 170.464C1367.67 169.194 1368.7 168.12 1369.94 168.12C1371.14 168.12 1372.26 169.072 1372.26 170.366ZM1378.02 170.366C1378.02 172.71 1376.48 175.078 1373.9 176.763L1372.72 175.029C1373.63 174.419 1374.38 173.687 1375.17 172.686C1374.09 172.417 1373.43 171.514 1373.43 170.464C1373.43 169.194 1374.43 168.12 1375.68 168.12C1376.88 168.12 1378.02 169.072 1378.02 170.366Z" fill="white"/>
</svg>
