<svg width="1380" height="217" viewBox="0 0 1380 217" fill="none" xmlns="http://www.w3.org/2000/svg">
<path d="M7.73926 6.53125C7.73926 4.21191 9.25293 1.84375 11.8652 0.134766L13.0371 1.89258C12.2803 2.50293 11.6943 2.91797 10.5957 4.21191C11.6211 4.48047 12.3535 5.35938 12.3535 6.43359C12.3535 7.67871 11.3281 8.77734 10.083 8.77734C8.8623 8.77734 7.78809 7.80078 7.73926 6.53125ZM2.00195 6.53125C2.00195 4.21191 3.49121 1.84375 6.12793 0.134766L7.27539 1.89258C6.39648 2.52734 5.9082 3.01562 4.8584 4.21191C5.88379 4.48047 6.5918 5.35938 6.5918 6.43359C6.5918 7.67871 5.56641 8.77734 4.3457 8.77734C3.125 8.77734 2.00195 7.80078 2.00195 6.53125ZM16.6748 30.7988L19.4092 27.7471C23.3887 31.5068 27.6123 32.9229 31.2256 32.9473C36.7188 32.9717 40.7471 29.8223 40.7227 26.3066C40.7227 21.9365 33.7158 21.2041 29.6631 21.2041H24.3652V17.249H29.6631C33.2764 17.249 38.9648 16.2236 38.9648 12.1953C38.9648 8.16699 34.9365 5.89648 30.3223 5.89648C27.0752 5.9209 23.4863 6.99512 20.3369 9.29004L17.8467 6.21387C21.9971 3.25977 26.4648 1.91699 30.542 1.91699C37.6221 1.91699 43.3105 6.06738 43.3105 12.293C43.335 15.7842 41.0156 17.6885 37.7441 18.8604C41.748 20.0566 45.0928 22.0342 45.0928 26.3066C45.0928 32.0195 39.209 36.9512 31.5918 37C26.5137 37.0244 21.2891 34.9004 16.6748 30.7988ZM62.1338 1.99023H66.5283L80.4932 37H76.123L73.4619 30.4082H55.1758L52.5391 37H48.1445L62.1338 1.99023ZM64.3311 7.4834L56.7627 26.3799H71.875L64.3311 7.4834ZM104.053 1.99023H108.423V37H104.053V22.1074C100.952 23.2061 97.6807 23.9873 94.2139 23.9873C87.1826 23.9873 82.7148 20.7158 82.7148 13.416V2.06348H87.0605V12.8057C87.0605 17.7129 89.7705 19.9102 94.7021 19.9102C97.8516 19.9102 100.83 19.1533 104.053 17.8594V1.99023ZM114.478 1.99023H137.646V6.0918H118.848V15.833H133.228V19.9102H118.848V32.9229H137.646V37H114.478V1.99023ZM174.292 2.01465H176.831V37H172.461V9.82715L159.302 26.6729L146.143 9.82715V37H141.772V2.01465H144.312L159.302 20.96L174.292 2.01465ZM193.433 1.99023H223.755V6.06738H210.767V37H206.396V6.06738H193.433V1.99023ZM231.348 19.4951C231.348 26.7705 236.938 32.9961 244.58 32.9961C252.148 32.9961 257.788 26.9902 257.788 19.4951C257.788 11.9268 252.026 6.01855 244.58 6.01855C237.036 6.01855 231.348 12 231.348 19.4951ZM226.831 19.4951C226.831 9.31445 235.132 1.99023 244.58 1.99023C255.078 1.99023 262.329 10.2422 262.329 19.4951C262.329 29.8711 253.931 37 244.58 37C234.424 37 226.831 28.9922 226.831 19.4951ZM271.68 37H267.31V1.99023H290.454V6.0918H271.68V37ZM319.141 6.06738H306.274C306.25 14.3926 305.957 24.4756 301.831 32.8984H319.141V6.06738ZM323.511 1.99023V32.8984H328.271V44.2266H323.901V37H297.583V44.2266H293.213V32.8984H297.07C301.807 24.915 301.904 12.1465 301.978 1.99023H323.511ZM345.728 1.99023H350.122L364.087 37H359.717L357.056 30.4082H338.77L336.133 37H331.738L345.728 1.99023ZM347.925 7.4834L340.356 26.3799H355.469L347.925 7.4834ZM384.131 19.4951C384.131 26.7705 389.722 32.9961 397.363 32.9961C404.932 32.9961 410.571 26.9902 410.571 19.4951C410.571 11.9268 404.81 6.01855 397.363 6.01855C389.819 6.01855 384.131 12 384.131 19.4951ZM379.614 19.4951C379.614 9.31445 387.915 1.99023 397.363 1.99023C407.861 1.99023 415.112 10.2422 415.112 19.4951C415.112 29.8711 406.714 37 397.363 37C387.207 37 379.614 28.9922 379.614 19.4951ZM443.286 1.99023H447.681V37H443.286V19.9102H424.463V37H420.093V1.99023H424.463V15.8086H443.286V1.99023ZM489.331 1.99023H493.726V37H489.331V19.9102H470.508V37H466.138V1.99023H470.508V15.8086H489.331V1.99023ZM499.78 1.99023H522.949V6.0918H504.15V15.833H518.53V19.9102H504.15V32.9229H522.949V37H499.78V1.99023ZM539.478 1.99023H567.065V37H562.695V6.0918H543.848V37H539.478V1.99023ZM577.49 17.5176H588.257C591.284 17.5176 594.287 15.2227 594.287 11.8047C594.287 8.65527 591.577 6.0918 588.257 6.0918H577.49V17.5176ZM573.12 2.01465H588.721C594.116 2.03906 598.584 5.99414 598.584 11.8047C598.584 17.1758 594.287 21.5215 588.721 21.5215H577.49V37H573.12V2.01465ZM602.563 2.01465H606.934V29.3828L629.175 2.01465H631.714V37H627.344V9.63184L605.103 37H602.563V2.01465ZM637.769 1.99023H665.356V37H660.986V6.0918H642.139V37H637.769V1.99023ZM671.411 1.99023H694.58V6.0918H675.781V15.833H690.161V19.9102H675.781V32.9229H694.58V37H671.411V1.99023ZM703.076 17.5176H713.843C716.87 17.5176 719.873 15.2227 719.873 11.8047C719.873 8.65527 717.163 6.0918 713.843 6.0918H703.076V17.5176ZM698.706 2.01465H714.307C719.702 2.03906 724.17 5.99414 724.17 11.8047C724.17 17.1758 719.873 21.5215 714.307 21.5215H703.076V37H698.706V2.01465Z" fill="white"/>
<path d="M322.925 50.0146H325.464V85H321.094V57.8271L307.935 74.6729L294.775 57.8271V85H290.405V50.0146H292.944L307.935 68.96L322.925 50.0146ZM331.519 49.9902H354.688V54.0918H335.889V63.833H350.269V67.9102H335.889V80.9229H354.688V85H331.519V49.9902ZM382.007 49.9902H386.401V85H382.007V67.9102H363.184V85H358.813V49.9902H363.184V63.8086H382.007V49.9902ZM414.355 65.5176V54.0918H403.589C400.562 54.0918 397.559 56.3867 397.559 59.8047C397.559 62.9297 400.244 65.5176 403.564 65.5176H414.355ZM414.355 69.5215H405.298L396.265 85H391.333L400.586 69.1309C396.338 68.0811 393.262 64.5898 393.262 59.8047C393.262 54.2139 397.559 50.0146 403.125 50.0146H418.726V85H414.355V69.5215ZM455.566 49.9658H460.962C455.859 54.9219 450.732 59.8535 445.63 64.7852L463.818 85H458.447C452.808 78.7744 447.192 72.5 441.553 66.2744V85H437.183V49.9658H441.553V63.4424L455.566 49.9658ZM510.425 71.4258L514.575 72.7197C512.378 80.2148 505.347 85 497.632 85C487.598 85 479.883 77.0654 479.883 67.4951C479.883 57.9736 487.622 49.9658 497.656 49.9658C505.42 49.9658 512.305 54.8242 514.575 62.2705L510.425 63.54C508.74 57.9492 503.613 53.9941 497.656 53.9941C490.308 53.9941 484.399 59.8779 484.399 67.4951C484.399 74.7949 490.015 80.9961 497.656 80.9961C503.638 80.9961 508.691 77.1875 510.425 71.4258ZM517.358 49.9902H547.681V54.0674H534.692V85H530.322V54.0674H517.358V49.9902ZM551.831 49.9902H575V54.0918H556.201V63.833H570.581V67.9102H556.201V80.9229H575V85H551.831V49.9902ZM602.319 49.9902H606.714V85H602.319V67.9102H583.496V85H579.126V49.9902H583.496V63.8086H602.319V49.9902ZM612.769 49.9902H635.938V54.0918H617.139V63.833H631.519V67.9102H617.139V80.9229H635.938V85H612.769V49.9902ZM639.795 89.3457L638.501 87.4414C639.453 86.7334 640.015 86.2207 641.187 84.9023C640.063 84.6094 639.258 83.6816 639.258 82.4854C639.258 81.1426 640.332 79.9463 641.748 79.9219C643.091 79.8975 644.336 80.9473 644.336 82.3633C644.336 84.3164 643.579 85.9277 642.09 87.4902C641.406 88.1738 640.747 88.7354 639.795 89.3457ZM693.579 50.0146H696.118V85H691.748V57.8271L678.589 74.6729L665.43 57.8271V85H661.06V50.0146H663.599L678.589 68.96L693.579 50.0146ZM705.615 67.4951C705.615 74.7705 711.206 80.9961 718.848 80.9961C726.416 80.9961 732.056 74.9902 732.056 67.4951C732.056 59.9268 726.294 54.0186 718.848 54.0186C711.304 54.0186 705.615 60 705.615 67.4951ZM701.099 67.4951C701.099 57.3145 709.399 49.9902 718.848 49.9902C729.346 49.9902 736.597 58.2422 736.597 67.4951C736.597 77.8711 728.198 85 718.848 85C708.691 85 701.099 76.9922 701.099 67.4951ZM767.041 50.0146H769.58V85H765.234V57.6318L742.993 85H740.454V50.0146H744.824V77.3828L767.041 50.0146ZM758.765 40.0537L761.792 42.8125C759.375 45.7178 756.982 48.623 754.59 51.5283L751.562 48.7695C753.979 45.8643 756.372 42.959 758.765 40.0537ZM816.675 71.4258L820.825 72.7197C818.628 80.2148 811.597 85 803.882 85C793.848 85 786.133 77.0654 786.133 67.4951C786.133 57.9736 793.872 49.9658 803.906 49.9658C811.67 49.9658 818.555 54.8242 820.825 62.2705L816.675 63.54C814.99 57.9492 809.863 53.9941 803.906 53.9941C796.558 53.9941 790.649 59.8779 790.649 67.4951C790.649 74.7949 796.265 80.9961 803.906 80.9961C809.888 80.9961 814.941 77.1875 816.675 71.4258ZM829.907 80.9961H840.674C843.701 80.9961 846.704 78.6523 846.704 75.1367C846.704 71.9141 844.019 69.2773 840.674 69.2773H829.907V80.9961ZM837.671 53.9941H829.907V65.4932H837.915C840.845 65.3955 843.701 63.1006 843.701 59.7314C843.701 56.582 841.016 53.9941 837.671 53.9941ZM847.729 59.8047C847.729 62.4658 846.46 64.834 844.36 66.543C848.096 67.7637 851.001 70.9131 851.001 75.21C851.001 80.8008 846.704 85 841.138 85H825.537V50.0146H837.891C843.262 50.0146 847.729 54.0674 847.729 59.8047ZM855.786 49.9902H878.955V54.0918H860.156V63.833H874.536V67.9102H860.156V80.9229H878.955V85H855.786V49.9902ZM881.226 49.9902H911.548V54.0674H898.56V85H894.189V54.0674H881.226V49.9902ZM926.831 76.8213H922.827C922.852 73.5498 924.268 71.1816 926.929 68.667C929.346 66.1768 932.031 63.8086 931.689 60.3906C931.323 56.8262 928.882 54.0674 924.927 54.0674C920.776 54.0674 918.14 57.5342 918.091 61.1963H913.721C913.77 55.166 918.408 49.9902 924.927 49.9902C930.933 49.9902 935.547 53.9941 936.011 60.293C936.377 64.4678 933.594 67.5928 930.078 70.8154C928.003 72.6465 926.88 74.2334 926.831 76.8213ZM922.29 82.4609C922.29 81.0693 923.462 79.9219 924.829 79.9219C926.196 79.9219 927.368 81.0938 927.368 82.4609C927.368 83.8525 926.196 85 924.829 85C923.413 85 922.314 83.8281 922.29 82.4609Z" fill="white"/>
<path d="M219.445 121.495C219.445 128.771 225.036 134.996 232.678 134.996C240.246 134.996 245.886 128.99 245.886 121.495C245.886 113.927 240.124 108.019 232.678 108.019C225.134 108.019 219.445 114 219.445 121.495ZM214.929 121.495C214.929 111.314 223.229 103.99 232.678 103.99C243.176 103.99 250.427 112.242 250.427 121.495C250.427 131.871 242.028 139 232.678 139C222.521 139 214.929 130.992 214.929 121.495ZM278.601 103.99H282.995V139H278.601V121.91H259.777V139H255.407V103.99H259.777V117.809H278.601V103.99ZM299.597 103.99H329.919V108.067H316.931V139H312.561V108.067H299.597V103.99ZM337.512 121.495C337.512 128.771 343.103 134.996 350.744 134.996C358.312 134.996 363.952 128.99 363.952 121.495C363.952 113.927 358.19 108.019 350.744 108.019C343.2 108.019 337.512 114 337.512 121.495ZM332.995 121.495C332.995 111.314 341.296 103.99 350.744 103.99C361.242 103.99 368.493 112.242 368.493 121.495C368.493 131.871 360.095 139 350.744 139C340.588 139 332.995 130.992 332.995 121.495ZM392.834 103.99H397.204V139H392.834V124.107C389.733 125.206 386.462 125.987 382.995 125.987C375.964 125.987 371.496 122.716 371.496 115.416V104.063H375.842V114.806C375.842 119.713 378.552 121.91 383.483 121.91C386.633 121.91 389.611 121.153 392.834 119.859V103.99ZM426.452 103.99H430.847V139H426.452V121.91H407.629V139H403.259V103.99H407.629V117.809H426.452V103.99ZM440.344 121.495C440.344 128.771 445.935 134.996 453.576 134.996C461.145 134.996 466.784 128.99 466.784 121.495C466.784 113.927 461.022 108.019 453.576 108.019C446.032 108.019 440.344 114 440.344 121.495ZM435.827 121.495C435.827 111.314 444.128 103.99 453.576 103.99C464.074 103.99 471.325 112.242 471.325 121.495C471.325 131.871 462.927 139 453.576 139C443.42 139 435.827 130.992 435.827 121.495ZM487.243 132.799L489.978 129.747C493.957 133.507 498.181 134.923 501.794 134.947C507.287 134.972 511.315 131.822 511.291 128.307C511.291 123.937 504.284 123.204 500.231 123.204H494.934V119.249H500.231C503.845 119.249 509.533 118.224 509.533 114.195C509.533 110.167 505.505 107.896 500.891 107.896C497.644 107.921 494.055 108.995 490.905 111.29L488.415 108.214C492.565 105.26 497.033 103.917 501.11 103.917C508.19 103.917 513.879 108.067 513.879 114.293C513.903 117.784 511.584 119.688 508.312 120.86C512.316 122.057 515.661 124.034 515.661 128.307C515.661 134.02 509.777 138.951 502.16 139C497.082 139.024 491.857 136.9 487.243 132.799ZM543.737 103.99H548.132V139H543.737V121.91H524.914V139H520.544V103.99H524.914V117.809H543.737V103.99ZM566.345 103.99H570.739L584.704 139H580.334L577.673 132.408H559.387L556.75 139H552.355L566.345 103.99ZM568.542 109.483L560.974 128.38H576.086L568.542 109.483ZM597.57 103.99H620.104V139H615.734V108.092H601.916V129.112C601.916 131.847 600.964 134.19 599.035 136.119C597.106 138.048 594.763 139 592.028 139C590.295 139 588.659 138.585 587.146 137.706L589.27 133.897C590.124 134.386 591.052 134.63 592.028 134.63C593.566 134.63 594.86 134.068 595.935 132.994C597.009 131.92 597.57 130.626 597.57 129.088V103.99ZM625.891 143.346L624.597 141.441C625.549 140.733 626.11 140.221 627.282 138.902C626.159 138.609 625.354 137.682 625.354 136.485C625.354 135.143 626.428 133.946 627.844 133.922C629.187 133.897 630.432 134.947 630.432 136.363C630.432 138.316 629.675 139.928 628.186 141.49C627.502 142.174 626.843 142.735 625.891 143.346ZM666.516 103.99H670.886V139H666.516V124.107C663.415 125.206 660.144 125.987 656.677 125.987C649.646 125.987 645.178 122.716 645.178 115.416V104.063H649.523V114.806C649.523 119.713 652.233 121.91 657.165 121.91C660.314 121.91 663.293 121.153 666.516 119.859V103.99ZM675.085 103.99H705.407V108.067H692.419V139H688.049V108.067H675.085V103.99ZM713 121.495C713 128.771 718.591 134.996 726.232 134.996C733.801 134.996 739.44 128.99 739.44 121.495C739.44 113.927 733.679 108.019 726.232 108.019C718.688 108.019 713 114 713 121.495ZM708.483 121.495C708.483 111.314 716.784 103.99 726.232 103.99C736.73 103.99 743.981 112.242 743.981 121.495C743.981 131.871 735.583 139 726.232 139C716.076 139 708.483 130.992 708.483 121.495ZM783.264 119.518V108.092H772.497C769.47 108.092 766.467 110.387 766.467 113.805C766.467 116.93 769.152 119.518 772.473 119.518H783.264ZM783.264 123.521H774.206L765.173 139H760.241L769.494 123.131C765.246 122.081 762.17 118.59 762.17 113.805C762.17 108.214 766.467 104.015 772.033 104.015H787.634V139H783.264V123.521ZM810.461 123.497V134.923H821.228C824.206 134.923 827.258 132.628 827.258 129.21C827.258 126.061 824.572 123.497 821.228 123.497H810.461ZM810.461 119.493H821.691C827.038 119.493 831.555 123.521 831.555 129.21C831.555 134.776 827.258 139 821.691 139H806.091V104.015H828.308V108.092H810.461V119.493ZM839.562 121.495C839.562 128.771 845.153 134.996 852.795 134.996C860.363 134.996 866.003 128.99 866.003 121.495C866.003 113.927 860.241 108.019 852.795 108.019C845.251 108.019 839.562 114 839.562 121.495ZM835.046 121.495C835.046 111.314 843.347 103.99 852.795 103.99C863.293 103.99 870.544 112.242 870.544 121.495C870.544 131.871 862.146 139 852.795 139C842.639 139 835.046 130.992 835.046 121.495ZM893.908 103.966H899.304C894.201 108.922 889.074 113.854 883.972 118.785L902.16 139H896.789C891.149 132.774 885.534 126.5 879.895 120.274V139H875.524V103.966H879.895V117.442L893.908 103.966ZM936.364 125.426L940.515 126.72C938.317 134.215 931.286 139 923.571 139C913.537 139 905.822 131.065 905.822 121.495C905.822 111.974 913.562 103.966 923.596 103.966C931.359 103.966 938.244 108.824 940.515 116.271L936.364 117.54C934.68 111.949 929.553 107.994 923.596 107.994C916.247 107.994 910.339 113.878 910.339 121.495C910.339 128.795 915.954 134.996 923.596 134.996C929.577 134.996 934.631 131.188 936.364 125.426ZM945.153 103.99H968.322V108.092H949.523V117.833H963.903V121.91H949.523V134.923H968.322V139H945.153V103.99ZM976.818 119.518H987.585C990.612 119.518 993.615 117.223 993.615 113.805C993.615 110.655 990.905 108.092 987.585 108.092H976.818V119.518ZM972.448 104.015H988.049C993.444 104.039 997.912 107.994 997.912 113.805C997.912 119.176 993.615 123.521 988.049 123.521H976.818V139H972.448V104.015ZM1001.62 143.346L1000.33 141.441C1001.28 140.733 1001.84 140.221 1003.01 138.902C1001.89 138.609 1001.09 137.682 1001.09 136.485C1001.09 135.143 1002.16 133.946 1003.58 133.922C1004.92 133.897 1006.16 134.947 1006.16 136.363C1006.16 138.316 1005.41 139.928 1003.92 141.49C1003.23 142.174 1002.58 142.735 1001.62 143.346Z" fill="white"/>
<path d="M810.161 157.99H814.556L828.521 193H824.15L821.489 186.408H803.203L800.566 193H796.172L810.161 157.99ZM812.358 163.483L804.79 182.38H819.902L812.358 163.483ZM867.021 173.518V162.092H856.255C853.228 162.092 850.225 164.387 850.225 167.805C850.225 170.93 852.91 173.518 856.23 173.518H867.021ZM867.021 177.521H857.964L848.931 193H843.999L853.252 177.131C849.004 176.081 845.928 172.59 845.928 167.805C845.928 162.214 850.225 158.015 855.791 158.015H871.392V193H867.021V177.521ZM889.849 157.99H917.437V193H913.066V162.092H894.219V193H889.849V157.99ZM926.934 175.495C926.934 182.771 932.524 188.996 940.166 188.996C947.734 188.996 953.374 182.99 953.374 175.495C953.374 167.927 947.612 162.019 940.166 162.019C932.622 162.019 926.934 168 926.934 175.495ZM922.417 175.495C922.417 165.314 930.718 157.99 940.166 157.99C950.664 157.99 957.915 166.242 957.915 175.495C957.915 185.871 949.517 193 940.166 193C930.01 193 922.417 184.992 922.417 175.495ZM978.398 157.99C987.993 157.99 996.147 165.681 996.147 175.52C996.147 185.163 988.188 193 978.423 193C970.806 193 963.774 188.19 961.479 180.72L965.654 179.426C967.29 184.943 972.319 188.996 978.398 188.996C985.039 188.996 990.361 184.309 991.411 177.546H973.857V173.469H991.411C990.605 167.072 985.259 162.019 978.398 162.019C972.588 162.019 967.534 165.803 965.654 171.564L961.504 170.295C963.799 162.995 970.562 157.99 978.398 157.99ZM999.224 157.99H1029.55V162.067H1016.56V193H1012.19V162.067H999.224V157.99ZM1033.43 197.346L1032.13 195.441C1033.09 194.733 1033.65 194.221 1034.82 192.902C1033.7 192.609 1032.89 191.682 1032.89 190.485C1032.89 189.143 1033.96 187.946 1035.38 187.922C1036.72 187.897 1037.97 188.947 1037.97 190.363C1037.97 192.316 1037.21 193.928 1035.72 195.49C1035.04 196.174 1034.38 196.735 1033.43 197.346ZM1054.69 157.99H1082.28V193H1077.91V162.092H1059.06V193H1054.69V157.99ZM1091.78 175.495C1091.78 182.771 1097.37 188.996 1105.01 188.996C1112.58 188.996 1118.22 182.99 1118.22 175.495C1118.22 167.927 1112.46 162.019 1105.01 162.019C1097.47 162.019 1091.78 168 1091.78 175.495ZM1087.26 175.495C1087.26 165.314 1095.56 157.99 1105.01 157.99C1115.51 157.99 1122.76 166.242 1122.76 175.495C1122.76 185.871 1114.36 193 1105.01 193C1094.85 193 1087.26 184.992 1087.26 175.495ZM1143.24 157.99C1152.84 157.99 1160.99 165.681 1160.99 175.52C1160.99 185.163 1153.03 193 1143.27 193C1135.65 193 1128.62 188.19 1126.32 180.72L1130.5 179.426C1132.13 184.943 1137.16 188.996 1143.24 188.996C1149.88 188.996 1155.21 184.309 1156.25 177.546H1138.7V173.469H1156.25C1155.45 167.072 1150.1 162.019 1143.24 162.019C1137.43 162.019 1132.38 165.803 1130.5 171.564L1126.35 170.295C1128.64 162.995 1135.41 157.99 1143.24 157.99ZM1164.07 157.99H1194.39V162.067H1181.4V193H1177.03V162.067H1164.07V157.99ZM1202.64 190.461C1202.64 191.804 1201.54 193 1200.1 193C1198.76 193 1197.56 191.901 1197.56 190.461C1197.56 189.143 1198.66 187.922 1200.1 187.922C1201.45 187.922 1202.64 189.021 1202.64 190.461ZM1212.11 158.381C1212.11 160.676 1210.65 163.02 1207.99 164.777L1206.84 163.02C1207.79 162.36 1208.72 161.506 1209.28 160.7C1208.23 160.432 1207.52 159.553 1207.52 158.479C1207.52 157.209 1208.55 156.135 1209.79 156.135C1210.99 156.135 1212.11 157.087 1212.11 158.381ZM1217.88 158.381C1217.88 160.725 1216.34 163.093 1213.75 164.777L1212.58 163.044C1213.48 162.434 1214.24 161.701 1215.02 160.7C1213.95 160.432 1213.29 159.528 1213.29 158.479C1213.29 157.209 1214.29 156.135 1215.53 156.135C1216.73 156.135 1217.88 157.087 1217.88 158.381Z" fill="white"/>
</svg>
