<svg width="938" height="217" viewBox="0 0 938 217" fill="none" xmlns="http://www.w3.org/2000/svg">
<path d="M7.73926 6.5459C7.73926 4.22656 9.25293 1.8584 11.8652 0.149414L13.0371 1.90723C12.2803 2.51758 11.6943 2.93262 10.5957 4.22656C11.6211 4.49512 12.3535 5.37402 12.3535 6.44824C12.3535 7.69336 11.3281 8.79199 10.083 8.79199C8.8623 8.79199 7.78809 7.81543 7.73926 6.5459ZM2.00195 6.5459C2.00195 4.22656 3.49121 1.8584 6.12793 0.149414L7.27539 1.90723C6.39648 2.54199 5.9082 3.03027 4.8584 4.22656C5.88379 4.49512 6.5918 5.37402 6.5918 6.44824C6.5918 7.69336 5.56641 8.79199 4.3457 8.79199C3.125 8.79199 2.00195 7.81543 2.00195 6.5459ZM16.6748 30.8135L19.4092 27.7617C23.3887 31.5215 27.6123 32.9375 31.2256 32.9619C36.7188 32.9863 40.7471 29.8369 40.7227 26.3213C40.7227 21.9512 33.7158 21.2188 29.6631 21.2188H24.3652V17.2637H29.6631C33.2764 17.2637 38.9648 16.2383 38.9648 12.21C38.9648 8.18164 34.9365 5.91113 30.3223 5.91113C27.0752 5.93555 23.4863 7.00977 20.3369 9.30469L17.8467 6.22852C21.9971 3.27441 26.4648 1.93164 30.542 1.93164C37.6221 1.93164 43.3105 6.08203 43.3105 12.3076C43.335 15.7988 41.0156 17.7031 37.7441 18.875C41.748 20.0713 45.0928 22.0488 45.0928 26.3213C45.0928 32.0342 39.209 36.9658 31.5918 37.0146C26.5137 37.0391 21.2891 34.915 16.6748 30.8135ZM62.1338 2.00488H66.5283L80.4932 37.0146H76.123L73.4619 30.4229H55.1758L52.5391 37.0146H48.1445L62.1338 2.00488ZM64.3311 7.49805L56.7627 26.3945H71.875L64.3311 7.49805ZM104.053 2.00488H108.423V37.0146H104.053V22.1221C100.952 23.2207 97.6807 24.002 94.2139 24.002C87.1826 24.002 82.7148 20.7305 82.7148 13.4307V2.07812H87.0605V12.8203C87.0605 17.7275 89.7705 19.9248 94.7021 19.9248C97.8516 19.9248 100.83 19.168 104.053 17.874V2.00488ZM114.478 2.00488H137.646V6.10645H118.848V15.8477H133.228V19.9248H118.848V32.9375H137.646V37.0146H114.478V2.00488ZM174.292 2.0293H176.831V37.0146H172.461V9.8418L159.302 26.6875L146.143 9.8418V37.0146H141.772V2.0293H144.312L159.302 20.9746L174.292 2.0293ZM193.433 2.00488H223.755V6.08203H210.767V37.0146H206.396V6.08203H193.433V2.00488ZM231.348 19.5098C231.348 26.7852 236.938 33.0107 244.58 33.0107C252.148 33.0107 257.788 27.0049 257.788 19.5098C257.788 11.9414 252.026 6.0332 244.58 6.0332C237.036 6.0332 231.348 12.0146 231.348 19.5098ZM226.831 19.5098C226.831 9.3291 235.132 2.00488 244.58 2.00488C255.078 2.00488 262.329 10.2568 262.329 19.5098C262.329 29.8857 253.931 37.0146 244.58 37.0146C234.424 37.0146 226.831 29.0068 226.831 19.5098ZM271.68 37.0146H267.31V2.00488H290.454V6.10645H271.68V37.0146ZM319.141 6.08203H306.274C306.25 14.4072 305.957 24.4902 301.831 32.9131H319.141V6.08203ZM323.511 2.00488V32.9131H328.271V44.2412H323.901V37.0146H297.583V44.2412H293.213V32.9131H297.07C301.807 24.9297 301.904 12.1611 301.978 2.00488H323.511ZM345.728 2.00488H350.122L364.087 37.0146H359.717L357.056 30.4229H338.77L336.133 37.0146H331.738L345.728 2.00488ZM347.925 7.49805L340.356 26.3945H355.469L347.925 7.49805ZM384.131 19.5098C384.131 26.7852 389.722 33.0107 397.363 33.0107C404.932 33.0107 410.571 27.0049 410.571 19.5098C410.571 11.9414 404.81 6.0332 397.363 6.0332C389.819 6.0332 384.131 12.0146 384.131 19.5098ZM379.614 19.5098C379.614 9.3291 387.915 2.00488 397.363 2.00488C407.861 2.00488 415.112 10.2568 415.112 19.5098C415.112 29.8857 406.714 37.0146 397.363 37.0146C387.207 37.0146 379.614 29.0068 379.614 19.5098ZM443.286 2.00488H447.681V37.0146H443.286V19.9248H424.463V37.0146H420.093V2.00488H424.463V15.8232H443.286V2.00488ZM489.331 2.00488H493.726V37.0146H489.331V19.9248H470.508V37.0146H466.138V2.00488H470.508V15.8232H489.331V2.00488ZM499.78 2.00488H522.949V6.10645H504.15V15.8477H518.53V19.9248H504.15V32.9375H522.949V37.0146H499.78V2.00488ZM539.478 2.00488H567.065V37.0146H562.695V6.10645H543.848V37.0146H539.478V2.00488ZM577.49 17.5322H588.257C591.284 17.5322 594.287 15.2373 594.287 11.8193C594.287 8.66992 591.577 6.10645 588.257 6.10645H577.49V17.5322ZM573.12 2.0293H588.721C594.116 2.05371 598.584 6.00879 598.584 11.8193C598.584 17.1904 594.287 21.5361 588.721 21.5361H577.49V37.0146H573.12V2.0293ZM602.563 2.0293H606.934V29.3975L629.175 2.0293H631.714V37.0146H627.344V9.64648L605.103 37.0146H602.563V2.0293ZM637.769 2.00488H665.356V37.0146H660.986V6.10645H642.139V37.0146H637.769V2.00488ZM671.411 2.00488H694.58V6.10645H675.781V15.8477H690.161V19.9248H675.781V32.9375H694.58V37.0146H671.411V2.00488ZM703.076 17.5322H713.843C716.87 17.5322 719.873 15.2373 719.873 11.8193C719.873 8.66992 717.163 6.10645 713.843 6.10645H703.076V17.5322ZM698.706 2.0293H714.307C719.702 2.05371 724.17 6.00879 724.17 11.8193C724.17 17.1904 719.873 21.5361 714.307 21.5361H703.076V37.0146H698.706V2.0293Z" fill="white"/>
<path d="M172.925 50.0293H175.464V85.0146H171.094V57.8418L157.935 74.6875L144.775 57.8418V85.0146H140.405V50.0293H142.944L157.935 68.9746L172.925 50.0293ZM181.519 50.0049H204.688V54.1064H185.889V63.8477H200.269V67.9248H185.889V80.9375H204.688V85.0146H181.519V50.0049ZM232.007 50.0049H236.401V85.0146H232.007V67.9248H213.184V85.0146H208.813V50.0049H213.184V63.8232H232.007V50.0049ZM264.355 65.5322V54.1064H253.589C250.562 54.1064 247.559 56.4014 247.559 59.8193C247.559 62.9443 250.244 65.5322 253.564 65.5322H264.355ZM264.355 69.5361H255.298L246.265 85.0146H241.333L250.586 69.1455C246.338 68.0957 243.262 64.6045 243.262 59.8193C243.262 54.2285 247.559 50.0293 253.125 50.0293H268.726V85.0146H264.355V69.5361ZM305.566 49.9805H310.962C305.859 54.9365 300.732 59.8682 295.63 64.7998L313.818 85.0146H308.447C302.808 78.7891 297.192 72.5146 291.553 66.2891V85.0146H287.183V49.9805H291.553V63.457L305.566 49.9805ZM360.425 71.4404L364.575 72.7344C362.378 80.2295 355.347 85.0146 347.632 85.0146C337.598 85.0146 329.883 77.0801 329.883 67.5098C329.883 57.9883 337.622 49.9805 347.656 49.9805C355.42 49.9805 362.305 54.8389 364.575 62.2852L360.425 63.5547C358.74 57.9639 353.613 54.0088 347.656 54.0088C340.308 54.0088 334.399 59.8926 334.399 67.5098C334.399 74.8096 340.015 81.0107 347.656 81.0107C353.638 81.0107 358.691 77.2021 360.425 71.4404ZM367.358 50.0049H397.681V54.082H384.692V85.0146H380.322V54.082H367.358V50.0049ZM401.831 50.0049H425V54.1064H406.201V63.8477H420.581V67.9248H406.201V80.9375H425V85.0146H401.831V50.0049ZM452.319 50.0049H456.714V85.0146H452.319V67.9248H433.496V85.0146H429.126V50.0049H433.496V63.8232H452.319V50.0049ZM462.769 50.0049H485.938V54.1064H467.139V63.8477H481.519V67.9248H467.139V80.9375H485.938V85.0146H462.769V50.0049ZM489.795 89.3604L488.501 87.4561C489.453 86.748 490.015 86.2354 491.187 84.917C490.063 84.624 489.258 83.6963 489.258 82.5C489.258 81.1572 490.332 79.9609 491.748 79.9365C493.091 79.9121 494.336 80.9619 494.336 82.3779C494.336 84.3311 493.579 85.9424 492.09 87.5049C491.406 88.1885 490.747 88.75 489.795 89.3604ZM543.579 50.0293H546.118V85.0146H541.748V57.8418L528.589 74.6875L515.43 57.8418V85.0146H511.06V50.0293H513.599L528.589 68.9746L543.579 50.0293ZM555.615 67.5098C555.615 74.7852 561.206 81.0107 568.848 81.0107C576.416 81.0107 582.056 75.0049 582.056 67.5098C582.056 59.9414 576.294 54.0332 568.848 54.0332C561.304 54.0332 555.615 60.0146 555.615 67.5098ZM551.099 67.5098C551.099 57.3291 559.399 50.0049 568.848 50.0049C579.346 50.0049 586.597 58.2568 586.597 67.5098C586.597 77.8857 578.198 85.0146 568.848 85.0146C558.691 85.0146 551.099 77.0068 551.099 67.5098ZM617.041 50.0293H619.58V85.0146H615.234V57.6465L592.993 85.0146H590.454V50.0293H594.824V77.3975L617.041 50.0293ZM608.765 40.0684L611.792 42.8271C609.375 45.7324 606.982 48.6377 604.59 51.543L601.562 48.7842C603.979 45.8789 606.372 42.9736 608.765 40.0684ZM666.675 71.4404L670.825 72.7344C668.628 80.2295 661.597 85.0146 653.882 85.0146C643.848 85.0146 636.133 77.0801 636.133 67.5098C636.133 57.9883 643.872 49.9805 653.906 49.9805C661.67 49.9805 668.555 54.8389 670.825 62.2852L666.675 63.5547C664.99 57.9639 659.863 54.0088 653.906 54.0088C646.558 54.0088 640.649 59.8926 640.649 67.5098C640.649 74.8096 646.265 81.0107 653.906 81.0107C659.888 81.0107 664.941 77.2021 666.675 71.4404ZM679.907 81.0107H690.674C693.701 81.0107 696.704 78.667 696.704 75.1514C696.704 71.9287 694.019 69.292 690.674 69.292H679.907V81.0107ZM687.671 54.0088H679.907V65.5078H687.915C690.845 65.4102 693.701 63.1152 693.701 59.7461C693.701 56.5967 691.016 54.0088 687.671 54.0088ZM697.729 59.8193C697.729 62.4805 696.46 64.8486 694.36 66.5576C698.096 67.7783 701.001 70.9277 701.001 75.2246C701.001 80.8154 696.704 85.0146 691.138 85.0146H675.537V50.0293H687.891C693.262 50.0293 697.729 54.082 697.729 59.8193ZM705.786 50.0049H728.955V54.1064H710.156V63.8477H724.536V67.9248H710.156V80.9375H728.955V85.0146H705.786V50.0049ZM731.226 50.0049H761.548V54.082H748.56V85.0146H744.189V54.082H731.226V50.0049ZM776.831 76.8359H772.827C772.852 73.5645 774.268 71.1963 776.929 68.6816C779.346 66.1914 782.031 63.8232 781.689 60.4053C781.323 56.8408 778.882 54.082 774.927 54.082C770.776 54.082 768.14 57.5488 768.091 61.2109H763.721C763.77 55.1807 768.408 50.0049 774.927 50.0049C780.933 50.0049 785.547 54.0088 786.011 60.3076C786.377 64.4824 783.594 67.6074 780.078 70.8301C778.003 72.6611 776.88 74.248 776.831 76.8359ZM772.29 82.4756C772.29 81.084 773.462 79.9365 774.829 79.9365C776.196 79.9365 777.368 81.1084 777.368 82.4756C777.368 83.8672 776.196 85.0146 774.829 85.0146C773.413 85.0146 772.314 83.8428 772.29 82.4756Z" fill="white"/>
<path d="M65.4453 121.51C65.4453 128.785 71.0361 135.011 78.6777 135.011C86.2461 135.011 91.8857 129.005 91.8857 121.51C91.8857 113.941 86.124 108.033 78.6777 108.033C71.1338 108.033 65.4453 114.015 65.4453 121.51ZM60.9287 121.51C60.9287 111.329 69.2295 104.005 78.6777 104.005C89.1758 104.005 96.4268 112.257 96.4268 121.51C96.4268 131.886 88.0283 139.015 78.6777 139.015C68.5215 139.015 60.9287 131.007 60.9287 121.51ZM124.601 104.005H128.995V139.015H124.601V121.925H105.777V139.015H101.407V104.005H105.777V117.823H124.601V104.005ZM145.597 104.005H175.919V108.082H162.931V139.015H158.561V108.082H145.597V104.005ZM183.512 121.51C183.512 128.785 189.103 135.011 196.744 135.011C204.312 135.011 209.952 129.005 209.952 121.51C209.952 113.941 204.19 108.033 196.744 108.033C189.2 108.033 183.512 114.015 183.512 121.51ZM178.995 121.51C178.995 111.329 187.296 104.005 196.744 104.005C207.242 104.005 214.493 112.257 214.493 121.51C214.493 131.886 206.095 139.015 196.744 139.015C186.588 139.015 178.995 131.007 178.995 121.51ZM238.834 104.005H243.204V139.015H238.834V124.122C235.733 125.221 232.462 126.002 228.995 126.002C221.964 126.002 217.496 122.73 217.496 115.431V104.078H221.842V114.82C221.842 119.728 224.552 121.925 229.483 121.925C232.633 121.925 235.611 121.168 238.834 119.874V104.005ZM272.452 104.005H276.847V139.015H272.452V121.925H253.629V139.015H249.259V104.005H253.629V117.823H272.452V104.005ZM286.344 121.51C286.344 128.785 291.935 135.011 299.576 135.011C307.145 135.011 312.784 129.005 312.784 121.51C312.784 113.941 307.022 108.033 299.576 108.033C292.032 108.033 286.344 114.015 286.344 121.51ZM281.827 121.51C281.827 111.329 290.128 104.005 299.576 104.005C310.074 104.005 317.325 112.257 317.325 121.51C317.325 131.886 308.927 139.015 299.576 139.015C289.42 139.015 281.827 131.007 281.827 121.51ZM333.243 132.813L335.978 129.762C339.957 133.521 344.181 134.938 347.794 134.962C353.287 134.986 357.315 131.837 357.291 128.321C357.291 123.951 350.284 123.219 346.231 123.219H340.934V119.264H346.231C349.845 119.264 355.533 118.238 355.533 114.21C355.533 110.182 351.505 107.911 346.891 107.911C343.644 107.936 340.055 109.01 336.905 111.305L334.415 108.229C338.565 105.274 343.033 103.932 347.11 103.932C354.19 103.932 359.879 108.082 359.879 114.308C359.903 117.799 357.584 119.703 354.312 120.875C358.316 122.071 361.661 124.049 361.661 128.321C361.661 134.034 355.777 138.966 348.16 139.015C343.082 139.039 337.857 136.915 333.243 132.813ZM389.737 104.005H394.132V139.015H389.737V121.925H370.914V139.015H366.544V104.005H370.914V117.823H389.737V104.005ZM412.345 104.005H416.739L430.704 139.015H426.334L423.673 132.423H405.387L402.75 139.015H398.355L412.345 104.005ZM414.542 109.498L406.974 128.395H422.086L414.542 109.498ZM443.57 104.005H466.104V139.015H461.734V108.106H447.916V129.127C447.916 131.861 446.964 134.205 445.035 136.134C443.106 138.062 440.763 139.015 438.028 139.015C436.295 139.015 434.659 138.6 433.146 137.721L435.27 133.912C436.124 134.4 437.052 134.645 438.028 134.645C439.566 134.645 440.86 134.083 441.935 133.009C443.009 131.935 443.57 130.641 443.57 129.103V104.005ZM471.891 143.36L470.597 141.456C471.549 140.748 472.11 140.235 473.282 138.917C472.159 138.624 471.354 137.696 471.354 136.5C471.354 135.157 472.428 133.961 473.844 133.937C475.187 133.912 476.432 134.962 476.432 136.378C476.432 138.331 475.675 139.942 474.186 141.505C473.502 142.188 472.843 142.75 471.891 143.36ZM512.516 104.005H516.886V139.015H512.516V124.122C509.415 125.221 506.144 126.002 502.677 126.002C495.646 126.002 491.178 122.73 491.178 115.431V104.078H495.523V114.82C495.523 119.728 498.233 121.925 503.165 121.925C506.314 121.925 509.293 121.168 512.516 119.874V104.005ZM521.085 104.005H551.407V108.082H538.419V139.015H534.049V108.082H521.085V104.005ZM559 121.51C559 128.785 564.591 135.011 572.232 135.011C579.801 135.011 585.44 129.005 585.44 121.51C585.44 113.941 579.679 108.033 572.232 108.033C564.688 108.033 559 114.015 559 121.51ZM554.483 121.51C554.483 111.329 562.784 104.005 572.232 104.005C582.73 104.005 589.981 112.257 589.981 121.51C589.981 131.886 581.583 139.015 572.232 139.015C562.076 139.015 554.483 131.007 554.483 121.51ZM629.264 119.532V108.106H618.497C615.47 108.106 612.467 110.401 612.467 113.819C612.467 116.944 615.152 119.532 618.473 119.532H629.264ZM629.264 123.536H620.206L611.173 139.015H606.241L615.494 123.146C611.246 122.096 608.17 118.604 608.17 113.819C608.17 108.229 612.467 104.029 618.033 104.029H633.634V139.015H629.264V123.536ZM656.461 123.512V134.938H667.228C670.206 134.938 673.258 132.643 673.258 129.225C673.258 126.075 670.572 123.512 667.228 123.512H656.461ZM656.461 119.508H667.691C673.038 119.508 677.555 123.536 677.555 129.225C677.555 134.791 673.258 139.015 667.691 139.015H652.091V104.029H674.308V108.106H656.461V119.508ZM685.562 121.51C685.562 128.785 691.153 135.011 698.795 135.011C706.363 135.011 712.003 129.005 712.003 121.51C712.003 113.941 706.241 108.033 698.795 108.033C691.251 108.033 685.562 114.015 685.562 121.51ZM681.046 121.51C681.046 111.329 689.347 104.005 698.795 104.005C709.293 104.005 716.544 112.257 716.544 121.51C716.544 131.886 708.146 139.015 698.795 139.015C688.639 139.015 681.046 131.007 681.046 121.51ZM739.908 103.98H745.304C740.201 108.937 735.074 113.868 729.972 118.8L748.16 139.015H742.789C737.149 132.789 731.534 126.515 725.895 120.289V139.015H721.524V103.98H725.895V117.457L739.908 103.98ZM782.364 125.44L786.515 126.734C784.317 134.229 777.286 139.015 769.571 139.015C759.537 139.015 751.822 131.08 751.822 121.51C751.822 111.988 759.562 103.98 769.596 103.98C777.359 103.98 784.244 108.839 786.515 116.285L782.364 117.555C780.68 111.964 775.553 108.009 769.596 108.009C762.247 108.009 756.339 113.893 756.339 121.51C756.339 128.81 761.954 135.011 769.596 135.011C775.577 135.011 780.631 131.202 782.364 125.44ZM791.153 104.005H814.322V108.106H795.523V117.848H809.903V121.925H795.523V134.938H814.322V139.015H791.153V104.005ZM822.818 119.532H833.585C836.612 119.532 839.615 117.237 839.615 113.819C839.615 110.67 836.905 108.106 833.585 108.106H822.818V119.532ZM818.448 104.029H834.049C839.444 104.054 843.912 108.009 843.912 113.819C843.912 119.19 839.615 123.536 834.049 123.536H822.818V139.015H818.448V104.029ZM847.623 143.36L846.329 141.456C847.281 140.748 847.843 140.235 849.015 138.917C847.892 138.624 847.086 137.696 847.086 136.5C847.086 135.157 848.16 133.961 849.576 133.937C850.919 133.912 852.164 134.962 852.164 136.378C852.164 138.331 851.407 139.942 849.918 141.505C849.234 142.188 848.575 142.75 847.623 143.36Z" fill="white"/>
<path d="M528.161 158.005H532.556L546.521 193.015H542.15L539.489 186.423H521.203L518.566 193.015H514.172L528.161 158.005ZM530.358 163.498L522.79 182.395H537.902L530.358 163.498ZM585.021 173.532V162.106H574.255C571.228 162.106 568.225 164.401 568.225 167.819C568.225 170.944 570.91 173.532 574.23 173.532H585.021ZM585.021 177.536H575.964L566.931 193.015H561.999L571.252 177.146C567.004 176.096 563.928 172.604 563.928 167.819C563.928 162.229 568.225 158.029 573.791 158.029H589.392V193.015H585.021V177.536ZM607.849 158.005H635.437V193.015H631.066V162.106H612.219V193.015H607.849V158.005ZM644.934 175.51C644.934 182.785 650.524 189.011 658.166 189.011C665.734 189.011 671.374 183.005 671.374 175.51C671.374 167.941 665.612 162.033 658.166 162.033C650.622 162.033 644.934 168.015 644.934 175.51ZM640.417 175.51C640.417 165.329 648.718 158.005 658.166 158.005C668.664 158.005 675.915 166.257 675.915 175.51C675.915 185.886 667.517 193.015 658.166 193.015C648.01 193.015 640.417 185.007 640.417 175.51ZM696.398 158.005C705.993 158.005 714.147 165.695 714.147 175.534C714.147 185.178 706.188 193.015 696.423 193.015C688.806 193.015 681.774 188.205 679.479 180.734L683.654 179.44C685.29 184.958 690.319 189.011 696.398 189.011C703.039 189.011 708.361 184.323 709.411 177.561H691.857V173.483H709.411C708.605 167.087 703.259 162.033 696.398 162.033C690.588 162.033 685.534 165.817 683.654 171.579L679.504 170.31C681.799 163.01 688.562 158.005 696.398 158.005ZM717.224 158.005H747.546V162.082H734.558V193.015H730.188V162.082H717.224V158.005ZM751.428 197.36L750.134 195.456C751.086 194.748 751.647 194.235 752.819 192.917C751.696 192.624 750.891 191.696 750.891 190.5C750.891 189.157 751.965 187.961 753.381 187.937C754.724 187.912 755.969 188.962 755.969 190.378C755.969 192.331 755.212 193.942 753.723 195.505C753.039 196.188 752.38 196.75 751.428 197.36ZM772.692 158.005H800.28V193.015H795.91V162.106H777.062V193.015H772.692V158.005ZM809.777 175.51C809.777 182.785 815.368 189.011 823.01 189.011C830.578 189.011 836.218 183.005 836.218 175.51C836.218 167.941 830.456 162.033 823.01 162.033C815.466 162.033 809.777 168.015 809.777 175.51ZM805.261 175.51C805.261 165.329 813.562 158.005 823.01 158.005C833.508 158.005 840.759 166.257 840.759 175.51C840.759 185.886 832.36 193.015 823.01 193.015C812.854 193.015 805.261 185.007 805.261 175.51ZM861.242 158.005C870.837 158.005 878.991 165.695 878.991 175.534C878.991 185.178 871.032 193.015 861.267 193.015C853.649 193.015 846.618 188.205 844.323 180.734L848.498 179.44C850.134 184.958 855.163 189.011 861.242 189.011C867.883 189.011 873.205 184.323 874.255 177.561H856.701V173.483H874.255C873.449 167.087 868.103 162.033 861.242 162.033C855.432 162.033 850.378 165.817 848.498 171.579L844.348 170.31C846.643 163.01 853.405 158.005 861.242 158.005ZM882.067 158.005H912.39V162.082H899.401V193.015H895.031V162.082H882.067V158.005ZM920.642 190.476C920.642 191.818 919.543 193.015 918.103 193.015C916.76 193.015 915.563 191.916 915.563 190.476C915.563 189.157 916.662 187.937 918.103 187.937C919.445 187.937 920.642 189.035 920.642 190.476ZM930.114 158.396C930.114 160.69 928.649 163.034 925.988 164.792L924.841 163.034C925.793 162.375 926.721 161.521 927.282 160.715C926.232 160.446 925.524 159.567 925.524 158.493C925.524 157.224 926.55 156.149 927.795 156.149C928.991 156.149 930.114 157.102 930.114 158.396ZM935.876 158.396C935.876 160.739 934.338 163.107 931.75 164.792L930.578 163.059C931.481 162.448 932.238 161.716 933.02 160.715C931.945 160.446 931.286 159.543 931.286 158.493C931.286 157.224 932.287 156.149 933.532 156.149C934.729 156.149 935.876 157.102 935.876 158.396Z" fill="white"/>
</svg>
