<svg width="1380" height="217" viewBox="0 0 1380 217" fill="none" xmlns="http://www.w3.org/2000/svg">
<g clip-path="url(#clip0_64_223)">
<path d="M22.3633 169.976H26.7334V204.985H22.3633V190.093C19.2627 191.191 15.9912 191.973 12.5244 191.973C5.49316 191.973 1.02539 188.701 1.02539 181.401V170.049H5.37109V180.791C5.37109 185.698 8.08105 187.896 13.0127 187.896C16.1621 187.896 19.1406 187.139 22.3633 185.845V169.976ZM30.9326 169.976H61.2549V174.053H48.2666V204.985H43.8965V174.053H30.9326V169.976ZM68.8477 187.48C68.8477 194.756 74.4385 200.981 82.0801 200.981C89.6484 200.981 95.2881 194.976 95.2881 187.48C95.2881 179.912 89.5264 174.004 82.0801 174.004C74.5361 174.004 68.8477 179.985 68.8477 187.48ZM64.3311 187.48C64.3311 177.3 72.6318 169.976 82.0801 169.976C92.5781 169.976 99.8291 178.228 99.8291 187.48C99.8291 197.856 91.4307 204.985 82.0801 204.985C71.9238 204.985 64.3311 196.978 64.3311 187.48ZM109.18 189.482V200.908H119.946C122.925 200.908 125.977 198.613 125.977 195.195C125.977 192.046 123.291 189.482 119.946 189.482H109.18ZM109.18 185.479H120.41C125.757 185.479 130.273 189.507 130.273 195.195C130.273 200.762 125.977 204.985 120.41 204.985H104.81V170H127.026V174.077H109.18V185.479ZM139.209 189.482V200.908H150C153.027 200.908 156.006 198.589 156.006 195.195C156.006 192.046 153.32 189.482 150 189.482H139.209ZM139.209 185.479H150.464C155.884 185.479 160.303 189.556 160.303 195.195C160.303 200.786 156.03 204.985 150.464 204.985H134.839V170H139.209V185.479ZM168.726 170V204.985H164.38V170H168.726ZM216.626 191.411L220.776 192.705C218.579 200.2 211.548 204.985 203.833 204.985C193.799 204.985 186.084 197.051 186.084 187.48C186.084 177.959 193.823 169.951 203.857 169.951C211.621 169.951 218.506 174.81 220.776 182.256L216.626 183.525C214.941 177.935 209.814 173.979 203.857 173.979C196.509 173.979 190.601 179.863 190.601 187.48C190.601 194.78 196.216 200.981 203.857 200.981C209.839 200.981 214.893 197.173 216.626 191.411ZM234.082 169.976H256.616V204.985H252.246V174.077H238.428V195.098C238.428 197.832 237.476 200.176 235.547 202.104C233.618 204.033 231.274 204.985 228.54 204.985C226.807 204.985 225.171 204.57 223.657 203.691L225.781 199.883C226.636 200.371 227.563 200.615 228.54 200.615C230.078 200.615 231.372 200.054 232.446 198.979C233.521 197.905 234.082 196.611 234.082 195.073V169.976ZM266.113 187.48C266.113 194.756 271.704 200.981 279.346 200.981C286.914 200.981 292.554 194.976 292.554 187.48C292.554 179.912 286.792 174.004 279.346 174.004C271.802 174.004 266.113 179.985 266.113 187.48ZM261.597 187.48C261.597 177.3 269.897 169.976 279.346 169.976C289.844 169.976 297.095 178.228 297.095 187.48C297.095 197.856 288.696 204.985 279.346 204.985C269.189 204.985 261.597 196.978 261.597 187.48ZM306.519 200.981H317.285C320.312 200.981 323.315 198.638 323.315 195.122C323.315 191.899 320.63 189.263 317.285 189.263H306.519V200.981ZM314.282 173.979H306.519V185.479H314.526C317.456 185.381 320.312 183.086 320.312 179.717C320.312 176.567 317.627 173.979 314.282 173.979ZM324.341 179.79C324.341 182.451 323.071 184.819 320.972 186.528C324.707 187.749 327.612 190.898 327.612 195.195C327.612 200.786 323.315 204.985 317.749 204.985H302.148V170H314.502C319.873 170 324.341 174.053 324.341 179.79ZM335.84 187.48C335.84 194.756 341.431 200.981 349.072 200.981C356.641 200.981 362.28 194.976 362.28 187.48C362.28 179.912 356.519 174.004 349.072 174.004C341.528 174.004 335.84 179.985 335.84 187.48ZM331.323 187.48C331.323 177.3 339.624 169.976 349.072 169.976C359.57 169.976 366.821 178.228 366.821 187.48C366.821 197.856 358.423 204.985 349.072 204.985C338.916 204.985 331.323 196.978 331.323 187.48ZM389.16 180.767H393.774L387.109 190.703L393.774 200.64H389.16L382.617 190.703L389.16 180.767ZM397.998 180.767H402.612L395.947 190.703L402.612 200.64H397.998L391.455 190.703L397.998 180.767ZM416.65 169.976H439.185V204.985H434.814V174.077H420.996V195.098C420.996 197.832 420.044 200.176 418.115 202.104C416.187 204.033 413.843 204.985 411.108 204.985C409.375 204.985 407.739 204.57 406.226 203.691L408.35 199.883C409.204 200.371 410.132 200.615 411.108 200.615C412.646 200.615 413.94 200.054 415.015 198.979C416.089 197.905 416.65 196.611 416.65 195.073V169.976ZM473.389 174.004C466.187 174.004 460.254 179.863 460.254 187.48C460.254 194.658 465.698 200.957 473.389 200.957C480.615 200.957 486.523 195.073 486.523 187.48C486.523 180.156 481.128 174.126 473.389 174.004ZM473.389 169.976C482.959 169.976 490.967 177.715 490.967 187.48C490.967 197.051 483.154 204.985 473.389 204.985C464.575 204.985 457.324 198.662 455.957 189.531H449.609V204.985H445.239V169.976H449.609V185.454H455.957C457.104 176.592 464.282 170.024 473.389 169.976ZM500.488 189.482V200.908H511.255C514.233 200.908 517.285 198.613 517.285 195.195C517.285 192.046 514.6 189.482 511.255 189.482H500.488ZM500.488 185.479H511.719C517.065 185.479 521.582 189.507 521.582 195.195C521.582 200.762 517.285 204.985 511.719 204.985H496.118V170H518.335V174.077H500.488V185.479ZM534.814 169.976H557.349V204.985H552.979V174.077H539.16V195.098C539.16 197.832 538.208 200.176 536.279 202.104C534.351 204.033 532.007 204.985 529.272 204.985C527.539 204.985 525.903 204.57 524.39 203.691L526.514 199.883C527.368 200.371 528.296 200.615 529.272 200.615C530.811 200.615 532.104 200.054 533.179 198.979C534.253 197.905 534.814 196.611 534.814 195.073V169.976ZM591.553 174.004C584.351 174.004 578.418 179.863 578.418 187.48C578.418 194.658 583.862 200.957 591.553 200.957C598.779 200.957 604.688 195.073 604.688 187.48C604.688 180.156 599.292 174.126 591.553 174.004ZM591.553 169.976C601.123 169.976 609.131 177.715 609.131 187.48C609.131 197.051 601.318 204.985 591.553 204.985C582.739 204.985 575.488 198.662 574.121 189.531H567.773V204.985H563.403V169.976H567.773V185.454H574.121C575.269 176.592 582.446 170.024 591.553 169.976ZM622.51 180.767H627.124L633.667 190.703L627.124 200.64H622.51L629.15 190.703L622.51 180.767ZM613.647 180.767H618.262L624.805 190.703L618.262 200.64H613.647L620.312 190.703L613.647 180.767ZM654.883 189.482V200.908H665.649C668.628 200.908 671.68 198.613 671.68 195.195C671.68 192.046 668.994 189.482 665.649 189.482H654.883ZM654.883 185.479H666.113C671.46 185.479 675.977 189.507 675.977 195.195C675.977 200.762 671.68 204.985 666.113 204.985H650.513V170H672.729V174.077H654.883V185.479ZM680.542 169.976H703.711V174.077H684.912V183.818H699.292V187.896H684.912V200.908H703.711V204.985H680.542V169.976ZM712.207 185.503H722.974C726.001 185.503 729.004 183.208 729.004 179.79C729.004 176.641 726.294 174.077 722.974 174.077H712.207V185.503ZM707.837 170H723.438C728.833 170.024 733.301 173.979 733.301 179.79C733.301 185.161 729.004 189.507 723.438 189.507H712.207V204.985H707.837V170ZM737.28 169.976H760.449V174.077H741.65V183.818H756.03V187.896H741.65V200.908H760.449V204.985H737.28V169.976ZM783.936 169.976H788.306V204.985H783.936V190.093C780.835 191.191 777.563 191.973 774.097 191.973C767.065 191.973 762.598 188.701 762.598 181.401V170.049H766.943V180.791C766.943 185.698 769.653 187.896 774.585 187.896C777.734 187.896 780.713 187.139 783.936 185.845V169.976ZM798.73 189.482V200.908H809.497C812.524 200.908 815.527 198.613 815.527 195.195C815.527 192.046 812.866 189.482 809.497 189.482H798.73ZM798.73 185.479H809.961C815.381 185.479 819.824 189.531 819.824 195.195C819.824 200.786 815.527 204.985 809.961 204.985H794.36V170H798.73V185.479ZM827.905 202.446C827.905 203.789 826.807 204.985 825.366 204.985C824.023 204.985 822.827 203.887 822.827 202.446C822.827 201.128 823.926 199.907 825.366 199.907C826.709 199.907 827.905 201.006 827.905 202.446Z" fill="white"/>
<path d="M7.10449 148.446C7.10449 149.789 6.00586 150.985 4.56543 150.985C3.22266 150.985 2.02637 149.887 2.02637 148.446C2.02637 147.128 3.125 145.907 4.56543 145.907C5.9082 145.907 7.10449 147.006 7.10449 148.446ZM16.2598 148.446C16.2598 149.789 15.1611 150.985 13.7207 150.985C12.3779 150.985 11.1816 149.887 11.1816 148.446C11.1816 147.128 12.2803 145.907 13.7207 145.907C15.0635 145.907 16.2598 147.006 16.2598 148.446ZM25.415 148.446C25.415 149.789 24.3164 150.985 22.876 150.985C21.5332 150.985 20.3369 149.887 20.3369 148.446C20.3369 147.128 21.4355 145.907 22.876 145.907C24.2188 145.907 25.415 147.006 25.415 148.446ZM63.0127 116H65.5518V150.985H61.1816V123.812L48.0225 140.658L34.8633 123.812V150.985H30.4932V116H33.0322L48.0225 134.945L63.0127 116ZM75.9766 135.482V146.908H86.7676C89.7949 146.908 92.7734 144.589 92.7734 141.195C92.7734 138.046 90.0879 135.482 86.7676 135.482H75.9766ZM75.9766 131.479H87.2314C92.6514 131.479 97.0703 135.556 97.0703 141.195C97.0703 146.786 92.7979 150.985 87.2314 150.985H71.6064V116H75.9766V131.479ZM105.493 116V150.985H101.147V116H105.493ZM128.394 146.981H139.16C142.188 146.981 145.19 144.638 145.19 141.122C145.19 137.899 142.505 135.263 139.16 135.263H128.394V146.981ZM136.157 119.979H128.394V131.479H136.401C139.331 131.381 142.188 129.086 142.188 125.717C142.188 122.567 139.502 119.979 136.157 119.979ZM146.216 125.79C146.216 128.451 144.946 130.819 142.847 132.528C146.582 133.749 149.487 136.898 149.487 141.195C149.487 146.786 145.19 150.985 139.624 150.985H124.023V116H136.377C141.748 116 146.216 120.053 146.216 125.79ZM157.715 133.48C157.715 140.756 163.306 146.981 170.947 146.981C178.516 146.981 184.155 140.976 184.155 133.48C184.155 125.912 178.394 120.004 170.947 120.004C163.403 120.004 157.715 125.985 157.715 133.48ZM153.198 133.48C153.198 123.3 161.499 115.976 170.947 115.976C181.445 115.976 188.696 124.228 188.696 133.48C188.696 143.856 180.298 150.985 170.947 150.985C160.791 150.985 153.198 142.978 153.198 133.48ZM192.212 144.784L194.946 141.732C198.926 145.492 203.149 146.908 206.763 146.933C212.256 146.957 216.284 143.808 216.26 140.292C216.26 135.922 209.253 135.189 205.2 135.189H199.902V131.234H205.2C208.813 131.234 214.502 130.209 214.502 126.181C214.502 122.152 210.474 119.882 205.859 119.882C202.612 119.906 199.023 120.98 195.874 123.275L193.384 120.199C197.534 117.245 202.002 115.902 206.079 115.902C213.159 115.902 218.848 120.053 218.848 126.278C218.872 129.77 216.553 131.674 213.281 132.846C217.285 134.042 220.63 136.02 220.63 140.292C220.63 146.005 214.746 150.937 207.129 150.985C202.051 151.01 196.826 148.886 192.212 144.784ZM229.883 135.482V146.908H240.649C243.677 146.908 246.68 144.613 246.68 141.195C246.68 138.046 244.019 135.482 240.649 135.482H229.883ZM229.883 131.479H241.113C246.533 131.479 250.977 135.531 250.977 141.195C250.977 146.786 246.68 150.985 241.113 150.985H225.513V116H229.883V131.479ZM287.476 116H290.015V150.985H285.645V123.812L272.485 140.658L259.326 123.812V150.985H254.956V116H257.495L272.485 134.945L287.476 116ZM296.069 115.976H319.238V120.077H300.439V129.818H314.819V133.896H300.439V146.908H319.238V150.985H296.069V115.976ZM355.884 116H358.423V150.985H354.053V123.812L340.894 140.658L327.734 123.812V150.985H323.364V116H325.903L340.894 134.945L355.884 116ZM375.024 115.976H405.347V120.053H392.358V150.985H387.988V120.053H375.024V115.976ZM412.939 133.48C412.939 140.756 418.53 146.981 426.172 146.981C433.74 146.981 439.38 140.976 439.38 133.48C439.38 125.912 433.618 120.004 426.172 120.004C418.628 120.004 412.939 125.985 412.939 133.48ZM408.423 133.48C408.423 123.3 416.724 115.976 426.172 115.976C436.67 115.976 443.921 124.228 443.921 133.48C443.921 143.856 435.522 150.985 426.172 150.985C416.016 150.985 408.423 142.978 408.423 133.48ZM457.568 115.976H480.103V150.985H475.732V120.077H461.914V141.098C461.914 143.832 460.962 146.176 459.033 148.104C457.104 150.033 454.761 150.985 452.026 150.985C450.293 150.985 448.657 150.57 447.144 149.691L449.268 145.883C450.122 146.371 451.05 146.615 452.026 146.615C453.564 146.615 454.858 146.054 455.933 144.979C457.007 143.905 457.568 142.611 457.568 141.073V115.976ZM490.527 135.482V146.908H501.294C504.321 146.908 507.324 144.613 507.324 141.195C507.324 138.046 504.663 135.482 501.294 135.482H490.527ZM490.527 131.479H501.758C507.178 131.479 511.621 135.531 511.621 141.195C511.621 146.786 507.324 150.985 501.758 150.985H486.157V116H490.527V131.479ZM533.984 115.951H539.38C534.277 120.907 529.15 125.839 524.048 130.771L542.236 150.985H536.865C531.226 144.76 525.61 138.485 519.971 132.26V150.985H515.601V115.951H519.971V129.428L533.984 115.951ZM550.439 133.48C550.439 140.756 556.03 146.981 563.672 146.981C571.24 146.981 576.88 140.976 576.88 133.48C576.88 125.912 571.118 120.004 563.672 120.004C556.128 120.004 550.439 125.985 550.439 133.48ZM545.923 133.48C545.923 123.3 554.224 115.976 563.672 115.976C574.17 115.976 581.421 124.228 581.421 133.48C581.421 143.856 573.022 150.985 563.672 150.985C553.516 150.985 545.923 142.978 545.923 133.48ZM621.997 115.976H626.392V150.985H621.997V133.896H603.174V150.985H598.804V115.976H603.174V129.794H621.997V115.976ZM644.604 115.976H648.999L662.964 150.985H658.594L655.933 144.394H637.646L635.01 150.985H630.615L644.604 115.976ZM646.802 121.469L639.233 140.365H654.346L646.802 121.469ZM703.174 115.951H707.52V150.985H667.163V115.951H671.533V146.908H685.156V115.951H689.526V146.908H703.174V115.951ZM715.649 145.883C716.504 146.371 717.407 146.615 718.384 146.615C720.386 146.64 722.192 145.639 723.853 142.636L725.684 139.315L713.013 115.976H717.749L728.052 134.945L738.428 115.976H743.164L727.881 143.979C725.952 147.543 722.998 151.01 718.384 150.985C716.699 150.985 715.112 150.57 713.525 149.691L715.649 145.883ZM763.916 131.503H774.683C777.71 131.503 780.713 129.208 780.713 125.79C780.713 122.641 778.003 120.077 774.683 120.077H763.916V131.503ZM759.546 116H775.146C780.542 116.024 785.01 119.979 785.01 125.79C785.01 131.161 780.713 135.507 775.146 135.507H763.916V150.985H759.546V116ZM788.989 115.976H812.158V120.077H793.359V129.818H807.739V133.896H793.359V146.908H812.158V150.985H788.989V115.976ZM835.645 115.976H840.015V150.985H835.645V136.093C832.544 137.191 829.272 137.973 825.806 137.973C818.774 137.973 814.307 134.701 814.307 127.401V116.049H818.652V126.791C818.652 131.698 821.362 133.896 826.294 133.896C829.443 133.896 832.422 133.139 835.645 131.845V115.976ZM850.439 135.482V146.908H861.206C864.233 146.908 867.236 144.613 867.236 141.195C867.236 138.046 864.575 135.482 861.206 135.482H850.439ZM850.439 131.479H861.67C867.09 131.479 871.533 135.531 871.533 141.195C871.533 146.786 867.236 150.985 861.67 150.985H846.069V116H850.439V131.479ZM875.244 155.331L873.95 153.427C874.902 152.719 875.464 152.206 876.636 150.888C875.513 150.595 874.707 149.667 874.707 148.471C874.707 147.128 875.781 145.932 877.197 145.907C878.54 145.883 879.785 146.933 879.785 148.349C879.785 150.302 879.028 151.913 877.539 153.476C876.855 154.159 876.196 154.721 875.244 155.331Z" fill="white"/>
<path d="M228.147 61.9756H258.47V66.0527H245.481V96.9854H241.111V66.0527H228.147V61.9756ZM266.062 79.4805C266.062 86.7559 271.653 92.9814 279.295 92.9814C286.863 92.9814 292.503 86.9756 292.503 79.4805C292.503 71.9121 286.741 66.0039 279.295 66.0039C271.751 66.0039 266.062 71.9854 266.062 79.4805ZM261.546 79.4805C261.546 69.2998 269.847 61.9756 279.295 61.9756C289.793 61.9756 297.044 70.2275 297.044 79.4805C297.044 89.8564 288.646 96.9854 279.295 96.9854C269.139 96.9854 261.546 88.9775 261.546 79.4805ZM310.691 61.9756H333.226V96.9854H328.855V66.0771H315.037V87.0977C315.037 89.832 314.085 92.1758 312.156 94.1045C310.228 96.0332 307.884 96.9854 305.149 96.9854C303.416 96.9854 301.78 96.5703 300.267 95.6914L302.391 91.8828C303.245 92.3711 304.173 92.6152 305.149 92.6152C306.688 92.6152 307.981 92.0537 309.056 90.9795C310.13 89.9053 310.691 88.6113 310.691 87.0732V61.9756ZM343.65 81.4824V92.9082H354.417C357.444 92.9082 360.447 90.6133 360.447 87.1953C360.447 84.0459 357.786 81.4824 354.417 81.4824H343.65ZM343.65 77.4785H354.881C360.301 77.4785 364.744 81.5312 364.744 87.1953C364.744 92.7861 360.447 96.9854 354.881 96.9854H339.28V62H343.65V77.4785ZM387.107 61.9512H392.503C387.4 66.9072 382.273 71.8389 377.171 76.7705L395.359 96.9854H389.988C384.349 90.7598 378.733 84.4854 373.094 78.2598V96.9854H368.724V61.9512H373.094V75.4277L387.107 61.9512ZM403.562 79.4805C403.562 86.7559 409.153 92.9814 416.795 92.9814C424.363 92.9814 430.003 86.9756 430.003 79.4805C430.003 71.9121 424.241 66.0039 416.795 66.0039C409.251 66.0039 403.562 71.9854 403.562 79.4805ZM399.046 79.4805C399.046 69.2998 407.347 61.9756 416.795 61.9756C427.293 61.9756 434.544 70.2275 434.544 79.4805C434.544 89.8564 426.146 96.9854 416.795 96.9854C406.639 96.9854 399.046 88.9775 399.046 79.4805ZM481.37 83.4111L485.521 84.7051C483.323 92.2002 476.292 96.9854 468.577 96.9854C458.543 96.9854 450.828 89.0508 450.828 79.4805C450.828 69.959 458.567 61.9512 468.602 61.9512C476.365 61.9512 483.25 66.8096 485.521 74.2559L481.37 75.5254C479.686 69.9346 474.559 65.9795 468.602 65.9795C461.253 65.9795 455.345 71.8633 455.345 79.4805C455.345 86.7803 460.96 92.9814 468.602 92.9814C474.583 92.9814 479.637 89.1729 481.37 83.4111ZM490.159 61.9756H513.328V66.0771H494.529V75.8184H508.909V79.8955H494.529V92.9082H513.328V96.9854H490.159V61.9756ZM521.824 77.5029H532.591C535.618 77.5029 538.621 75.208 538.621 71.79C538.621 68.6406 535.911 66.0771 532.591 66.0771H521.824V77.5029ZM517.454 62H533.055C538.45 62.0244 542.918 65.9795 542.918 71.79C542.918 77.1611 538.621 81.5068 533.055 81.5068H521.824V96.9854H517.454V62ZM571.58 66.0527H558.714C558.689 74.3779 558.396 84.4609 554.271 92.8838H571.58V66.0527ZM575.95 61.9756V92.8838H580.711V104.212H576.341V96.9854H550.022V104.212H545.652V92.8838H549.51C554.246 84.9004 554.344 72.1318 554.417 61.9756H575.95ZM607.518 61.9756H611.912V92.9082H616.844V104.212H612.474V96.9854H584.593V61.9756H588.963V92.9082H607.518V61.9756ZM622.044 61.9756H645.213V66.0771H626.414V75.8184H640.794V79.8955H626.414V92.9082H645.213V96.9854H622.044V61.9756ZM691.185 83.4111L695.335 84.7051C693.138 92.2002 686.106 96.9854 678.392 96.9854C668.357 96.9854 660.643 89.0508 660.643 79.4805C660.643 69.959 668.382 61.9512 678.416 61.9512C686.18 61.9512 693.064 66.8096 695.335 74.2559L691.185 75.5254C689.5 69.9346 684.373 65.9795 678.416 65.9795C671.067 65.9795 665.159 71.8633 665.159 79.4805C665.159 86.7803 670.774 92.9814 678.416 92.9814C684.397 92.9814 689.451 89.1729 691.185 83.4111ZM741.819 83.4111L745.97 84.7051C743.772 92.2002 736.741 96.9854 729.026 96.9854C718.992 96.9854 711.277 89.0508 711.277 79.4805C711.277 69.959 719.017 61.9512 729.051 61.9512C736.814 61.9512 743.699 66.8096 745.97 74.2559L741.819 75.5254C740.135 69.9346 735.008 65.9795 729.051 65.9795C721.702 65.9795 715.794 71.8633 715.794 79.4805C715.794 86.7803 721.409 92.9814 729.051 92.9814C735.032 92.9814 740.086 89.1729 741.819 83.4111ZM754.051 79.4805C754.051 86.7559 759.642 92.9814 767.283 92.9814C774.852 92.9814 780.491 86.9756 780.491 79.4805C780.491 71.9121 774.729 66.0039 767.283 66.0039C759.739 66.0039 754.051 71.9854 754.051 79.4805ZM749.534 79.4805C749.534 69.2998 757.835 61.9756 767.283 61.9756C777.781 61.9756 785.032 70.2275 785.032 79.4805C785.032 89.8564 776.634 96.9854 767.283 96.9854C757.127 96.9854 749.534 88.9775 749.534 79.4805ZM794.383 81.4824V92.9082H805.149C808.128 92.9082 811.18 90.6133 811.18 87.1953C811.18 84.0459 808.494 81.4824 805.149 81.4824H794.383ZM794.383 77.4785H805.613C810.96 77.4785 815.477 81.5068 815.477 87.1953C815.477 92.7617 811.18 96.9854 805.613 96.9854H790.013V62H812.229V66.0771H794.383V77.4785ZM823.484 79.4805C823.484 86.7559 829.075 92.9814 836.717 92.9814C844.285 92.9814 849.925 86.9756 849.925 79.4805C849.925 71.9121 844.163 66.0039 836.717 66.0039C829.173 66.0039 823.484 71.9854 823.484 79.4805ZM818.968 79.4805C818.968 69.2998 827.269 61.9756 836.717 61.9756C847.215 61.9756 854.466 70.2275 854.466 79.4805C854.466 89.8564 846.067 96.9854 836.717 96.9854C826.561 96.9854 818.968 88.9775 818.968 79.4805ZM884.91 62H887.449V96.9854H883.104V69.6172L860.862 96.9854H858.323V62H862.693V89.3682L884.91 62ZM876.634 52.0391L879.661 54.7979C877.244 57.7031 874.852 60.6084 872.459 63.5137L869.432 60.7549C871.849 57.8496 874.241 54.9443 876.634 52.0391ZM909.544 92.9814H920.311C923.338 92.9814 926.341 90.6377 926.341 87.1221C926.341 83.8994 923.655 81.2627 920.311 81.2627H909.544V92.9814ZM917.308 65.9795H909.544V77.4785H917.552C920.481 77.3809 923.338 75.0859 923.338 71.7168C923.338 68.5674 920.652 65.9795 917.308 65.9795ZM927.366 71.79C927.366 74.4512 926.097 76.8193 923.997 78.5283C927.732 79.749 930.638 82.8984 930.638 87.1953C930.638 92.7861 926.341 96.9854 920.774 96.9854H905.174V62H917.527C922.898 62 927.366 66.0527 927.366 71.79ZM938.865 79.4805C938.865 86.7559 944.456 92.9814 952.098 92.9814C959.666 92.9814 965.306 86.9756 965.306 79.4805C965.306 71.9121 959.544 66.0039 952.098 66.0039C944.554 66.0039 938.865 71.9854 938.865 79.4805ZM934.349 79.4805C934.349 69.2998 942.649 61.9756 952.098 61.9756C962.596 61.9756 969.847 70.2275 969.847 79.4805C969.847 89.8564 961.448 96.9854 952.098 96.9854C941.941 96.9854 934.349 88.9775 934.349 79.4805ZM973.362 90.7842L976.097 87.7324C980.076 91.4922 984.3 92.9082 987.913 92.9326C993.406 92.957 997.435 89.8076 997.41 86.292C997.41 81.9219 990.403 81.1895 986.351 81.1895H981.053V77.2344H986.351C989.964 77.2344 995.652 76.209 995.652 72.1807C995.652 68.1523 991.624 65.8818 987.01 65.8818C983.763 65.9062 980.174 66.9805 977.024 69.2754L974.534 66.1992C978.685 63.2451 983.152 61.9023 987.229 61.9023C994.31 61.9023 999.998 66.0527 999.998 72.2783C1000.02 75.7695 997.703 77.6738 994.432 78.8457C998.436 80.042 1001.78 82.0195 1001.78 86.292C1001.78 92.0049 995.896 96.9365 988.279 96.9854C983.201 97.0098 977.977 94.8857 973.362 90.7842ZM1011.03 81.4824V92.9082H1021.8C1024.83 92.9082 1027.83 90.6133 1027.83 87.1953C1027.83 84.0459 1025.17 81.4824 1021.8 81.4824H1011.03ZM1011.03 77.4785H1022.26C1027.68 77.4785 1032.13 81.5312 1032.13 87.1953C1032.13 92.7861 1027.83 96.9854 1022.26 96.9854H1006.66V62H1011.03V77.4785ZM1068.63 62H1071.17V96.9854H1066.79V69.8125L1053.64 86.6582L1040.48 69.8125V96.9854H1036.11V62H1038.65L1053.64 80.9453L1068.63 62ZM1077.22 61.9756H1100.39V66.0771H1081.59V75.8184H1095.97V79.8955H1081.59V92.9082H1100.39V96.9854H1077.22V61.9756ZM1137.03 62H1139.57V96.9854H1135.2V69.8125L1122.04 86.6582L1108.88 69.8125V96.9854H1104.51V62H1107.05L1122.04 80.9453L1137.03 62ZM1149.73 94.4463C1149.73 95.7891 1148.63 96.9854 1147.19 96.9854C1145.85 96.9854 1144.65 95.8867 1144.65 94.4463C1144.65 93.1279 1145.75 91.9072 1147.19 91.9072C1148.53 91.9072 1149.73 93.0059 1149.73 94.4463Z" fill="white"/>
<path d="M414.104 40.4463C414.104 41.7891 413.006 42.9854 411.565 42.9854C410.223 42.9854 409.026 41.8867 409.026 40.4463C409.026 39.1279 410.125 37.9072 411.565 37.9072C412.908 37.9072 414.104 39.0059 414.104 40.4463ZM423.26 40.4463C423.26 41.7891 422.161 42.9854 420.721 42.9854C419.378 42.9854 418.182 41.8867 418.182 40.4463C418.182 39.1279 419.28 37.9072 420.721 37.9072C422.063 37.9072 423.26 39.0059 423.26 40.4463ZM432.415 40.4463C432.415 41.7891 431.316 42.9854 429.876 42.9854C428.533 42.9854 427.337 41.8867 427.337 40.4463C427.337 39.1279 428.436 37.9072 429.876 37.9072C431.219 37.9072 432.415 39.0059 432.415 40.4463ZM470.013 8H472.552V42.9854H468.182V15.8125L455.022 32.6582L441.863 15.8125V42.9854H437.493V8H440.032L455.022 26.9453L470.013 8ZM482.977 27.4824V38.9082H493.768C496.795 38.9082 499.773 36.5889 499.773 33.1953C499.773 30.0459 497.088 27.4824 493.768 27.4824H482.977ZM482.977 23.4785H494.231C499.651 23.4785 504.07 27.5557 504.07 33.1953C504.07 38.7861 499.798 42.9854 494.231 42.9854H478.606V8H482.977V23.4785ZM512.493 8V42.9854H508.147V8H512.493ZM560.394 29.4111L564.544 30.7051C562.347 38.2002 555.315 42.9854 547.601 42.9854C537.566 42.9854 529.852 35.0508 529.852 25.4805C529.852 15.959 537.591 7.95117 547.625 7.95117C555.389 7.95117 562.273 12.8096 564.544 20.2559L560.394 21.5254C558.709 15.9346 553.582 11.9795 547.625 11.9795C540.276 11.9795 534.368 17.8633 534.368 25.4805C534.368 32.7803 539.983 38.9814 547.625 38.9814C553.606 38.9814 558.66 35.1729 560.394 29.4111ZM579.729 7.97559H610.052V12.0527H597.063V42.9854H592.693V12.0527H579.729V7.97559ZM617.645 25.4805C617.645 32.7559 623.235 38.9814 630.877 38.9814C638.445 38.9814 644.085 32.9756 644.085 25.4805C644.085 17.9121 638.323 12.0039 630.877 12.0039C623.333 12.0039 617.645 17.9854 617.645 25.4805ZM613.128 25.4805C613.128 15.2998 621.429 7.97559 630.877 7.97559C641.375 7.97559 648.626 16.2275 648.626 25.4805C648.626 35.8564 640.228 42.9854 630.877 42.9854C620.721 42.9854 613.128 34.9775 613.128 25.4805ZM657.977 27.4824V38.9082H668.743C671.722 38.9082 674.773 36.6133 674.773 33.1953C674.773 30.0459 672.088 27.4824 668.743 27.4824H657.977ZM657.977 23.4785H669.207C674.554 23.4785 679.07 27.5068 679.07 33.1953C679.07 38.7617 674.773 42.9854 669.207 42.9854H653.606V8H675.823V12.0771H657.977V23.4785ZM687.078 25.4805C687.078 32.7559 692.669 38.9814 700.311 38.9814C707.879 38.9814 713.519 32.9756 713.519 25.4805C713.519 17.9121 707.757 12.0039 700.311 12.0039C692.767 12.0039 687.078 17.9854 687.078 25.4805ZM682.562 25.4805C682.562 15.2998 690.862 7.97559 700.311 7.97559C710.809 7.97559 718.06 16.2275 718.06 25.4805C718.06 35.8564 709.661 42.9854 700.311 42.9854C690.154 42.9854 682.562 34.9775 682.562 25.4805ZM751.189 12.0039C743.987 12.0039 738.055 17.8633 738.055 25.4805C738.055 32.6582 743.499 38.957 751.189 38.957C758.416 38.957 764.324 33.0732 764.324 25.4805C764.324 18.1562 758.929 12.126 751.189 12.0039ZM751.189 7.97559C760.76 7.97559 768.768 15.7148 768.768 25.4805C768.768 35.0508 760.955 42.9854 751.189 42.9854C742.376 42.9854 735.125 36.6621 733.758 27.5312H727.41V42.9854H723.04V7.97559H727.41V23.4541H733.758C734.905 14.5918 742.083 8.02441 751.189 7.97559ZM786.321 7.97559H813.909V42.9854H809.539V12.0771H790.691V42.9854H786.321V7.97559ZM823.406 25.4805C823.406 32.7559 828.997 38.9814 836.639 38.9814C844.207 38.9814 849.847 32.9756 849.847 25.4805C849.847 17.9121 844.085 12.0039 836.639 12.0039C829.095 12.0039 823.406 17.9854 823.406 25.4805ZM818.89 25.4805C818.89 15.2998 827.19 7.97559 836.639 7.97559C847.137 7.97559 854.388 16.2275 854.388 25.4805C854.388 35.8564 845.989 42.9854 836.639 42.9854C826.482 42.9854 818.89 34.9775 818.89 25.4805ZM884.832 8H887.371V42.9854H883.025V15.6172L860.784 42.9854H858.245V8H862.615V35.3682L884.832 8ZM876.556 -1.96094L879.583 0.797852C877.166 3.70312 874.773 6.6084 872.381 9.51367L869.354 6.75488C871.771 3.84961 874.163 0.944336 876.556 -1.96094ZM917.303 12.0527H904.437C904.412 20.3779 904.119 30.4609 899.993 38.8838H917.303V12.0527ZM921.673 7.97559V38.8838H926.434V50.2119H922.063V42.9854H895.745V50.2119H891.375V38.8838H895.232C899.969 30.9004 900.066 18.1318 900.14 7.97559H921.673ZM931.731 7.97559H954.9V12.0771H936.102V21.8184H950.481V25.8955H936.102V38.9082H954.9V42.9854H931.731V7.97559ZM991.546 8H994.085V42.9854H989.715V15.8125L976.556 32.6582L963.396 15.8125V42.9854H959.026V8H961.565L976.556 26.9453L991.546 8ZM1000.29 30.7295V26.6768H1019.35V30.7295H1000.29ZM1025.58 7.97559H1053.17V42.9854H1048.8V12.0771H1029.95V42.9854H1025.58V7.97559ZM1062.66 25.4805C1062.66 32.7559 1068.25 38.9814 1075.9 38.9814C1083.46 38.9814 1089.1 32.9756 1089.1 25.4805C1089.1 17.9121 1083.34 12.0039 1075.9 12.0039C1068.35 12.0039 1062.66 17.9854 1062.66 25.4805ZM1058.15 25.4805C1058.15 15.2998 1066.45 7.97559 1075.9 7.97559C1086.39 7.97559 1093.65 16.2275 1093.65 25.4805C1093.65 35.8564 1085.25 42.9854 1075.9 42.9854C1065.74 42.9854 1058.15 34.9775 1058.15 25.4805ZM1124.09 8H1126.63V42.9854H1122.28V15.6172L1100.04 42.9854H1097.5V8H1101.87V35.3682L1124.09 8ZM1115.81 -1.96094L1118.84 0.797852C1116.42 3.70312 1114.03 6.6084 1111.64 9.51367L1108.61 6.75488C1111.03 3.84961 1113.42 0.944336 1115.81 -1.96094ZM1156.56 12.0527H1143.69C1143.67 20.3779 1143.38 30.4609 1139.25 38.8838H1156.56V12.0527ZM1160.93 7.97559V38.8838H1165.69V50.2119H1161.32V42.9854H1135V50.2119H1130.63V38.8838H1134.49C1139.23 30.9004 1139.32 18.1318 1139.4 7.97559H1160.93ZM1170.99 7.97559H1194.16V12.0771H1175.36V21.8184H1189.74V25.8955H1175.36V38.9082H1194.16V42.9854H1170.99V7.97559ZM1230.8 8H1233.34V42.9854H1228.97V15.8125L1215.81 32.6582L1202.65 15.8125V42.9854H1198.28V8H1200.82L1215.81 26.9453L1230.8 8ZM1239.13 47.3311L1237.83 45.4268C1238.79 44.7188 1239.35 44.2061 1240.52 42.8877C1239.4 42.5947 1238.59 41.667 1238.59 40.4707C1238.59 39.1279 1239.67 37.9316 1241.08 37.9072C1242.42 37.8828 1243.67 38.9326 1243.67 40.3486C1243.67 42.3018 1242.91 43.9131 1241.42 45.4756C1240.74 46.1592 1240.08 46.7207 1239.13 47.3311Z" fill="white"/>
</g>
<defs>
<clipPath id="clip0_64_223">
<rect width="1380" height="216" fill="white" transform="translate(0 0.985352)"/>
</clipPath>
</defs>
</svg>
