<svg width="1245" height="216" viewBox="0 0 1245 216" fill="none" xmlns="http://www.w3.org/2000/svg">
<g clip-path="url(#clip0_120_2)">
<path d="M22.3633 168.99H26.7334V204H22.3633V189.107C19.2627 190.206 15.9912 190.987 12.5244 190.987C5.49316 190.987 1.02539 187.716 1.02539 180.416V169.063H5.37109V179.806C5.37109 184.713 8.08105 186.91 13.0127 186.91C16.1621 186.91 19.1406 186.153 22.3633 184.859V168.99ZM30.9326 168.99H61.2549V173.067H48.2666V204H43.8965V173.067H30.9326V168.99ZM68.8477 186.495C68.8477 193.771 74.4385 199.996 82.0801 199.996C89.6484 199.996 95.2881 193.99 95.2881 186.495C95.2881 178.927 89.5264 173.019 82.0801 173.019C74.5361 173.019 68.8477 179 68.8477 186.495ZM64.3311 186.495C64.3311 176.314 72.6318 168.99 82.0801 168.99C92.5781 168.99 99.8291 177.242 99.8291 186.495C99.8291 196.871 91.4307 204 82.0801 204C71.9238 204 64.3311 195.992 64.3311 186.495ZM109.18 188.497V199.923H119.946C122.925 199.923 125.977 197.628 125.977 194.21C125.977 191.061 123.291 188.497 119.946 188.497H109.18ZM109.18 184.493H120.41C125.757 184.493 130.273 188.521 130.273 194.21C130.273 199.776 125.977 204 120.41 204H104.81V169.015H127.026V173.092H109.18V184.493ZM139.209 188.497V199.923H150C153.027 199.923 156.006 197.604 156.006 194.21C156.006 191.061 153.32 188.497 150 188.497H139.209ZM139.209 184.493H150.464C155.884 184.493 160.303 188.57 160.303 194.21C160.303 199.801 156.03 204 150.464 204H134.839V169.015H139.209V184.493ZM168.726 169.015V204H164.38V169.015H168.726ZM216.626 190.426L220.776 191.72C218.579 199.215 211.548 204 203.833 204C193.799 204 186.084 196.065 186.084 186.495C186.084 176.974 193.823 168.966 203.857 168.966C211.621 168.966 218.506 173.824 220.776 181.271L216.626 182.54C214.941 176.949 209.814 172.994 203.857 172.994C196.509 172.994 190.601 178.878 190.601 186.495C190.601 193.795 196.216 199.996 203.857 199.996C209.839 199.996 214.893 196.188 216.626 190.426ZM234.082 168.99H256.616V204H252.246V173.092H238.428V194.112C238.428 196.847 237.476 199.19 235.547 201.119C233.618 203.048 231.274 204 228.54 204C226.807 204 225.171 203.585 223.657 202.706L225.781 198.897C226.636 199.386 227.563 199.63 228.54 199.63C230.078 199.63 231.372 199.068 232.446 197.994C233.521 196.92 234.082 195.626 234.082 194.088V168.99ZM266.113 186.495C266.113 193.771 271.704 199.996 279.346 199.996C286.914 199.996 292.554 193.99 292.554 186.495C292.554 178.927 286.792 173.019 279.346 173.019C271.802 173.019 266.113 179 266.113 186.495ZM261.597 186.495C261.597 176.314 269.897 168.99 279.346 168.99C289.844 168.99 297.095 177.242 297.095 186.495C297.095 196.871 288.696 204 279.346 204C269.189 204 261.597 195.992 261.597 186.495ZM306.519 199.996H317.285C320.312 199.996 323.315 197.652 323.315 194.137C323.315 190.914 320.63 188.277 317.285 188.277H306.519V199.996ZM314.282 172.994H306.519V184.493H314.526C317.456 184.396 320.312 182.101 320.312 178.731C320.312 175.582 317.627 172.994 314.282 172.994ZM324.341 178.805C324.341 181.466 323.071 183.834 320.972 185.543C324.707 186.764 327.612 189.913 327.612 194.21C327.612 199.801 323.315 204 317.749 204H302.148V169.015H314.502C319.873 169.015 324.341 173.067 324.341 178.805ZM335.84 186.495C335.84 193.771 341.431 199.996 349.072 199.996C356.641 199.996 362.28 193.99 362.28 186.495C362.28 178.927 356.519 173.019 349.072 173.019C341.528 173.019 335.84 179 335.84 186.495ZM331.323 186.495C331.323 176.314 339.624 168.99 349.072 168.99C359.57 168.99 366.821 177.242 366.821 186.495C366.821 196.871 358.423 204 349.072 204C338.916 204 331.323 195.992 331.323 186.495ZM389.16 179.781H393.774L387.109 189.718L393.774 199.654H389.16L382.617 189.718L389.16 179.781ZM397.998 179.781H402.612L395.947 189.718L402.612 199.654H397.998L391.455 189.718L397.998 179.781ZM416.65 168.99H439.185V204H434.814V173.092H420.996V194.112C420.996 196.847 420.044 199.19 418.115 201.119C416.187 203.048 413.843 204 411.108 204C409.375 204 407.739 203.585 406.226 202.706L408.35 198.897C409.204 199.386 410.132 199.63 411.108 199.63C412.646 199.63 413.94 199.068 415.015 197.994C416.089 196.92 416.65 195.626 416.65 194.088V168.99ZM473.389 173.019C466.187 173.019 460.254 178.878 460.254 186.495C460.254 193.673 465.698 199.972 473.389 199.972C480.615 199.972 486.523 194.088 486.523 186.495C486.523 179.171 481.128 173.141 473.389 173.019ZM473.389 168.99C482.959 168.99 490.967 176.729 490.967 186.495C490.967 196.065 483.154 204 473.389 204C464.575 204 457.324 197.677 455.957 188.546H449.609V204H445.239V168.99H449.609V184.469H455.957C457.104 175.606 464.282 169.039 473.389 168.99ZM500.488 188.497V199.923H511.255C514.233 199.923 517.285 197.628 517.285 194.21C517.285 191.061 514.6 188.497 511.255 188.497H500.488ZM500.488 184.493H511.719C517.065 184.493 521.582 188.521 521.582 194.21C521.582 199.776 517.285 204 511.719 204H496.118V169.015H518.335V173.092H500.488V184.493ZM534.814 168.99H557.349V204H552.979V173.092H539.16V194.112C539.16 196.847 538.208 199.19 536.279 201.119C534.351 203.048 532.007 204 529.272 204C527.539 204 525.903 203.585 524.39 202.706L526.514 198.897C527.368 199.386 528.296 199.63 529.272 199.63C530.811 199.63 532.104 199.068 533.179 197.994C534.253 196.92 534.814 195.626 534.814 194.088V168.99ZM591.553 173.019C584.351 173.019 578.418 178.878 578.418 186.495C578.418 193.673 583.862 199.972 591.553 199.972C598.779 199.972 604.688 194.088 604.688 186.495C604.688 179.171 599.292 173.141 591.553 173.019ZM591.553 168.99C601.123 168.99 609.131 176.729 609.131 186.495C609.131 196.065 601.318 204 591.553 204C582.739 204 575.488 197.677 574.121 188.546H567.773V204H563.403V168.99H567.773V184.469H574.121C575.269 175.606 582.446 169.039 591.553 168.99ZM622.51 179.781H627.124L633.667 189.718L627.124 199.654H622.51L629.15 189.718L622.51 179.781ZM613.647 179.781H618.262L624.805 189.718L618.262 199.654H613.647L620.312 189.718L613.647 179.781ZM654.883 188.497V199.923H665.649C668.628 199.923 671.68 197.628 671.68 194.21C671.68 191.061 668.994 188.497 665.649 188.497H654.883ZM654.883 184.493H666.113C671.46 184.493 675.977 188.521 675.977 194.21C675.977 199.776 671.68 204 666.113 204H650.513V169.015H672.729V173.092H654.883V184.493ZM680.542 168.99H703.711V173.092H684.912V182.833H699.292V186.91H684.912V199.923H703.711V204H680.542V168.99ZM712.207 184.518H722.974C726.001 184.518 729.004 182.223 729.004 178.805C729.004 175.655 726.294 173.092 722.974 173.092H712.207V184.518ZM707.837 169.015H723.438C728.833 169.039 733.301 172.994 733.301 178.805C733.301 184.176 729.004 188.521 723.438 188.521H712.207V204H707.837V169.015ZM737.28 168.99H760.449V173.092H741.65V182.833H756.03V186.91H741.65V199.923H760.449V204H737.28V168.99ZM783.936 168.99H788.306V204H783.936V189.107C780.835 190.206 777.563 190.987 774.097 190.987C767.065 190.987 762.598 187.716 762.598 180.416V169.063H766.943V179.806C766.943 184.713 769.653 186.91 774.585 186.91C777.734 186.91 780.713 186.153 783.936 184.859V168.99ZM798.73 188.497V199.923H809.497C812.524 199.923 815.527 197.628 815.527 194.21C815.527 191.061 812.866 188.497 809.497 188.497H798.73ZM798.73 184.493H809.961C815.381 184.493 819.824 188.546 819.824 194.21C819.824 199.801 815.527 204 809.961 204H794.36V169.015H798.73V184.493ZM827.905 201.461C827.905 202.804 826.807 204 825.366 204C824.023 204 822.827 202.901 822.827 201.461C822.827 200.143 823.926 198.922 825.366 198.922C826.709 198.922 827.905 200.021 827.905 201.461Z" fill="white"/>
<path d="M7.10449 147.461C7.10449 148.804 6.00586 150 4.56543 150C3.22266 150 2.02637 148.901 2.02637 147.461C2.02637 146.143 3.125 144.922 4.56543 144.922C5.9082 144.922 7.10449 146.021 7.10449 147.461ZM16.2598 147.461C16.2598 148.804 15.1611 150 13.7207 150C12.3779 150 11.1816 148.901 11.1816 147.461C11.1816 146.143 12.2803 144.922 13.7207 144.922C15.0635 144.922 16.2598 146.021 16.2598 147.461ZM25.415 147.461C25.415 148.804 24.3164 150 22.876 150C21.5332 150 20.3369 148.901 20.3369 147.461C20.3369 146.143 21.4355 144.922 22.876 144.922C24.2188 144.922 25.415 146.021 25.415 147.461ZM63.0127 115.015H65.5518V150H61.1816V122.827L48.0225 139.673L34.8633 122.827V150H30.4932V115.015H33.0322L48.0225 133.96L63.0127 115.015ZM75.9766 134.497V145.923H86.7676C89.7949 145.923 92.7734 143.604 92.7734 140.21C92.7734 137.061 90.0879 134.497 86.7676 134.497H75.9766ZM75.9766 130.493H87.2314C92.6514 130.493 97.0703 134.57 97.0703 140.21C97.0703 145.801 92.7979 150 87.2314 150H71.6064V115.015H75.9766V130.493ZM105.493 115.015V150H101.147V115.015H105.493ZM128.394 145.996H139.16C142.188 145.996 145.19 143.652 145.19 140.137C145.19 136.914 142.505 134.277 139.16 134.277H128.394V145.996ZM136.157 118.994H128.394V130.493H136.401C139.331 130.396 142.188 128.101 142.188 124.731C142.188 121.582 139.502 118.994 136.157 118.994ZM146.216 124.805C146.216 127.466 144.946 129.834 142.847 131.543C146.582 132.764 149.487 135.913 149.487 140.21C149.487 145.801 145.19 150 139.624 150H124.023V115.015H136.377C141.748 115.015 146.216 119.067 146.216 124.805ZM157.715 132.495C157.715 139.771 163.306 145.996 170.947 145.996C178.516 145.996 184.155 139.99 184.155 132.495C184.155 124.927 178.394 119.019 170.947 119.019C163.403 119.019 157.715 125 157.715 132.495ZM153.198 132.495C153.198 122.314 161.499 114.99 170.947 114.99C181.445 114.99 188.696 123.242 188.696 132.495C188.696 142.871 180.298 150 170.947 150C160.791 150 153.198 141.992 153.198 132.495ZM192.212 143.799L194.946 140.747C198.926 144.507 203.149 145.923 206.763 145.947C212.256 145.972 216.284 142.822 216.26 139.307C216.26 134.937 209.253 134.204 205.2 134.204H199.902V130.249H205.2C208.813 130.249 214.502 129.224 214.502 125.195C214.502 121.167 210.474 118.896 205.859 118.896C202.612 118.921 199.023 119.995 195.874 122.29L193.384 119.214C197.534 116.26 202.002 114.917 206.079 114.917C213.159 114.917 218.848 119.067 218.848 125.293C218.872 128.784 216.553 130.688 213.281 131.86C217.285 133.057 220.63 135.034 220.63 139.307C220.63 145.02 214.746 149.951 207.129 150C202.051 150.024 196.826 147.9 192.212 143.799ZM229.883 134.497V145.923H240.649C243.677 145.923 246.68 143.628 246.68 140.21C246.68 137.061 244.019 134.497 240.649 134.497H229.883ZM229.883 130.493H241.113C246.533 130.493 250.977 134.546 250.977 140.21C250.977 145.801 246.68 150 241.113 150H225.513V115.015H229.883V130.493ZM287.476 115.015H290.015V150H285.645V122.827L272.485 139.673L259.326 122.827V150H254.956V115.015H257.495L272.485 133.96L287.476 115.015ZM296.069 114.99H319.238V119.092H300.439V128.833H314.819V132.91H300.439V145.923H319.238V150H296.069V114.99ZM355.884 115.015H358.423V150H354.053V122.827L340.894 139.673L327.734 122.827V150H323.364V115.015H325.903L340.894 133.96L355.884 115.015ZM375.024 114.99H405.347V119.067H392.358V150H387.988V119.067H375.024V114.99ZM412.939 132.495C412.939 139.771 418.53 145.996 426.172 145.996C433.74 145.996 439.38 139.99 439.38 132.495C439.38 124.927 433.618 119.019 426.172 119.019C418.628 119.019 412.939 125 412.939 132.495ZM408.423 132.495C408.423 122.314 416.724 114.99 426.172 114.99C436.67 114.99 443.921 123.242 443.921 132.495C443.921 142.871 435.522 150 426.172 150C416.016 150 408.423 141.992 408.423 132.495ZM457.568 114.99H480.103V150H475.732V119.092H461.914V140.112C461.914 142.847 460.962 145.19 459.033 147.119C457.104 149.048 454.761 150 452.026 150C450.293 150 448.657 149.585 447.144 148.706L449.268 144.897C450.122 145.386 451.05 145.63 452.026 145.63C453.564 145.63 454.858 145.068 455.933 143.994C457.007 142.92 457.568 141.626 457.568 140.088V114.99ZM490.527 134.497V145.923H501.294C504.321 145.923 507.324 143.628 507.324 140.21C507.324 137.061 504.663 134.497 501.294 134.497H490.527ZM490.527 130.493H501.758C507.178 130.493 511.621 134.546 511.621 140.21C511.621 145.801 507.324 150 501.758 150H486.157V115.015H490.527V130.493ZM533.984 114.966H539.38C534.277 119.922 529.15 124.854 524.048 129.785L542.236 150H536.865C531.226 143.774 525.61 137.5 519.971 131.274V150H515.601V114.966H519.971V128.442L533.984 114.966ZM550.439 132.495C550.439 139.771 556.03 145.996 563.672 145.996C571.24 145.996 576.88 139.99 576.88 132.495C576.88 124.927 571.118 119.019 563.672 119.019C556.128 119.019 550.439 125 550.439 132.495ZM545.923 132.495C545.923 122.314 554.224 114.99 563.672 114.99C574.17 114.99 581.421 123.242 581.421 132.495C581.421 142.871 573.022 150 563.672 150C553.516 150 545.923 141.992 545.923 132.495ZM621.997 114.99H626.392V150H621.997V132.91H603.174V150H598.804V114.99H603.174V128.809H621.997V114.99ZM644.604 114.99H648.999L662.964 150H658.594L655.933 143.408H637.646L635.01 150H630.615L644.604 114.99ZM646.802 120.483L639.233 139.38H654.346L646.802 120.483ZM703.174 114.966H707.52V150H667.163V114.966H671.533V145.923H685.156V114.966H689.526V145.923H703.174V114.966ZM715.649 144.897C716.504 145.386 717.407 145.63 718.384 145.63C720.386 145.654 722.192 144.653 723.853 141.65L725.684 138.33L713.013 114.99H717.749L728.052 133.96L738.428 114.99H743.164L727.881 142.993C725.952 146.558 722.998 150.024 718.384 150C716.699 150 715.112 149.585 713.525 148.706L715.649 144.897ZM763.916 130.518H774.683C777.71 130.518 780.713 128.223 780.713 124.805C780.713 121.655 778.003 119.092 774.683 119.092H763.916V130.518ZM759.546 115.015H775.146C780.542 115.039 785.01 118.994 785.01 124.805C785.01 130.176 780.713 134.521 775.146 134.521H763.916V150H759.546V115.015ZM788.989 114.99H812.158V119.092H793.359V128.833H807.739V132.91H793.359V145.923H812.158V150H788.989V114.99ZM835.645 114.99H840.015V150H835.645V135.107C832.544 136.206 829.272 136.987 825.806 136.987C818.774 136.987 814.307 133.716 814.307 126.416V115.063H818.652V125.806C818.652 130.713 821.362 132.91 826.294 132.91C829.443 132.91 832.422 132.153 835.645 130.859V114.99ZM850.439 134.497V145.923H861.206C864.233 145.923 867.236 143.628 867.236 140.21C867.236 137.061 864.575 134.497 861.206 134.497H850.439ZM850.439 130.493H861.67C867.09 130.493 871.533 134.546 871.533 140.21C871.533 145.801 867.236 150 861.67 150H846.069V115.015H850.439V130.493ZM875.244 154.346L873.95 152.441C874.902 151.733 875.464 151.221 876.636 149.902C875.513 149.609 874.707 148.682 874.707 147.485C874.707 146.143 875.781 144.946 877.197 144.922C878.54 144.897 879.785 145.947 879.785 147.363C879.785 149.316 879.028 150.928 877.539 152.49C876.855 153.174 876.196 153.735 875.244 154.346Z" fill="white"/>
<path d="M228.147 60.9902H258.47V65.0674H245.481V96H241.111V65.0674H228.147V60.9902ZM266.062 78.4951C266.062 85.7705 271.653 91.9961 279.295 91.9961C286.863 91.9961 292.503 85.9902 292.503 78.4951C292.503 70.9268 286.741 65.0186 279.295 65.0186C271.751 65.0186 266.062 71 266.062 78.4951ZM261.546 78.4951C261.546 68.3145 269.847 60.9902 279.295 60.9902C289.793 60.9902 297.044 69.2422 297.044 78.4951C297.044 88.8711 288.646 96 279.295 96C269.139 96 261.546 87.9922 261.546 78.4951ZM310.691 60.9902H333.226V96H328.855V65.0918H315.037V86.1123C315.037 88.8467 314.085 91.1904 312.156 93.1191C310.228 95.0479 307.884 96 305.149 96C303.416 96 301.78 95.585 300.267 94.7061L302.391 90.8975C303.245 91.3857 304.173 91.6299 305.149 91.6299C306.688 91.6299 307.981 91.0684 309.056 89.9941C310.13 88.9199 310.691 87.626 310.691 86.0879V60.9902ZM343.65 80.4971V91.9229H354.417C357.444 91.9229 360.447 89.6279 360.447 86.21C360.447 83.0605 357.786 80.4971 354.417 80.4971H343.65ZM343.65 76.4932H354.881C360.301 76.4932 364.744 80.5459 364.744 86.21C364.744 91.8008 360.447 96 354.881 96H339.28V61.0146H343.65V76.4932ZM387.107 60.9658H392.503C387.4 65.9219 382.273 70.8535 377.171 75.7852L395.359 96H389.988C384.349 89.7744 378.733 83.5 373.094 77.2744V96H368.724V60.9658H373.094V74.4424L387.107 60.9658ZM403.562 78.4951C403.562 85.7705 409.153 91.9961 416.795 91.9961C424.363 91.9961 430.003 85.9902 430.003 78.4951C430.003 70.9268 424.241 65.0186 416.795 65.0186C409.251 65.0186 403.562 71 403.562 78.4951ZM399.046 78.4951C399.046 68.3145 407.347 60.9902 416.795 60.9902C427.293 60.9902 434.544 69.2422 434.544 78.4951C434.544 88.8711 426.146 96 416.795 96C406.639 96 399.046 87.9922 399.046 78.4951ZM481.37 82.4258L485.521 83.7197C483.323 91.2148 476.292 96 468.577 96C458.543 96 450.828 88.0654 450.828 78.4951C450.828 68.9736 458.567 60.9658 468.602 60.9658C476.365 60.9658 483.25 65.8242 485.521 73.2705L481.37 74.54C479.686 68.9492 474.559 64.9941 468.602 64.9941C461.253 64.9941 455.345 70.8779 455.345 78.4951C455.345 85.7949 460.96 91.9961 468.602 91.9961C474.583 91.9961 479.637 88.1875 481.37 82.4258ZM490.159 60.9902H513.328V65.0918H494.529V74.833H508.909V78.9102H494.529V91.9229H513.328V96H490.159V60.9902ZM521.824 76.5176H532.591C535.618 76.5176 538.621 74.2227 538.621 70.8047C538.621 67.6553 535.911 65.0918 532.591 65.0918H521.824V76.5176ZM517.454 61.0146H533.055C538.45 61.0391 542.918 64.9941 542.918 70.8047C542.918 76.1758 538.621 80.5215 533.055 80.5215H521.824V96H517.454V61.0146ZM571.58 65.0674H558.714C558.689 73.3926 558.396 83.4756 554.271 91.8984H571.58V65.0674ZM575.95 60.9902V91.8984H580.711V103.227H576.341V96H550.022V103.227H545.652V91.8984H549.51C554.246 83.915 554.344 71.1465 554.417 60.9902H575.95ZM607.518 60.9902H611.912V91.9229H616.844V103.227H612.474V96H584.593V60.9902H588.963V91.9229H607.518V60.9902ZM622.044 60.9902H645.213V65.0918H626.414V74.833H640.794V78.9102H626.414V91.9229H645.213V96H622.044V60.9902ZM691.185 82.4258L695.335 83.7197C693.138 91.2148 686.106 96 678.392 96C668.357 96 660.643 88.0654 660.643 78.4951C660.643 68.9736 668.382 60.9658 678.416 60.9658C686.18 60.9658 693.064 65.8242 695.335 73.2705L691.185 74.54C689.5 68.9492 684.373 64.9941 678.416 64.9941C671.067 64.9941 665.159 70.8779 665.159 78.4951C665.159 85.7949 670.774 91.9961 678.416 91.9961C684.397 91.9961 689.451 88.1875 691.185 82.4258ZM741.819 82.4258L745.97 83.7197C743.772 91.2148 736.741 96 729.026 96C718.992 96 711.277 88.0654 711.277 78.4951C711.277 68.9736 719.017 60.9658 729.051 60.9658C736.814 60.9658 743.699 65.8242 745.97 73.2705L741.819 74.54C740.135 68.9492 735.008 64.9941 729.051 64.9941C721.702 64.9941 715.794 70.8779 715.794 78.4951C715.794 85.7949 721.409 91.9961 729.051 91.9961C735.032 91.9961 740.086 88.1875 741.819 82.4258ZM754.051 78.4951C754.051 85.7705 759.642 91.9961 767.283 91.9961C774.852 91.9961 780.491 85.9902 780.491 78.4951C780.491 70.9268 774.729 65.0186 767.283 65.0186C759.739 65.0186 754.051 71 754.051 78.4951ZM749.534 78.4951C749.534 68.3145 757.835 60.9902 767.283 60.9902C777.781 60.9902 785.032 69.2422 785.032 78.4951C785.032 88.8711 776.634 96 767.283 96C757.127 96 749.534 87.9922 749.534 78.4951ZM794.383 80.4971V91.9229H805.149C808.128 91.9229 811.18 89.6279 811.18 86.21C811.18 83.0605 808.494 80.4971 805.149 80.4971H794.383ZM794.383 76.4932H805.613C810.96 76.4932 815.477 80.5215 815.477 86.21C815.477 91.7764 811.18 96 805.613 96H790.013V61.0146H812.229V65.0918H794.383V76.4932ZM823.484 78.4951C823.484 85.7705 829.075 91.9961 836.717 91.9961C844.285 91.9961 849.925 85.9902 849.925 78.4951C849.925 70.9268 844.163 65.0186 836.717 65.0186C829.173 65.0186 823.484 71 823.484 78.4951ZM818.968 78.4951C818.968 68.3145 827.269 60.9902 836.717 60.9902C847.215 60.9902 854.466 69.2422 854.466 78.4951C854.466 88.8711 846.067 96 836.717 96C826.561 96 818.968 87.9922 818.968 78.4951ZM884.91 61.0146H887.449V96H883.104V68.6318L860.862 96H858.323V61.0146H862.693V88.3828L884.91 61.0146ZM876.634 51.0537L879.661 53.8125C877.244 56.7178 874.852 59.623 872.459 62.5283L869.432 59.7695C871.849 56.8643 874.241 53.959 876.634 51.0537ZM909.544 91.9961H920.311C923.338 91.9961 926.341 89.6523 926.341 86.1367C926.341 82.9141 923.655 80.2773 920.311 80.2773H909.544V91.9961ZM917.308 64.9941H909.544V76.4932H917.552C920.481 76.3955 923.338 74.1006 923.338 70.7314C923.338 67.582 920.652 64.9941 917.308 64.9941ZM927.366 70.8047C927.366 73.4658 926.097 75.834 923.997 77.543C927.732 78.7637 930.638 81.9131 930.638 86.21C930.638 91.8008 926.341 96 920.774 96H905.174V61.0146H917.527C922.898 61.0146 927.366 65.0674 927.366 70.8047ZM938.865 78.4951C938.865 85.7705 944.456 91.9961 952.098 91.9961C959.666 91.9961 965.306 85.9902 965.306 78.4951C965.306 70.9268 959.544 65.0186 952.098 65.0186C944.554 65.0186 938.865 71 938.865 78.4951ZM934.349 78.4951C934.349 68.3145 942.649 60.9902 952.098 60.9902C962.596 60.9902 969.847 69.2422 969.847 78.4951C969.847 88.8711 961.448 96 952.098 96C941.941 96 934.349 87.9922 934.349 78.4951ZM973.362 89.7988L976.097 86.7471C980.076 90.5068 984.3 91.9229 987.913 91.9473C993.406 91.9717 997.435 88.8223 997.41 85.3066C997.41 80.9365 990.403 80.2041 986.351 80.2041H981.053V76.249H986.351C989.964 76.249 995.652 75.2236 995.652 71.1953C995.652 67.167 991.624 64.8965 987.01 64.8965C983.763 64.9209 980.174 65.9951 977.024 68.29L974.534 65.2139C978.685 62.2598 983.152 60.917 987.229 60.917C994.31 60.917 999.998 65.0674 999.998 71.293C1000.02 74.7842 997.703 76.6885 994.432 77.8604C998.436 79.0566 1001.78 81.0342 1001.78 85.3066C1001.78 91.0195 995.896 95.9512 988.279 96C983.201 96.0244 977.977 93.9004 973.362 89.7988ZM1011.03 80.4971V91.9229H1021.8C1024.83 91.9229 1027.83 89.6279 1027.83 86.21C1027.83 83.0605 1025.17 80.4971 1021.8 80.4971H1011.03ZM1011.03 76.4932H1022.26C1027.68 76.4932 1032.13 80.5459 1032.13 86.21C1032.13 91.8008 1027.83 96 1022.26 96H1006.66V61.0146H1011.03V76.4932ZM1068.63 61.0146H1071.17V96H1066.79V68.8271L1053.64 85.6729L1040.48 68.8271V96H1036.11V61.0146H1038.65L1053.64 79.96L1068.63 61.0146ZM1077.22 60.9902H1100.39V65.0918H1081.59V74.833H1095.97V78.9102H1081.59V91.9229H1100.39V96H1077.22V60.9902ZM1137.03 61.0146H1139.57V96H1135.2V68.8271L1122.04 85.6729L1108.88 68.8271V96H1104.51V61.0146H1107.05L1122.04 79.96L1137.03 61.0146ZM1149.73 93.4609C1149.73 94.8037 1148.63 96 1147.19 96C1145.85 96 1144.65 94.9014 1144.65 93.4609C1144.65 92.1426 1145.75 90.9219 1147.19 90.9219C1148.53 90.9219 1149.73 92.0205 1149.73 93.4609Z" fill="white"/>
<path d="M414.104 39.4609C414.104 40.8037 413.006 42 411.565 42C410.223 42 409.026 40.9014 409.026 39.4609C409.026 38.1426 410.125 36.9219 411.565 36.9219C412.908 36.9219 414.104 38.0205 414.104 39.4609ZM423.26 39.4609C423.26 40.8037 422.161 42 420.721 42C419.378 42 418.182 40.9014 418.182 39.4609C418.182 38.1426 419.28 36.9219 420.721 36.9219C422.063 36.9219 423.26 38.0205 423.26 39.4609ZM432.415 39.4609C432.415 40.8037 431.316 42 429.876 42C428.533 42 427.337 40.9014 427.337 39.4609C427.337 38.1426 428.436 36.9219 429.876 36.9219C431.219 36.9219 432.415 38.0205 432.415 39.4609ZM470.013 7.01465H472.552V42H468.182V14.8271L455.022 31.6729L441.863 14.8271V42H437.493V7.01465H440.032L455.022 25.96L470.013 7.01465ZM482.977 26.4971V37.9229H493.768C496.795 37.9229 499.773 35.6035 499.773 32.21C499.773 29.0605 497.088 26.4971 493.768 26.4971H482.977ZM482.977 22.4932H494.231C499.651 22.4932 504.07 26.5703 504.07 32.21C504.07 37.8008 499.798 42 494.231 42H478.606V7.01465H482.977V22.4932ZM512.493 7.01465V42H508.147V7.01465H512.493ZM560.394 28.4258L564.544 29.7197C562.347 37.2148 555.315 42 547.601 42C537.566 42 529.852 34.0654 529.852 24.4951C529.852 14.9736 537.591 6.96582 547.625 6.96582C555.389 6.96582 562.273 11.8242 564.544 19.2705L560.394 20.54C558.709 14.9492 553.582 10.9941 547.625 10.9941C540.276 10.9941 534.368 16.8779 534.368 24.4951C534.368 31.7949 539.983 37.9961 547.625 37.9961C553.606 37.9961 558.66 34.1875 560.394 28.4258ZM579.729 6.99023H610.052V11.0674H597.063V42H592.693V11.0674H579.729V6.99023ZM617.645 24.4951C617.645 31.7705 623.235 37.9961 630.877 37.9961C638.445 37.9961 644.085 31.9902 644.085 24.4951C644.085 16.9268 638.323 11.0186 630.877 11.0186C623.333 11.0186 617.645 17 617.645 24.4951ZM613.128 24.4951C613.128 14.3145 621.429 6.99023 630.877 6.99023C641.375 6.99023 648.626 15.2422 648.626 24.4951C648.626 34.8711 640.228 42 630.877 42C620.721 42 613.128 33.9922 613.128 24.4951ZM657.977 26.4971V37.9229H668.743C671.722 37.9229 674.773 35.6279 674.773 32.21C674.773 29.0605 672.088 26.4971 668.743 26.4971H657.977ZM657.977 22.4932H669.207C674.554 22.4932 679.07 26.5215 679.07 32.21C679.07 37.7764 674.773 42 669.207 42H653.606V7.01465H675.823V11.0918H657.977V22.4932ZM687.078 24.4951C687.078 31.7705 692.669 37.9961 700.311 37.9961C707.879 37.9961 713.519 31.9902 713.519 24.4951C713.519 16.9268 707.757 11.0186 700.311 11.0186C692.767 11.0186 687.078 17 687.078 24.4951ZM682.562 24.4951C682.562 14.3145 690.862 6.99023 700.311 6.99023C710.809 6.99023 718.06 15.2422 718.06 24.4951C718.06 34.8711 709.661 42 700.311 42C690.154 42 682.562 33.9922 682.562 24.4951ZM751.189 11.0186C743.987 11.0186 738.055 16.8779 738.055 24.4951C738.055 31.6729 743.499 37.9717 751.189 37.9717C758.416 37.9717 764.324 32.0879 764.324 24.4951C764.324 17.1709 758.929 11.1406 751.189 11.0186ZM751.189 6.99023C760.76 6.99023 768.768 14.7295 768.768 24.4951C768.768 34.0654 760.955 42 751.189 42C742.376 42 735.125 35.6768 733.758 26.5459H727.41V42H723.04V6.99023H727.41V22.4688H733.758C734.905 13.6064 742.083 7.03906 751.189 6.99023ZM786.321 6.99023H813.909V42H809.539V11.0918H790.691V42H786.321V6.99023ZM823.406 24.4951C823.406 31.7705 828.997 37.9961 836.639 37.9961C844.207 37.9961 849.847 31.9902 849.847 24.4951C849.847 16.9268 844.085 11.0186 836.639 11.0186C829.095 11.0186 823.406 17 823.406 24.4951ZM818.89 24.4951C818.89 14.3145 827.19 6.99023 836.639 6.99023C847.137 6.99023 854.388 15.2422 854.388 24.4951C854.388 34.8711 845.989 42 836.639 42C826.482 42 818.89 33.9922 818.89 24.4951ZM884.832 7.01465H887.371V42H883.025V14.6318L860.784 42H858.245V7.01465H862.615V34.3828L884.832 7.01465ZM876.556 -2.94629L879.583 -0.1875C877.166 2.71777 874.773 5.62305 872.381 8.52832L869.354 5.76953C871.771 2.86426 874.163 -0.0410156 876.556 -2.94629ZM917.303 11.0674H904.437C904.412 19.3926 904.119 29.4756 899.993 37.8984H917.303V11.0674ZM921.673 6.99023V37.8984H926.434V49.2266H922.063V42H895.745V49.2266H891.375V37.8984H895.232C899.969 29.915 900.066 17.1465 900.14 6.99023H921.673ZM931.731 6.99023H954.9V11.0918H936.102V20.833H950.481V24.9102H936.102V37.9229H954.9V42H931.731V6.99023ZM991.546 7.01465H994.085V42H989.715V14.8271L976.556 31.6729L963.396 14.8271V42H959.026V7.01465H961.565L976.556 25.96L991.546 7.01465ZM1000.29 29.7441V25.6914H1019.35V29.7441H1000.29ZM1025.58 6.99023H1053.17V42H1048.8V11.0918H1029.95V42H1025.58V6.99023ZM1062.66 24.4951C1062.66 31.7705 1068.25 37.9961 1075.9 37.9961C1083.46 37.9961 1089.1 31.9902 1089.1 24.4951C1089.1 16.9268 1083.34 11.0186 1075.9 11.0186C1068.35 11.0186 1062.66 17 1062.66 24.4951ZM1058.15 24.4951C1058.15 14.3145 1066.45 6.99023 1075.9 6.99023C1086.39 6.99023 1093.65 15.2422 1093.65 24.4951C1093.65 34.8711 1085.25 42 1075.9 42C1065.74 42 1058.15 33.9922 1058.15 24.4951ZM1124.09 7.01465H1126.63V42H1122.28V14.6318L1100.04 42H1097.5V7.01465H1101.87V34.3828L1124.09 7.01465ZM1115.81 -2.94629L1118.84 -0.1875C1116.42 2.71777 1114.03 5.62305 1111.64 8.52832L1108.61 5.76953C1111.03 2.86426 1113.42 -0.0410156 1115.81 -2.94629ZM1156.56 11.0674H1143.69C1143.67 19.3926 1143.38 29.4756 1139.25 37.8984H1156.56V11.0674ZM1160.93 6.99023V37.8984H1165.69V49.2266H1161.32V42H1135V49.2266H1130.63V37.8984H1134.49C1139.23 29.915 1139.32 17.1465 1139.4 6.99023H1160.93ZM1170.99 6.99023H1194.16V11.0918H1175.36V20.833H1189.74V24.9102H1175.36V37.9229H1194.16V42H1170.99V6.99023ZM1230.8 7.01465H1233.34V42H1228.97V14.8271L1215.81 31.6729L1202.65 14.8271V42H1198.28V7.01465H1200.82L1215.81 25.96L1230.8 7.01465ZM1239.13 46.3457L1237.83 44.4414C1238.79 43.7334 1239.35 43.2207 1240.52 41.9023C1239.4 41.6094 1238.59 40.6816 1238.59 39.4854C1238.59 38.1426 1239.67 36.9463 1241.08 36.9219C1242.42 36.8975 1243.67 37.9473 1243.67 39.3633C1243.67 41.3164 1242.91 42.9277 1241.42 44.4902C1240.74 45.1738 1240.08 45.7354 1239.13 46.3457Z" fill="white"/>
</g>
<defs>
<clipPath id="clip0_120_2">
<rect width="1245" height="216" fill="white"/>
</clipPath>
</defs>
</svg>
