<svg width="1380" height="325" viewBox="0 0 1380 325" fill="none" xmlns="http://www.w3.org/2000/svg">
<path d="M181.455 12.4863C181.455 10.167 182.969 7.79883 185.581 6.08984L186.753 7.84766C185.996 8.45801 185.41 8.87305 184.312 10.167C185.337 10.4355 186.069 11.3145 186.069 12.3887C186.069 13.6338 185.044 14.7324 183.799 14.7324C182.578 14.7324 181.504 13.7559 181.455 12.4863ZM175.718 12.4863C175.718 10.167 177.207 7.79883 179.844 6.08984L180.991 7.84766C180.112 8.48242 179.624 8.9707 178.574 10.167C179.6 10.4355 180.308 11.3145 180.308 12.3887C180.308 13.6338 179.282 14.7324 178.062 14.7324C176.841 14.7324 175.718 13.7559 175.718 12.4863ZM213.755 23.4727V12.0469H202.988C199.961 12.0469 196.958 14.3418 196.958 17.7598C196.958 20.8848 199.644 23.4727 202.964 23.4727H213.755ZM213.755 27.4766H204.697L195.664 42.9551H190.732L199.985 27.0859C195.737 26.0361 192.661 22.5449 192.661 17.7598C192.661 12.1689 196.958 7.96973 202.524 7.96973H218.125V42.9551H213.755V27.4766ZM236.582 7.94531H264.17V42.9551H259.8V12.0469H240.952V42.9551H236.582V7.94531ZM270.225 7.94531H293.394V12.0469H274.595V21.7881H288.975V25.8652H274.595V38.8779H293.394V42.9551H270.225V7.94531ZM301.89 23.4727H312.656C315.684 23.4727 318.687 21.1777 318.687 17.7598C318.687 14.6104 315.977 12.0469 312.656 12.0469H301.89V23.4727ZM297.52 7.96973H313.12C318.516 7.99414 322.983 11.9492 322.983 17.7598C322.983 23.1309 318.687 27.4766 313.12 27.4766H301.89V42.9551H297.52V7.96973ZM326.963 7.94531H350.132V12.0469H331.333V21.7881H345.713V25.8652H331.333V38.8779H350.132V42.9551H326.963V7.94531ZM378.94 12.0225H366.074C366.05 20.3477 365.757 30.4307 361.631 38.8535H378.94V12.0225ZM383.311 7.94531V38.8535H388.071V50.1816H383.701V42.9551H357.383V50.1816H353.013V38.8535H356.87C361.606 30.8701 361.704 18.1016 361.777 7.94531H383.311ZM435.703 22.7402L453.892 42.9551H448.521L431.65 24.2295V42.9551H427.305V24.2295L410.41 42.9551H405.039L423.228 22.7402L407.896 7.9209H413.315L427.305 21.3975V7.9209H431.65V21.3975L445.615 7.9209H451.035L435.703 22.7402ZM459.189 7.96973H463.56V35.3379L485.801 7.96973H488.34V42.9551H483.97V15.5869L461.729 42.9551H459.189V7.96973ZM492.93 36.7539L495.664 33.7021C499.644 37.4619 503.867 38.8779 507.48 38.9023C512.974 38.9268 517.002 35.7773 516.978 32.2617C516.978 27.8916 509.971 27.1592 505.918 27.1592H500.62V23.2041H505.918C509.531 23.2041 515.22 22.1787 515.22 18.1504C515.22 14.1221 511.191 11.8516 506.577 11.8516C503.33 11.876 499.741 12.9502 496.592 15.2451L494.102 12.1689C498.252 9.21484 502.72 7.87207 506.797 7.87207C513.877 7.87207 519.565 12.0225 519.565 18.248C519.59 21.7393 517.271 23.6436 513.999 24.8154C518.003 26.0117 521.348 27.9893 521.348 32.2617C521.348 37.9746 515.464 42.9062 507.847 42.9551C502.769 42.9795 497.544 40.8555 492.93 36.7539ZM549.424 7.94531H553.818V42.9551H549.424V25.8652H530.601V42.9551H526.23V7.94531H530.601V21.7637H549.424V7.94531ZM564.243 27.4521V38.8779H575.01C578.037 38.8779 581.04 36.583 581.04 33.165C581.04 30.0156 578.379 27.4521 575.01 27.4521H564.243ZM564.243 23.4482H575.474C580.894 23.4482 585.337 27.501 585.337 33.165C585.337 38.7559 581.04 42.9551 575.474 42.9551H559.873V7.96973H564.243V23.4482ZM617.466 11.9736C610.264 11.9736 604.331 17.833 604.331 25.4502C604.331 32.6279 609.775 38.9268 617.466 38.9268C624.692 38.9268 630.601 33.043 630.601 25.4502C630.601 18.126 625.205 12.0957 617.466 11.9736ZM617.466 7.94531C627.036 7.94531 635.044 15.6846 635.044 25.4502C635.044 35.0205 627.231 42.9551 617.466 42.9551C608.652 42.9551 601.401 36.6318 600.034 27.501H593.687V42.9551H589.316V7.94531H593.687V23.4238H600.034C601.182 14.5615 608.359 7.99414 617.466 7.94531ZM657.041 38.9512H667.808C670.835 38.9512 673.838 36.6074 673.838 33.0918C673.838 29.8691 671.152 27.2324 667.808 27.2324H657.041V38.9512ZM664.805 11.9492H657.041V23.4482H665.049C667.979 23.3506 670.835 21.0557 670.835 17.6865C670.835 14.5371 668.149 11.9492 664.805 11.9492ZM674.863 17.7598C674.863 20.4209 673.594 22.7891 671.494 24.498C675.229 25.7188 678.135 28.8682 678.135 33.165C678.135 38.7559 673.838 42.9551 668.271 42.9551H652.671V7.96973H665.024C670.396 7.96973 674.863 12.0225 674.863 17.7598ZM693.467 7.94531H723.789V12.0225H710.801V42.9551H706.431V12.0225H693.467V7.94531ZM749.839 23.4727V12.0469H739.072C736.045 12.0469 733.042 14.3418 733.042 17.7598C733.042 20.8848 735.728 23.4727 739.048 23.4727H749.839ZM749.839 27.4766H740.781L731.748 42.9551H726.816L736.069 27.0859C731.821 26.0361 728.745 22.5449 728.745 17.7598C728.745 12.1689 733.042 7.96973 738.608 7.96973H754.209V42.9551H749.839V27.4766ZM764.634 42.9551H760.264V7.94531H783.408V12.0469H764.634V42.9551ZM790.854 25.4502C790.854 32.7256 796.445 38.9512 804.087 38.9512C811.655 38.9512 817.295 32.9453 817.295 25.4502C817.295 17.8818 811.533 11.9736 804.087 11.9736C796.543 11.9736 790.854 17.9551 790.854 25.4502ZM786.338 25.4502C786.338 15.2695 794.639 7.94531 804.087 7.94531C814.585 7.94531 821.836 16.1973 821.836 25.4502C821.836 35.8262 813.438 42.9551 804.087 42.9551C793.931 42.9551 786.338 34.9473 786.338 25.4502ZM856.26 29.3809L860.41 30.6748C858.213 38.1699 851.182 42.9551 843.467 42.9551C833.433 42.9551 825.718 35.0205 825.718 25.4502C825.718 15.9287 833.457 7.9209 843.491 7.9209C851.255 7.9209 858.14 12.7793 860.41 20.2256L856.26 21.4951C854.575 15.9043 849.448 11.9492 843.491 11.9492C836.143 11.9492 830.234 17.833 830.234 25.4502C830.234 32.75 835.85 38.9512 843.491 38.9512C849.473 38.9512 854.526 35.1426 856.26 29.3809ZM863.193 7.94531H893.516V12.0225H880.527V42.9551H876.157V12.0225H863.193V7.94531ZM920.859 7.94531H925.254V42.9551H920.859V25.8652H902.036V42.9551H897.666V7.94531H902.036V21.7637H920.859V7.94531ZM934.751 25.4502C934.751 32.7256 940.342 38.9512 947.983 38.9512C955.552 38.9512 961.191 32.9453 961.191 25.4502C961.191 17.8818 955.43 11.9736 947.983 11.9736C940.439 11.9736 934.751 17.9551 934.751 25.4502ZM930.234 25.4502C930.234 15.2695 938.535 7.94531 947.983 7.94531C958.481 7.94531 965.732 16.1973 965.732 25.4502C965.732 35.8262 957.334 42.9551 947.983 42.9551C937.827 42.9551 930.234 34.9473 930.234 25.4502ZM1003.23 7.96973H1005.77V42.9551H1001.4V15.7822L988.242 32.6279L975.083 15.7822V42.9551H970.713V7.96973H973.252L988.242 26.915L1003.23 7.96973ZM1048.91 12.0225H1036.04C1036.02 20.3477 1035.73 30.4307 1031.6 38.8535H1048.91V12.0225ZM1053.28 7.94531V38.8535H1058.04V50.1816H1053.67V42.9551H1027.35V50.1816H1022.98V38.8535H1026.84C1031.58 30.8701 1031.67 18.1016 1031.75 7.94531H1053.28ZM1066.78 25.4502C1066.78 32.7256 1072.37 38.9512 1080.01 38.9512C1087.58 38.9512 1093.22 32.9453 1093.22 25.4502C1093.22 17.8818 1087.46 11.9736 1080.01 11.9736C1072.47 11.9736 1066.78 17.9551 1066.78 25.4502ZM1062.27 25.4502C1062.27 15.2695 1070.57 7.94531 1080.01 7.94531C1090.51 7.94531 1097.76 16.1973 1097.76 25.4502C1097.76 35.8262 1089.37 42.9551 1080.01 42.9551C1069.86 42.9551 1062.27 34.9473 1062.27 25.4502ZM1111.41 7.94531H1133.95V42.9551H1129.58V12.0469H1115.76V33.0674C1115.76 35.8018 1114.8 38.1455 1112.88 40.0742C1110.95 42.0029 1108.6 42.9551 1105.87 42.9551C1104.14 42.9551 1102.5 42.54 1100.99 41.6611L1103.11 37.8525C1103.96 38.3408 1104.89 38.585 1105.87 38.585C1107.41 38.585 1108.7 38.0234 1109.78 36.9492C1110.85 35.875 1111.41 34.5811 1111.41 33.043V7.94531ZM1144.37 42.9551H1140V7.94531H1163.14V12.0469H1144.37V42.9551ZM1169.2 37.8525C1170.05 38.3408 1170.96 38.585 1171.93 38.585C1173.94 38.6094 1175.74 37.6084 1177.4 34.6055L1179.23 31.2852L1166.56 7.94531H1171.3L1181.6 26.915L1191.98 7.94531H1196.71L1181.43 35.9482C1179.5 39.5127 1176.55 42.9795 1171.93 42.9551C1170.25 42.9551 1168.66 42.54 1167.08 41.6611L1169.2 37.8525ZM1200.42 47.3008L1199.13 45.3965C1200.08 44.6885 1200.64 44.1758 1201.82 42.8574C1200.69 42.5645 1199.89 41.6367 1199.89 40.4404C1199.89 39.0977 1200.96 37.9014 1202.38 37.877C1203.72 37.8525 1204.97 38.9023 1204.97 40.3184C1204.97 42.2715 1204.21 43.8828 1202.72 45.4453C1202.04 46.1289 1201.38 46.6904 1200.42 47.3008ZM174.79 61.9697H179.16V89.3379L201.401 61.9697H203.94V96.9551H199.57V69.5869L177.329 96.9551H174.79V61.9697ZM220.542 61.9453H250.864V66.0225H237.876V96.9551H233.506V66.0225H220.542V61.9453ZM258.457 79.4502C258.457 86.7256 264.048 92.9512 271.689 92.9512C279.258 92.9512 284.897 86.9453 284.897 79.4502C284.897 71.8818 279.136 65.9736 271.689 65.9736C264.146 65.9736 258.457 71.9551 258.457 79.4502ZM253.94 79.4502C253.94 69.2695 262.241 61.9453 271.689 61.9453C282.188 61.9453 289.438 70.1973 289.438 79.4502C289.438 89.8262 281.04 96.9551 271.689 96.9551C261.533 96.9551 253.94 88.9473 253.94 79.4502ZM303.086 61.9453H325.62V96.9551H321.25V66.0469H307.432V87.0674C307.432 89.8018 306.479 92.1455 304.551 94.0742C302.622 96.0029 300.278 96.9551 297.544 96.9551C295.811 96.9551 294.175 96.54 292.661 95.6611L294.785 91.8525C295.64 92.3408 296.567 92.585 297.544 92.585C299.082 92.585 300.376 92.0234 301.45 90.9492C302.524 89.875 303.086 88.5811 303.086 87.043V61.9453ZM336.045 81.4521V92.8779H346.812C349.839 92.8779 352.842 90.583 352.842 87.165C352.842 84.0156 350.181 81.4521 346.812 81.4521H336.045ZM336.045 77.4482H347.275C352.695 77.4482 357.139 81.501 357.139 87.165C357.139 92.7559 352.842 96.9551 347.275 96.9551H331.675V61.9697H336.045V77.4482ZM379.502 61.9209H384.897C379.795 66.877 374.668 71.8086 369.565 76.7402L387.754 96.9551H382.383C376.743 90.7295 371.128 84.4551 365.488 78.2295V96.9551H361.118V61.9209H365.488V75.3975L379.502 61.9209ZM395.957 79.4502C395.957 86.7256 401.548 92.9512 409.189 92.9512C416.758 92.9512 422.397 86.9453 422.397 79.4502C422.397 71.8818 416.636 65.9736 409.189 65.9736C401.646 65.9736 395.957 71.9551 395.957 79.4502ZM391.44 79.4502C391.44 69.2695 399.741 61.9453 409.189 61.9453C419.688 61.9453 426.938 70.1973 426.938 79.4502C426.938 89.8262 418.54 96.9551 409.189 96.9551C399.033 96.9551 391.44 88.9473 391.44 79.4502ZM473.765 83.3809L477.915 84.6748C475.718 92.1699 468.687 96.9551 460.972 96.9551C450.938 96.9551 443.223 89.0205 443.223 79.4502C443.223 69.9287 450.962 61.9209 460.996 61.9209C468.76 61.9209 475.645 66.7793 477.915 74.2256L473.765 75.4951C472.08 69.9043 466.953 65.9492 460.996 65.9492C453.647 65.9492 447.739 71.833 447.739 79.4502C447.739 86.75 453.354 92.9512 460.996 92.9512C466.978 92.9512 472.031 89.1426 473.765 83.3809ZM515.073 61.9697H517.612V96.9551H513.242V69.7822L500.083 86.6279L486.924 69.7822V96.9551H482.554V61.9697H485.093L500.083 80.915L515.073 61.9697ZM523.667 61.9453H546.836V66.0469H528.037V75.7881H542.417V79.8652H528.037V92.8779H546.836V96.9551H523.667V61.9453ZM555.332 77.4727H566.099C569.126 77.4727 572.129 75.1777 572.129 71.7598C572.129 68.6104 569.419 66.0469 566.099 66.0469H555.332V77.4727ZM550.962 61.9697H566.562C571.958 61.9941 576.426 65.9492 576.426 71.7598C576.426 77.1309 572.129 81.4766 566.562 81.4766H555.332V96.9551H550.962V61.9697ZM578.55 61.9453H608.872V66.0225H595.884V96.9551H591.514V66.0225H578.55V61.9453ZM617.393 81.4521V92.8779H628.159C631.187 92.8779 634.189 90.583 634.189 87.165C634.189 84.0156 631.528 81.4521 628.159 81.4521H617.393ZM617.393 77.4482H628.623C634.043 77.4482 638.486 81.501 638.486 87.165C638.486 92.7559 634.189 96.9551 628.623 96.9551H613.022V61.9697H617.393V77.4482ZM689.365 61.9453H693.76V92.8779H698.691V104.182H694.321V96.9551H653.403V61.9453H657.773V92.8779H671.396V61.9453H675.742V92.8779H689.365V61.9453ZM704.087 61.9453H727.256V66.0469H708.457V75.7881H722.837V79.8652H708.457V92.8779H727.256V96.9551H704.087V61.9453ZM756.064 66.0225H743.198C743.174 74.3477 742.881 84.4307 738.755 92.8535H756.064V66.0225ZM760.435 61.9453V92.8535H765.195V104.182H760.825V96.9551H734.507V104.182H730.137V92.8535H733.994C738.73 84.8701 738.828 72.1016 738.901 61.9453H760.435ZM774.863 77.4727H785.63C788.657 77.4727 791.66 75.1777 791.66 71.7598C791.66 68.6104 788.95 66.0469 785.63 66.0469H774.863V77.4727ZM770.493 61.9697H786.094C791.489 61.9941 795.957 65.9492 795.957 71.7598C795.957 77.1309 791.66 81.4766 786.094 81.4766H774.863V96.9551H770.493V61.9697ZM812.095 61.9453H816.489L830.454 96.9551H826.084L823.423 90.3633H805.137L802.5 96.9551H798.105L812.095 61.9453ZM814.292 67.4385L806.724 86.335H821.836L814.292 67.4385ZM847.056 61.9697H851.426V89.3379L873.667 61.9697H876.206V96.9551H871.836V69.5869L849.595 96.9551H847.056V61.9697ZM927.183 61.9697H929.722V96.9551H925.352V69.7822L912.192 86.6279L899.033 69.7822V96.9551H894.663V61.9697H897.202L912.192 80.915L927.183 61.9697ZM939.219 79.4502C939.219 86.7256 944.81 92.9512 952.451 92.9512C960.02 92.9512 965.659 86.9453 965.659 79.4502C965.659 71.8818 959.897 65.9736 952.451 65.9736C944.907 65.9736 939.219 71.9551 939.219 79.4502ZM934.702 79.4502C934.702 69.2695 943.003 61.9453 952.451 61.9453C962.949 61.9453 970.2 70.1973 970.2 79.4502C970.2 89.8262 961.802 96.9551 952.451 96.9551C942.295 96.9551 934.702 88.9473 934.702 79.4502ZM983.848 61.9453H1006.38V96.9551H1002.01V66.0469H988.193V87.0674C988.193 89.8018 987.241 92.1455 985.312 94.0742C983.384 96.0029 981.04 96.9551 978.306 96.9551C976.572 96.9551 974.937 96.54 973.423 95.6611L975.547 91.8525C976.401 92.3408 977.329 92.585 978.306 92.585C979.844 92.585 981.138 92.0234 982.212 90.9492C983.286 89.875 983.848 88.5811 983.848 87.043V61.9453ZM1031.8 61.9453H1036.17V96.9551H1031.8V82.0625C1028.7 83.1611 1025.42 83.9424 1021.96 83.9424C1014.93 83.9424 1010.46 80.6709 1010.46 73.3711V62.0186H1014.8V72.7607C1014.8 77.668 1017.51 79.8652 1022.45 79.8652C1025.6 79.8652 1028.57 79.1084 1031.8 77.8145V61.9453ZM1054.38 61.9453H1058.77L1072.74 96.9551H1068.37L1065.71 90.3633H1047.42L1044.79 96.9551H1040.39L1054.38 61.9453ZM1056.58 67.4385L1049.01 86.335H1064.12L1056.58 67.4385ZM1085.61 61.9453H1108.14V96.9551H1103.77V66.0469H1089.95V87.0674C1089.95 89.8018 1089 92.1455 1087.07 94.0742C1085.14 96.0029 1082.8 96.9551 1080.06 96.9551C1078.33 96.9551 1076.69 96.54 1075.18 95.6611L1077.3 91.8525C1078.16 92.3408 1079.09 92.585 1080.06 92.585C1081.6 92.585 1082.9 92.0234 1083.97 90.9492C1085.04 89.875 1085.61 88.5811 1085.61 87.043V61.9453ZM1114.19 61.9697H1118.56V89.3379L1140.81 61.9697H1143.34V96.9551H1138.97V69.5869L1116.73 96.9551H1114.19V61.9697ZM1153.84 92.9512H1164.61C1167.64 92.9512 1170.64 90.6074 1170.64 87.0918C1170.64 83.8691 1167.95 81.2324 1164.61 81.2324H1153.84V92.9512ZM1161.61 65.9492H1153.84V77.4482H1161.85C1164.78 77.3506 1167.64 75.0557 1167.64 71.6865C1167.64 68.5371 1164.95 65.9492 1161.61 65.9492ZM1171.67 71.7598C1171.67 74.4209 1170.4 76.7891 1168.3 78.498C1172.03 79.7188 1174.94 82.8682 1174.94 87.165C1174.94 92.7559 1170.64 96.9551 1165.07 96.9551H1149.47V61.9697H1161.83C1167.2 61.9697 1171.67 66.0225 1171.67 71.7598ZM1191.88 61.9453H1196.27L1210.24 96.9551H1205.87L1203.21 90.3633H1184.92L1182.29 96.9551H1177.89L1191.88 61.9453ZM1194.08 67.4385L1186.51 86.335H1201.62L1194.08 67.4385ZM1218.54 94.416C1218.54 95.7588 1217.44 96.9551 1216 96.9551C1214.66 96.9551 1213.46 95.8564 1213.46 94.416C1213.46 93.0977 1214.56 91.877 1216 91.877C1217.34 91.877 1218.54 92.9756 1218.54 94.416ZM265.269 144.754L268.003 141.702C271.982 145.462 276.206 146.878 279.819 146.902C285.312 146.927 289.341 143.777 289.316 140.262C289.316 135.892 282.31 135.159 278.257 135.159H272.959V131.204H278.257C281.87 131.204 287.559 130.179 287.559 126.15C287.559 122.122 283.53 119.852 278.916 119.852C275.669 119.876 272.08 120.95 268.931 123.245L266.44 120.169C270.591 117.215 275.059 115.872 279.136 115.872C286.216 115.872 291.904 120.022 291.904 126.248C291.929 129.739 289.609 131.644 286.338 132.815C290.342 134.012 293.687 135.989 293.687 140.262C293.687 145.975 287.803 150.906 280.186 150.955C275.107 150.979 269.883 148.855 265.269 144.754ZM310.728 115.945H315.122L329.087 150.955H324.717L322.056 144.363H303.77L301.133 150.955H296.738L310.728 115.945ZM312.925 121.438L305.356 140.335H320.469L312.925 121.438ZM350.132 146.951H360.898C363.926 146.951 366.929 144.607 366.929 141.092C366.929 137.869 364.243 135.232 360.898 135.232H350.132V146.951ZM357.896 119.949H350.132V131.448H358.14C361.069 131.351 363.926 129.056 363.926 125.687C363.926 122.537 361.24 119.949 357.896 119.949ZM367.954 125.76C367.954 128.421 366.685 130.789 364.585 132.498C368.32 133.719 371.226 136.868 371.226 141.165C371.226 146.756 366.929 150.955 361.362 150.955H345.762V115.97H358.115C363.486 115.97 367.954 120.022 367.954 125.76ZM405.454 137.381L409.604 138.675C407.407 146.17 400.376 150.955 392.661 150.955C382.627 150.955 374.912 143.021 374.912 133.45C374.912 123.929 382.651 115.921 392.686 115.921C400.449 115.921 407.334 120.779 409.604 128.226L405.454 129.495C403.77 123.904 398.643 119.949 392.686 119.949C385.337 119.949 379.429 125.833 379.429 133.45C379.429 140.75 385.044 146.951 392.686 146.951C398.667 146.951 403.721 143.143 405.454 137.381ZM414.243 115.945H437.412V120.047H418.613V129.788H432.993V133.865H418.613V146.878H437.412V150.955H414.243V115.945ZM441.27 155.301L439.976 153.396C440.928 152.688 441.489 152.176 442.661 150.857C441.538 150.564 440.732 149.637 440.732 148.44C440.732 147.098 441.807 145.901 443.223 145.877C444.565 145.853 445.811 146.902 445.811 148.318C445.811 150.271 445.054 151.883 443.564 153.445C442.881 154.129 442.222 154.69 441.27 155.301ZM461.069 144.754L463.804 141.702C467.783 145.462 472.007 146.878 475.62 146.902C481.113 146.927 485.142 143.777 485.117 140.262C485.117 135.892 478.11 135.159 474.058 135.159H468.76V131.204H474.058C477.671 131.204 483.359 130.179 483.359 126.15C483.359 122.122 479.331 119.852 474.717 119.852C471.47 119.876 467.881 120.95 464.731 123.245L462.241 120.169C466.392 117.215 470.859 115.872 474.937 115.872C482.017 115.872 487.705 120.022 487.705 126.248C487.729 129.739 485.41 131.644 482.139 132.815C486.143 134.012 489.487 135.989 489.487 140.262C489.487 145.975 483.604 150.906 475.986 150.955C470.908 150.979 465.684 148.855 461.069 144.754ZM506.528 115.945H510.923L524.888 150.955H520.518L517.856 144.363H499.57L496.934 150.955H492.539L506.528 115.945ZM508.726 121.438L501.157 140.335H516.27L508.726 121.438ZM545.933 146.951H556.699C559.727 146.951 562.729 144.607 562.729 141.092C562.729 137.869 560.044 135.232 556.699 135.232H545.933V146.951ZM553.696 119.949H545.933V131.448H553.94C556.87 131.351 559.727 129.056 559.727 125.687C559.727 122.537 557.041 119.949 553.696 119.949ZM563.755 125.76C563.755 128.421 562.485 130.789 560.386 132.498C564.121 133.719 567.026 136.868 567.026 141.165C567.026 146.756 562.729 150.955 557.163 150.955H541.562V115.97H553.916C559.287 115.97 563.755 120.022 563.755 125.76ZM601.255 137.381L605.405 138.675C603.208 146.17 596.177 150.955 588.462 150.955C578.428 150.955 570.713 143.021 570.713 133.45C570.713 123.929 578.452 115.921 588.486 115.921C596.25 115.921 603.135 120.779 605.405 128.226L601.255 129.495C599.57 123.904 594.443 119.949 588.486 119.949C581.138 119.949 575.229 125.833 575.229 133.45C575.229 140.75 580.845 146.951 588.486 146.951C594.468 146.951 599.521 143.143 601.255 137.381ZM610.044 115.945H633.213V120.047H614.414V129.788H628.794V133.865H614.414V146.878H633.213V150.955H610.044V115.945ZM641.44 148.416C641.44 149.759 640.342 150.955 638.901 150.955C637.559 150.955 636.362 149.856 636.362 148.416C636.362 147.098 637.461 145.877 638.901 145.877C640.244 145.877 641.44 146.976 641.44 148.416ZM657.456 144.754L660.19 141.702C664.17 145.462 668.394 146.878 672.007 146.902C677.5 146.927 681.528 143.777 681.504 140.262C681.504 135.892 674.497 135.159 670.444 135.159H665.146V131.204H670.444C674.058 131.204 679.746 130.179 679.746 126.15C679.746 122.122 675.718 119.852 671.104 119.852C667.856 119.876 664.268 120.95 661.118 123.245L658.628 120.169C662.778 117.215 667.246 115.872 671.323 115.872C678.403 115.872 684.092 120.022 684.092 126.248C684.116 129.739 681.797 131.644 678.525 132.815C682.529 134.012 685.874 135.989 685.874 140.262C685.874 145.975 679.99 150.906 672.373 150.955C667.295 150.979 662.07 148.855 657.456 144.754ZM702.915 115.945H707.31L721.274 150.955H716.904L714.243 144.363H695.957L693.32 150.955H688.926L702.915 115.945ZM705.112 121.438L697.544 140.335H712.656L705.112 121.438ZM770.396 115.97H772.935V150.955H768.564V123.782L755.405 140.628L742.246 123.782V150.955H737.876V115.97H740.415L755.405 134.915L770.396 115.97ZM781.04 145.853C781.895 146.341 782.798 146.585 783.774 146.585C785.776 146.609 787.583 145.608 789.243 142.605L791.074 139.285L778.403 115.945H783.14L793.442 134.915L803.818 115.945H808.555L793.271 143.948C791.343 147.513 788.389 150.979 783.774 150.955C782.09 150.955 780.503 150.54 778.916 149.661L781.04 145.853ZM810.679 115.945H841.001V120.022H828.013V150.955H823.643V120.022H810.679V115.945ZM868.345 115.945H872.739V150.955H868.345V133.865H849.521V150.955H845.151V115.945H849.521V129.764H868.345V115.945ZM880.845 145.853C881.699 146.341 882.603 146.585 883.579 146.585C885.581 146.609 887.388 145.608 889.048 142.605L890.879 139.285L878.208 115.945H882.944L893.247 134.915L903.623 115.945H908.359L893.076 143.948C891.147 147.513 888.193 150.979 883.579 150.955C881.895 150.955 880.308 150.54 878.721 149.661L880.845 145.853ZM940.488 119.974C933.286 119.974 927.354 125.833 927.354 133.45C927.354 140.628 932.798 146.927 940.488 146.927C947.715 146.927 953.623 141.043 953.623 133.45C953.623 126.126 948.228 120.096 940.488 119.974ZM940.488 115.945C950.059 115.945 958.066 123.685 958.066 133.45C958.066 143.021 950.254 150.955 940.488 150.955C931.675 150.955 924.424 144.632 923.057 135.501H916.709V150.955H912.339V115.945H916.709V131.424H923.057C924.204 122.562 931.382 115.994 940.488 115.945ZM974.155 144.754L976.89 141.702C980.869 145.462 985.093 146.878 988.706 146.902C994.199 146.927 998.228 143.777 998.203 140.262C998.203 135.892 991.196 135.159 987.144 135.159H981.846V131.204H987.144C990.757 131.204 996.445 130.179 996.445 126.15C996.445 122.122 992.417 119.852 987.803 119.852C984.556 119.876 980.967 120.95 977.817 123.245L975.327 120.169C979.478 117.215 983.945 115.872 988.022 115.872C995.103 115.872 1000.79 120.022 1000.79 126.248C1000.82 129.739 998.496 131.644 995.225 132.815C999.229 134.012 1002.57 135.989 1002.57 140.262C1002.57 145.975 996.689 150.906 989.072 150.955C983.994 150.979 978.77 148.855 974.155 144.754ZM1019.61 115.945H1024.01L1037.97 150.955H1033.6L1030.94 144.363H1012.66L1010.02 150.955H1005.62L1019.61 115.945ZM1021.81 121.438L1014.24 140.335H1029.36L1021.81 121.438ZM1046.54 131.473H1057.31C1060.34 131.473 1063.34 129.178 1063.34 125.76C1063.34 122.61 1060.63 120.047 1057.31 120.047H1046.54V131.473ZM1042.17 115.97H1057.77C1063.17 115.994 1067.64 119.949 1067.64 125.76C1067.64 131.131 1063.34 135.477 1057.77 135.477H1046.54V150.955H1042.17V115.97ZM1099.77 119.974C1092.56 119.974 1086.63 125.833 1086.63 133.45C1086.63 140.628 1092.08 146.927 1099.77 146.927C1106.99 146.927 1112.9 141.043 1112.9 133.45C1112.9 126.126 1107.5 120.096 1099.77 119.974ZM1099.77 115.945C1109.34 115.945 1117.34 123.685 1117.34 133.45C1117.34 143.021 1109.53 150.955 1099.77 150.955C1090.95 150.955 1083.7 144.632 1082.33 135.501H1075.99V150.955H1071.62V115.945H1075.99V131.424H1082.33C1083.48 122.562 1090.66 115.994 1099.77 115.945ZM1126.6 148.416C1126.6 149.759 1125.5 150.955 1124.06 150.955C1122.71 150.955 1121.52 149.856 1121.52 148.416C1121.52 147.098 1122.62 145.877 1124.06 145.877C1125.4 145.877 1126.6 146.976 1126.6 148.416ZM151.23 198.754L153.965 195.702C157.944 199.462 162.168 200.878 165.781 200.902C171.274 200.927 175.303 197.777 175.278 194.262C175.278 189.892 168.271 189.159 164.219 189.159H158.921V185.204H164.219C167.832 185.204 173.521 184.179 173.521 180.15C173.521 176.122 169.492 173.852 164.878 173.852C161.631 173.876 158.042 174.95 154.893 177.245L152.402 174.169C156.553 171.215 161.021 169.872 165.098 169.872C172.178 169.872 177.866 174.022 177.866 180.248C177.891 183.739 175.571 185.644 172.3 186.815C176.304 188.012 179.648 189.989 179.648 194.262C179.648 199.975 173.765 204.906 166.147 204.955C161.069 204.979 155.845 202.855 151.23 198.754ZM196.689 169.945H201.084L215.049 204.955H210.679L208.018 198.363H189.731L187.095 204.955H182.7L196.689 169.945ZM198.887 175.438L191.318 194.335H206.431L198.887 175.438ZM255.942 169.921H261.094L249.204 186.425L262.559 204.955H257.383L246.616 190.038L235.874 204.955H230.698L244.053 186.425L232.139 169.921H237.314L246.616 182.836L255.942 169.921ZM276.304 169.945H298.838V204.955H294.468V174.047H280.649V195.067C280.649 197.802 279.697 200.146 277.769 202.074C275.84 204.003 273.496 204.955 270.762 204.955C269.028 204.955 267.393 204.54 265.879 203.661L268.003 199.853C268.857 200.341 269.785 200.585 270.762 200.585C272.3 200.585 273.594 200.023 274.668 198.949C275.742 197.875 276.304 196.581 276.304 195.043V169.945ZM304.893 169.945H328.062V174.047H309.263V183.788H323.643V187.865H309.263V200.878H328.062V204.955H304.893V169.945ZM336.558 189.452V200.878H347.324C350.303 200.878 353.354 198.583 353.354 195.165C353.354 192.016 350.669 189.452 347.324 189.452H336.558ZM336.558 185.448H347.788C353.135 185.448 357.651 189.477 357.651 195.165C357.651 200.731 353.354 204.955 347.788 204.955H332.188V169.97H354.404V174.047H336.558V185.448ZM366.318 202.416C366.318 203.759 365.22 204.955 363.779 204.955C362.437 204.955 361.24 203.856 361.24 202.416C361.24 201.098 362.339 199.877 363.779 199.877C365.122 199.877 366.318 200.976 366.318 202.416ZM382.334 198.754L385.068 195.702C389.048 199.462 393.271 200.878 396.885 200.902C402.378 200.927 406.406 197.777 406.382 194.262C406.382 189.892 399.375 189.159 395.322 189.159H390.024V185.204H395.322C398.936 185.204 404.624 184.179 404.624 180.15C404.624 176.122 400.596 173.852 395.981 173.852C392.734 173.876 389.146 174.95 385.996 177.245L383.506 174.169C387.656 171.215 392.124 169.872 396.201 169.872C403.281 169.872 408.97 174.022 408.97 180.248C408.994 183.739 406.675 185.644 403.403 186.815C407.407 188.012 410.752 189.989 410.752 194.262C410.752 199.975 404.868 204.906 397.251 204.955C392.173 204.979 386.948 202.855 382.334 198.754ZM427.793 169.945H432.188L446.152 204.955H441.782L439.121 198.363H420.835L418.198 204.955H413.804L427.793 169.945ZM429.99 175.438L422.422 194.335H437.534L429.99 175.438ZM492.197 191.381L496.348 192.675C494.15 200.17 487.119 204.955 479.404 204.955C469.37 204.955 461.655 197.021 461.655 187.45C461.655 177.929 469.395 169.921 479.429 169.921C487.192 169.921 494.077 174.779 496.348 182.226L492.197 183.495C490.513 177.904 485.386 173.949 479.429 173.949C472.08 173.949 466.172 179.833 466.172 187.45C466.172 194.75 471.787 200.951 479.429 200.951C485.41 200.951 490.464 197.143 492.197 191.381ZM504.429 187.45C504.429 194.726 510.02 200.951 517.661 200.951C525.229 200.951 530.869 194.945 530.869 187.45C530.869 179.882 525.107 173.974 517.661 173.974C510.117 173.974 504.429 179.955 504.429 187.45ZM499.912 187.45C499.912 177.27 508.213 169.945 517.661 169.945C528.159 169.945 535.41 178.197 535.41 187.45C535.41 197.826 527.012 204.955 517.661 204.955C507.505 204.955 499.912 196.947 499.912 187.45ZM549.058 169.945H571.592V204.955H567.222V174.047H553.403V195.067C553.403 197.802 552.451 200.146 550.522 202.074C548.594 204.003 546.25 204.955 543.516 204.955C541.782 204.955 540.146 204.54 538.633 203.661L540.757 199.853C541.611 200.341 542.539 200.585 543.516 200.585C545.054 200.585 546.348 200.023 547.422 198.949C548.496 197.875 549.058 196.581 549.058 195.043V169.945ZM582.017 189.452V200.878H592.783C595.811 200.878 598.813 198.583 598.813 195.165C598.813 192.016 596.152 189.452 592.783 189.452H582.017ZM582.017 185.448H593.247C598.667 185.448 603.11 189.501 603.11 195.165C603.11 200.756 598.813 204.955 593.247 204.955H577.646V169.97H582.017V185.448ZM611.191 202.416C611.191 203.759 610.093 204.955 608.652 204.955C607.31 204.955 606.113 203.856 606.113 202.416C606.113 201.098 607.212 199.877 608.652 199.877C609.995 199.877 611.191 200.976 611.191 202.416ZM626.816 169.945H657.139V174.022H644.15V204.955H639.78V174.022H626.816V169.945ZM661.289 169.945H684.458V174.047H665.659V183.788H680.039V187.865H665.659V200.878H684.458V204.955H661.289V169.945ZM688.584 169.945H716.172V204.955H711.802V174.047H692.954V204.955H688.584V169.945ZM730.894 169.945H753.428V204.955H749.058V174.047H735.239V195.067C735.239 197.802 734.287 200.146 732.358 202.074C730.43 204.003 728.086 204.955 725.352 204.955C723.618 204.955 721.982 204.54 720.469 203.661L722.593 199.853C723.447 200.341 724.375 200.585 725.352 200.585C726.89 200.585 728.184 200.023 729.258 198.949C730.332 197.875 730.894 196.581 730.894 195.043V169.945ZM762.925 187.45C762.925 194.726 768.516 200.951 776.157 200.951C783.726 200.951 789.365 194.945 789.365 187.45C789.365 179.882 783.604 173.974 776.157 173.974C768.613 173.974 762.925 179.955 762.925 187.45ZM758.408 187.45C758.408 177.27 766.709 169.945 776.157 169.945C786.655 169.945 793.906 178.197 793.906 187.45C793.906 197.826 785.508 204.955 776.157 204.955C766.001 204.955 758.408 196.947 758.408 187.45ZM815.659 185.473H826.426C829.453 185.473 832.456 183.178 832.456 179.76C832.456 176.61 829.746 174.047 826.426 174.047H815.659V185.473ZM811.289 169.97H826.89C832.285 169.994 836.753 173.949 836.753 179.76C836.753 185.131 832.456 189.477 826.89 189.477H815.659V204.955H811.289V169.97ZM844.175 187.45C844.175 194.726 849.766 200.951 857.407 200.951C864.976 200.951 870.615 194.945 870.615 187.45C870.615 179.882 864.854 173.974 857.407 173.974C849.863 173.974 844.175 179.955 844.175 187.45ZM839.658 187.45C839.658 177.27 847.959 169.945 857.407 169.945C867.905 169.945 875.156 178.197 875.156 187.45C875.156 197.826 866.758 204.955 857.407 204.955C847.251 204.955 839.658 196.947 839.658 187.45ZM904.819 174.022H891.953C891.929 182.348 891.636 192.431 887.51 200.854H904.819V174.022ZM909.189 169.945V200.854H913.95V212.182H909.58V204.955H883.262V212.182H878.892V200.854H882.749C887.485 192.87 887.583 180.102 887.656 169.945H909.189ZM942.441 169.945H946.836V204.955H942.441V187.865H923.618V204.955H919.248V169.945H923.618V183.764H942.441V169.945ZM956.333 187.45C956.333 194.726 961.924 200.951 969.565 200.951C977.134 200.951 982.773 194.945 982.773 187.45C982.773 179.882 977.012 173.974 969.565 173.974C962.021 173.974 956.333 179.955 956.333 187.45ZM951.816 187.45C951.816 177.27 960.117 169.945 969.565 169.945C980.063 169.945 987.314 178.197 987.314 187.45C987.314 197.826 978.916 204.955 969.565 204.955C959.409 204.955 951.816 196.947 951.816 187.45ZM996.665 204.955H992.295V169.945H1015.44V174.047H996.665V204.955ZM1022.89 187.45C1022.89 194.726 1028.48 200.951 1036.12 200.951C1043.69 200.951 1049.33 194.945 1049.33 187.45C1049.33 179.882 1043.56 173.974 1036.12 173.974C1028.57 173.974 1022.89 179.955 1022.89 187.45ZM1018.37 187.45C1018.37 177.27 1026.67 169.945 1036.12 169.945C1046.62 169.945 1053.87 178.197 1053.87 187.45C1053.87 197.826 1045.47 204.955 1036.12 204.955C1025.96 204.955 1018.37 196.947 1018.37 187.45ZM1089.63 169.921H1095.03C1089.93 174.877 1084.8 179.809 1079.7 184.74L1097.89 204.955H1092.51C1086.88 198.729 1081.26 192.455 1075.62 186.229V204.955H1071.25V169.921H1075.62V183.397L1089.63 169.921ZM1107.02 185.473H1117.78C1120.81 185.473 1123.81 183.178 1123.81 179.76C1123.81 176.61 1121.1 174.047 1117.78 174.047H1107.02V185.473ZM1102.65 169.97H1118.25C1123.64 169.994 1128.11 173.949 1128.11 179.76C1128.11 185.131 1123.81 189.477 1118.25 189.477H1107.02V204.955H1102.65V169.97ZM1135.53 187.45C1135.53 194.726 1141.12 200.951 1148.76 200.951C1156.33 200.951 1161.97 194.945 1161.97 187.45C1161.97 179.882 1156.21 173.974 1148.76 173.974C1141.22 173.974 1135.53 179.955 1135.53 187.45ZM1131.02 187.45C1131.02 177.27 1139.32 169.945 1148.76 169.945C1159.26 169.945 1166.51 178.197 1166.51 187.45C1166.51 197.826 1158.12 204.955 1148.76 204.955C1138.61 204.955 1131.02 196.947 1131.02 187.45ZM1175.94 200.951H1186.7C1189.73 200.951 1192.73 198.607 1192.73 195.092C1192.73 191.869 1190.05 189.232 1186.7 189.232H1175.94V200.951ZM1183.7 173.949H1175.94V185.448H1183.95C1186.88 185.351 1189.73 183.056 1189.73 179.687C1189.73 176.537 1187.05 173.949 1183.7 173.949ZM1193.76 179.76C1193.76 182.421 1192.49 184.789 1190.39 186.498C1194.13 187.719 1197.03 190.868 1197.03 195.165C1197.03 200.756 1192.73 204.955 1187.17 204.955H1171.57V169.97H1183.92C1189.29 169.97 1193.76 174.022 1193.76 179.76ZM1213.97 169.945H1218.37L1232.33 204.955H1227.96L1225.3 198.363H1207.02L1204.38 204.955H1199.99L1213.97 169.945ZM1216.17 175.438L1208.6 194.335H1223.72L1216.17 175.438ZM1240.63 202.416C1240.63 203.759 1239.54 204.955 1238.1 204.955C1236.75 204.955 1235.56 203.856 1235.56 202.416C1235.56 201.098 1236.66 199.877 1238.1 199.877C1239.44 199.877 1240.63 200.976 1240.63 202.416ZM236.68 252.754L239.414 249.702C243.394 253.462 247.617 254.878 251.23 254.902C256.724 254.927 260.752 251.777 260.728 248.262C260.728 243.892 253.721 243.159 249.668 243.159H244.37V239.204H249.668C253.281 239.204 258.97 238.179 258.97 234.15C258.97 230.122 254.941 227.852 250.327 227.852C247.08 227.876 243.491 228.95 240.342 231.245L237.852 228.169C242.002 225.215 246.47 223.872 250.547 223.872C257.627 223.872 263.315 228.022 263.315 234.248C263.34 237.739 261.021 239.644 257.749 240.815C261.753 242.012 265.098 243.989 265.098 248.262C265.098 253.975 259.214 258.906 251.597 258.955C246.519 258.979 241.294 256.855 236.68 252.754ZM282.139 223.945H286.533L300.498 258.955H296.128L293.467 252.363H275.181L272.544 258.955H268.149L282.139 223.945ZM284.336 229.438L276.768 248.335H291.88L284.336 229.438ZM315.244 223.945H345.566V228.022H332.578V258.955H328.208V228.022H315.244V223.945ZM353.159 241.45C353.159 248.726 358.75 254.951 366.392 254.951C373.96 254.951 379.6 248.945 379.6 241.45C379.6 233.882 373.838 227.974 366.392 227.974C358.848 227.974 353.159 233.955 353.159 241.45ZM348.643 241.45C348.643 231.27 356.943 223.945 366.392 223.945C376.89 223.945 384.141 232.197 384.141 241.45C384.141 251.826 375.742 258.955 366.392 258.955C356.235 258.955 348.643 250.947 348.643 241.45ZM388.853 263.301L387.559 261.396C388.511 260.688 389.072 260.176 390.244 258.857C389.121 258.564 388.315 257.637 388.315 256.44C388.315 255.098 389.39 253.901 390.806 253.877C392.148 253.853 393.394 254.902 393.394 256.318C393.394 258.271 392.637 259.883 391.147 261.445C390.464 262.129 389.805 262.69 388.853 263.301ZM429.478 223.945H433.848V258.955H429.478V244.062C426.377 245.161 423.105 245.942 419.639 245.942C412.607 245.942 408.14 242.671 408.14 235.371V224.019H412.485V234.761C412.485 239.668 415.195 241.865 420.127 241.865C423.276 241.865 426.255 241.108 429.478 239.814V223.945ZM438.047 223.945H468.369V228.022H455.381V258.955H451.011V228.022H438.047V223.945ZM475.962 241.45C475.962 248.726 481.553 254.951 489.194 254.951C496.763 254.951 502.402 248.945 502.402 241.45C502.402 233.882 496.641 227.974 489.194 227.974C481.65 227.974 475.962 233.955 475.962 241.45ZM471.445 241.45C471.445 231.27 479.746 223.945 489.194 223.945C499.692 223.945 506.943 232.197 506.943 241.45C506.943 251.826 498.545 258.955 489.194 258.955C479.038 258.955 471.445 250.947 471.445 241.45ZM546.226 239.473V228.047H535.459C532.432 228.047 529.429 230.342 529.429 233.76C529.429 236.885 532.114 239.473 535.435 239.473H546.226ZM546.226 243.477H537.168L528.135 258.955H523.203L532.456 243.086C528.208 242.036 525.132 238.545 525.132 233.76C525.132 228.169 529.429 223.97 534.995 223.97H550.596V258.955H546.226V243.477ZM573.496 254.951H584.263C587.29 254.951 590.293 252.607 590.293 249.092C590.293 245.869 587.607 243.232 584.263 243.232H573.496V254.951ZM581.26 227.949H573.496V239.448H581.504C584.434 239.351 587.29 237.056 587.29 233.687C587.29 230.537 584.604 227.949 581.26 227.949ZM591.318 233.76C591.318 236.421 590.049 238.789 587.949 240.498C591.685 241.719 594.59 244.868 594.59 249.165C594.59 254.756 590.293 258.955 584.727 258.955H569.126V223.97H581.479C586.851 223.97 591.318 228.022 591.318 233.76ZM611.533 223.945H615.928L629.893 258.955H625.522L622.861 252.363H604.575L601.938 258.955H597.544L611.533 223.945ZM613.73 229.438L606.162 248.335H621.274L613.73 229.438ZM663.535 245.381L667.686 246.675C665.488 254.17 658.457 258.955 650.742 258.955C640.708 258.955 632.993 251.021 632.993 241.45C632.993 231.929 640.732 223.921 650.767 223.921C658.53 223.921 665.415 228.779 667.686 236.226L663.535 237.495C661.851 231.904 656.724 227.949 650.767 227.949C643.418 227.949 637.51 233.833 637.51 241.45C637.51 248.75 643.125 254.951 650.767 254.951C656.748 254.951 661.802 251.143 663.535 245.381ZM689.17 254.951H699.937C702.964 254.951 705.967 252.607 705.967 249.092C705.967 245.869 703.281 243.232 699.937 243.232H689.17V254.951ZM696.934 227.949H689.17V239.448H697.178C700.107 239.351 702.964 237.056 702.964 233.687C702.964 230.537 700.278 227.949 696.934 227.949ZM706.992 233.76C706.992 236.421 705.723 238.789 703.623 240.498C707.358 241.719 710.264 244.868 710.264 249.165C710.264 254.756 705.967 258.955 700.4 258.955H684.8V223.97H697.153C702.524 223.97 706.992 228.022 706.992 233.76ZM744.492 245.381L748.643 246.675C746.445 254.17 739.414 258.955 731.699 258.955C721.665 258.955 713.95 251.021 713.95 241.45C713.95 231.929 721.689 223.921 731.724 223.921C739.487 223.921 746.372 228.779 748.643 236.226L744.492 237.495C742.808 231.904 737.681 227.949 731.724 227.949C724.375 227.949 718.467 233.833 718.467 241.45C718.467 248.75 724.082 254.951 731.724 254.951C737.705 254.951 742.759 251.143 744.492 245.381ZM753.281 223.945H776.45V228.047H757.651V237.788H772.031V241.865H757.651V254.878H776.45V258.955H753.281V223.945ZM804.868 223.921H810.02L798.13 240.425L811.484 258.955H806.309L795.542 244.038L784.8 258.955H779.624L792.979 240.425L781.064 223.921H786.24L795.542 236.836L804.868 223.921ZM833.335 243.452V254.878H844.102C847.08 254.878 850.132 252.583 850.132 249.165C850.132 246.016 847.446 243.452 844.102 243.452H833.335ZM833.335 239.448H844.565C849.912 239.448 854.429 243.477 854.429 249.165C854.429 254.731 850.132 258.955 844.565 258.955H828.965V223.97H851.182V228.047H833.335V239.448ZM867.661 223.945H890.195V258.955H885.825V228.047H872.007V249.067C872.007 251.802 871.055 254.146 869.126 256.074C867.197 258.003 864.854 258.955 862.119 258.955C860.386 258.955 858.75 258.54 857.236 257.661L859.36 253.853C860.215 254.341 861.143 254.585 862.119 254.585C863.657 254.585 864.951 254.023 866.025 252.949C867.1 251.875 867.661 250.581 867.661 249.043V223.945ZM908.408 223.945H912.803L926.768 258.955H922.397L919.736 252.363H901.45L898.813 258.955H894.419L908.408 223.945ZM910.605 229.438L903.037 248.335H918.149L910.605 229.438ZM935.337 258.955H930.967V223.945H954.111V228.047H935.337V258.955ZM961.558 241.45C961.558 248.726 967.148 254.951 974.79 254.951C982.358 254.951 987.998 248.945 987.998 241.45C987.998 233.882 982.236 227.974 974.79 227.974C967.246 227.974 961.558 233.955 961.558 241.45ZM957.041 241.45C957.041 231.27 965.342 223.945 974.79 223.945C985.288 223.945 992.539 232.197 992.539 241.45C992.539 251.826 984.141 258.955 974.79 258.955C964.634 258.955 957.041 250.947 957.041 241.45ZM1022.2 228.022H1009.34C1009.31 236.348 1009.02 246.431 1004.89 254.854H1022.2V228.022ZM1026.57 223.945V254.854H1031.33V266.182H1026.96V258.955H1000.64V266.182H996.274V254.854H1000.13C1004.87 246.87 1004.97 234.102 1005.04 223.945H1026.57ZM1048.79 223.945H1053.18L1067.15 258.955H1062.78L1060.12 252.363H1041.83L1039.19 258.955H1034.8L1048.79 223.945ZM1050.99 229.438L1043.42 248.335H1058.53L1050.99 229.438ZM1075.72 239.473H1086.48C1089.51 239.473 1092.51 237.178 1092.51 233.76C1092.51 230.61 1089.8 228.047 1086.48 228.047H1075.72V239.473ZM1071.35 223.97H1086.95C1092.34 223.994 1096.81 227.949 1096.81 233.76C1096.81 239.131 1092.51 243.477 1086.95 243.477H1075.72V258.955H1071.35V223.97ZM1128.94 227.974C1121.74 227.974 1115.81 233.833 1115.81 241.45C1115.81 248.628 1121.25 254.927 1128.94 254.927C1136.17 254.927 1142.08 249.043 1142.08 241.45C1142.08 234.126 1136.68 228.096 1128.94 227.974ZM1128.94 223.945C1138.51 223.945 1146.52 231.685 1146.52 241.45C1146.52 251.021 1138.71 258.955 1128.94 258.955C1120.13 258.955 1112.88 252.632 1111.51 243.501H1105.16V258.955H1100.79V223.945H1105.16V239.424H1111.51C1112.66 230.562 1119.83 223.994 1128.94 223.945ZM1151.4 263.301L1150.11 261.396C1151.06 260.688 1151.62 260.176 1152.79 258.857C1151.67 258.564 1150.86 257.637 1150.86 256.44C1150.86 255.098 1151.94 253.901 1153.35 253.877C1154.7 253.853 1155.94 254.902 1155.94 256.318C1155.94 258.271 1155.19 259.883 1153.7 261.445C1153.01 262.129 1152.35 262.69 1151.4 263.301ZM199.204 306.754L201.938 303.702C205.918 307.462 210.142 308.878 213.755 308.902C219.248 308.927 223.276 305.777 223.252 302.262C223.252 297.892 216.245 297.159 212.192 297.159H206.895V293.204H212.192C215.806 293.204 221.494 292.179 221.494 288.15C221.494 284.122 217.466 281.852 212.852 281.852C209.604 281.876 206.016 282.95 202.866 285.245L200.376 282.169C204.526 279.215 208.994 277.872 213.071 277.872C220.151 277.872 225.84 282.022 225.84 288.248C225.864 291.739 223.545 293.644 220.273 294.815C224.277 296.012 227.622 297.989 227.622 302.262C227.622 307.975 221.738 312.906 214.121 312.955C209.043 312.979 203.818 310.855 199.204 306.754ZM244.663 277.945H249.058L263.022 312.955H258.652L255.991 306.363H237.705L235.068 312.955H230.674L244.663 277.945ZM246.86 283.438L239.292 302.335H254.404L246.86 283.438ZM277.769 277.945H308.091V282.022H295.103V312.955H290.732V282.022H277.769V277.945ZM315.684 295.45C315.684 302.726 321.274 308.951 328.916 308.951C336.484 308.951 342.124 302.945 342.124 295.45C342.124 287.882 336.362 281.974 328.916 281.974C321.372 281.974 315.684 287.955 315.684 295.45ZM311.167 295.45C311.167 285.27 319.468 277.945 328.916 277.945C339.414 277.945 346.665 286.197 346.665 295.45C346.665 305.826 338.267 312.955 328.916 312.955C318.76 312.955 311.167 304.947 311.167 295.45ZM351.377 317.301L350.083 315.396C351.035 314.688 351.597 314.176 352.769 312.857C351.646 312.564 350.84 311.637 350.84 310.44C350.84 309.098 351.914 307.901 353.33 307.877C354.673 307.853 355.918 308.902 355.918 310.318C355.918 312.271 355.161 313.883 353.672 315.445C352.988 316.129 352.329 316.69 351.377 317.301ZM392.002 277.945H396.372V312.955H392.002V298.062C388.901 299.161 385.63 299.942 382.163 299.942C375.132 299.942 370.664 296.671 370.664 289.371V278.019H375.01V288.761C375.01 293.668 377.72 295.865 382.651 295.865C385.801 295.865 388.779 295.108 392.002 293.814V277.945ZM400.571 277.945H430.894V282.022H417.905V312.955H413.535V282.022H400.571V277.945ZM438.486 295.45C438.486 302.726 444.077 308.951 451.719 308.951C459.287 308.951 464.927 302.945 464.927 295.45C464.927 287.882 459.165 281.974 451.719 281.974C444.175 281.974 438.486 287.955 438.486 295.45ZM433.97 295.45C433.97 285.27 442.271 277.945 451.719 277.945C462.217 277.945 469.468 286.197 469.468 295.45C469.468 305.826 461.069 312.955 451.719 312.955C441.562 312.955 433.97 304.947 433.97 295.45ZM491.294 308.951H502.061C505.088 308.951 508.091 306.607 508.091 303.092C508.091 299.869 505.405 297.232 502.061 297.232H491.294V308.951ZM499.058 281.949H491.294V293.448H499.302C502.231 293.351 505.088 291.056 505.088 287.687C505.088 284.537 502.402 281.949 499.058 281.949ZM509.116 287.76C509.116 290.421 507.847 292.789 505.747 294.498C509.482 295.719 512.388 298.868 512.388 303.165C512.388 308.756 508.091 312.955 502.524 312.955H486.924V277.97H499.277C504.648 277.97 509.116 282.022 509.116 287.76ZM521.543 297.452V308.878H532.334C535.361 308.878 538.34 306.559 538.34 303.165C538.34 300.016 535.654 297.452 532.334 297.452H521.543ZM521.543 293.448H532.798C538.218 293.448 542.637 297.525 542.637 303.165C542.637 308.756 538.364 312.955 532.798 312.955H517.173V277.97H521.543V293.448ZM551.06 277.97V312.955H546.714V277.97H551.06ZM592.71 277.945H597.104V312.955H592.71V295.865H573.887V312.955H569.517V277.945H573.887V291.764H592.71V277.945ZM603.159 277.945H626.328V282.047H607.529V291.788H621.909V295.865H607.529V308.878H626.328V312.955H603.159V277.945ZM672.3 299.381L676.45 300.675C674.253 308.17 667.222 312.955 659.507 312.955C649.473 312.955 641.758 305.021 641.758 295.45C641.758 285.929 649.497 277.921 659.531 277.921C667.295 277.921 674.18 282.779 676.45 290.226L672.3 291.495C670.615 285.904 665.488 281.949 659.531 281.949C652.183 281.949 646.274 287.833 646.274 295.45C646.274 302.75 651.89 308.951 659.531 308.951C665.513 308.951 670.566 305.143 672.3 299.381ZM689.756 277.945H712.29V312.955H707.92V282.047H694.102V303.067C694.102 305.802 693.149 308.146 691.221 310.074C689.292 312.003 686.948 312.955 684.214 312.955C682.48 312.955 680.845 312.54 679.331 311.661L681.455 307.853C682.31 308.341 683.237 308.585 684.214 308.585C685.752 308.585 687.046 308.023 688.12 306.949C689.194 305.875 689.756 304.581 689.756 303.043V277.945ZM722.715 297.452V308.878H733.506C736.533 308.878 739.512 306.559 739.512 303.165C739.512 300.016 736.826 297.452 733.506 297.452H722.715ZM722.715 293.448H733.97C739.39 293.448 743.809 297.525 743.809 303.165C743.809 308.756 739.536 312.955 733.97 312.955H718.345V277.97H722.715V293.448ZM752.231 277.97V312.955H747.886V277.97H752.231ZM794.297 277.921H798.643V312.955H758.286V277.921H762.656V308.878H776.279V277.921H780.649V308.878H794.297V277.921ZM804.722 277.97H809.092V305.338L831.333 277.97H833.872V312.955H829.502V285.587L807.261 312.955H804.722V277.97ZM838.071 277.945H868.394V282.022H855.405V312.955H851.035V282.022H838.071V277.945ZM872.544 277.945H895.713V282.047H876.914V291.788H891.294V295.865H876.914V308.878H895.713V312.955H872.544V277.945ZM935.435 277.945H939.829V312.955H935.435V295.865H916.611V312.955H912.241V277.945H916.611V291.764H935.435V277.945ZM945.884 277.97H950.254V305.338L972.495 277.97H975.034V312.955H970.664V285.587L948.423 312.955H945.884V277.97ZM1022.93 299.381L1027.08 300.675C1024.89 308.17 1017.86 312.955 1010.14 312.955C1000.11 312.955 992.393 305.021 992.393 295.45C992.393 285.929 1000.13 277.921 1010.17 277.921C1017.93 277.921 1024.81 282.779 1027.08 290.226L1022.93 291.495C1021.25 285.904 1016.12 281.949 1010.17 281.949C1002.82 281.949 996.909 287.833 996.909 295.45C996.909 302.75 1002.52 308.951 1010.17 308.951C1016.15 308.951 1021.2 305.143 1022.93 299.381ZM1040.39 277.945H1062.92V312.955H1058.55V282.047H1044.74V303.067C1044.74 305.802 1043.78 308.146 1041.86 310.074C1039.93 312.003 1037.58 312.955 1034.85 312.955C1033.12 312.955 1031.48 312.54 1029.97 311.661L1032.09 307.853C1032.94 308.341 1033.87 308.585 1034.85 308.585C1036.39 308.585 1037.68 308.023 1038.75 306.949C1039.83 305.875 1040.39 304.581 1040.39 303.043V277.945ZM1072.42 295.45C1072.42 302.726 1078.01 308.951 1085.65 308.951C1093.22 308.951 1098.86 302.945 1098.86 295.45C1098.86 287.882 1093.1 281.974 1085.65 281.974C1078.11 281.974 1072.42 287.955 1072.42 295.45ZM1067.91 295.45C1067.91 285.27 1076.21 277.945 1085.65 277.945C1096.15 277.945 1103.4 286.197 1103.4 295.45C1103.4 305.826 1095 312.955 1085.65 312.955C1075.5 312.955 1067.91 304.947 1067.91 295.45ZM1112.83 308.951H1123.59C1126.62 308.951 1129.62 306.607 1129.62 303.092C1129.62 299.869 1126.94 297.232 1123.59 297.232H1112.83V308.951ZM1120.59 281.949H1112.83V293.448H1120.83C1123.76 293.351 1126.62 291.056 1126.62 287.687C1126.62 284.537 1123.94 281.949 1120.59 281.949ZM1130.65 287.76C1130.65 290.421 1129.38 292.789 1127.28 294.498C1131.02 295.719 1133.92 298.868 1133.92 303.165C1133.92 308.756 1129.62 312.955 1124.06 312.955H1108.46V277.97H1120.81C1126.18 277.97 1130.65 282.022 1130.65 287.76ZM1150.86 277.945H1155.26L1169.22 312.955H1164.85L1162.19 306.363H1143.91L1141.27 312.955H1136.88L1150.86 277.945ZM1153.06 283.438L1145.49 302.335H1160.61L1153.06 283.438ZM1177.52 310.416C1177.52 311.759 1176.43 312.955 1174.99 312.955C1173.64 312.955 1172.45 311.856 1172.45 310.416C1172.45 309.098 1173.54 307.877 1174.99 307.877C1176.33 307.877 1177.52 308.976 1177.52 310.416ZM1187 278.336C1187 280.631 1185.53 282.975 1182.87 284.732L1181.72 282.975C1182.68 282.315 1183.6 281.461 1184.17 280.655C1183.12 280.387 1182.41 279.508 1182.41 278.434C1182.41 277.164 1183.43 276.09 1184.68 276.09C1185.87 276.09 1187 277.042 1187 278.336ZM1192.76 278.336C1192.76 280.68 1191.22 283.048 1188.63 284.732L1187.46 282.999C1188.36 282.389 1189.12 281.656 1189.9 280.655C1188.83 280.387 1188.17 279.483 1188.17 278.434C1188.17 277.164 1189.17 276.09 1190.42 276.09C1191.61 276.09 1192.76 277.042 1192.76 278.336Z" fill="white"/>
</svg>
