<svg width="1109" height="324" viewBox="0 0 1109 324" fill="none" xmlns="http://www.w3.org/2000/svg">
<path d="M45.9551 11.5312C45.9551 9.21191 47.4688 6.84375 50.0811 5.13477L51.2529 6.89258C50.4961 7.50293 49.9102 7.91797 48.8115 9.21191C49.8369 9.48047 50.5693 10.3594 50.5693 11.4336C50.5693 12.6787 49.5439 13.7773 48.2988 13.7773C47.0781 13.7773 46.0039 12.8008 45.9551 11.5312ZM40.2178 11.5312C40.2178 9.21191 41.707 6.84375 44.3438 5.13477L45.4912 6.89258C44.6123 7.52734 44.124 8.01562 43.0742 9.21191C44.0996 9.48047 44.8076 10.3594 44.8076 11.4336C44.8076 12.6787 43.7822 13.7773 42.5615 13.7773C41.3408 13.7773 40.2178 12.8008 40.2178 11.5312ZM78.2549 22.5176V11.0918H67.4883C64.4609 11.0918 61.458 13.3867 61.458 16.8047C61.458 19.9297 64.1436 22.5176 67.4639 22.5176H78.2549ZM78.2549 26.5215H69.1973L60.1641 42H55.2324L64.4854 26.1309C60.2373 25.0811 57.1611 21.5898 57.1611 16.8047C57.1611 11.2139 61.458 7.01465 67.0244 7.01465H82.625V42H78.2549V26.5215ZM101.082 6.99023H128.67V42H124.3V11.0918H105.452V42H101.082V6.99023ZM134.725 6.99023H157.894V11.0918H139.095V20.833H153.475V24.9102H139.095V37.9229H157.894V42H134.725V6.99023ZM166.39 22.5176H177.156C180.184 22.5176 183.187 20.2227 183.187 16.8047C183.187 13.6553 180.477 11.0918 177.156 11.0918H166.39V22.5176ZM162.02 7.01465H177.62C183.016 7.03906 187.483 10.9941 187.483 16.8047C187.483 22.1758 183.187 26.5215 177.62 26.5215H166.39V42H162.02V7.01465ZM191.463 6.99023H214.632V11.0918H195.833V20.833H210.213V24.9102H195.833V37.9229H214.632V42H191.463V6.99023ZM243.44 11.0674H230.574C230.55 19.3926 230.257 29.4756 226.131 37.8984H243.44V11.0674ZM247.811 6.99023V37.8984H252.571V49.2266H248.201V42H221.883V49.2266H217.513V37.8984H221.37C226.106 29.915 226.204 17.1465 226.277 6.99023H247.811ZM300.203 21.7852L318.392 42H313.021L296.15 23.2744V42H291.805V23.2744L274.91 42H269.539L287.728 21.7852L272.396 6.96582H277.815L291.805 20.4424V6.96582H296.15V20.4424L310.115 6.96582H315.535L300.203 21.7852ZM323.689 7.01465H328.06V34.3828L350.301 7.01465H352.84V42H348.47V14.6318L326.229 42H323.689V7.01465ZM357.43 35.7988L360.164 32.7471C364.144 36.5068 368.367 37.9229 371.98 37.9473C377.474 37.9717 381.502 34.8223 381.478 31.3066C381.478 26.9365 374.471 26.2041 370.418 26.2041H365.12V22.249H370.418C374.031 22.249 379.72 21.2236 379.72 17.1953C379.72 13.167 375.691 10.8965 371.077 10.8965C367.83 10.9209 364.241 11.9951 361.092 14.29L358.602 11.2139C362.752 8.25977 367.22 6.91699 371.297 6.91699C378.377 6.91699 384.065 11.0674 384.065 17.293C384.09 20.7842 381.771 22.6885 378.499 23.8604C382.503 25.0566 385.848 27.0342 385.848 31.3066C385.848 37.0195 379.964 41.9512 372.347 42C367.269 42.0244 362.044 39.9004 357.43 35.7988ZM413.924 6.99023H418.318V42H413.924V24.9102H395.101V42H390.73V6.99023H395.101V20.8086H413.924V6.99023ZM428.743 26.4971V37.9229H439.51C442.537 37.9229 445.54 35.6279 445.54 32.21C445.54 29.0605 442.879 26.4971 439.51 26.4971H428.743ZM428.743 22.4932H439.974C445.394 22.4932 449.837 26.5459 449.837 32.21C449.837 37.8008 445.54 42 439.974 42H424.373V7.01465H428.743V22.4932ZM481.966 11.0186C474.764 11.0186 468.831 16.8779 468.831 24.4951C468.831 31.6729 474.275 37.9717 481.966 37.9717C489.192 37.9717 495.101 32.0879 495.101 24.4951C495.101 17.1709 489.705 11.1406 481.966 11.0186ZM481.966 6.99023C491.536 6.99023 499.544 14.7295 499.544 24.4951C499.544 34.0654 491.731 42 481.966 42C473.152 42 465.901 35.6768 464.534 26.5459H458.187V42H453.816V6.99023H458.187V22.4688H464.534C465.682 13.6064 472.859 7.03906 481.966 6.99023ZM521.541 37.9961H532.308C535.335 37.9961 538.338 35.6523 538.338 32.1367C538.338 28.9141 535.652 26.2773 532.308 26.2773H521.541V37.9961ZM529.305 10.9941H521.541V22.4932H529.549C532.479 22.3955 535.335 20.1006 535.335 16.7314C535.335 13.582 532.649 10.9941 529.305 10.9941ZM539.363 16.8047C539.363 19.4658 538.094 21.834 535.994 23.543C539.729 24.7637 542.635 27.9131 542.635 32.21C542.635 37.8008 538.338 42 532.771 42H517.171V7.01465H529.524C534.896 7.01465 539.363 11.0674 539.363 16.8047ZM557.967 6.99023H588.289V11.0674H575.301V42H570.931V11.0674H557.967V6.99023ZM614.339 22.5176V11.0918H603.572C600.545 11.0918 597.542 13.3867 597.542 16.8047C597.542 19.9297 600.228 22.5176 603.548 22.5176H614.339ZM614.339 26.5215H605.281L596.248 42H591.316L600.569 26.1309C596.321 25.0811 593.245 21.5898 593.245 16.8047C593.245 11.2139 597.542 7.01465 603.108 7.01465H618.709V42H614.339V26.5215ZM629.134 42H624.764V6.99023H647.908V11.0918H629.134V42ZM655.354 24.4951C655.354 31.7705 660.945 37.9961 668.587 37.9961C676.155 37.9961 681.795 31.9902 681.795 24.4951C681.795 16.9268 676.033 11.0186 668.587 11.0186C661.043 11.0186 655.354 17 655.354 24.4951ZM650.838 24.4951C650.838 14.3145 659.139 6.99023 668.587 6.99023C679.085 6.99023 686.336 15.2422 686.336 24.4951C686.336 34.8711 677.938 42 668.587 42C658.431 42 650.838 33.9922 650.838 24.4951ZM720.76 28.4258L724.91 29.7197C722.713 37.2148 715.682 42 707.967 42C697.933 42 690.218 34.0654 690.218 24.4951C690.218 14.9736 697.957 6.96582 707.991 6.96582C715.755 6.96582 722.64 11.8242 724.91 19.2705L720.76 20.54C719.075 14.9492 713.948 10.9941 707.991 10.9941C700.643 10.9941 694.734 16.8779 694.734 24.4951C694.734 31.7949 700.35 37.9961 707.991 37.9961C713.973 37.9961 719.026 34.1875 720.76 28.4258ZM727.693 6.99023H758.016V11.0674H745.027V42H740.657V11.0674H727.693V6.99023ZM785.359 6.99023H789.754V42H785.359V24.9102H766.536V42H762.166V6.99023H766.536V20.8086H785.359V6.99023ZM799.251 24.4951C799.251 31.7705 804.842 37.9961 812.483 37.9961C820.052 37.9961 825.691 31.9902 825.691 24.4951C825.691 16.9268 819.93 11.0186 812.483 11.0186C804.939 11.0186 799.251 17 799.251 24.4951ZM794.734 24.4951C794.734 14.3145 803.035 6.99023 812.483 6.99023C822.981 6.99023 830.232 15.2422 830.232 24.4951C830.232 34.8711 821.834 42 812.483 42C802.327 42 794.734 33.9922 794.734 24.4951ZM867.732 7.01465H870.271V42H865.901V14.8271L852.742 31.6729L839.583 14.8271V42H835.213V7.01465H837.752L852.742 25.96L867.732 7.01465ZM913.411 11.0674H900.545C900.521 19.3926 900.228 29.4756 896.102 37.8984H913.411V11.0674ZM917.781 6.99023V37.8984H922.542V49.2266H918.172V42H891.854V49.2266H887.483V37.8984H891.341C896.077 29.915 896.175 17.1465 896.248 6.99023H917.781ZM931.282 24.4951C931.282 31.7705 936.873 37.9961 944.515 37.9961C952.083 37.9961 957.723 31.9902 957.723 24.4951C957.723 16.9268 951.961 11.0186 944.515 11.0186C936.971 11.0186 931.282 17 931.282 24.4951ZM926.766 24.4951C926.766 14.3145 935.066 6.99023 944.515 6.99023C955.013 6.99023 962.264 15.2422 962.264 24.4951C962.264 34.8711 953.865 42 944.515 42C934.358 42 926.766 33.9922 926.766 24.4951ZM975.911 6.99023H998.445V42H994.075V11.0918H980.257V32.1123C980.257 34.8467 979.305 37.1904 977.376 39.1191C975.447 41.0479 973.104 42 970.369 42C968.636 42 967 41.585 965.486 40.7061L967.61 36.8975C968.465 37.3857 969.393 37.6299 970.369 37.6299C971.907 37.6299 973.201 37.0684 974.275 35.9941C975.35 34.9199 975.911 33.626 975.911 32.0879V6.99023ZM1008.87 42H1004.5V6.99023H1027.64V11.0918H1008.87V42ZM1033.7 36.8975C1034.55 37.3857 1035.46 37.6299 1036.43 37.6299C1038.44 37.6543 1040.24 36.6533 1041.9 33.6504L1043.73 30.3301L1031.06 6.99023H1035.8L1046.1 25.96L1056.48 6.99023H1061.21L1045.93 34.9932C1044 38.5576 1041.05 42.0244 1036.43 42C1034.75 42 1033.16 41.585 1031.58 40.7061L1033.7 36.8975ZM1064.92 46.3457L1063.63 44.4414C1064.58 43.7334 1065.14 43.2207 1066.32 41.9023C1065.19 41.6094 1064.39 40.6816 1064.39 39.4854C1064.39 38.1426 1065.46 36.9463 1066.88 36.9219C1068.22 36.8975 1069.47 37.9473 1069.47 39.3633C1069.47 41.3164 1068.71 42.9277 1067.22 44.4902C1066.54 45.1738 1065.88 45.7354 1064.92 46.3457ZM39.29 61.0146H43.6602V88.3828L65.9014 61.0146H68.4404V96H64.0703V68.6318L41.8291 96H39.29V61.0146ZM85.042 60.9902H115.364V65.0674H102.376V96H98.0059V65.0674H85.042V60.9902ZM122.957 78.4951C122.957 85.7705 128.548 91.9961 136.189 91.9961C143.758 91.9961 149.397 85.9902 149.397 78.4951C149.397 70.9268 143.636 65.0186 136.189 65.0186C128.646 65.0186 122.957 71 122.957 78.4951ZM118.44 78.4951C118.44 68.3145 126.741 60.9902 136.189 60.9902C146.688 60.9902 153.938 69.2422 153.938 78.4951C153.938 88.8711 145.54 96 136.189 96C126.033 96 118.44 87.9922 118.44 78.4951ZM167.586 60.9902H190.12V96H185.75V65.0918H171.932V86.1123C171.932 88.8467 170.979 91.1904 169.051 93.1191C167.122 95.0479 164.778 96 162.044 96C160.311 96 158.675 95.585 157.161 94.7061L159.285 90.8975C160.14 91.3857 161.067 91.6299 162.044 91.6299C163.582 91.6299 164.876 91.0684 165.95 89.9941C167.024 88.9199 167.586 87.626 167.586 86.0879V60.9902ZM200.545 80.4971V91.9229H211.312C214.339 91.9229 217.342 89.6279 217.342 86.21C217.342 83.0605 214.681 80.4971 211.312 80.4971H200.545ZM200.545 76.4932H211.775C217.195 76.4932 221.639 80.5459 221.639 86.21C221.639 91.8008 217.342 96 211.775 96H196.175V61.0146H200.545V76.4932ZM244.002 60.9658H249.397C244.295 65.9219 239.168 70.8535 234.065 75.7852L252.254 96H246.883C241.243 89.7744 235.628 83.5 229.988 77.2744V96H225.618V60.9658H229.988V74.4424L244.002 60.9658ZM260.457 78.4951C260.457 85.7705 266.048 91.9961 273.689 91.9961C281.258 91.9961 286.897 85.9902 286.897 78.4951C286.897 70.9268 281.136 65.0186 273.689 65.0186C266.146 65.0186 260.457 71 260.457 78.4951ZM255.94 78.4951C255.94 68.3145 264.241 60.9902 273.689 60.9902C284.188 60.9902 291.438 69.2422 291.438 78.4951C291.438 88.8711 283.04 96 273.689 96C263.533 96 255.94 87.9922 255.94 78.4951ZM338.265 82.4258L342.415 83.7197C340.218 91.2148 333.187 96 325.472 96C315.438 96 307.723 88.0654 307.723 78.4951C307.723 68.9736 315.462 60.9658 325.496 60.9658C333.26 60.9658 340.145 65.8242 342.415 73.2705L338.265 74.54C336.58 68.9492 331.453 64.9941 325.496 64.9941C318.147 64.9941 312.239 70.8779 312.239 78.4951C312.239 85.7949 317.854 91.9961 325.496 91.9961C331.478 91.9961 336.531 88.1875 338.265 82.4258ZM379.573 61.0146H382.112V96H377.742V68.8271L364.583 85.6729L351.424 68.8271V96H347.054V61.0146H349.593L364.583 79.96L379.573 61.0146ZM388.167 60.9902H411.336V65.0918H392.537V74.833H406.917V78.9102H392.537V91.9229H411.336V96H388.167V60.9902ZM419.832 76.5176H430.599C433.626 76.5176 436.629 74.2227 436.629 70.8047C436.629 67.6553 433.919 65.0918 430.599 65.0918H419.832V76.5176ZM415.462 61.0146H431.062C436.458 61.0391 440.926 64.9941 440.926 70.8047C440.926 76.1758 436.629 80.5215 431.062 80.5215H419.832V96H415.462V61.0146ZM443.05 60.9902H473.372V65.0674H460.384V96H456.014V65.0674H443.05V60.9902ZM481.893 80.4971V91.9229H492.659C495.687 91.9229 498.689 89.6279 498.689 86.21C498.689 83.0605 496.028 80.4971 492.659 80.4971H481.893ZM481.893 76.4932H493.123C498.543 76.4932 502.986 80.5459 502.986 86.21C502.986 91.8008 498.689 96 493.123 96H477.522V61.0146H481.893V76.4932ZM553.865 60.9902H558.26V91.9229H563.191V103.227H558.821V96H517.903V60.9902H522.273V91.9229H535.896V60.9902H540.242V91.9229H553.865V60.9902ZM568.587 60.9902H591.756V65.0918H572.957V74.833H587.337V78.9102H572.957V91.9229H591.756V96H568.587V60.9902ZM620.564 65.0674H607.698C607.674 73.3926 607.381 83.4756 603.255 91.8984H620.564V65.0674ZM624.935 60.9902V91.8984H629.695V103.227H625.325V96H599.007V103.227H594.637V91.8984H598.494C603.23 83.915 603.328 71.1465 603.401 60.9902H624.935ZM639.363 76.5176H650.13C653.157 76.5176 656.16 74.2227 656.16 70.8047C656.16 67.6553 653.45 65.0918 650.13 65.0918H639.363V76.5176ZM634.993 61.0146H650.594C655.989 61.0391 660.457 64.9941 660.457 70.8047C660.457 76.1758 656.16 80.5215 650.594 80.5215H639.363V96H634.993V61.0146ZM676.595 60.9902H680.989L694.954 96H690.584L687.923 89.4082H669.637L667 96H662.605L676.595 60.9902ZM678.792 66.4834L671.224 85.3799H686.336L678.792 66.4834ZM711.556 61.0146H715.926V88.3828L738.167 61.0146H740.706V96H736.336V68.6318L714.095 96H711.556V61.0146ZM791.683 61.0146H794.222V96H789.852V68.8271L776.692 85.6729L763.533 68.8271V96H759.163V61.0146H761.702L776.692 79.96L791.683 61.0146ZM803.719 78.4951C803.719 85.7705 809.31 91.9961 816.951 91.9961C824.52 91.9961 830.159 85.9902 830.159 78.4951C830.159 70.9268 824.397 65.0186 816.951 65.0186C809.407 65.0186 803.719 71 803.719 78.4951ZM799.202 78.4951C799.202 68.3145 807.503 60.9902 816.951 60.9902C827.449 60.9902 834.7 69.2422 834.7 78.4951C834.7 88.8711 826.302 96 816.951 96C806.795 96 799.202 87.9922 799.202 78.4951ZM848.348 60.9902H870.882V96H866.512V65.0918H852.693V86.1123C852.693 88.8467 851.741 91.1904 849.812 93.1191C847.884 95.0479 845.54 96 842.806 96C841.072 96 839.437 95.585 837.923 94.7061L840.047 90.8975C840.901 91.3857 841.829 91.6299 842.806 91.6299C844.344 91.6299 845.638 91.0684 846.712 89.9941C847.786 88.9199 848.348 87.626 848.348 86.0879V60.9902ZM896.297 60.9902H900.667V96H896.297V81.1074C893.196 82.2061 889.925 82.9873 886.458 82.9873C879.427 82.9873 874.959 79.7158 874.959 72.416V61.0635H879.305V71.8057C879.305 76.7129 882.015 78.9102 886.946 78.9102C890.096 78.9102 893.074 78.1533 896.297 76.8594V60.9902ZM918.88 60.9902H923.274L937.239 96H932.869L930.208 89.4082H911.922L909.285 96H904.891L918.88 60.9902ZM921.077 66.4834L913.509 85.3799H928.621L921.077 66.4834ZM950.105 60.9902H972.64V96H968.27V65.0918H954.451V86.1123C954.451 88.8467 953.499 91.1904 951.57 93.1191C949.642 95.0479 947.298 96 944.563 96C942.83 96 941.194 95.585 939.681 94.7061L941.805 90.8975C942.659 91.3857 943.587 91.6299 944.563 91.6299C946.102 91.6299 947.396 91.0684 948.47 89.9941C949.544 88.9199 950.105 87.626 950.105 86.0879V60.9902ZM978.694 61.0146H983.064V88.3828L1005.31 61.0146H1007.84V96H1003.47V68.6318L981.233 96H978.694V61.0146ZM1018.34 91.9961H1029.11C1032.14 91.9961 1035.14 89.6523 1035.14 86.1367C1035.14 82.9141 1032.45 80.2773 1029.11 80.2773H1018.34V91.9961ZM1026.11 64.9941H1018.34V76.4932H1026.35C1029.28 76.3955 1032.14 74.1006 1032.14 70.7314C1032.14 67.582 1029.45 64.9941 1026.11 64.9941ZM1036.17 70.8047C1036.17 73.4658 1034.9 75.834 1032.8 77.543C1036.53 78.7637 1039.44 81.9131 1039.44 86.21C1039.44 91.8008 1035.14 96 1029.57 96H1013.97V61.0146H1026.33C1031.7 61.0146 1036.17 65.0674 1036.17 70.8047ZM1056.38 60.9902H1060.77L1074.74 96H1070.37L1067.71 89.4082H1049.42L1046.79 96H1042.39L1056.38 60.9902ZM1058.58 66.4834L1051.01 85.3799H1066.12L1058.58 66.4834ZM1083.04 93.4609C1083.04 94.8037 1081.94 96 1080.5 96C1079.16 96 1077.96 94.9014 1077.96 93.4609C1077.96 92.1426 1079.06 90.9219 1080.5 90.9219C1081.84 90.9219 1083.04 92.0205 1083.04 93.4609ZM129.769 143.799L132.503 140.747C136.482 144.507 140.706 145.923 144.319 145.947C149.812 145.972 153.841 142.822 153.816 139.307C153.816 134.937 146.81 134.204 142.757 134.204H137.459V130.249H142.757C146.37 130.249 152.059 129.224 152.059 125.195C152.059 121.167 148.03 118.896 143.416 118.896C140.169 118.921 136.58 119.995 133.431 122.29L130.94 119.214C135.091 116.26 139.559 114.917 143.636 114.917C150.716 114.917 156.404 119.067 156.404 125.293C156.429 128.784 154.109 130.688 150.838 131.86C154.842 133.057 158.187 135.034 158.187 139.307C158.187 145.02 152.303 149.951 144.686 150C139.607 150.024 134.383 147.9 129.769 143.799ZM175.228 114.99H179.622L193.587 150H189.217L186.556 143.408H168.27L165.633 150H161.238L175.228 114.99ZM177.425 120.483L169.856 139.38H184.969L177.425 120.483ZM214.632 145.996H225.398C228.426 145.996 231.429 143.652 231.429 140.137C231.429 136.914 228.743 134.277 225.398 134.277H214.632V145.996ZM222.396 118.994H214.632V130.493H222.64C225.569 130.396 228.426 128.101 228.426 124.731C228.426 121.582 225.74 118.994 222.396 118.994ZM232.454 124.805C232.454 127.466 231.185 129.834 229.085 131.543C232.82 132.764 235.726 135.913 235.726 140.21C235.726 145.801 231.429 150 225.862 150H210.262V115.015H222.615C227.986 115.015 232.454 119.067 232.454 124.805ZM269.954 136.426L274.104 137.72C271.907 145.215 264.876 150 257.161 150C247.127 150 239.412 142.065 239.412 132.495C239.412 122.974 247.151 114.966 257.186 114.966C264.949 114.966 271.834 119.824 274.104 127.271L269.954 128.54C268.27 122.949 263.143 118.994 257.186 118.994C249.837 118.994 243.929 124.878 243.929 132.495C243.929 139.795 249.544 145.996 257.186 145.996C263.167 145.996 268.221 142.188 269.954 136.426ZM278.743 114.99H301.912V119.092H283.113V128.833H297.493V132.91H283.113V145.923H301.912V150H278.743V114.99ZM305.77 154.346L304.476 152.441C305.428 151.733 305.989 151.221 307.161 149.902C306.038 149.609 305.232 148.682 305.232 147.485C305.232 146.143 306.307 144.946 307.723 144.922C309.065 144.897 310.311 145.947 310.311 147.363C310.311 149.316 309.554 150.928 308.064 152.49C307.381 153.174 306.722 153.735 305.77 154.346ZM325.569 143.799L328.304 140.747C332.283 144.507 336.507 145.923 340.12 145.947C345.613 145.972 349.642 142.822 349.617 139.307C349.617 134.937 342.61 134.204 338.558 134.204H333.26V130.249H338.558C342.171 130.249 347.859 129.224 347.859 125.195C347.859 121.167 343.831 118.896 339.217 118.896C335.97 118.921 332.381 119.995 329.231 122.29L326.741 119.214C330.892 116.26 335.359 114.917 339.437 114.917C346.517 114.917 352.205 119.067 352.205 125.293C352.229 128.784 349.91 130.688 346.639 131.86C350.643 133.057 353.987 135.034 353.987 139.307C353.987 145.02 348.104 149.951 340.486 150C335.408 150.024 330.184 147.9 325.569 143.799ZM371.028 114.99H375.423L389.388 150H385.018L382.356 143.408H364.07L361.434 150H357.039L371.028 114.99ZM373.226 120.483L365.657 139.38H380.77L373.226 120.483ZM410.433 145.996H421.199C424.227 145.996 427.229 143.652 427.229 140.137C427.229 136.914 424.544 134.277 421.199 134.277H410.433V145.996ZM418.196 118.994H410.433V130.493H418.44C421.37 130.396 424.227 128.101 424.227 124.731C424.227 121.582 421.541 118.994 418.196 118.994ZM428.255 124.805C428.255 127.466 426.985 129.834 424.886 131.543C428.621 132.764 431.526 135.913 431.526 140.21C431.526 145.801 427.229 150 421.663 150H406.062V115.015H418.416C423.787 115.015 428.255 119.067 428.255 124.805ZM465.755 136.426L469.905 137.72C467.708 145.215 460.677 150 452.962 150C442.928 150 435.213 142.065 435.213 132.495C435.213 122.974 442.952 114.966 452.986 114.966C460.75 114.966 467.635 119.824 469.905 127.271L465.755 128.54C464.07 122.949 458.943 118.994 452.986 118.994C445.638 118.994 439.729 124.878 439.729 132.495C439.729 139.795 445.345 145.996 452.986 145.996C458.968 145.996 464.021 142.188 465.755 136.426ZM474.544 114.99H497.713V119.092H478.914V128.833H493.294V132.91H478.914V145.923H497.713V150H474.544V114.99ZM505.94 147.461C505.94 148.804 504.842 150 503.401 150C502.059 150 500.862 148.901 500.862 147.461C500.862 146.143 501.961 144.922 503.401 144.922C504.744 144.922 505.94 146.021 505.94 147.461ZM521.956 143.799L524.69 140.747C528.67 144.507 532.894 145.923 536.507 145.947C542 145.972 546.028 142.822 546.004 139.307C546.004 134.937 538.997 134.204 534.944 134.204H529.646V130.249H534.944C538.558 130.249 544.246 129.224 544.246 125.195C544.246 121.167 540.218 118.896 535.604 118.896C532.356 118.921 528.768 119.995 525.618 122.29L523.128 119.214C527.278 116.26 531.746 114.917 535.823 114.917C542.903 114.917 548.592 119.067 548.592 125.293C548.616 128.784 546.297 130.688 543.025 131.86C547.029 133.057 550.374 135.034 550.374 139.307C550.374 145.02 544.49 149.951 536.873 150C531.795 150.024 526.57 147.9 521.956 143.799ZM567.415 114.99H571.81L585.774 150H581.404L578.743 143.408H560.457L557.82 150H553.426L567.415 114.99ZM569.612 120.483L562.044 139.38H577.156L569.612 120.483ZM634.896 115.015H637.435V150H633.064V122.827L619.905 139.673L606.746 122.827V150H602.376V115.015H604.915L619.905 133.96L634.896 115.015ZM645.54 144.897C646.395 145.386 647.298 145.63 648.274 145.63C650.276 145.654 652.083 144.653 653.743 141.65L655.574 138.33L642.903 114.99H647.64L657.942 133.96L668.318 114.99H673.055L657.771 142.993C655.843 146.558 652.889 150.024 648.274 150C646.59 150 645.003 149.585 643.416 148.706L645.54 144.897ZM675.179 114.99H705.501V119.067H692.513V150H688.143V119.067H675.179V114.99ZM732.845 114.99H737.239V150H732.845V132.91H714.021V150H709.651V114.99H714.021V128.809H732.845V114.99ZM745.345 144.897C746.199 145.386 747.103 145.63 748.079 145.63C750.081 145.654 751.888 144.653 753.548 141.65L755.379 138.33L742.708 114.99H747.444L757.747 133.96L768.123 114.99H772.859L757.576 142.993C755.647 146.558 752.693 150.024 748.079 150C746.395 150 744.808 149.585 743.221 148.706L745.345 144.897ZM804.988 119.019C797.786 119.019 791.854 124.878 791.854 132.495C791.854 139.673 797.298 145.972 804.988 145.972C812.215 145.972 818.123 140.088 818.123 132.495C818.123 125.171 812.728 119.141 804.988 119.019ZM804.988 114.99C814.559 114.99 822.566 122.729 822.566 132.495C822.566 142.065 814.754 150 804.988 150C796.175 150 788.924 143.677 787.557 134.546H781.209V150H776.839V114.99H781.209V130.469H787.557C788.704 121.606 795.882 115.039 804.988 114.99ZM838.655 143.799L841.39 140.747C845.369 144.507 849.593 145.923 853.206 145.947C858.699 145.972 862.728 142.822 862.703 139.307C862.703 134.937 855.696 134.204 851.644 134.204H846.346V130.249H851.644C855.257 130.249 860.945 129.224 860.945 125.195C860.945 121.167 856.917 118.896 852.303 118.896C849.056 118.921 845.467 119.995 842.317 122.29L839.827 119.214C843.978 116.26 848.445 114.917 852.522 114.917C859.603 114.917 865.291 119.067 865.291 125.293C865.315 128.784 862.996 130.688 859.725 131.86C863.729 133.057 867.073 135.034 867.073 139.307C867.073 145.02 861.189 149.951 853.572 150C848.494 150.024 843.27 147.9 838.655 143.799ZM884.114 114.99H888.509L902.474 150H898.104L895.442 143.408H877.156L874.52 150H870.125L884.114 114.99ZM886.312 120.483L878.743 139.38H893.855L886.312 120.483ZM911.043 130.518H921.81C924.837 130.518 927.84 128.223 927.84 124.805C927.84 121.655 925.13 119.092 921.81 119.092H911.043V130.518ZM906.673 115.015H922.273C927.669 115.039 932.137 118.994 932.137 124.805C932.137 130.176 927.84 134.521 922.273 134.521H911.043V150H906.673V115.015ZM964.266 119.019C957.063 119.019 951.131 124.878 951.131 132.495C951.131 139.673 956.575 145.972 964.266 145.972C971.492 145.972 977.4 140.088 977.4 132.495C977.4 125.171 972.005 119.141 964.266 119.019ZM964.266 114.99C973.836 114.99 981.844 122.729 981.844 132.495C981.844 142.065 974.031 150 964.266 150C955.452 150 948.201 143.677 946.834 134.546H940.486V150H936.116V114.99H940.486V130.469H946.834C947.981 121.606 955.159 115.039 964.266 114.99ZM991.097 147.461C991.097 148.804 989.998 150 988.558 150C987.215 150 986.019 148.901 986.019 147.461C986.019 146.143 987.117 144.922 988.558 144.922C989.9 144.922 991.097 146.021 991.097 147.461ZM15.7305 197.799L18.4648 194.747C22.4443 198.507 26.668 199.923 30.2812 199.947C35.7744 199.972 39.8027 196.822 39.7783 193.307C39.7783 188.937 32.7715 188.204 28.7188 188.204H23.4209V184.249H28.7188C32.332 184.249 38.0205 183.224 38.0205 179.195C38.0205 175.167 33.9922 172.896 29.3779 172.896C26.1309 172.921 22.542 173.995 19.3926 176.29L16.9023 173.214C21.0527 170.26 25.5205 168.917 29.5977 168.917C36.6777 168.917 42.3662 173.067 42.3662 179.293C42.3906 182.784 40.0713 184.688 36.7998 185.86C40.8037 187.057 44.1484 189.034 44.1484 193.307C44.1484 199.02 38.2646 203.951 30.6475 204C25.5693 204.024 20.3447 201.9 15.7305 197.799ZM61.1895 168.99H65.584L79.5488 204H75.1787L72.5176 197.408H54.2314L51.5947 204H47.2002L61.1895 168.99ZM63.3867 174.483L55.8184 193.38H70.9307L63.3867 174.483ZM120.442 168.966H125.594L113.704 185.47L127.059 204H121.883L111.116 189.083L100.374 204H95.1982L108.553 185.47L96.6387 168.966H101.814L111.116 181.881L120.442 168.966ZM140.804 168.99H163.338V204H158.968V173.092H145.149V194.112C145.149 196.847 144.197 199.19 142.269 201.119C140.34 203.048 137.996 204 135.262 204C133.528 204 131.893 203.585 130.379 202.706L132.503 198.897C133.357 199.386 134.285 199.63 135.262 199.63C136.8 199.63 138.094 199.068 139.168 197.994C140.242 196.92 140.804 195.626 140.804 194.088V168.99ZM169.393 168.99H192.562V173.092H173.763V182.833H188.143V186.91H173.763V199.923H192.562V204H169.393V168.99ZM201.058 188.497V199.923H211.824C214.803 199.923 217.854 197.628 217.854 194.21C217.854 191.061 215.169 188.497 211.824 188.497H201.058ZM201.058 184.493H212.288C217.635 184.493 222.151 188.521 222.151 194.21C222.151 199.776 217.854 204 212.288 204H196.688V169.015H218.904V173.092H201.058V184.493ZM230.818 201.461C230.818 202.804 229.72 204 228.279 204C226.937 204 225.74 202.901 225.74 201.461C225.74 200.143 226.839 198.922 228.279 198.922C229.622 198.922 230.818 200.021 230.818 201.461ZM246.834 197.799L249.568 194.747C253.548 198.507 257.771 199.923 261.385 199.947C266.878 199.972 270.906 196.822 270.882 193.307C270.882 188.937 263.875 188.204 259.822 188.204H254.524V184.249H259.822C263.436 184.249 269.124 183.224 269.124 179.195C269.124 175.167 265.096 172.896 260.481 172.896C257.234 172.921 253.646 173.995 250.496 176.29L248.006 173.214C252.156 170.26 256.624 168.917 260.701 168.917C267.781 168.917 273.47 173.067 273.47 179.293C273.494 182.784 271.175 184.688 267.903 185.86C271.907 187.057 275.252 189.034 275.252 193.307C275.252 199.02 269.368 203.951 261.751 204C256.673 204.024 251.448 201.9 246.834 197.799ZM292.293 168.99H296.688L310.652 204H306.282L303.621 197.408H285.335L282.698 204H278.304L292.293 168.99ZM294.49 174.483L286.922 193.38H302.034L294.49 174.483ZM356.697 190.426L360.848 191.72C358.65 199.215 351.619 204 343.904 204C333.87 204 326.155 196.065 326.155 186.495C326.155 176.974 333.895 168.966 343.929 168.966C351.692 168.966 358.577 173.824 360.848 181.271L356.697 182.54C355.013 176.949 349.886 172.994 343.929 172.994C336.58 172.994 330.672 178.878 330.672 186.495C330.672 193.795 336.287 199.996 343.929 199.996C349.91 199.996 354.964 196.188 356.697 190.426ZM368.929 186.495C368.929 193.771 374.52 199.996 382.161 199.996C389.729 199.996 395.369 193.99 395.369 186.495C395.369 178.927 389.607 173.019 382.161 173.019C374.617 173.019 368.929 179 368.929 186.495ZM364.412 186.495C364.412 176.314 372.713 168.99 382.161 168.99C392.659 168.99 399.91 177.242 399.91 186.495C399.91 196.871 391.512 204 382.161 204C372.005 204 364.412 195.992 364.412 186.495ZM413.558 168.99H436.092V204H431.722V173.092H417.903V194.112C417.903 196.847 416.951 199.19 415.022 201.119C413.094 203.048 410.75 204 408.016 204C406.282 204 404.646 203.585 403.133 202.706L405.257 198.897C406.111 199.386 407.039 199.63 408.016 199.63C409.554 199.63 410.848 199.068 411.922 197.994C412.996 196.92 413.558 195.626 413.558 194.088V168.99ZM446.517 188.497V199.923H457.283C460.311 199.923 463.313 197.628 463.313 194.21C463.313 191.061 460.652 188.497 457.283 188.497H446.517ZM446.517 184.493H457.747C463.167 184.493 467.61 188.546 467.61 194.21C467.61 199.801 463.313 204 457.747 204H442.146V169.015H446.517V184.493ZM475.691 201.461C475.691 202.804 474.593 204 473.152 204C471.81 204 470.613 202.901 470.613 201.461C470.613 200.143 471.712 198.922 473.152 198.922C474.495 198.922 475.691 200.021 475.691 201.461ZM491.316 168.99H521.639V173.067H508.65V204H504.28V173.067H491.316V168.99ZM525.789 168.99H548.958V173.092H530.159V182.833H544.539V186.91H530.159V199.923H548.958V204H525.789V168.99ZM553.084 168.99H580.672V204H576.302V173.092H557.454V204H553.084V168.99ZM595.394 168.99H617.928V204H613.558V173.092H599.739V194.112C599.739 196.847 598.787 199.19 596.858 201.119C594.93 203.048 592.586 204 589.852 204C588.118 204 586.482 203.585 584.969 202.706L587.093 198.897C587.947 199.386 588.875 199.63 589.852 199.63C591.39 199.63 592.684 199.068 593.758 197.994C594.832 196.92 595.394 195.626 595.394 194.088V168.99ZM627.425 186.495C627.425 193.771 633.016 199.996 640.657 199.996C648.226 199.996 653.865 193.99 653.865 186.495C653.865 178.927 648.104 173.019 640.657 173.019C633.113 173.019 627.425 179 627.425 186.495ZM622.908 186.495C622.908 176.314 631.209 168.99 640.657 168.99C651.155 168.99 658.406 177.242 658.406 186.495C658.406 196.871 650.008 204 640.657 204C630.501 204 622.908 195.992 622.908 186.495ZM680.159 184.518H690.926C693.953 184.518 696.956 182.223 696.956 178.805C696.956 175.655 694.246 173.092 690.926 173.092H680.159V184.518ZM675.789 169.015H691.39C696.785 169.039 701.253 172.994 701.253 178.805C701.253 184.176 696.956 188.521 691.39 188.521H680.159V204H675.789V169.015ZM708.675 186.495C708.675 193.771 714.266 199.996 721.907 199.996C729.476 199.996 735.115 193.99 735.115 186.495C735.115 178.927 729.354 173.019 721.907 173.019C714.363 173.019 708.675 179 708.675 186.495ZM704.158 186.495C704.158 176.314 712.459 168.99 721.907 168.99C732.405 168.99 739.656 177.242 739.656 186.495C739.656 196.871 731.258 204 721.907 204C711.751 204 704.158 195.992 704.158 186.495ZM769.319 173.067H756.453C756.429 181.393 756.136 191.476 752.01 199.898H769.319V173.067ZM773.689 168.99V199.898H778.45V211.227H774.08V204H747.762V211.227H743.392V199.898H747.249C751.985 191.915 752.083 179.146 752.156 168.99H773.689ZM806.941 168.99H811.336V204H806.941V186.91H788.118V204H783.748V168.99H788.118V182.809H806.941V168.99ZM820.833 186.495C820.833 193.771 826.424 199.996 834.065 199.996C841.634 199.996 847.273 193.99 847.273 186.495C847.273 178.927 841.512 173.019 834.065 173.019C826.521 173.019 820.833 179 820.833 186.495ZM816.316 186.495C816.316 176.314 824.617 168.99 834.065 168.99C844.563 168.99 851.814 177.242 851.814 186.495C851.814 196.871 843.416 204 834.065 204C823.909 204 816.316 195.992 816.316 186.495ZM861.165 204H856.795V168.99H879.939V173.092H861.165V204ZM887.386 186.495C887.386 193.771 892.977 199.996 900.618 199.996C908.187 199.996 913.826 193.99 913.826 186.495C913.826 178.927 908.064 173.019 900.618 173.019C893.074 173.019 887.386 179 887.386 186.495ZM882.869 186.495C882.869 176.314 891.17 168.99 900.618 168.99C911.116 168.99 918.367 177.242 918.367 186.495C918.367 196.871 909.969 204 900.618 204C890.462 204 882.869 195.992 882.869 186.495ZM954.134 168.966H959.529C954.427 173.922 949.3 178.854 944.197 183.785L962.386 204H957.015C951.375 197.774 945.76 191.5 940.12 185.274V204H935.75V168.966H940.12V182.442L954.134 168.966ZM971.517 184.518H982.283C985.311 184.518 988.313 182.223 988.313 178.805C988.313 175.655 985.604 173.092 982.283 173.092H971.517V184.518ZM967.146 169.015H982.747C988.143 169.039 992.61 172.994 992.61 178.805C992.61 184.176 988.313 188.521 982.747 188.521H971.517V204H967.146V169.015ZM1000.03 186.495C1000.03 193.771 1005.62 199.996 1013.26 199.996C1020.83 199.996 1026.47 193.99 1026.47 186.495C1026.47 178.927 1020.71 173.019 1013.26 173.019C1005.72 173.019 1000.03 179 1000.03 186.495ZM995.516 186.495C995.516 176.314 1003.82 168.99 1013.26 168.99C1023.76 168.99 1031.01 177.242 1031.01 186.495C1031.01 196.871 1022.62 204 1013.26 204C1003.11 204 995.516 195.992 995.516 186.495ZM1040.44 199.996H1051.2C1054.23 199.996 1057.23 197.652 1057.23 194.137C1057.23 190.914 1054.55 188.277 1051.2 188.277H1040.44V199.996ZM1048.2 172.994H1040.44V184.493H1048.45C1051.38 184.396 1054.23 182.101 1054.23 178.731C1054.23 175.582 1051.55 172.994 1048.2 172.994ZM1058.26 178.805C1058.26 181.466 1056.99 183.834 1054.89 185.543C1058.63 186.764 1061.53 189.913 1061.53 194.21C1061.53 199.801 1057.23 204 1051.67 204H1036.07V169.015H1048.42C1053.79 169.015 1058.26 173.067 1058.26 178.805ZM1078.47 168.99H1082.87L1096.83 204H1092.46L1089.8 197.408H1071.52L1068.88 204H1064.49L1078.47 168.99ZM1080.67 174.483L1073.1 193.38H1088.22L1080.67 174.483ZM1105.13 201.461C1105.13 202.804 1104.04 204 1102.6 204C1101.25 204 1100.06 202.901 1100.06 201.461C1100.06 200.143 1101.16 198.922 1102.6 198.922C1103.94 198.922 1105.13 200.021 1105.13 201.461ZM101.18 251.799L103.914 248.747C107.894 252.507 112.117 253.923 115.73 253.947C121.224 253.972 125.252 250.822 125.228 247.307C125.228 242.937 118.221 242.204 114.168 242.204H108.87V238.249H114.168C117.781 238.249 123.47 237.224 123.47 233.195C123.47 229.167 119.441 226.896 114.827 226.896C111.58 226.921 107.991 227.995 104.842 230.29L102.352 227.214C106.502 224.26 110.97 222.917 115.047 222.917C122.127 222.917 127.815 227.067 127.815 233.293C127.84 236.784 125.521 238.688 122.249 239.86C126.253 241.057 129.598 243.034 129.598 247.307C129.598 253.02 123.714 257.951 116.097 258C111.019 258.024 105.794 255.9 101.18 251.799ZM146.639 222.99H151.033L164.998 258H160.628L157.967 251.408H139.681L137.044 258H132.649L146.639 222.99ZM148.836 228.483L141.268 247.38H156.38L148.836 228.483ZM179.744 222.99H210.066V227.067H197.078V258H192.708V227.067H179.744V222.99ZM217.659 240.495C217.659 247.771 223.25 253.996 230.892 253.996C238.46 253.996 244.1 247.99 244.1 240.495C244.1 232.927 238.338 227.019 230.892 227.019C223.348 227.019 217.659 233 217.659 240.495ZM213.143 240.495C213.143 230.314 221.443 222.99 230.892 222.99C241.39 222.99 248.641 231.242 248.641 240.495C248.641 250.871 240.242 258 230.892 258C220.735 258 213.143 249.992 213.143 240.495ZM253.353 262.346L252.059 260.441C253.011 259.733 253.572 259.221 254.744 257.902C253.621 257.609 252.815 256.682 252.815 255.485C252.815 254.143 253.89 252.946 255.306 252.922C256.648 252.897 257.894 253.947 257.894 255.363C257.894 257.316 257.137 258.928 255.647 260.49C254.964 261.174 254.305 261.735 253.353 262.346ZM293.978 222.99H298.348V258H293.978V243.107C290.877 244.206 287.605 244.987 284.139 244.987C277.107 244.987 272.64 241.716 272.64 234.416V223.063H276.985V233.806C276.985 238.713 279.695 240.91 284.627 240.91C287.776 240.91 290.755 240.153 293.978 238.859V222.99ZM302.547 222.99H332.869V227.067H319.881V258H315.511V227.067H302.547V222.99ZM340.462 240.495C340.462 247.771 346.053 253.996 353.694 253.996C361.263 253.996 366.902 247.99 366.902 240.495C366.902 232.927 361.141 227.019 353.694 227.019C346.15 227.019 340.462 233 340.462 240.495ZM335.945 240.495C335.945 230.314 344.246 222.99 353.694 222.99C364.192 222.99 371.443 231.242 371.443 240.495C371.443 250.871 363.045 258 353.694 258C343.538 258 335.945 249.992 335.945 240.495ZM410.726 238.518V227.092H399.959C396.932 227.092 393.929 229.387 393.929 232.805C393.929 235.93 396.614 238.518 399.935 238.518H410.726ZM410.726 242.521H401.668L392.635 258H387.703L396.956 242.131C392.708 241.081 389.632 237.59 389.632 232.805C389.632 227.214 393.929 223.015 399.495 223.015H415.096V258H410.726V242.521ZM437.996 253.996H448.763C451.79 253.996 454.793 251.652 454.793 248.137C454.793 244.914 452.107 242.277 448.763 242.277H437.996V253.996ZM445.76 226.994H437.996V238.493H446.004C448.934 238.396 451.79 236.101 451.79 232.731C451.79 229.582 449.104 226.994 445.76 226.994ZM455.818 232.805C455.818 235.466 454.549 237.834 452.449 239.543C456.185 240.764 459.09 243.913 459.09 248.21C459.09 253.801 454.793 258 449.227 258H433.626V223.015H445.979C451.351 223.015 455.818 227.067 455.818 232.805ZM476.033 222.99H480.428L494.393 258H490.022L487.361 251.408H469.075L466.438 258H462.044L476.033 222.99ZM478.23 228.483L470.662 247.38H485.774L478.23 228.483ZM528.035 244.426L532.186 245.72C529.988 253.215 522.957 258 515.242 258C505.208 258 497.493 250.065 497.493 240.495C497.493 230.974 505.232 222.966 515.267 222.966C523.03 222.966 529.915 227.824 532.186 235.271L528.035 236.54C526.351 230.949 521.224 226.994 515.267 226.994C507.918 226.994 502.01 232.878 502.01 240.495C502.01 247.795 507.625 253.996 515.267 253.996C521.248 253.996 526.302 250.188 528.035 244.426ZM553.67 253.996H564.437C567.464 253.996 570.467 251.652 570.467 248.137C570.467 244.914 567.781 242.277 564.437 242.277H553.67V253.996ZM561.434 226.994H553.67V238.493H561.678C564.607 238.396 567.464 236.101 567.464 232.731C567.464 229.582 564.778 226.994 561.434 226.994ZM571.492 232.805C571.492 235.466 570.223 237.834 568.123 239.543C571.858 240.764 574.764 243.913 574.764 248.21C574.764 253.801 570.467 258 564.9 258H549.3V223.015H561.653C567.024 223.015 571.492 227.067 571.492 232.805ZM608.992 244.426L613.143 245.72C610.945 253.215 603.914 258 596.199 258C586.165 258 578.45 250.065 578.45 240.495C578.45 230.974 586.189 222.966 596.224 222.966C603.987 222.966 610.872 227.824 613.143 235.271L608.992 236.54C607.308 230.949 602.181 226.994 596.224 226.994C588.875 226.994 582.967 232.878 582.967 240.495C582.967 247.795 588.582 253.996 596.224 253.996C602.205 253.996 607.259 250.188 608.992 244.426ZM617.781 222.99H640.95V227.092H622.151V236.833H636.531V240.91H622.151V253.923H640.95V258H617.781V222.99ZM669.368 222.966H674.52L662.63 239.47L675.984 258H670.809L660.042 243.083L649.3 258H644.124L657.479 239.47L645.564 222.966H650.74L660.042 235.881L669.368 222.966ZM697.835 242.497V253.923H708.602C711.58 253.923 714.632 251.628 714.632 248.21C714.632 245.061 711.946 242.497 708.602 242.497H697.835ZM697.835 238.493H709.065C714.412 238.493 718.929 242.521 718.929 248.21C718.929 253.776 714.632 258 709.065 258H693.465V223.015H715.682V227.092H697.835V238.493ZM732.161 222.99H754.695V258H750.325V227.092H736.507V248.112C736.507 250.847 735.555 253.19 733.626 255.119C731.697 257.048 729.354 258 726.619 258C724.886 258 723.25 257.585 721.736 256.706L723.86 252.897C724.715 253.386 725.643 253.63 726.619 253.63C728.157 253.63 729.451 253.068 730.525 251.994C731.6 250.92 732.161 249.626 732.161 248.088V222.99ZM772.908 222.99H777.303L791.268 258H786.897L784.236 251.408H765.95L763.313 258H758.919L772.908 222.99ZM775.105 228.483L767.537 247.38H782.649L775.105 228.483ZM799.837 258H795.467V222.99H818.611V227.092H799.837V258ZM826.058 240.495C826.058 247.771 831.648 253.996 839.29 253.996C846.858 253.996 852.498 247.99 852.498 240.495C852.498 232.927 846.736 227.019 839.29 227.019C831.746 227.019 826.058 233 826.058 240.495ZM821.541 240.495C821.541 230.314 829.842 222.99 839.29 222.99C849.788 222.99 857.039 231.242 857.039 240.495C857.039 250.871 848.641 258 839.29 258C829.134 258 821.541 249.992 821.541 240.495ZM886.702 227.067H873.836C873.812 235.393 873.519 245.476 869.393 253.898H886.702V227.067ZM891.072 222.99V253.898H895.833V265.227H891.463V258H865.145V265.227H860.774V253.898H864.632C869.368 245.915 869.466 233.146 869.539 222.99H891.072ZM913.289 222.99H917.684L931.648 258H927.278L924.617 251.408H906.331L903.694 258H899.3L913.289 222.99ZM915.486 228.483L907.918 247.38H923.03L915.486 228.483ZM940.218 238.518H950.984C954.012 238.518 957.015 236.223 957.015 232.805C957.015 229.655 954.305 227.092 950.984 227.092H940.218V238.518ZM935.848 223.015H951.448C956.844 223.039 961.312 226.994 961.312 232.805C961.312 238.176 957.015 242.521 951.448 242.521H940.218V258H935.848V223.015ZM993.44 227.019C986.238 227.019 980.306 232.878 980.306 240.495C980.306 247.673 985.75 253.972 993.44 253.972C1000.67 253.972 1006.58 248.088 1006.58 240.495C1006.58 233.171 1001.18 227.141 993.44 227.019ZM993.44 222.99C1003.01 222.99 1011.02 230.729 1011.02 240.495C1011.02 250.065 1003.21 258 993.44 258C984.627 258 977.376 251.677 976.009 242.546H969.661V258H965.291V222.99H969.661V238.469H976.009C977.156 229.606 984.334 223.039 993.44 222.99ZM1015.9 262.346L1014.61 260.441C1015.56 259.733 1016.12 259.221 1017.29 257.902C1016.17 257.609 1015.36 256.682 1015.36 255.485C1015.36 254.143 1016.44 252.946 1017.85 252.922C1019.2 252.897 1020.44 253.947 1020.44 255.363C1020.44 257.316 1019.69 258.928 1018.2 260.49C1017.51 261.174 1016.85 261.735 1015.9 262.346ZM63.7041 305.799L66.4385 302.747C70.418 306.507 74.6416 307.923 78.2549 307.947C83.748 307.972 87.7764 304.822 87.752 301.307C87.752 296.937 80.7451 296.204 76.6924 296.204H71.3945V292.249H76.6924C80.3057 292.249 85.9941 291.224 85.9941 287.195C85.9941 283.167 81.9658 280.896 77.3516 280.896C74.1045 280.921 70.5156 281.995 67.3662 284.29L64.876 281.214C69.0264 278.26 73.4941 276.917 77.5713 276.917C84.6514 276.917 90.3398 281.067 90.3398 287.293C90.3643 290.784 88.0449 292.688 84.7734 293.86C88.7773 295.057 92.1221 297.034 92.1221 301.307C92.1221 307.02 86.2383 311.951 78.6211 312C73.543 312.024 68.3184 309.9 63.7041 305.799ZM109.163 276.99H113.558L127.522 312H123.152L120.491 305.408H102.205L99.5684 312H95.1738L109.163 276.99ZM111.36 282.483L103.792 301.38H118.904L111.36 282.483ZM142.269 276.99H172.591V281.067H159.603V312H155.232V281.067H142.269V276.99ZM180.184 294.495C180.184 301.771 185.774 307.996 193.416 307.996C200.984 307.996 206.624 301.99 206.624 294.495C206.624 286.927 200.862 281.019 193.416 281.019C185.872 281.019 180.184 287 180.184 294.495ZM175.667 294.495C175.667 284.314 183.968 276.99 193.416 276.99C203.914 276.99 211.165 285.242 211.165 294.495C211.165 304.871 202.767 312 193.416 312C183.26 312 175.667 303.992 175.667 294.495ZM215.877 316.346L214.583 314.441C215.535 313.733 216.097 313.221 217.269 311.902C216.146 311.609 215.34 310.682 215.34 309.485C215.34 308.143 216.414 306.946 217.83 306.922C219.173 306.897 220.418 307.947 220.418 309.363C220.418 311.316 219.661 312.928 218.172 314.49C217.488 315.174 216.829 315.735 215.877 316.346ZM256.502 276.99H260.872V312H256.502V297.107C253.401 298.206 250.13 298.987 246.663 298.987C239.632 298.987 235.164 295.716 235.164 288.416V277.063H239.51V287.806C239.51 292.713 242.22 294.91 247.151 294.91C250.301 294.91 253.279 294.153 256.502 292.859V276.99ZM265.071 276.99H295.394V281.067H282.405V312H278.035V281.067H265.071V276.99ZM302.986 294.495C302.986 301.771 308.577 307.996 316.219 307.996C323.787 307.996 329.427 301.99 329.427 294.495C329.427 286.927 323.665 281.019 316.219 281.019C308.675 281.019 302.986 287 302.986 294.495ZM298.47 294.495C298.47 284.314 306.771 276.99 316.219 276.99C326.717 276.99 333.968 285.242 333.968 294.495C333.968 304.871 325.569 312 316.219 312C306.062 312 298.47 303.992 298.47 294.495ZM355.794 307.996H366.561C369.588 307.996 372.591 305.652 372.591 302.137C372.591 298.914 369.905 296.277 366.561 296.277H355.794V307.996ZM363.558 280.994H355.794V292.493H363.802C366.731 292.396 369.588 290.101 369.588 286.731C369.588 283.582 366.902 280.994 363.558 280.994ZM373.616 286.805C373.616 289.466 372.347 291.834 370.247 293.543C373.982 294.764 376.888 297.913 376.888 302.21C376.888 307.801 372.591 312 367.024 312H351.424V277.015H363.777C369.148 277.015 373.616 281.067 373.616 286.805ZM386.043 296.497V307.923H396.834C399.861 307.923 402.84 305.604 402.84 302.21C402.84 299.061 400.154 296.497 396.834 296.497H386.043ZM386.043 292.493H397.298C402.718 292.493 407.137 296.57 407.137 302.21C407.137 307.801 402.864 312 397.298 312H381.673V277.015H386.043V292.493ZM415.56 277.015V312H411.214V277.015H415.56ZM457.21 276.99H461.604V312H457.21V294.91H438.387V312H434.017V276.99H438.387V290.809H457.21V276.99ZM467.659 276.99H490.828V281.092H472.029V290.833H486.409V294.91H472.029V307.923H490.828V312H467.659V276.99ZM536.8 298.426L540.95 299.72C538.753 307.215 531.722 312 524.007 312C513.973 312 506.258 304.065 506.258 294.495C506.258 284.974 513.997 276.966 524.031 276.966C531.795 276.966 538.68 281.824 540.95 289.271L536.8 290.54C535.115 284.949 529.988 280.994 524.031 280.994C516.683 280.994 510.774 286.878 510.774 294.495C510.774 301.795 516.39 307.996 524.031 307.996C530.013 307.996 535.066 304.188 536.8 298.426ZM554.256 276.99H576.79V312H572.42V281.092H558.602V302.112C558.602 304.847 557.649 307.19 555.721 309.119C553.792 311.048 551.448 312 548.714 312C546.98 312 545.345 311.585 543.831 310.706L545.955 306.897C546.81 307.386 547.737 307.63 548.714 307.63C550.252 307.63 551.546 307.068 552.62 305.994C553.694 304.92 554.256 303.626 554.256 302.088V276.99ZM587.215 296.497V307.923H598.006C601.033 307.923 604.012 305.604 604.012 302.21C604.012 299.061 601.326 296.497 598.006 296.497H587.215ZM587.215 292.493H598.47C603.89 292.493 608.309 296.57 608.309 302.21C608.309 307.801 604.036 312 598.47 312H582.845V277.015H587.215V292.493ZM616.731 277.015V312H612.386V277.015H616.731ZM658.797 276.966H663.143V312H622.786V276.966H627.156V307.923H640.779V276.966H645.149V307.923H658.797V276.966ZM669.222 277.015H673.592V304.383L695.833 277.015H698.372V312H694.002V284.632L671.761 312H669.222V277.015ZM702.571 276.99H732.894V281.067H719.905V312H715.535V281.067H702.571V276.99ZM737.044 276.99H760.213V281.092H741.414V290.833H755.794V294.91H741.414V307.923H760.213V312H737.044V276.99ZM799.935 276.99H804.329V312H799.935V294.91H781.111V312H776.741V276.99H781.111V290.809H799.935V276.99ZM810.384 277.015H814.754V304.383L836.995 277.015H839.534V312H835.164V284.632L812.923 312H810.384V277.015ZM887.435 298.426L891.585 299.72C889.388 307.215 882.356 312 874.642 312C864.607 312 856.893 304.065 856.893 294.495C856.893 284.974 864.632 276.966 874.666 276.966C882.43 276.966 889.314 281.824 891.585 289.271L887.435 290.54C885.75 284.949 880.623 280.994 874.666 280.994C867.317 280.994 861.409 286.878 861.409 294.495C861.409 301.795 867.024 307.996 874.666 307.996C880.647 307.996 885.701 304.188 887.435 298.426ZM904.891 276.99H927.425V312H923.055V281.092H909.236V302.112C909.236 304.847 908.284 307.19 906.355 309.119C904.427 311.048 902.083 312 899.349 312C897.615 312 895.979 311.585 894.466 310.706L896.59 306.897C897.444 307.386 898.372 307.63 899.349 307.63C900.887 307.63 902.181 307.068 903.255 305.994C904.329 304.92 904.891 303.626 904.891 302.088V276.99ZM936.922 294.495C936.922 301.771 942.513 307.996 950.154 307.996C957.723 307.996 963.362 301.99 963.362 294.495C963.362 286.927 957.601 281.019 950.154 281.019C942.61 281.019 936.922 287 936.922 294.495ZM932.405 294.495C932.405 284.314 940.706 276.99 950.154 276.99C960.652 276.99 967.903 285.242 967.903 294.495C967.903 304.871 959.505 312 950.154 312C939.998 312 932.405 303.992 932.405 294.495ZM977.327 307.996H988.094C991.121 307.996 994.124 305.652 994.124 302.137C994.124 298.914 991.438 296.277 988.094 296.277H977.327V307.996ZM985.091 280.994H977.327V292.493H985.335C988.265 292.396 991.121 290.101 991.121 286.731C991.121 283.582 988.436 280.994 985.091 280.994ZM995.149 286.805C995.149 289.466 993.88 291.834 991.78 293.543C995.516 294.764 998.421 297.913 998.421 302.21C998.421 307.801 994.124 312 988.558 312H972.957V277.015H985.311C990.682 277.015 995.149 281.067 995.149 286.805ZM1015.36 276.99H1019.76L1033.72 312H1029.35L1026.69 305.408H1008.41L1005.77 312H1001.38L1015.36 276.99ZM1017.56 282.483L1009.99 301.38H1025.11L1017.56 282.483ZM1042.02 309.461C1042.02 310.804 1040.93 312 1039.49 312C1038.14 312 1036.95 310.901 1036.95 309.461C1036.95 308.143 1038.04 306.922 1039.49 306.922C1040.83 306.922 1042.02 308.021 1042.02 309.461ZM1051.5 277.381C1051.5 279.676 1050.03 282.02 1047.37 283.777L1046.22 282.02C1047.18 281.36 1048.1 280.506 1048.67 279.7C1047.62 279.432 1046.91 278.553 1046.91 277.479C1046.91 276.209 1047.93 275.135 1049.18 275.135C1050.37 275.135 1051.5 276.087 1051.5 277.381ZM1057.26 277.381C1057.26 279.725 1055.72 282.093 1053.13 283.777L1051.96 282.044C1052.86 281.434 1053.62 280.701 1054.4 279.7C1053.33 279.432 1052.67 278.528 1052.67 277.479C1052.67 276.209 1053.67 275.135 1054.92 275.135C1056.11 275.135 1057.26 276.087 1057.26 277.381Z" fill="white"/>
</svg>
