<svg width="1100" height="219" viewBox="0 0 1100 219" fill="none" xmlns="http://www.w3.org/2000/svg">
<path d="M66.2393 14.5312C66.2393 12.2119 67.7529 9.84375 70.3652 8.13477L71.5371 9.89258C70.7803 10.5029 70.1943 10.918 69.0957 12.2119C70.1211 12.4805 70.8535 13.3594 70.8535 14.4336C70.8535 15.6787 69.8281 16.7773 68.583 16.7773C67.3623 16.7773 66.2881 15.8008 66.2393 14.5312ZM60.502 14.5312C60.502 12.2119 61.9912 9.84375 64.6279 8.13477L65.7754 9.89258C64.8965 10.5273 64.4082 11.0156 63.3584 12.2119C64.3838 12.4805 65.0918 13.3594 65.0918 14.4336C65.0918 15.6787 64.0664 16.7773 62.8457 16.7773C61.625 16.7773 60.502 15.8008 60.502 14.5312ZM106.083 31.4258L110.233 32.7197C108.036 40.2148 101.005 45 93.29 45C83.2559 45 75.541 37.0654 75.541 27.4951C75.541 17.9736 83.2803 9.96582 93.3145 9.96582C101.078 9.96582 107.963 14.8242 110.233 22.2705L106.083 23.54C104.398 17.9492 99.2715 13.9941 93.3145 13.9941C85.9658 13.9941 80.0576 19.8779 80.0576 27.4951C80.0576 34.7949 85.6729 40.9961 93.3145 40.9961C99.2959 40.9961 104.35 37.1875 106.083 31.4258ZM119.315 40.9961H130.082C133.109 40.9961 136.112 38.6523 136.112 35.1367C136.112 31.9141 133.427 29.2773 130.082 29.2773H119.315V40.9961ZM127.079 13.9941H119.315V25.4932H127.323C130.253 25.3955 133.109 23.1006 133.109 19.7314C133.109 16.582 130.424 13.9941 127.079 13.9941ZM137.138 19.8047C137.138 22.4658 135.868 24.834 133.769 26.543C137.504 27.7637 140.409 30.9131 140.409 35.21C140.409 40.8008 136.112 45 130.546 45H114.945V10.0146H127.299C132.67 10.0146 137.138 14.0674 137.138 19.8047ZM145.194 9.99023H168.363V14.0918H149.564V23.833H163.944V27.9102H149.564V40.9229H168.363V45H145.194V9.99023ZM176.859 25.5176H187.626C190.653 25.5176 193.656 23.2227 193.656 19.8047C193.656 16.6553 190.946 14.0918 187.626 14.0918H176.859V25.5176ZM172.489 10.0146H188.09C193.485 10.0391 197.953 13.9941 197.953 19.8047C197.953 25.1758 193.656 29.5215 188.09 29.5215H176.859V45H172.489V10.0146ZM225.126 9.99023H229.521V45H225.126V27.9102H206.303V45H201.933V9.99023H206.303V23.8086H225.126V9.99023ZM237.626 39.8975C238.48 40.3857 239.384 40.6299 240.36 40.6299C242.362 40.6543 244.169 39.6533 245.829 36.6504L247.66 33.3301L234.989 9.99023H239.726L250.028 28.96L260.404 9.99023H265.141L249.857 37.9932C247.929 41.5576 244.975 45.0244 240.36 45C238.676 45 237.089 44.585 235.502 43.7061L237.626 39.8975ZM277.787 9.99023H300.321V45H295.951V14.0918H282.133V35.1123C282.133 37.8467 281.181 40.1904 279.252 42.1191C277.323 44.0479 274.979 45 272.245 45C270.512 45 268.876 44.585 267.362 43.7061L269.486 39.8975C270.341 40.3857 271.269 40.6299 272.245 40.6299C273.783 40.6299 275.077 40.0684 276.151 38.9941C277.226 37.9199 277.787 36.626 277.787 35.0879V9.99023ZM316.923 9.99023H347.245V14.0674H334.257V45H329.887V14.0674H316.923V9.99023ZM355.766 25.5176H366.532C369.56 25.5176 372.562 23.2227 372.562 19.8047C372.562 16.6553 369.853 14.0918 366.532 14.0918H355.766V25.5176ZM351.396 10.0146H366.996C372.392 10.0391 376.859 13.9941 376.859 19.8047C376.859 25.1758 372.562 29.5215 366.996 29.5215H355.766V45H351.396V10.0146ZM392.997 9.99023H397.392L411.356 45H406.986L404.325 38.4082H386.039L383.402 45H379.008L392.997 9.99023ZM395.194 15.4834L387.626 34.3799H402.738L395.194 15.4834ZM448.075 10.0146H450.614V45H446.244V17.8271L433.085 34.6729L419.926 17.8271V45H415.556V10.0146H418.095L433.085 28.96L448.075 10.0146ZM461.112 40.9961H471.879C474.906 40.9961 477.909 38.6523 477.909 35.1367C477.909 31.9141 475.224 29.2773 471.879 29.2773H461.112V40.9961ZM468.876 13.9941H461.112V25.4932H469.12C472.05 25.3955 474.906 23.1006 474.906 19.7314C474.906 16.582 472.221 13.9941 468.876 13.9941ZM478.935 19.8047C478.935 22.4658 477.665 24.834 475.565 26.543C479.301 27.7637 482.206 30.9131 482.206 35.21C482.206 40.8008 477.909 45 472.343 45H456.742V10.0146H469.096C474.467 10.0146 478.935 14.0674 478.935 19.8047ZM499.149 9.99023H503.544L517.509 45H513.139L510.478 38.4082H492.191L489.555 45H485.16L499.149 9.99023ZM501.347 15.4834L493.778 34.3799H508.891L501.347 15.4834ZM547.172 10.0146H549.711V45H545.365V17.6318L523.124 45H520.585V10.0146H524.955V37.3828L547.172 10.0146ZM538.896 0.0537109L541.923 2.8125C539.506 5.71777 537.113 8.62305 534.721 11.5283L531.693 8.76953C534.11 5.86426 536.503 2.95898 538.896 0.0537109ZM590.556 9.99023H594.95V45H590.556V27.9102H571.732V45H567.362V9.99023H571.732V23.8086H590.556V9.99023ZM613.163 9.99023H617.558L631.522 45H627.152L624.491 38.4082H606.205L603.568 45H599.174L613.163 9.99023ZM615.36 15.4834L607.792 34.3799H622.904L615.36 15.4834ZM650.175 39.8975C651.029 40.3857 651.933 40.6299 652.909 40.6299C654.911 40.6543 656.718 39.6533 658.378 36.6504L660.209 33.3301L647.538 9.99023H652.274L662.577 28.96L672.953 9.99023H677.689L662.406 37.9932C660.478 41.5576 657.523 45.0244 652.909 45C651.225 45 649.638 44.585 648.051 43.7061L650.175 39.8975ZM690.336 9.99023H712.87V45H708.5V14.0918H694.682V35.1123C694.682 37.8467 693.729 40.1904 691.801 42.1191C689.872 44.0479 687.528 45 684.794 45C683.061 45 681.425 44.585 679.911 43.7061L682.035 39.8975C682.89 40.3857 683.817 40.6299 684.794 40.6299C686.332 40.6299 687.626 40.0684 688.7 38.9941C689.774 37.9199 690.336 36.626 690.336 35.0879V9.99023ZM718.925 10.0146H723.295V37.3828L745.536 10.0146H748.075V45H743.705V17.6318L721.464 45H718.925V10.0146ZM775.639 9.99023H780.033V40.9229H784.965V52.2266H780.595V45H752.714V9.99023H757.084V40.9229H775.639V9.99023ZM792.216 39.8975C793.07 40.3857 793.974 40.6299 794.95 40.6299C796.952 40.6543 798.759 39.6533 800.419 36.6504L802.25 33.3301L789.579 9.99023H794.315L804.618 28.96L814.994 9.99023H819.73L804.447 37.9932C802.519 41.5576 799.564 45.0244 794.95 45C793.266 45 791.679 44.585 790.092 43.7061L792.216 39.8975ZM834.257 9.99023H864.579V14.0674H851.591V45H847.221V14.0674H834.257V9.99023ZM868.729 10.0146H873.1V37.3828L895.341 10.0146H897.88V45H893.51V17.6318L871.269 45H868.729V10.0146ZM902.079 9.99023H932.401V14.0674H919.413V45H915.043V14.0674H902.079V9.99023ZM939.994 27.4951C939.994 34.7705 945.585 40.9961 953.227 40.9961C960.795 40.9961 966.435 34.9902 966.435 27.4951C966.435 19.9268 960.673 14.0186 953.227 14.0186C945.683 14.0186 939.994 20 939.994 27.4951ZM935.478 27.4951C935.478 17.3145 943.778 9.99023 953.227 9.99023C963.725 9.99023 970.976 18.2422 970.976 27.4951C970.976 37.8711 962.577 45 953.227 45C943.07 45 935.478 36.9922 935.478 27.4951ZM980.399 40.9961H991.166C994.193 40.9961 997.196 38.6523 997.196 35.1367C997.196 31.9141 994.511 29.2773 991.166 29.2773H980.399V40.9961ZM988.163 13.9941H980.399V25.4932H988.407C991.337 25.3955 994.193 23.1006 994.193 19.7314C994.193 16.582 991.508 13.9941 988.163 13.9941ZM998.222 19.8047C998.222 22.4658 996.952 24.834 994.853 26.543C998.588 27.7637 1001.49 30.9131 1001.49 35.21C1001.49 40.8008 997.196 45 991.63 45H976.029V10.0146H988.383C993.754 10.0146 998.222 14.0674 998.222 19.8047ZM1018.44 9.99023H1022.83L1036.8 45H1032.43L1029.76 38.4082H1011.48L1008.84 45H1004.45L1018.44 9.99023ZM1020.63 15.4834L1013.07 34.3799H1028.18L1020.63 15.4834ZM1040.73 49.3457L1039.43 47.4414C1040.38 46.7334 1040.95 46.2207 1042.12 44.9023C1041 44.6094 1040.19 43.6816 1040.19 42.4854C1040.19 41.1426 1041.26 39.9463 1042.68 39.9219C1044.02 39.8975 1045.27 40.9473 1045.27 42.3633C1045.27 44.3164 1044.51 45.9277 1043.02 47.4902C1042.34 48.1738 1041.68 48.7354 1040.73 49.3457Z" fill="white"/>
<path d="M25.7754 79.5176H36.542C39.5693 79.5176 42.5723 77.2227 42.5723 73.8047C42.5723 70.6553 39.8623 68.0918 36.542 68.0918H25.7754V79.5176ZM21.4053 64.0146H37.0059C42.4014 64.0391 46.8691 67.9941 46.8691 73.8047C46.8691 79.1758 42.5723 83.5215 37.0059 83.5215H25.7754V99H21.4053V64.0146ZM63.0068 63.9902H67.4014L81.3662 99H76.9961L74.335 92.4082H56.0488L53.4121 99H49.0176L63.0068 63.9902ZM65.2041 69.4834L57.6357 88.3799H72.748L65.2041 69.4834ZM84.1006 92.7988L86.835 89.7471C90.8145 93.5068 95.0381 94.9229 98.6514 94.9473C104.145 94.9717 108.173 91.8223 108.148 88.3066C108.148 83.9365 101.142 83.2041 97.0889 83.2041H91.791V79.249H97.0889C100.702 79.249 106.391 78.2236 106.391 74.1953C106.391 70.167 102.362 67.8965 97.748 67.8965C94.501 67.9209 90.9121 68.9951 87.7627 71.29L85.2725 68.2139C89.4229 65.2598 93.8906 63.917 97.9678 63.917C105.048 63.917 110.736 68.0674 110.736 74.293C110.761 77.7842 108.441 79.6885 105.17 80.8604C109.174 82.0566 112.519 84.0342 112.519 88.3066C112.519 94.0195 106.635 98.9512 99.0176 99C93.9395 99.0244 88.7148 96.9004 84.1006 92.7988ZM121.771 83.4971V94.9229H132.538C135.517 94.9229 138.568 92.6279 138.568 89.21C138.568 86.0605 135.883 83.4971 132.538 83.4971H121.771ZM121.771 79.4932H133.002C138.349 79.4932 142.865 83.5215 142.865 89.21C142.865 94.7764 138.568 99 133.002 99H117.401V64.0146H139.618V68.0918H121.771V79.4932ZM151.801 79.5176H162.567C165.595 79.5176 168.598 77.2227 168.598 73.8047C168.598 70.6553 165.888 68.0918 162.567 68.0918H151.801V79.5176ZM147.431 64.0146H163.031C168.427 64.0391 172.895 67.9941 172.895 73.8047C172.895 79.1758 168.598 83.5215 163.031 83.5215H151.801V99H147.431V64.0146ZM181.244 83.4971V94.9229H192.035C195.062 94.9229 198.041 92.6035 198.041 89.21C198.041 86.0605 195.355 83.4971 192.035 83.4971H181.244ZM181.244 79.4932H192.499C197.919 79.4932 202.338 83.5703 202.338 89.21C202.338 94.8008 198.065 99 192.499 99H176.874V64.0146H181.244V79.4932ZM210.761 64.0146V99H206.415V64.0146H210.761ZM215.351 92.7988L218.085 89.7471C222.064 93.5068 226.288 94.9229 229.901 94.9473C235.395 94.9717 239.423 91.8223 239.398 88.3066C239.398 83.9365 232.392 83.2041 228.339 83.2041H223.041V79.249H228.339C231.952 79.249 237.641 78.2236 237.641 74.1953C237.641 70.167 233.612 67.8965 228.998 67.8965C225.751 67.9209 222.162 68.9951 219.013 71.29L216.522 68.2139C220.673 65.2598 225.141 63.917 229.218 63.917C236.298 63.917 241.986 68.0674 241.986 74.293C242.011 77.7842 239.691 79.6885 236.42 80.8604C240.424 82.0566 243.769 84.0342 243.769 88.3066C243.769 94.0195 237.885 98.9512 230.268 99C225.189 99.0244 219.965 96.9004 215.351 92.7988ZM253.021 99H248.651V63.9902H271.796V68.0918H253.021V99ZM275.8 64.0146H280.17V91.3828L302.411 64.0146H304.95V99H300.58V71.6318L278.339 99H275.8V64.0146ZM315.448 94.9961H326.215C329.242 94.9961 332.245 92.6523 332.245 89.1367C332.245 85.9141 329.56 83.2773 326.215 83.2773H315.448V94.9961ZM323.212 67.9941H315.448V79.4932H323.456C326.386 79.3955 329.242 77.1006 329.242 73.7314C329.242 70.582 326.557 67.9941 323.212 67.9941ZM333.271 73.8047C333.271 76.4658 332.001 78.834 329.901 80.543C333.637 81.7637 336.542 84.9131 336.542 89.21C336.542 94.8008 332.245 99 326.679 99H311.078V64.0146H323.432C328.803 64.0146 333.271 68.0674 333.271 73.8047ZM353.485 63.9902H357.88L371.845 99H367.475L364.813 92.4082H346.527L343.891 99H339.496L353.485 63.9902ZM355.683 69.4834L348.114 88.3799H363.227L355.683 69.4834ZM397.943 79.5176V68.0918H387.177C384.149 68.0918 381.146 70.3867 381.146 73.8047C381.146 76.9297 383.832 79.5176 387.152 79.5176H397.943ZM397.943 83.5215H388.886L379.853 99H374.921L384.174 83.1309C379.926 82.0811 376.85 78.5898 376.85 73.8047C376.85 68.2139 381.146 64.0146 386.713 64.0146H402.313V99H397.943V83.5215ZM420.771 63.9902H448.358V99H443.988V68.0918H425.141V99H420.771V63.9902ZM457.855 81.4951C457.855 88.7705 463.446 94.9961 471.088 94.9961C478.656 94.9961 484.296 88.9902 484.296 81.4951C484.296 73.9268 478.534 68.0186 471.088 68.0186C463.544 68.0186 457.855 74 457.855 81.4951ZM453.339 81.4951C453.339 71.3145 461.64 63.9902 471.088 63.9902C481.586 63.9902 488.837 72.2422 488.837 81.4951C488.837 91.8711 480.438 99 471.088 99C460.932 99 453.339 90.9922 453.339 81.4951ZM529.413 63.9902H533.808V99H529.413V81.9102H510.59V99H506.22V63.9902H510.59V77.8086H529.413V63.9902ZM539.862 63.9902H563.031V68.0918H544.232V77.833H558.612V81.9102H544.232V94.9229H563.031V99H539.862V63.9902ZM571.527 83.4971V94.9229H582.294C585.272 94.9229 588.324 92.6279 588.324 89.21C588.324 86.0605 585.639 83.4971 582.294 83.4971H571.527ZM571.527 79.4932H582.758C588.104 79.4932 592.621 83.5215 592.621 89.21C592.621 94.7764 588.324 99 582.758 99H567.157V64.0146H589.374V68.0918H571.527V79.4932ZM599.237 93.8975C600.092 94.3857 600.995 94.6299 601.972 94.6299C603.974 94.6543 605.78 93.6533 607.44 90.6504L609.271 87.3301L596.601 63.9902H601.337L611.64 82.96L622.016 63.9902H626.752L611.469 91.9932C609.54 95.5576 606.586 99.0244 601.972 99C600.287 99 598.7 98.585 597.113 97.7061L599.237 93.8975ZM672.577 85.4258L676.728 86.7197C674.53 94.2148 667.499 99 659.784 99C649.75 99 642.035 91.0654 642.035 81.4951C642.035 71.9736 649.774 63.9658 659.809 63.9658C667.572 63.9658 674.457 68.8242 676.728 76.2705L672.577 77.54C670.893 71.9492 665.766 67.9941 659.809 67.9941C652.46 67.9941 646.552 73.8779 646.552 81.4951C646.552 88.7949 652.167 94.9961 659.809 94.9961C665.79 94.9961 670.844 91.1875 672.577 85.4258ZM681.366 64.0146H685.736V91.3828L707.978 64.0146H710.517V99H706.146V71.6318L683.905 99H681.366V64.0146ZM720.941 79.5176H731.708C734.735 79.5176 737.738 77.2227 737.738 73.8047C737.738 70.6553 735.028 68.0918 731.708 68.0918H720.941V79.5176ZM716.571 64.0146H732.172C737.567 64.0391 742.035 67.9941 742.035 73.8047C742.035 79.1758 737.738 83.5215 732.172 83.5215H720.941V99H716.571V64.0146ZM746.015 63.9902H769.184V68.0918H750.385V77.833H764.765V81.9102H750.385V94.9229H769.184V99H746.015V63.9902ZM796.503 63.9902H800.897V99H796.503V81.9102H777.68V99H773.31V63.9902H777.68V77.8086H796.503V63.9902ZM811.322 83.4971V94.9229H822.089C825.116 94.9229 828.119 92.6279 828.119 89.21C828.119 86.0605 825.458 83.4971 822.089 83.4971H811.322ZM811.322 79.4932H822.553C827.973 79.4932 832.416 83.5459 832.416 89.21C832.416 94.8008 828.119 99 822.553 99H806.952V64.0146H811.322V79.4932ZM840.497 96.4609C840.497 97.8037 839.398 99 837.958 99C836.615 99 835.419 97.9014 835.419 96.4609C835.419 95.1426 836.518 93.9219 837.958 93.9219C839.301 93.9219 840.497 95.0205 840.497 96.4609Z" fill="white"/>
<path d="M214.003 118.015H218.373V145.383L240.614 118.015H243.153V153H238.783V125.632L216.542 153H214.003V118.015ZM265.053 135.495C265.053 142.771 270.644 148.996 278.285 148.996C285.854 148.996 291.493 142.99 291.493 135.495C291.493 127.927 285.731 122.019 278.285 122.019C270.741 122.019 265.053 128 265.053 135.495ZM260.536 135.495C260.536 125.314 268.837 117.99 278.285 117.99C288.783 117.99 296.034 126.242 296.034 135.495C296.034 145.871 287.636 153 278.285 153C268.129 153 260.536 144.992 260.536 135.495ZM305.385 137.497V148.923H316.151C319.13 148.923 322.182 146.628 322.182 143.21C322.182 140.061 319.496 137.497 316.151 137.497H305.385ZM305.385 133.493H316.615C321.962 133.493 326.479 137.521 326.479 143.21C326.479 148.776 322.182 153 316.615 153H301.015V118.015H323.231V122.092H305.385V133.493ZM339.711 117.99H362.245V153H357.875V122.092H344.057V143.112C344.057 145.847 343.104 148.19 341.176 150.119C339.247 152.048 336.903 153 334.169 153C332.436 153 330.8 152.585 329.286 151.706L331.41 147.897C332.265 148.386 333.192 148.63 334.169 148.63C335.707 148.63 337.001 148.068 338.075 146.994C339.149 145.92 339.711 144.626 339.711 143.088V117.99ZM380.458 117.99H384.853L398.817 153H394.447L391.786 146.408H373.5L370.863 153H366.469L380.458 117.99ZM382.655 123.483L375.087 142.38H390.199L382.655 123.483ZM421.4 117.966H426.796C421.693 122.922 416.566 127.854 411.464 132.785L429.652 153H424.281C418.642 146.774 413.026 140.5 407.387 134.274V153H403.017V117.966H407.387V131.442L421.4 117.966ZM446.571 117.99H450.966L464.931 153H460.561L457.899 146.408H439.613L436.977 153H432.582L446.571 117.99ZM448.769 123.483L441.2 142.38H456.312L448.769 123.483ZM481.459 140.744V136.691H511.537V140.744H481.459ZM529.921 118.015H534.291V145.383L556.532 118.015H559.071V153H554.701V125.632L532.46 153H529.921V118.015ZM599.428 133.518V122.092H588.661C585.634 122.092 582.631 124.387 582.631 127.805C582.631 130.93 585.316 133.518 588.637 133.518H599.428ZM599.428 137.521H590.37L581.337 153H576.405L585.658 137.131C581.41 136.081 578.334 132.59 578.334 127.805C578.334 122.214 582.631 118.015 588.197 118.015H603.798V153H599.428V137.521ZM651.698 139.426L655.849 140.72C653.651 148.215 646.62 153 638.905 153C628.871 153 621.156 145.065 621.156 135.495C621.156 125.974 628.896 117.966 638.93 117.966C646.693 117.966 653.578 122.824 655.849 130.271L651.698 131.54C650.014 125.949 644.887 121.994 638.93 121.994C631.581 121.994 625.673 127.878 625.673 135.495C625.673 142.795 631.288 148.996 638.93 148.996C644.911 148.996 649.965 145.188 651.698 139.426ZM671.034 117.99H701.356V122.067H688.368V153H683.998V122.067H671.034V117.99ZM708.949 135.495C708.949 142.771 714.54 148.996 722.182 148.996C729.75 148.996 735.39 142.99 735.39 135.495C735.39 127.927 729.628 122.019 722.182 122.019C714.638 122.019 708.949 128 708.949 135.495ZM704.433 135.495C704.433 125.314 712.733 117.99 722.182 117.99C732.68 117.99 739.931 126.242 739.931 135.495C739.931 145.871 731.532 153 722.182 153C712.025 153 704.433 144.992 704.433 135.495ZM749.281 137.497V148.923H760.048C763.026 148.923 766.078 146.628 766.078 143.21C766.078 140.061 763.393 137.497 760.048 137.497H749.281ZM749.281 133.493H760.512C765.858 133.493 770.375 137.521 770.375 143.21C770.375 148.776 766.078 153 760.512 153H744.911V118.015H767.128V122.092H749.281V133.493ZM778.383 135.495C778.383 142.771 783.974 148.996 791.615 148.996C799.184 148.996 804.823 142.99 804.823 135.495C804.823 127.927 799.062 122.019 791.615 122.019C784.071 122.019 778.383 128 778.383 135.495ZM773.866 135.495C773.866 125.314 782.167 117.99 791.615 117.99C802.113 117.99 809.364 126.242 809.364 135.495C809.364 145.871 800.966 153 791.615 153C781.459 153 773.866 144.992 773.866 135.495ZM842.494 122.019C835.292 122.019 829.359 127.878 829.359 135.495C829.359 142.673 834.804 148.972 842.494 148.972C849.721 148.972 855.629 143.088 855.629 135.495C855.629 128.171 850.233 122.141 842.494 122.019ZM842.494 117.99C852.064 117.99 860.072 125.729 860.072 135.495C860.072 145.065 852.26 153 842.494 153C833.681 153 826.43 146.677 825.062 137.546H818.715V153H814.345V117.99H818.715V133.469H825.062C826.21 124.606 833.388 118.039 842.494 117.99ZM907.069 139.426L911.22 140.72C909.022 148.215 901.991 153 894.276 153C884.242 153 876.527 145.065 876.527 135.495C876.527 125.974 884.267 117.966 894.301 117.966C902.064 117.966 908.949 122.824 911.22 130.271L907.069 131.54C905.385 125.949 900.258 121.994 894.301 121.994C886.952 121.994 881.044 127.878 881.044 135.495C881.044 142.795 886.659 148.996 894.301 148.996C900.282 148.996 905.336 145.188 907.069 139.426ZM939.052 117.99H943.446V153H939.052V135.91H920.229V153H915.858V117.99H920.229V131.809H939.052V117.99ZM952.943 135.495C952.943 142.771 958.534 148.996 966.176 148.996C973.744 148.996 979.384 142.99 979.384 135.495C979.384 127.927 973.622 122.019 966.176 122.019C958.632 122.019 952.943 128 952.943 135.495ZM948.427 135.495C948.427 125.314 956.728 117.99 966.176 117.99C976.674 117.99 983.925 126.242 983.925 135.495C983.925 145.871 975.526 153 966.176 153C956.02 153 948.427 144.992 948.427 135.495ZM993.349 148.996H1004.12C1007.14 148.996 1010.15 146.652 1010.15 143.137C1010.15 139.914 1007.46 137.277 1004.12 137.277H993.349V148.996ZM1001.11 121.994H993.349V133.493H1001.36C1004.29 133.396 1007.14 131.101 1007.14 127.731C1007.14 124.582 1004.46 121.994 1001.11 121.994ZM1011.17 127.805C1011.17 130.466 1009.9 132.834 1007.8 134.543C1011.54 135.764 1014.44 138.913 1014.44 143.21C1014.44 148.801 1010.15 153 1004.58 153H988.979V118.015H1001.33C1006.7 118.015 1011.17 122.067 1011.17 127.805ZM1031.39 117.99H1035.78L1049.75 153H1045.38L1042.71 146.408H1024.43L1021.79 153H1017.4L1031.39 117.99ZM1033.58 123.483L1026.01 142.38H1041.13L1033.58 123.483ZM1066.27 140.744V136.691H1096.35V140.744H1066.27Z" fill="white"/>
<path d="M11.1699 171.99H33.7041V207H29.334V176.092H15.5156V197.112C15.5156 199.847 14.5635 202.19 12.6348 204.119C10.7061 206.048 8.3623 207 5.62793 207C3.89453 207 2.25879 206.585 0.745117 205.706L2.86914 201.897C3.72363 202.386 4.65137 202.63 5.62793 202.63C7.16602 202.63 8.45996 202.068 9.53418 200.994C10.6084 199.92 11.1699 198.626 11.1699 197.088V171.99ZM39.7588 171.99H62.9277V176.092H44.1289V185.833H58.5088V189.91H44.1289V202.923H62.9277V207H39.7588V171.99ZM65.1982 171.99H95.5205V176.067H82.5322V207H78.1621V176.067H65.1982V171.99ZM121.57 187.518V176.092H110.804C107.776 176.092 104.773 178.387 104.773 181.805C104.773 184.93 107.459 187.518 110.779 187.518H121.57ZM121.57 191.521H112.513L103.479 207H98.5479L107.801 191.131C103.553 190.081 100.477 186.59 100.477 181.805C100.477 176.214 104.773 172.015 110.34 172.015H125.94V207H121.57V191.521ZM130.14 171.99H160.462V176.067H147.474V207H143.104V176.067H130.14V171.99ZM200.208 171.99H204.603V207H200.208V189.91H181.385V207H177.015V171.99H181.385V185.809H200.208V171.99ZM222.815 171.99H227.21L241.175 207H236.805L234.144 200.408H215.857L213.221 207H208.826L222.815 171.99ZM225.013 177.483L217.444 196.38H232.557L225.013 177.483ZM270.057 176.067H257.19C257.166 184.393 256.873 194.476 252.747 202.898H270.057V176.067ZM274.427 171.99V202.898H279.188V214.227H274.817V207H248.499V214.227H244.129V202.898H247.986C252.723 194.915 252.82 182.146 252.894 171.99H274.427ZM301.258 207H296.888V171.99H320.032V176.092H301.258V207ZM327.479 189.495C327.479 196.771 333.069 202.996 340.711 202.996C348.279 202.996 353.919 196.99 353.919 189.495C353.919 181.927 348.157 176.019 340.711 176.019C333.167 176.019 327.479 182 327.479 189.495ZM322.962 189.495C322.962 179.314 331.263 171.99 340.711 171.99C351.209 171.99 358.46 180.242 358.46 189.495C358.46 199.871 350.062 207 340.711 207C330.555 207 322.962 198.992 322.962 189.495ZM372.107 171.99H394.642V207H390.271V176.092H376.453V197.112C376.453 199.847 375.501 202.19 373.572 204.119C371.644 206.048 369.3 207 366.565 207C364.832 207 363.196 206.585 361.683 205.706L363.807 201.897C364.661 202.386 365.589 202.63 366.565 202.63C368.104 202.63 369.397 202.068 370.472 200.994C371.546 199.92 372.107 198.626 372.107 197.088V171.99ZM404.139 189.495C404.139 196.771 409.729 202.996 417.371 202.996C424.939 202.996 430.579 196.99 430.579 189.495C430.579 181.927 424.817 176.019 417.371 176.019C409.827 176.019 404.139 182 404.139 189.495ZM399.622 189.495C399.622 179.314 407.923 171.99 417.371 171.99C427.869 171.99 435.12 180.242 435.12 189.495C435.12 199.871 426.722 207 417.371 207C407.215 207 399.622 198.992 399.622 189.495ZM444.544 202.996H455.311C458.338 202.996 461.341 200.652 461.341 197.137C461.341 193.914 458.655 191.277 455.311 191.277H444.544V202.996ZM452.308 175.994H444.544V187.493H452.552C455.481 187.396 458.338 185.101 458.338 181.731C458.338 178.582 455.652 175.994 452.308 175.994ZM462.366 181.805C462.366 184.466 461.097 186.834 458.997 188.543C462.732 189.764 465.638 192.913 465.638 197.21C465.638 202.801 461.341 207 455.774 207H440.174V172.015H452.527C457.898 172.015 462.366 176.067 462.366 181.805ZM473.865 189.495C473.865 196.771 479.456 202.996 487.098 202.996C494.666 202.996 500.306 196.99 500.306 189.495C500.306 181.927 494.544 176.019 487.098 176.019C479.554 176.019 473.865 182 473.865 189.495ZM469.349 189.495C469.349 179.314 477.649 171.99 487.098 171.99C497.596 171.99 504.847 180.242 504.847 189.495C504.847 199.871 496.448 207 487.098 207C476.941 207 469.349 198.992 469.349 189.495ZM537.977 176.019C530.774 176.019 524.842 181.878 524.842 189.495C524.842 196.673 530.286 202.972 537.977 202.972C545.203 202.972 551.111 197.088 551.111 189.495C551.111 182.171 545.716 176.141 537.977 176.019ZM537.977 171.99C547.547 171.99 555.555 179.729 555.555 189.495C555.555 199.065 547.742 207 537.977 207C529.163 207 521.912 200.677 520.545 191.546H514.197V207H509.827V171.99H514.197V187.469H520.545C521.692 178.606 528.87 172.039 537.977 171.99ZM560.438 211.346L559.144 209.441C560.096 208.733 560.657 208.221 561.829 206.902C560.706 206.609 559.9 205.682 559.9 204.485C559.9 203.143 560.975 201.946 562.391 201.922C563.733 201.897 564.979 202.947 564.979 204.363C564.979 206.316 564.222 207.928 562.732 209.49C562.049 210.174 561.39 210.735 560.438 211.346ZM606.385 176.067H593.519C593.494 184.393 593.201 194.476 589.075 202.898H606.385V176.067ZM610.755 171.99V202.898H615.516V214.227H611.146V207H584.827V214.227H580.457V202.898H584.314C589.051 194.915 589.148 182.146 589.222 171.99H610.755ZM624.256 189.495C624.256 196.771 629.847 202.996 637.488 202.996C645.057 202.996 650.696 196.99 650.696 189.495C650.696 181.927 644.935 176.019 637.488 176.019C629.944 176.019 624.256 182 624.256 189.495ZM619.739 189.495C619.739 179.314 628.04 171.99 637.488 171.99C647.986 171.99 655.237 180.242 655.237 189.495C655.237 199.871 646.839 207 637.488 207C627.332 207 619.739 198.992 619.739 189.495ZM664.588 191.497V202.923H675.354C678.333 202.923 681.385 200.628 681.385 197.21C681.385 194.061 678.699 191.497 675.354 191.497H664.588ZM664.588 187.493H675.818C681.165 187.493 685.682 191.521 685.682 197.21C685.682 202.776 681.385 207 675.818 207H660.218V172.015H682.435V176.092H664.588V187.493ZM694.617 187.518H705.384C708.411 187.518 711.414 185.223 711.414 181.805C711.414 178.655 708.704 176.092 705.384 176.092H694.617V187.518ZM690.247 172.015H705.848C711.243 172.039 715.711 175.994 715.711 181.805C715.711 187.176 711.414 191.521 705.848 191.521H694.617V207H690.247V172.015ZM724.061 191.497V202.923H734.852C737.879 202.923 740.857 200.604 740.857 197.21C740.857 194.061 738.172 191.497 734.852 191.497H724.061ZM724.061 187.493H735.315C740.735 187.493 745.154 191.57 745.154 197.21C745.154 202.801 740.882 207 735.315 207H719.69V172.015H724.061V187.493ZM753.577 172.015V207H749.231V172.015H753.577ZM785.096 172.015H787.635V207H783.289V179.632L761.048 207H758.509V172.015H762.879V199.383L785.096 172.015ZM776.819 162.054L779.847 164.812C777.43 167.718 775.037 170.623 772.645 173.528L769.617 170.77C772.034 167.864 774.427 164.959 776.819 162.054ZM829.969 176.067H817.103C817.078 184.393 816.785 194.476 812.659 202.898H829.969V176.067ZM834.339 171.99V202.898H839.1V214.227H834.729V207H808.411V214.227H804.041V202.898H807.898C812.635 194.915 812.732 182.146 812.806 171.99H834.339ZM844.397 171.99H867.566V176.092H848.768V185.833H863.147V189.91H848.768V202.923H867.566V207H844.397V171.99ZM894.886 171.99H899.28V207H894.886V189.91H876.062V207H871.692V171.99H876.062V185.809H894.886V171.99ZM909.705 191.497V202.923H920.472C923.499 202.923 926.502 200.628 926.502 197.21C926.502 194.061 923.841 191.497 920.472 191.497H909.705ZM909.705 187.493H920.936C926.355 187.493 930.799 191.546 930.799 197.21C930.799 202.801 926.502 207 920.936 207H905.335V172.015H909.705V187.493ZM938.416 171.99L938.172 198.821H934.266L934.021 171.99H938.416ZM938.758 204.461C938.758 205.804 937.659 207 936.219 207C934.876 207 933.68 205.901 933.68 204.461C933.68 203.143 934.778 201.922 936.219 201.922C937.586 201.922 938.733 203.021 938.758 204.461ZM948.108 172.381C948.108 174.676 946.644 177.02 943.982 178.777L942.835 177.02C943.787 176.36 944.715 175.506 945.276 174.7C944.227 174.432 943.519 173.553 943.519 172.479C943.519 171.209 944.544 170.135 945.789 170.135C946.985 170.135 948.108 171.087 948.108 172.381ZM953.87 172.381C953.87 174.725 952.332 177.093 949.744 178.777L948.572 177.044C949.476 176.434 950.232 175.701 951.014 174.7C949.939 174.432 949.28 173.528 949.28 172.479C949.28 171.209 950.281 170.135 951.526 170.135C952.723 170.135 953.87 171.087 953.87 172.381Z" fill="white"/>
</svg>
