<svg width="1380" height="219" viewBox="0 0 1380 219" fill="none" xmlns="http://www.w3.org/2000/svg">
<path d="M203.239 14.5166C203.239 12.1973 204.753 9.8291 207.365 8.12012L208.537 9.87793C207.78 10.4883 207.194 10.9033 206.096 12.1973C207.121 12.4658 207.854 13.3447 207.854 14.4189C207.854 15.6641 206.828 16.7627 205.583 16.7627C204.362 16.7627 203.288 15.7861 203.239 14.5166ZM197.502 14.5166C197.502 12.1973 198.991 9.8291 201.628 8.12012L202.775 9.87793C201.896 10.5127 201.408 11.001 200.358 12.1973C201.384 12.4658 202.092 13.3447 202.092 14.4189C202.092 15.6641 201.066 16.7627 199.846 16.7627C198.625 16.7627 197.502 15.7861 197.502 14.5166ZM243.083 31.4111L247.233 32.7051C245.036 40.2002 238.005 44.9854 230.29 44.9854C220.256 44.9854 212.541 37.0508 212.541 27.4805C212.541 17.959 220.28 9.95117 230.314 9.95117C238.078 9.95117 244.963 14.8096 247.233 22.2559L243.083 23.5254C241.398 17.9346 236.271 13.9795 230.314 13.9795C222.966 13.9795 217.058 19.8633 217.058 27.4805C217.058 34.7803 222.673 40.9814 230.314 40.9814C236.296 40.9814 241.35 37.1729 243.083 31.4111ZM256.315 40.9814H267.082C270.109 40.9814 273.112 38.6377 273.112 35.1221C273.112 31.8994 270.427 29.2627 267.082 29.2627H256.315V40.9814ZM264.079 13.9795H256.315V25.4785H264.323C267.253 25.3809 270.109 23.0859 270.109 19.7168C270.109 16.5674 267.424 13.9795 264.079 13.9795ZM274.138 19.79C274.138 22.4512 272.868 24.8193 270.769 26.5283C274.504 27.749 277.409 30.8984 277.409 35.1953C277.409 40.7861 273.112 44.9854 267.546 44.9854H251.945V10H264.299C269.67 10 274.138 14.0527 274.138 19.79ZM282.194 9.97559H305.363V14.0771H286.564V23.8184H300.944V27.8955H286.564V40.9082H305.363V44.9854H282.194V9.97559ZM313.859 25.5029H324.626C327.653 25.5029 330.656 23.208 330.656 19.79C330.656 16.6406 327.946 14.0771 324.626 14.0771H313.859V25.5029ZM309.489 10H325.09C330.485 10.0244 334.953 13.9795 334.953 19.79C334.953 25.1611 330.656 29.5068 325.09 29.5068H313.859V44.9854H309.489V10ZM362.126 9.97559H366.521V44.9854H362.126V27.8955H343.303V44.9854H338.933V9.97559H343.303V23.7939H362.126V9.97559ZM374.626 39.8828C375.48 40.3711 376.384 40.6152 377.36 40.6152C379.362 40.6396 381.169 39.6387 382.829 36.6357L384.66 33.3154L371.989 9.97559H376.726L387.028 28.9453L397.404 9.97559H402.141L386.857 37.9785C384.929 41.543 381.975 45.0098 377.36 44.9854C375.676 44.9854 374.089 44.5703 372.502 43.6914L374.626 39.8828ZM414.787 9.97559H437.321V44.9854H432.951V14.0771H419.133V35.0977C419.133 37.832 418.181 40.1758 416.252 42.1045C414.323 44.0332 411.979 44.9854 409.245 44.9854C407.512 44.9854 405.876 44.5703 404.362 43.6914L406.486 39.8828C407.341 40.3711 408.269 40.6152 409.245 40.6152C410.783 40.6152 412.077 40.0537 413.151 38.9795C414.226 37.9053 414.787 36.6113 414.787 35.0732V9.97559ZM453.923 9.97559H484.245V14.0527H471.257V44.9854H466.887V14.0527H453.923V9.97559ZM492.766 25.5029H503.532C506.56 25.5029 509.562 23.208 509.562 19.79C509.562 16.6406 506.853 14.0771 503.532 14.0771H492.766V25.5029ZM488.396 10H503.996C509.392 10.0244 513.859 13.9795 513.859 19.79C513.859 25.1611 509.562 29.5068 503.996 29.5068H492.766V44.9854H488.396V10ZM529.997 9.97559H534.392L548.356 44.9854H543.986L541.325 38.3936H523.039L520.402 44.9854H516.008L529.997 9.97559ZM532.194 15.4688L524.626 34.3652H539.738L532.194 15.4688ZM585.075 10H587.614V44.9854H583.244V17.8125L570.085 34.6582L556.926 17.8125V44.9854H552.556V10H555.095L570.085 28.9453L585.075 10ZM598.112 40.9814H608.879C611.906 40.9814 614.909 38.6377 614.909 35.1221C614.909 31.8994 612.224 29.2627 608.879 29.2627H598.112V40.9814ZM605.876 13.9795H598.112V25.4785H606.12C609.05 25.3809 611.906 23.0859 611.906 19.7168C611.906 16.5674 609.221 13.9795 605.876 13.9795ZM615.935 19.79C615.935 22.4512 614.665 24.8193 612.565 26.5283C616.301 27.749 619.206 30.8984 619.206 35.1953C619.206 40.7861 614.909 44.9854 609.343 44.9854H593.742V10H606.096C611.467 10 615.935 14.0527 615.935 19.79ZM636.149 9.97559H640.544L654.509 44.9854H650.139L647.478 38.3936H629.191L626.555 44.9854H622.16L636.149 9.97559ZM638.347 15.4688L630.778 34.3652H645.891L638.347 15.4688ZM684.172 10H686.711V44.9854H682.365V17.6172L660.124 44.9854H657.585V10H661.955V37.3682L684.172 10ZM675.896 0.0390625L678.923 2.79785C676.506 5.70312 674.113 8.6084 671.721 11.5137L668.693 8.75488C671.11 5.84961 673.503 2.94434 675.896 0.0390625ZM727.556 9.97559H731.95V44.9854H727.556V27.8955H708.732V44.9854H704.362V9.97559H708.732V23.7939H727.556V9.97559ZM750.163 9.97559H754.558L768.522 44.9854H764.152L761.491 38.3936H743.205L740.568 44.9854H736.174L750.163 9.97559ZM752.36 15.4688L744.792 34.3652H759.904L752.36 15.4688ZM787.175 39.8828C788.029 40.3711 788.933 40.6152 789.909 40.6152C791.911 40.6396 793.718 39.6387 795.378 36.6357L797.209 33.3154L784.538 9.97559H789.274L799.577 28.9453L809.953 9.97559H814.689L799.406 37.9785C797.478 41.543 794.523 45.0098 789.909 44.9854C788.225 44.9854 786.638 44.5703 785.051 43.6914L787.175 39.8828ZM827.336 9.97559H849.87V44.9854H845.5V14.0771H831.682V35.0977C831.682 37.832 830.729 40.1758 828.801 42.1045C826.872 44.0332 824.528 44.9854 821.794 44.9854C820.061 44.9854 818.425 44.5703 816.911 43.6914L819.035 39.8828C819.89 40.3711 820.817 40.6152 821.794 40.6152C823.332 40.6152 824.626 40.0537 825.7 38.9795C826.774 37.9053 827.336 36.6113 827.336 35.0732V9.97559ZM855.925 10H860.295V37.3682L882.536 10H885.075V44.9854H880.705V17.6172L858.464 44.9854H855.925V10ZM912.639 9.97559H917.033V40.9082H921.965V52.2119H917.595V44.9854H889.714V9.97559H894.084V40.9082H912.639V9.97559ZM929.216 39.8828C930.07 40.3711 930.974 40.6152 931.95 40.6152C933.952 40.6396 935.759 39.6387 937.419 36.6357L939.25 33.3154L926.579 9.97559H931.315L941.618 28.9453L951.994 9.97559H956.73L941.447 37.9785C939.519 41.543 936.564 45.0098 931.95 44.9854C930.266 44.9854 928.679 44.5703 927.092 43.6914L929.216 39.8828ZM971.257 9.97559H1001.58V14.0527H988.591V44.9854H984.221V14.0527H971.257V9.97559ZM1005.73 10H1010.1V37.3682L1032.34 10H1034.88V44.9854H1030.51V17.6172L1008.27 44.9854H1005.73V10ZM1039.08 9.97559H1069.4V14.0527H1056.41V44.9854H1052.04V14.0527H1039.08V9.97559ZM1076.99 27.4805C1076.99 34.7559 1082.58 40.9814 1090.23 40.9814C1097.79 40.9814 1103.43 34.9756 1103.43 27.4805C1103.43 19.9121 1097.67 14.0039 1090.23 14.0039C1082.68 14.0039 1076.99 19.9854 1076.99 27.4805ZM1072.48 27.4805C1072.48 17.2998 1080.78 9.97559 1090.23 9.97559C1100.72 9.97559 1107.98 18.2275 1107.98 27.4805C1107.98 37.8564 1099.58 44.9854 1090.23 44.9854C1080.07 44.9854 1072.48 36.9775 1072.48 27.4805ZM1117.4 40.9814H1128.17C1131.19 40.9814 1134.2 38.6377 1134.2 35.1221C1134.2 31.8994 1131.51 29.2627 1128.17 29.2627H1117.4V40.9814ZM1125.16 13.9795H1117.4V25.4785H1125.41C1128.34 25.3809 1131.19 23.0859 1131.19 19.7168C1131.19 16.5674 1128.51 13.9795 1125.16 13.9795ZM1135.22 19.79C1135.22 22.4512 1133.95 24.8193 1131.85 26.5283C1135.59 27.749 1138.49 30.8984 1138.49 35.1953C1138.49 40.7861 1134.2 44.9854 1128.63 44.9854H1113.03V10H1125.38C1130.75 10 1135.22 14.0527 1135.22 19.79ZM1155.44 9.97559H1159.83L1173.8 44.9854H1169.43L1166.76 38.3936H1148.48L1145.84 44.9854H1141.45L1155.44 9.97559ZM1157.63 15.4688L1150.07 34.3652H1165.18L1157.63 15.4688ZM1177.73 49.3311L1176.43 47.4268C1177.38 46.7188 1177.95 46.2061 1179.12 44.8877C1178 44.5947 1177.19 43.667 1177.19 42.4707C1177.19 41.1279 1178.26 39.9316 1179.68 39.9072C1181.02 39.8828 1182.27 40.9326 1182.27 42.3486C1182.27 44.3018 1181.51 45.9131 1180.02 47.4756C1179.34 48.1592 1178.68 48.7207 1177.73 49.3311Z" fill="white"/>
<path d="M19.7754 79.5029H30.542C33.5693 79.5029 36.5723 77.208 36.5723 73.79C36.5723 70.6406 33.8623 68.0771 30.542 68.0771H19.7754V79.5029ZM15.4053 64H31.0059C36.4014 64.0244 40.8691 67.9795 40.8691 73.79C40.8691 79.1611 36.5723 83.5068 31.0059 83.5068H19.7754V98.9854H15.4053V64ZM57.0068 63.9756H61.4014L75.3662 98.9854H70.9961L68.335 92.3936H50.0488L47.4121 98.9854H43.0176L57.0068 63.9756ZM59.2041 69.4688L51.6357 88.3652H66.748L59.2041 69.4688ZM78.1006 92.7842L80.835 89.7324C84.8145 93.4922 89.0381 94.9082 92.6514 94.9326C98.1445 94.957 102.173 91.8076 102.148 88.292C102.148 83.9219 95.1416 83.1895 91.0889 83.1895H85.791V79.2344H91.0889C94.7021 79.2344 100.391 78.209 100.391 74.1807C100.391 70.1523 96.3623 67.8818 91.748 67.8818C88.501 67.9062 84.9121 68.9805 81.7627 71.2754L79.2725 68.1992C83.4229 65.2451 87.8906 63.9023 91.9678 63.9023C99.0479 63.9023 104.736 68.0527 104.736 74.2783C104.761 77.7695 102.441 79.6738 99.1699 80.8457C103.174 82.042 106.519 84.0195 106.519 88.292C106.519 94.0049 100.635 98.9365 93.0176 98.9854C87.9395 99.0098 82.7148 96.8857 78.1006 92.7842ZM115.771 83.4824V94.9082H126.538C129.517 94.9082 132.568 92.6133 132.568 89.1953C132.568 86.0459 129.883 83.4824 126.538 83.4824H115.771ZM115.771 79.4785H127.002C132.349 79.4785 136.865 83.5068 136.865 89.1953C136.865 94.7617 132.568 98.9854 127.002 98.9854H111.401V64H133.618V68.0771H115.771V79.4785ZM145.801 79.5029H156.567C159.595 79.5029 162.598 77.208 162.598 73.79C162.598 70.6406 159.888 68.0771 156.567 68.0771H145.801V79.5029ZM141.431 64H157.031C162.427 64.0244 166.895 67.9795 166.895 73.79C166.895 79.1611 162.598 83.5068 157.031 83.5068H145.801V98.9854H141.431V64ZM175.244 83.4824V94.9082H186.035C189.062 94.9082 192.041 92.5889 192.041 89.1953C192.041 86.0459 189.355 83.4824 186.035 83.4824H175.244ZM175.244 79.4785H186.499C191.919 79.4785 196.338 83.5557 196.338 89.1953C196.338 94.7861 192.065 98.9854 186.499 98.9854H170.874V64H175.244V79.4785ZM204.761 64V98.9854H200.415V64H204.761ZM209.351 92.7842L212.085 89.7324C216.064 93.4922 220.288 94.9082 223.901 94.9326C229.395 94.957 233.423 91.8076 233.398 88.292C233.398 83.9219 226.392 83.1895 222.339 83.1895H217.041V79.2344H222.339C225.952 79.2344 231.641 78.209 231.641 74.1807C231.641 70.1523 227.612 67.8818 222.998 67.8818C219.751 67.9062 216.162 68.9805 213.013 71.2754L210.522 68.1992C214.673 65.2451 219.141 63.9023 223.218 63.9023C230.298 63.9023 235.986 68.0527 235.986 74.2783C236.011 77.7695 233.691 79.6738 230.42 80.8457C234.424 82.042 237.769 84.0195 237.769 88.292C237.769 94.0049 231.885 98.9365 224.268 98.9854C219.189 99.0098 213.965 96.8857 209.351 92.7842ZM247.021 98.9854H242.651V63.9756H265.796V68.0771H247.021V98.9854ZM269.8 64H274.17V91.3682L296.411 64H298.95V98.9854H294.58V71.6172L272.339 98.9854H269.8V64ZM309.448 94.9814H320.215C323.242 94.9814 326.245 92.6377 326.245 89.1221C326.245 85.8994 323.56 83.2627 320.215 83.2627H309.448V94.9814ZM317.212 67.9795H309.448V79.4785H317.456C320.386 79.3809 323.242 77.0859 323.242 73.7168C323.242 70.5674 320.557 67.9795 317.212 67.9795ZM327.271 73.79C327.271 76.4512 326.001 78.8193 323.901 80.5283C327.637 81.749 330.542 84.8984 330.542 89.1953C330.542 94.7861 326.245 98.9854 320.679 98.9854H305.078V64H317.432C322.803 64 327.271 68.0527 327.271 73.79ZM347.485 63.9756H351.88L365.845 98.9854H361.475L358.813 92.3936H340.527L337.891 98.9854H333.496L347.485 63.9756ZM349.683 69.4688L342.114 88.3652H357.227L349.683 69.4688ZM391.943 79.5029V68.0771H381.177C378.149 68.0771 375.146 70.3721 375.146 73.79C375.146 76.915 377.832 79.5029 381.152 79.5029H391.943ZM391.943 83.5068H382.886L373.853 98.9854H368.921L378.174 83.1162C373.926 82.0664 370.85 78.5752 370.85 73.79C370.85 68.1992 375.146 64 380.713 64H396.313V98.9854H391.943V83.5068ZM414.771 63.9756H442.358V98.9854H437.988V68.0771H419.141V98.9854H414.771V63.9756ZM451.855 81.4805C451.855 88.7559 457.446 94.9814 465.088 94.9814C472.656 94.9814 478.296 88.9756 478.296 81.4805C478.296 73.9121 472.534 68.0039 465.088 68.0039C457.544 68.0039 451.855 73.9854 451.855 81.4805ZM447.339 81.4805C447.339 71.2998 455.64 63.9756 465.088 63.9756C475.586 63.9756 482.837 72.2275 482.837 81.4805C482.837 91.8564 474.438 98.9854 465.088 98.9854C454.932 98.9854 447.339 90.9775 447.339 81.4805ZM523.413 63.9756H527.808V98.9854H523.413V81.8955H504.59V98.9854H500.22V63.9756H504.59V77.7939H523.413V63.9756ZM533.862 63.9756H557.031V68.0771H538.232V77.8184H552.612V81.8955H538.232V94.9082H557.031V98.9854H533.862V63.9756ZM565.527 83.4824V94.9082H576.294C579.272 94.9082 582.324 92.6133 582.324 89.1953C582.324 86.0459 579.639 83.4824 576.294 83.4824H565.527ZM565.527 79.4785H576.758C582.104 79.4785 586.621 83.5068 586.621 89.1953C586.621 94.7617 582.324 98.9854 576.758 98.9854H561.157V64H583.374V68.0771H565.527V79.4785ZM593.237 93.8828C594.092 94.3711 594.995 94.6152 595.972 94.6152C597.974 94.6396 599.78 93.6387 601.44 90.6357L603.271 87.3154L590.601 63.9756H595.337L605.64 82.9453L616.016 63.9756H620.752L605.469 91.9785C603.54 95.543 600.586 99.0098 595.972 98.9854C594.287 98.9854 592.7 98.5703 591.113 97.6914L593.237 93.8828ZM666.577 85.4111L670.728 86.7051C668.53 94.2002 661.499 98.9854 653.784 98.9854C643.75 98.9854 636.035 91.0508 636.035 81.4805C636.035 71.959 643.774 63.9512 653.809 63.9512C661.572 63.9512 668.457 68.8096 670.728 76.2559L666.577 77.5254C664.893 71.9346 659.766 67.9795 653.809 67.9795C646.46 67.9795 640.552 73.8633 640.552 81.4805C640.552 88.7803 646.167 94.9814 653.809 94.9814C659.79 94.9814 664.844 91.1729 666.577 85.4111ZM675.366 64H679.736V91.3682L701.978 64H704.517V98.9854H700.146V71.6172L677.905 98.9854H675.366V64ZM714.941 79.5029H725.708C728.735 79.5029 731.738 77.208 731.738 73.79C731.738 70.6406 729.028 68.0771 725.708 68.0771H714.941V79.5029ZM710.571 64H726.172C731.567 64.0244 736.035 67.9795 736.035 73.79C736.035 79.1611 731.738 83.5068 726.172 83.5068H714.941V98.9854H710.571V64ZM740.015 63.9756H763.184V68.0771H744.385V77.8184H758.765V81.8955H744.385V94.9082H763.184V98.9854H740.015V63.9756ZM790.503 63.9756H794.897V98.9854H790.503V81.8955H771.68V98.9854H767.31V63.9756H771.68V77.7939H790.503V63.9756ZM805.322 83.4824V94.9082H816.089C819.116 94.9082 822.119 92.6133 822.119 89.1953C822.119 86.0459 819.458 83.4824 816.089 83.4824H805.322ZM805.322 79.4785H816.553C821.973 79.4785 826.416 83.5312 826.416 89.1953C826.416 94.7861 822.119 98.9854 816.553 98.9854H800.952V64H805.322V79.4785ZM834.497 96.4463C834.497 97.7891 833.398 98.9854 831.958 98.9854C830.615 98.9854 829.419 97.8867 829.419 96.4463C829.419 95.1279 830.518 93.9072 831.958 93.9072C833.301 93.9072 834.497 95.0059 834.497 96.4463Z" fill="white"/>
<path d="M494.003 118H498.373V145.368L520.614 118H523.153V152.985H518.783V125.617L496.542 152.985H494.003V118ZM545.053 135.48C545.053 142.756 550.644 148.981 558.285 148.981C565.854 148.981 571.493 142.976 571.493 135.48C571.493 127.912 565.731 122.004 558.285 122.004C550.741 122.004 545.053 127.985 545.053 135.48ZM540.536 135.48C540.536 125.3 548.837 117.976 558.285 117.976C568.783 117.976 576.034 126.228 576.034 135.48C576.034 145.856 567.636 152.985 558.285 152.985C548.129 152.985 540.536 144.978 540.536 135.48ZM585.385 137.482V148.908H596.151C599.13 148.908 602.182 146.613 602.182 143.195C602.182 140.046 599.496 137.482 596.151 137.482H585.385ZM585.385 133.479H596.615C601.962 133.479 606.479 137.507 606.479 143.195C606.479 148.762 602.182 152.985 596.615 152.985H581.015V118H603.231V122.077H585.385V133.479ZM619.711 117.976H642.245V152.985H637.875V122.077H624.057V143.098C624.057 145.832 623.104 148.176 621.176 150.104C619.247 152.033 616.903 152.985 614.169 152.985C612.436 152.985 610.8 152.57 609.286 151.691L611.41 147.883C612.265 148.371 613.192 148.615 614.169 148.615C615.707 148.615 617.001 148.054 618.075 146.979C619.149 145.905 619.711 144.611 619.711 143.073V117.976ZM660.458 117.976H664.853L678.817 152.985H674.447L671.786 146.394H653.5L650.863 152.985H646.469L660.458 117.976ZM662.655 123.469L655.087 142.365H670.199L662.655 123.469ZM701.4 117.951H706.796C701.693 122.907 696.566 127.839 691.464 132.771L709.652 152.985H704.281C698.642 146.76 693.026 140.485 687.387 134.26V152.985H683.017V117.951H687.387V131.428L701.4 117.951ZM726.571 117.976H730.966L744.931 152.985H740.561L737.899 146.394H719.613L716.977 152.985H712.582L726.571 117.976ZM728.769 123.469L721.2 142.365H736.312L728.769 123.469ZM761.459 140.729V136.677H791.537V140.729H761.459ZM809.921 118H814.291V145.368L836.532 118H839.071V152.985H834.701V125.617L812.46 152.985H809.921V118ZM879.428 133.503V122.077H868.661C865.634 122.077 862.631 124.372 862.631 127.79C862.631 130.915 865.316 133.503 868.637 133.503H879.428ZM879.428 137.507H870.37L861.337 152.985H856.405L865.658 137.116C861.41 136.066 858.334 132.575 858.334 127.79C858.334 122.199 862.631 118 868.197 118H883.798V152.985H879.428V137.507ZM931.698 139.411L935.849 140.705C933.651 148.2 926.62 152.985 918.905 152.985C908.871 152.985 901.156 145.051 901.156 135.48C901.156 125.959 908.896 117.951 918.93 117.951C926.693 117.951 933.578 122.81 935.849 130.256L931.698 131.525C930.014 125.935 924.887 121.979 918.93 121.979C911.581 121.979 905.673 127.863 905.673 135.48C905.673 142.78 911.288 148.981 918.93 148.981C924.911 148.981 929.965 145.173 931.698 139.411ZM951.034 117.976H981.356V122.053H968.368V152.985H963.998V122.053H951.034V117.976ZM988.949 135.48C988.949 142.756 994.54 148.981 1002.18 148.981C1009.75 148.981 1015.39 142.976 1015.39 135.48C1015.39 127.912 1009.63 122.004 1002.18 122.004C994.638 122.004 988.949 127.985 988.949 135.48ZM984.433 135.48C984.433 125.3 992.733 117.976 1002.18 117.976C1012.68 117.976 1019.93 126.228 1019.93 135.48C1019.93 145.856 1011.53 152.985 1002.18 152.985C992.025 152.985 984.433 144.978 984.433 135.48ZM1029.28 137.482V148.908H1040.05C1043.03 148.908 1046.08 146.613 1046.08 143.195C1046.08 140.046 1043.39 137.482 1040.05 137.482H1029.28ZM1029.28 133.479H1040.51C1045.86 133.479 1050.38 137.507 1050.38 143.195C1050.38 148.762 1046.08 152.985 1040.51 152.985H1024.91V118H1047.13V122.077H1029.28V133.479ZM1058.38 135.48C1058.38 142.756 1063.97 148.981 1071.62 148.981C1079.18 148.981 1084.82 142.976 1084.82 135.48C1084.82 127.912 1079.06 122.004 1071.62 122.004C1064.07 122.004 1058.38 127.985 1058.38 135.48ZM1053.87 135.48C1053.87 125.3 1062.17 117.976 1071.62 117.976C1082.11 117.976 1089.36 126.228 1089.36 135.48C1089.36 145.856 1080.97 152.985 1071.62 152.985C1061.46 152.985 1053.87 144.978 1053.87 135.48ZM1122.49 122.004C1115.29 122.004 1109.36 127.863 1109.36 135.48C1109.36 142.658 1114.8 148.957 1122.49 148.957C1129.72 148.957 1135.63 143.073 1135.63 135.48C1135.63 128.156 1130.23 122.126 1122.49 122.004ZM1122.49 117.976C1132.06 117.976 1140.07 125.715 1140.07 135.48C1140.07 145.051 1132.26 152.985 1122.49 152.985C1113.68 152.985 1106.43 146.662 1105.06 137.531H1098.71V152.985H1094.34V117.976H1098.71V133.454H1105.06C1106.21 124.592 1113.39 118.024 1122.49 117.976ZM1187.07 139.411L1191.22 140.705C1189.02 148.2 1181.99 152.985 1174.28 152.985C1164.24 152.985 1156.53 145.051 1156.53 135.48C1156.53 125.959 1164.27 117.951 1174.3 117.951C1182.06 117.951 1188.95 122.81 1191.22 130.256L1187.07 131.525C1185.38 125.935 1180.26 121.979 1174.3 121.979C1166.95 121.979 1161.04 127.863 1161.04 135.48C1161.04 142.78 1166.66 148.981 1174.3 148.981C1180.28 148.981 1185.34 145.173 1187.07 139.411ZM1219.05 117.976H1223.45V152.985H1219.05V135.896H1200.23V152.985H1195.86V117.976H1200.23V131.794H1219.05V117.976ZM1232.94 135.48C1232.94 142.756 1238.53 148.981 1246.18 148.981C1253.74 148.981 1259.38 142.976 1259.38 135.48C1259.38 127.912 1253.62 122.004 1246.18 122.004C1238.63 122.004 1232.94 127.985 1232.94 135.48ZM1228.43 135.48C1228.43 125.3 1236.73 117.976 1246.18 117.976C1256.67 117.976 1263.92 126.228 1263.92 135.48C1263.92 145.856 1255.53 152.985 1246.18 152.985C1236.02 152.985 1228.43 144.978 1228.43 135.48ZM1273.35 148.981H1284.12C1287.14 148.981 1290.15 146.638 1290.15 143.122C1290.15 139.899 1287.46 137.263 1284.12 137.263H1273.35V148.981ZM1281.11 121.979H1273.35V133.479H1281.36C1284.29 133.381 1287.14 131.086 1287.14 127.717C1287.14 124.567 1284.46 121.979 1281.11 121.979ZM1291.17 127.79C1291.17 130.451 1289.9 132.819 1287.8 134.528C1291.54 135.749 1294.44 138.898 1294.44 143.195C1294.44 148.786 1290.15 152.985 1284.58 152.985H1268.98V118H1281.33C1286.7 118 1291.17 122.053 1291.17 127.79ZM1311.39 117.976H1315.78L1329.75 152.985H1325.38L1322.71 146.394H1304.43L1301.79 152.985H1297.4L1311.39 117.976ZM1313.58 123.469L1306.01 142.365H1321.13L1313.58 123.469ZM1346.27 140.729V136.677H1376.35V140.729H1346.27Z" fill="white"/>
<path d="M148.17 171.976H170.704V206.985H166.334V176.077H152.516V197.098C152.516 199.832 151.563 202.176 149.635 204.104C147.706 206.033 145.362 206.985 142.628 206.985C140.895 206.985 139.259 206.57 137.745 205.691L139.869 201.883C140.724 202.371 141.651 202.615 142.628 202.615C144.166 202.615 145.46 202.054 146.534 200.979C147.608 199.905 148.17 198.611 148.17 197.073V171.976ZM176.759 171.976H199.928V176.077H181.129V185.818H195.509V189.896H181.129V202.908H199.928V206.985H176.759V171.976ZM202.198 171.976H232.521V176.053H219.532V206.985H215.162V176.053H202.198V171.976ZM258.57 187.503V176.077H247.804C244.776 176.077 241.773 178.372 241.773 181.79C241.773 184.915 244.459 187.503 247.779 187.503H258.57ZM258.57 191.507H249.513L240.479 206.985H235.548L244.801 191.116C240.553 190.066 237.477 186.575 237.477 181.79C237.477 176.199 241.773 172 247.34 172H262.94V206.985H258.57V191.507ZM267.14 171.976H297.462V176.053H284.474V206.985H280.104V176.053H267.14V171.976ZM337.208 171.976H341.603V206.985H337.208V189.896H318.385V206.985H314.015V171.976H318.385V185.794H337.208V171.976ZM359.815 171.976H364.21L378.175 206.985H373.805L371.144 200.394H352.857L350.221 206.985H345.826L359.815 171.976ZM362.013 177.469L354.444 196.365H369.557L362.013 177.469ZM407.057 176.053H394.19C394.166 184.378 393.873 194.461 389.747 202.884H407.057V176.053ZM411.427 171.976V202.884H416.188V214.212H411.817V206.985H385.499V214.212H381.129V202.884H384.986C389.723 194.9 389.82 182.132 389.894 171.976H411.427ZM438.258 206.985H433.888V171.976H457.032V176.077H438.258V206.985ZM464.479 189.48C464.479 196.756 470.069 202.981 477.711 202.981C485.279 202.981 490.919 196.976 490.919 189.48C490.919 181.912 485.157 176.004 477.711 176.004C470.167 176.004 464.479 181.985 464.479 189.48ZM459.962 189.48C459.962 179.3 468.263 171.976 477.711 171.976C488.209 171.976 495.46 180.228 495.46 189.48C495.46 199.856 487.062 206.985 477.711 206.985C467.555 206.985 459.962 198.978 459.962 189.48ZM509.107 171.976H531.642V206.985H527.271V176.077H513.453V197.098C513.453 199.832 512.501 202.176 510.572 204.104C508.644 206.033 506.3 206.985 503.565 206.985C501.832 206.985 500.196 206.57 498.683 205.691L500.807 201.883C501.661 202.371 502.589 202.615 503.565 202.615C505.104 202.615 506.397 202.054 507.472 200.979C508.546 199.905 509.107 198.611 509.107 197.073V171.976ZM541.139 189.48C541.139 196.756 546.729 202.981 554.371 202.981C561.939 202.981 567.579 196.976 567.579 189.48C567.579 181.912 561.817 176.004 554.371 176.004C546.827 176.004 541.139 181.985 541.139 189.48ZM536.622 189.48C536.622 179.3 544.923 171.976 554.371 171.976C564.869 171.976 572.12 180.228 572.12 189.48C572.12 199.856 563.722 206.985 554.371 206.985C544.215 206.985 536.622 198.978 536.622 189.48ZM581.544 202.981H592.311C595.338 202.981 598.341 200.638 598.341 197.122C598.341 193.899 595.655 191.263 592.311 191.263H581.544V202.981ZM589.308 175.979H581.544V187.479H589.552C592.481 187.381 595.338 185.086 595.338 181.717C595.338 178.567 592.652 175.979 589.308 175.979ZM599.366 181.79C599.366 184.451 598.097 186.819 595.997 188.528C599.732 189.749 602.638 192.898 602.638 197.195C602.638 202.786 598.341 206.985 592.774 206.985H577.174V172H589.527C594.898 172 599.366 176.053 599.366 181.79ZM610.865 189.48C610.865 196.756 616.456 202.981 624.098 202.981C631.666 202.981 637.306 196.976 637.306 189.48C637.306 181.912 631.544 176.004 624.098 176.004C616.554 176.004 610.865 181.985 610.865 189.48ZM606.349 189.48C606.349 179.3 614.649 171.976 624.098 171.976C634.596 171.976 641.847 180.228 641.847 189.48C641.847 199.856 633.448 206.985 624.098 206.985C613.941 206.985 606.349 198.978 606.349 189.48ZM674.977 176.004C667.774 176.004 661.842 181.863 661.842 189.48C661.842 196.658 667.286 202.957 674.977 202.957C682.203 202.957 688.111 197.073 688.111 189.48C688.111 182.156 682.716 176.126 674.977 176.004ZM674.977 171.976C684.547 171.976 692.555 179.715 692.555 189.48C692.555 199.051 684.742 206.985 674.977 206.985C666.163 206.985 658.912 200.662 657.545 191.531H651.197V206.985H646.827V171.976H651.197V187.454H657.545C658.692 178.592 665.87 172.024 674.977 171.976ZM697.438 211.331L696.144 209.427C697.096 208.719 697.657 208.206 698.829 206.888C697.706 206.595 696.9 205.667 696.9 204.471C696.9 203.128 697.975 201.932 699.391 201.907C700.733 201.883 701.979 202.933 701.979 204.349C701.979 206.302 701.222 207.913 699.732 209.476C699.049 210.159 698.39 210.721 697.438 211.331ZM743.385 176.053H730.519C730.494 184.378 730.201 194.461 726.075 202.884H743.385V176.053ZM747.755 171.976V202.884H752.516V214.212H748.146V206.985H721.827V214.212H717.457V202.884H721.314C726.051 194.9 726.148 182.132 726.222 171.976H747.755ZM761.256 189.48C761.256 196.756 766.847 202.981 774.488 202.981C782.057 202.981 787.696 196.976 787.696 189.48C787.696 181.912 781.935 176.004 774.488 176.004C766.944 176.004 761.256 181.985 761.256 189.48ZM756.739 189.48C756.739 179.3 765.04 171.976 774.488 171.976C784.986 171.976 792.237 180.228 792.237 189.48C792.237 199.856 783.839 206.985 774.488 206.985C764.332 206.985 756.739 198.978 756.739 189.48ZM801.588 191.482V202.908H812.354C815.333 202.908 818.385 200.613 818.385 197.195C818.385 194.046 815.699 191.482 812.354 191.482H801.588ZM801.588 187.479H812.818C818.165 187.479 822.682 191.507 822.682 197.195C822.682 202.762 818.385 206.985 812.818 206.985H797.218V172H819.435V176.077H801.588V187.479ZM831.617 187.503H842.384C845.411 187.503 848.414 185.208 848.414 181.79C848.414 178.641 845.704 176.077 842.384 176.077H831.617V187.503ZM827.247 172H842.848C848.243 172.024 852.711 175.979 852.711 181.79C852.711 187.161 848.414 191.507 842.848 191.507H831.617V206.985H827.247V172ZM861.061 191.482V202.908H871.852C874.879 202.908 877.857 200.589 877.857 197.195C877.857 194.046 875.172 191.482 871.852 191.482H861.061ZM861.061 187.479H872.315C877.735 187.479 882.154 191.556 882.154 197.195C882.154 202.786 877.882 206.985 872.315 206.985H856.69V172H861.061V187.479ZM890.577 172V206.985H886.231V172H890.577ZM922.096 172H924.635V206.985H920.289V179.617L898.048 206.985H895.509V172H899.879V199.368L922.096 172ZM913.819 162.039L916.847 164.798C914.43 167.703 912.037 170.608 909.645 173.514L906.617 170.755C909.034 167.85 911.427 164.944 913.819 162.039ZM966.969 176.053H954.103C954.078 184.378 953.785 194.461 949.659 202.884H966.969V176.053ZM971.339 171.976V202.884H976.1V214.212H971.729V206.985H945.411V214.212H941.041V202.884H944.898C949.635 194.9 949.732 182.132 949.806 171.976H971.339ZM981.397 171.976H1004.57V176.077H985.768V185.818H1000.15V189.896H985.768V202.908H1004.57V206.985H981.397V171.976ZM1031.89 171.976H1036.28V206.985H1031.89V189.896H1013.06V206.985H1008.69V171.976H1013.06V185.794H1031.89V171.976ZM1046.71 191.482V202.908H1057.47C1060.5 202.908 1063.5 200.613 1063.5 197.195C1063.5 194.046 1060.84 191.482 1057.47 191.482H1046.71ZM1046.71 187.479H1057.94C1063.36 187.479 1067.8 191.531 1067.8 197.195C1067.8 202.786 1063.5 206.985 1057.94 206.985H1042.33V172H1046.71V187.479ZM1075.42 171.976L1075.17 198.807H1071.27L1071.02 171.976H1075.42ZM1075.76 204.446C1075.76 205.789 1074.66 206.985 1073.22 206.985C1071.88 206.985 1070.68 205.887 1070.68 204.446C1070.68 203.128 1071.78 201.907 1073.22 201.907C1074.59 201.907 1075.73 203.006 1075.76 204.446ZM1085.11 172.366C1085.11 174.661 1083.64 177.005 1080.98 178.763L1079.83 177.005C1080.79 176.346 1081.71 175.491 1082.28 174.686C1081.23 174.417 1080.52 173.538 1080.52 172.464C1080.52 171.194 1081.54 170.12 1082.79 170.12C1083.99 170.12 1085.11 171.072 1085.11 172.366ZM1090.87 172.366C1090.87 174.71 1089.33 177.078 1086.74 178.763L1085.57 177.029C1086.48 176.419 1087.23 175.687 1088.01 174.686C1086.94 174.417 1086.28 173.514 1086.28 172.464C1086.28 171.194 1087.28 170.12 1088.53 170.12C1089.72 170.12 1090.87 171.072 1090.87 172.366Z" fill="white"/>
</svg>
